<svg width="360" height="359" viewBox="0 0 360 359" fill="none" xmlns="http://www.w3.org/2000/svg">
<path d="M179.224 355.722C276.732 355.722 355.777 276.677 355.777 179.169C355.777 81.6614 276.732 2.61597 179.224 2.61597C81.7165 2.61597 2.67102 81.6614 2.67102 179.169C2.67102 276.677 81.7165 355.722 179.224 355.722Z" fill="white"/>
<path d="M293.965 194.183L285.181 196.888L287.168 197.699L284.092 199.647C284.419 197.855 284.737 196.058 284.986 194.242L289.8 190.219L289.912 192.338L295.332 184.931L286.982 188.764L289.038 189.301L285.2 192.514C285.473 190.297 285.664 188.066 285.81 185.82L290.551 180.571L290.951 182.661L295.331 174.595L287.553 179.507L289.692 179.746L285.908 183.823C285.942 182.412 285.986 181.015 285.986 179.604C285.986 169.023 284.428 158.808 281.543 149.155C276.743 149.599 271.929 148.066 269.619 147.622C275.766 151.226 277.895 155.122 278.808 159.6C273.891 160.699 267.314 159.087 263.71 156.27C267.235 159.346 269.457 164.19 269.613 169.185C264.54 169.439 259.857 167.066 256.415 163.609C258.622 166.075 261.415 172.31 260.761 176.749C256.518 176.295 251.547 173.517 248.827 170.206C251.078 175.167 252.147 179.19 251.874 183.634C247.67 182.838 244.477 181.647 240.707 178.043C242.523 182.574 243.192 187.135 242.782 190.875C237.924 189.156 234.691 187.208 231.952 182.633C233.412 186.676 234.359 191.974 233.353 195.074C229.237 193.839 226.512 191.358 224.378 187.154C226.492 191.617 226.224 196.802 225.521 199.488C223.792 199.151 221.537 197.955 220.36 196.632C220.287 197.447 220.228 198.229 220.194 198.99C219.974 202.008 219.383 204.835 218.397 207.428C218.739 207.799 219.554 208.751 219.579 208.79C221.742 211.114 224.706 213.326 227.04 214.068C226.029 214.214 224.647 215.079 223.256 215.24C224.799 216.988 227.944 217.379 229.887 219.366C228.378 219.547 228.022 220.64 226.181 220.435C229.687 223.145 232.9 223.233 234.692 223.448C235.42 223.526 237.778 223.751 239.272 223.516C241.386 223.194 243.564 224.244 244.409 224.732C245.708 225.494 245.639 227.281 245.381 228.189C245.225 228.726 244.995 229.371 244.019 229.874C243.462 230.04 243.096 230.089 243.663 229.669C244.171 229.298 244.635 227.032 243.463 226.144C242.604 225.519 241.393 225.001 239.967 225.075C238.385 225.148 235.968 225.28 234.796 225.173C233.727 225.051 233.053 226.462 232.901 227.058C232.52 228.469 232.081 230.212 230.045 229.348C227.54 227.912 223.981 228.035 219.889 226.379C220.465 227.634 220.221 228.728 220.846 230.134C217.199 229.236 216.276 227.38 212.799 226.159C213.38 227.424 213.209 228.415 213.995 229.606C211.07 229.098 208.341 226.461 204.273 225.377C204.141 225.416 204.029 225.47 203.907 225.494C202.428 225.938 201.065 226.358 199.83 226.754C202.711 230.016 205.094 234.02 206.207 238.863C206.207 238.863 204.176 238.922 201.173 237.877C202.032 240.523 202.56 243.36 202.609 246.398C202.609 246.398 200.329 245.978 197.199 244.035C197.487 246.911 197.385 249.904 196.784 252.975C196.784 252.975 194.147 251.886 191.032 248.722C190.671 251.691 189.933 254.684 188.659 257.672C188.659 257.672 186.242 256.036 183.776 252.223C182.76 255.197 181.33 258.117 179.372 260.905C179.372 260.905 176.745 258.141 174.963 252.575C172.59 256.144 170.329 257.673 170.329 257.673C169.055 254.685 168.308 251.692 167.946 248.708C164.836 251.887 162.199 252.976 162.199 252.976C161.589 249.905 161.491 246.912 161.769 244.036C158.649 245.979 156.349 246.399 156.349 246.399C156.403 243.362 156.93 240.525 157.809 237.878C154.787 238.923 152.76 238.864 152.76 238.864C153.907 233.923 157.145 228.84 159.323 226.559C158.254 226.217 157.111 225.875 155.866 225.495C155.749 225.471 155.637 225.417 155.495 225.378C151.432 226.462 148.713 229.099 145.773 229.607C146.549 228.416 146.398 227.424 146.969 226.16C143.507 227.381 142.57 229.236 138.942 230.135C139.547 228.729 139.303 227.635 139.899 226.38C136.515 228.035 131.891 229.183 129.845 229.622C127.574 230.091 127.443 226.717 126.7 225.97C126.383 225.648 124.556 225.516 123.795 225.633C122.667 225.823 120.484 225.726 118.854 225.696C117.213 225.662 116.085 226.145 115.241 226.8C114.035 227.669 114.606 230.028 115.124 230.413C115.686 230.818 115.339 230.765 114.777 230.613C113.81 230.115 113.561 229.461 113.405 228.924C113.166 228.035 113.073 226.238 114.391 225.496C115.221 224.983 117.413 223.938 119.533 224.266C121.017 224.495 123.371 224.266 124.084 224.183C124.802 224.1 130.09 223.148 133.581 220.438C131.75 220.643 131.393 219.549 129.87 219.369C131.833 217.382 134.973 216.991 136.511 215.243C135.134 215.082 133.913 213.978 132.903 213.822C135.984 212.113 138.025 211.117 140.198 208.793C140.222 208.754 141.033 207.841 141.355 207.465C140.374 204.872 139.768 202.011 139.558 198.993C139.509 198.256 139.46 197.499 139.407 196.722C138.655 197.557 137.102 198.397 134.583 199.305C133.406 196.444 133.968 191.107 135.472 186.971C133.319 191.18 130.902 193.919 126.776 195.15C125.77 192.064 126.376 186.678 127.816 182.635C125.082 187.21 122.157 189.534 117.284 191.253C116.874 187.518 117.264 182.576 119.066 178.045C115.306 181.649 112.108 182.84 107.894 183.636C107.635 179.193 108.709 175.169 110.941 170.208C108.246 173.519 102.635 175.784 98.392 176.238C98.719 172.385 101.419 167.117 102.992 164.031C99.003 166.892 94.755 168.943 90.16 169.187C90.736 164.817 92.689 160.09 96.058 156.272C92.098 159.207 86.058 160.789 81.507 160.168C82.606 155.373 85.56 150.7 89.539 148.19C87.229 148.649 83.045 149.601 78.226 149.157C75.389 158.659 73.836 168.713 73.797 179.118C71.39 177.228 69.71 176.75 68.065 175.119C68.368 177.375 68.666 178.605 68.91 181.389C69.354 186.409 71.264 189.28 74.413 191.081C74.555 192.507 74.74 193.918 74.95 195.334C72.621 193.845 69.491 192.917 65.37 192.966C67.875 201.135 71.464 201.745 76.268 202.512C76.434 203.264 76.615 204.006 76.79 204.748C74.231 204.079 71.15 204.069 67.654 205.036C70.071 208.791 73.425 211.052 78.777 211.857C78.787 211.891 78.801 211.916 78.821 211.95C75.525 211.686 71.961 212.175 69.109 213.62C73.172 217.116 77.166 218.449 80.969 218.044C81.164 218.552 81.36 219.05 81.565 219.548C78.557 220.344 75.901 221.902 74.417 223.357C77.586 224.358 80.838 224.89 83.777 224.587C83.797 224.66 83.84 224.729 83.865 224.802C82.146 226.12 80.652 228.249 79.715 231.574C81.976 231.012 84.295 230.856 86.605 230.197C87.064 231.061 87.538 231.901 88.031 232.736C86.81 235.055 86.385 237.965 87.098 241.198C89.041 240.739 90.638 239.987 91.966 239.015C92.42 239.689 92.879 240.348 93.358 241.022C92.87 244.723 93.724 248.444 95.921 250.924C96.951 249.767 97.776 248.653 98.436 247.589C117.889 270.895 147.157 285.719 179.881 285.719C225.54 285.719 264.456 256.871 279.422 216.427L284.241 214.337L283.875 216.446L290.828 210.43L281.824 212.295L283.719 213.272L280.013 214.8C280.662 212.94 281.273 211.035 281.825 209.131L287.103 206.206L286.917 208.35L293.304 201.719L284.51 204.38L286.492 205.21L282.263 207.529C282.829 205.464 283.342 203.359 283.777 201.255L287.796 198.706L287.625 200.83L293.965 194.183Z" fill="black"/>
<path d="M288.892 115.033C286.88 115.721 284.873 116.273 282.925 116.703C294.097 134.994 300.523 156.483 300.523 179.486C300.523 246.102 246.514 300.106 179.913 300.106C113.287 300.106 59.293 246.102 59.293 179.486C59.293 155.472 66.3 133.104 78.39 114.305C76.476 113.758 74.591 113.026 72.711 112.127C60.426 131.634 53.312 154.734 53.312 179.485C53.312 249.392 110.001 306.082 179.914 306.082C249.816 306.082 306.501 249.393 306.501 179.485C306.499 155.946 300.083 133.91 288.892 115.033Z" fill="black"/>
<path d="M109.771 81.332C129.542 67.186 153.75 58.852 179.913 58.852C209.117 58.852 235.914 69.248 256.788 86.533C259.137 85.864 261.432 85.254 263.78 84.658C241.441 64.892 212.076 52.89 179.913 52.89C151.065 52.89 124.469 62.543 103.184 78.788C104.19 79.154 105.205 79.52 106.236 79.916C107.447 80.384 108.638 80.853 109.771 81.332Z" fill="black"/>
<path d="M179.878 347.792C86.939 347.792 11.587 272.426 11.587 179.486C11.587 86.537 86.939 11.19 179.878 11.19C272.827 11.19 348.179 86.537 348.179 179.486C348.179 272.425 272.827 347.792 179.878 347.792ZM179.878 0.0670166C80.796 0.0670166 0.468994 80.404 0.468994 179.486C0.468994 278.573 80.796 358.9 179.878 358.9C278.97 358.9 359.297 278.573 359.297 179.486C359.297 80.404 278.97 0.0670166 179.878 0.0670166Z" fill="#999999"/>
<path d="M136.587 143.519C134.043 142.21 131.812 140.692 129.409 138.504C121.714 131.483 119.888 124.114 122.173 115.648C123.521 110.589 125.581 108.06 124.878 102.792C124.473 99.784 122.334 97.353 120.205 95.307C115.059 90.366 108.955 87.314 99.9411 84.267C94.3651 82.397 78.1731 77.368 71.0351 70.903C69.4041 75.659 72.8561 81.977 76.9871 82.817C73.3351 83.188 70.2291 85.088 68.7791 87.153C71.5331 90.341 77.0211 93.657 81.5521 93.75C79.4621 95.146 76.8941 98.12 76.0491 99.79C79.9701 101.88 86.2301 103.633 91.0391 103.286C89.0131 104.907 87.2601 106.968 86.1221 108.852C89.3641 110.336 95.6971 112.48 101.718 112.929C99.4961 114.023 96.3321 117.812 94.6971 120.146C98.0861 121.655 105.42 122.568 109.97 123.032C106.713 124.741 103.305 128.154 101.43 131.245C104.731 132.827 110.937 134.595 116.005 134.424C113.5 136.831 111.855 139.741 110.912 142.554C114.745 143.345 118.773 143.36 123.456 142.73C120.619 146.329 119.481 151.084 119.086 154.468C122.885 154.37 127.929 153.496 131.488 151.367C130.717 154.272 130.883 158.208 132.142 160.981C133.636 160.639 135.37 160.019 137.259 159.003C136.997 153.592 136.753 148.07 136.587 143.519Z" fill="black"/>
<path d="M291.201 79.623C284.048 86.098 272.617 87.831 260.62 91.796C251.582 94.77 245.972 96.518 237.881 102.968C235.571 104.809 233.369 107.514 233.618 112.162C233.891 117.323 234.726 119.55 234.873 126.766C234.966 131.917 233.188 136.068 231.02 138.504C228.74 141.097 225.776 143.343 223.11 144.734C222.959 149.119 222.758 153.538 222.514 158.665C224.394 159.69 226.796 160.638 228.295 160.979C229.535 158.206 229.711 154.27 228.935 151.365C232.499 153.494 237.553 154.368 241.347 154.466C240.942 151.082 239.809 146.326 236.972 142.728C241.64 143.358 245.678 143.343 249.516 142.552C248.559 139.739 246.909 136.829 244.409 134.422C249.492 134.593 255.683 132.825 258.989 131.243C257.114 128.152 253.716 124.739 250.459 123.03C255.005 122.566 262.544 121.682 265.928 120.169C264.292 117.845 260.908 114.022 258.711 112.928C264.727 112.479 271.045 110.335 274.312 108.851C273.165 106.966 271.407 104.906 269.405 103.285C275.045 102.919 280.455 101.879 284.371 99.789C283.521 98.119 280.968 95.145 278.878 93.749C290.977 90.375 291.177 84.339 291.201 79.623Z" fill="black"/>
<path d="M240.337 92.396C223.189 80.492 202.354 73.495 179.878 73.495C159.409 73.495 140.269 79.32 124.058 89.364C128.262 92.635 130.757 96.097 131.377 99.686C131.899 102.826 132.261 106.62 130.449 112.152C128.525 118.021 127.466 124.051 131.806 130.174C136.113 136.273 141.718 138.9 146.352 139.788C152.436 138.724 159.165 137.854 165.883 137.317C166.747 134.47 169.33 132.004 171.938 129.993C175.703 127.054 174.877 124.495 173.989 122.503C173.281 120.94 171.938 119.681 169.995 118.675C168.301 117.801 162.085 117.142 162.261 121.126C161.24 119.681 160.42 117.737 161.021 115.252C161.851 111.78 167.52 110.906 168.931 111.004C167.837 110.081 168.511 108.597 170.992 107.903C174.01 107.068 176.861 106.941 179.63 107.014C185.309 107.151 186.197 108.547 189.083 111.101C192.555 114.192 197.159 115.266 198.966 113.401C197.662 116.36 193.536 117.932 190.885 117.478C192.179 121.57 192.643 125.124 193.102 129.426C193.317 131.379 193.727 134.66 194.254 137.341C201.857 137.971 209.513 139.016 216.173 140.295C218.932 139.494 221.798 137.878 224.352 134.909C226.798 132.096 229.04 128.517 228.112 119.528C227.848 116.994 226.589 110.524 226.764 107.487C227.158 100.575 232.285 96.073 240.337 92.396Z" fill="black"/>
<path d="M169.883 111.332C170.928 112.128 171.543 112.235 171.89 112.152C171.924 112.352 172.286 112.591 172.354 112.674C172.579 112.869 172.706 113.055 172.759 113.27C173.233 113.07 174.502 112.552 175.664 112.152C176.826 111.713 178.442 111.249 178.442 111.249C173.428 110.184 172.666 111.713 169.883 111.332Z" fill="black"/>
<path d="M320.313 132.025C326.568 129.286 329.395 122.298 326.753 116.273C324.116 110.243 317.075 107.64 310.825 110.384C304.57 113.118 301.689 120.076 304.331 126.112C306.963 132.132 314.063 134.764 320.313 132.025ZM312.857 114.999C317.798 112.826 323.458 113.822 324.888 117.094C326.343 120.405 323.242 125.239 318.286 127.402C313.32 129.58 307.637 128.598 306.186 125.288C304.766 122.02 307.862 117.181 312.857 114.999Z" fill="black"/>
<path d="M311.573 148.324L309.19 138.89L310.64 138.509L311.314 141.151L331.275 136.088L330.591 133.451L332.056 133.085L335.679 147.367L336.651 147.113L337.119 148.993L331.602 150.389L331.138 148.553L333.638 147.919L331.807 140.716L323.628 142.796L325.049 148.338L327.403 147.738L327.901 149.598L321.084 151.327L320.576 149.462L322.998 148.851L321.592 143.309L312.447 145.633L313.028 147.943L311.573 148.324Z" fill="black"/>
<path d="M32.476 123.011L31.617 125.892L44.498 129.73C48.38 130.892 50.411 132.962 50.914 136.273C51.148 137.977 51.017 139.779 50.504 141.556C48.839 147.098 44.718 149.784 39.986 148.387L26.158 144.256L25.372 146.859L23.927 146.424L26.793 136.844L28.224 137.269L27.467 139.842L40.24 143.655C43.707 144.68 45.46 144.534 46.915 143.064C47.56 142.361 48.106 141.433 48.404 140.403C49.639 136.297 47.925 133.181 43.731 131.926L30.987 128.117L30.142 130.969L28.663 130.539L31.041 122.59L32.476 123.011Z" fill="black"/>
<path d="M55.132 128.592C54.605 129.798 53.213 130.369 51.983 129.871C50.772 129.358 50.191 127.947 50.704 126.731C51.217 125.51 52.633 124.929 53.839 125.437C55.064 125.951 55.635 127.352 55.132 128.592Z" fill="black"/>
<path d="M59.575 118.382L58.623 120.091L53.013 116.932L53.98 115.228L56.28 116.527C58.184 115.746 59.185 114.925 60.054 113.397C61.133 111.463 60.762 109.413 59.156 108.5C57.74 107.709 56.256 108.061 52.75 109.906C49.093 111.869 48.575 112.069 47.184 112.357C45.841 112.621 44.371 112.333 42.995 111.561C39.562 109.618 38.703 105.819 40.851 102.025C41.539 100.804 42.267 99.94 43.419 99.042L42.496 98.515L43.438 96.84L48.765 99.828L47.818 101.513L45.66 100.302C44.097 101.147 43.311 101.806 42.672 102.963C41.759 104.579 42.203 106.469 43.658 107.294C44.918 108.002 46.085 107.719 49.683 105.795C51.421 104.882 52.486 104.301 52.93 104.106C53.838 103.657 54.878 103.398 56.021 103.339C57.325 103.285 58.501 103.593 59.717 104.262C63.272 106.259 64.312 110.253 62.266 113.901C61.245 115.703 60.137 116.811 58.482 117.768L59.575 118.382Z" fill="black"/>
<path d="M68.955 102.186C68.955 103.495 67.915 104.535 66.611 104.535C65.307 104.535 64.282 103.495 64.282 102.186C64.282 100.892 65.307 99.8521 66.611 99.8521C67.915 99.8521 68.955 100.892 68.955 102.186Z" fill="black"/>
<path d="M124.263 56.205L109.126 64.003L108.452 62.655L110.865 61.42L101.431 43.119L99.019 44.359L98.335 43.021L111.431 36.278L110.972 35.394L112.676 34.51L115.288 39.554L113.604 40.419L112.427 38.138L105.816 41.537L109.673 49.042L114.766 46.42L113.638 44.261L115.352 43.348L118.574 49.618L116.875 50.521L115.733 48.299L110.64 50.917L114.688 58.768L121.587 55.213L120.381 52.865L122.075 51.991L124.263 56.205Z" fill="black"/>
<path d="M138.828 50.941L128.994 54.212L128.511 52.781L131.094 51.927L124.605 32.381L122.032 33.235L121.558 31.804L131.846 28.406C136.045 27 139.644 28.64 140.933 32.547C142.173 36.243 139.917 40.379 135.943 41.688C135.367 41.888 134.981 41.976 134.044 42.108L133.497 40.433C133.966 40.389 134.146 40.326 134.444 40.243C136.754 39.476 137.496 37.372 136.485 34.359C135.44 31.166 133.624 29.911 131.177 30.731L129.141 31.41L135.474 50.482L138.345 49.525L138.828 50.941Z" fill="black"/>
<path d="M167.881 43.006L166.392 43.255L153.75 22.269L151.611 22.645L146.425 46.732L144.233 47.108L144.497 48.583L151.787 47.318L151.528 45.839L148.711 46.332L150.015 40.233L158.575 38.749L161.754 44.071L159.274 44.491L159.533 45.975L168.132 44.486L167.881 43.006ZM150.489 37.933L152.515 28.504L157.388 36.736L150.489 37.933Z" fill="black"/>
<path d="M192.573 43.021H191.089C190.381 43.021 189.951 42.699 189.116 41.444L184.077 33.631C187.436 32.596 189.082 30.545 189.092 27.318C189.092 25.419 188.535 23.885 187.359 22.689C186.08 21.41 184.351 20.936 181.29 20.921L170.738 20.911V22.405L173.448 22.42L173.414 43.006L170.68 43.001L170.665 44.49L180.694 44.514V43.02H178.004L178.028 34.001L179 34.025L184.342 42.428C185.558 44.318 185.909 44.532 188.019 44.537L192.555 44.552L192.573 43.021ZM178.067 22.933H180.298C182.847 22.938 184.326 24.579 184.317 27.454C184.317 30.262 182.608 32.234 180.142 32.234L178.038 32.21L178.067 22.933Z" fill="black"/>
<path d="M208.745 47.386L197.383 45.467L197.642 43.998L201.05 44.559L204.385 24.862L198.296 23.837L197.793 26.761L195.85 26.429L196.865 20.438L198.814 20.76L198.648 21.752L215.337 24.574L215.523 23.592L217.451 23.91L216.441 29.901L214.488 29.584L215 26.664L208.931 25.629L205.601 45.331L208.985 45.902L208.745 47.386Z" fill="black"/>
<path d="M242.154 58.671L232.237 54.823L232.779 53.426L235.586 54.535L241.172 40.121L227.588 53.407L225.698 34.462L220.22 48.568L223.032 49.642L222.486 51.053L214.776 48.07L215.323 46.664L218.115 47.743L225.572 28.548L222.774 27.464L223.311 26.053L229.209 28.353L231.099 46.908L244.092 34.115L250.664 36.664L250.132 38.08L247.329 36.996L239.893 56.19L242.705 57.269L242.154 58.671Z" fill="black"/>
<path d="M259.556 70.062L245.215 60.897L246.031 59.632L248.306 61.097L259.4 43.729L257.115 42.289L257.906 41.009L270.327 48.939L270.855 48.094L272.486 49.13L269.439 53.934L267.837 52.909L269.224 50.746L262.959 46.732L258.418 53.846L263.238 56.932L264.541 54.881L266.192 55.882L262.393 61.825L260.757 60.814L262.09 58.695L257.281 55.629L252.53 63.065L259.053 67.24L260.484 65.018L262.124 66.053L259.556 70.062Z" fill="black"/>
<path d="M96.387 71.053L94.053 72.752L82.442 56.947L84.879 55.14C88.258 52.669 93.795 54.178 96.905 58.416C100.24 62.943 100.02 68.387 96.387 71.053ZM100.972 55.428C97.056 50.101 89.781 49.066 84.331 53.07L75.342 59.667L76.226 60.883L78.418 59.267L90.586 75.834C91.162 76.063 91.743 76.269 92.31 76.483L98.262 72.103C101.084 70.033 102.569 67.752 103.106 64.681C103.672 61.356 102.915 58.08 100.972 55.428Z" fill="black"/>
<path d="M289.995 65.16L288.989 66.278L291.079 68.163L280.976 79.252L283.525 59.267L278.276 54.467L277.26 55.58L279.169 57.313L278.773 59.427L266.127 73.294L263.944 71.292L262.919 72.4L268.891 77.849L269.907 76.736L267.827 74.832L278.349 63.289L276.088 81.629C278.276 81.053 280.619 80.442 283.124 79.739C283.349 79.676 283.529 79.612 283.739 79.568L292.728 69.69L294.964 71.707L295.975 70.608L289.995 65.16Z" fill="black"/>
<path d="M314.063 91.156L313.272 91.757L302.984 78.295L303.78 77.68L302.589 76.113L297.755 79.814L298.946 81.381L301.309 79.574L305.059 84.491L289.18 96.635L288.365 95.551C287.901 95.805 287.447 96.034 286.973 96.225L292.867 103.925L294.068 103.012L291.988 100.297L307.862 88.144L311.597 93.046L309.239 94.848L310.426 96.401L315.255 92.714L314.063 91.156Z" fill="black"/>
<path d="M209.546 336.634L207.627 337.054L206.245 330.775L208.169 330.35L208.726 332.933C210.577 333.831 211.861 334.037 213.589 333.661C215.747 333.187 217.031 331.557 216.631 329.74C216.289 328.173 215.029 327.264 211.323 325.873C207.427 324.472 206.928 324.213 205.791 323.358C204.692 322.538 203.931 321.254 203.594 319.711C202.754 315.868 205.03 312.694 209.297 311.757C210.65 311.459 211.787 311.444 213.237 311.698L213.003 310.648L214.888 310.243L216.197 316.22L214.312 316.635L213.78 314.238C212.1 313.598 211.094 313.457 209.801 313.735C207.989 314.14 206.862 315.747 207.218 317.378C207.535 318.77 208.527 319.468 212.345 320.884C214.191 321.558 215.333 321.963 215.778 322.158C216.706 322.549 217.609 323.149 218.4 323.965C219.313 324.912 219.875 325.986 220.177 327.359C221.041 331.338 218.756 334.761 214.659 335.66C212.642 336.095 211.08 335.997 209.278 335.406L209.546 336.634Z" fill="black"/>
<path d="M245.889 325.199L230.049 331.424L229.502 330.023L232.027 329.022L224.502 309.857L221.968 310.863L221.431 309.466L235.147 304.071L234.771 303.133L236.568 302.43L238.648 307.723L236.88 308.417L235.952 306.024L228.999 308.744L232.1 316.6L237.422 314.501L236.543 312.245L238.345 311.503L240.899 318.055L239.121 318.812L238.189 316.473L232.876 318.553L236.104 326.776L243.316 323.939L242.354 321.488L244.16 320.785L245.889 325.199Z" fill="black"/>
<path d="M269.717 310.692C267.7 313.216 266.284 314.54 263.96 315.941C257.52 319.847 250.288 318.299 246.602 312.22C242.945 306.195 244.82 298.924 250.962 295.189C252.935 293.983 254.468 293.421 256.719 293.104L255.938 291.83L257.623 290.805L260.934 296.284L259.259 297.305L258.068 295.342C255.578 295.191 254.391 295.445 252.785 296.416C248.537 298.999 247.717 304.341 250.803 309.419C253.806 314.365 259.402 316.245 263.625 313.687C265.148 312.749 266.052 311.753 266.95 309.991L265.534 307.677L267.248 306.642L269.717 310.692Z" fill="black"/>
<path d="M280.479 273.797L278.252 275.818L287.31 285.75C290.039 288.738 290.713 291.546 289.434 294.642C288.76 296.234 287.725 297.713 286.358 298.954C282.081 302.875 277.164 303.036 273.834 299.413L264.098 288.739L262.091 290.56L261.09 289.456L268.473 282.713L269.489 283.821L267.507 285.618L276.501 295.481C278.928 298.142 280.515 298.923 282.507 298.416C283.44 298.143 284.372 297.645 285.163 296.907C288.337 294.026 288.469 290.452 285.519 287.229L276.559 277.41L274.371 279.412L273.341 278.269L279.449 272.683L280.479 273.797Z" fill="black"/>
<path d="M320.625 252.943L315.865 261.742L314.536 261.024L315.835 258.627L297.725 248.827L296.416 251.219L295.127 250.497L299.878 241.698L301.197 242.421L299.907 244.764L318.032 254.574L319.302 252.225L320.625 252.943Z" fill="black"/>
<path d="M329.766 231.542L325.703 242.318L324.307 241.781L325.523 238.539L306.822 231.498L304.629 237.279L307.422 238.324L306.719 240.174L301.035 238.026L301.714 236.19L302.671 236.537L308.638 220.687L307.7 220.336L308.394 218.485L314.082 220.633L313.389 222.479L310.611 221.424L308.443 227.176L327.149 234.222L328.355 231.014L329.766 231.542Z" fill="black"/>
<path d="M336.094 205.238L334.175 215.062L332.691 214.774L333.213 212.147L323.54 210.248L311.641 215.14L311.211 217.357L309.737 217.049L311.66 207.23L313.13 207.528L312.617 210.126L321.27 206.659L314.512 200.472L313.921 203.451L312.456 203.168L314.053 194.984L315.513 195.277L315.03 197.806L323.501 205.536L334.097 207.616L334.619 204.955L336.094 205.238Z" fill="black"/>
<path d="M287.241 265.555L288.579 263.743C290.088 261.692 292.295 261.512 294.585 263.216C296.846 264.905 297.437 267.415 295.957 269.398L294.707 271.087L287.241 265.555ZM312.032 265.819L311.148 267.006C310.718 267.577 310.206 267.743 308.702 267.646L299.415 267.07C300.597 263.764 299.903 261.196 297.33 259.277C295.802 258.154 294.225 257.69 292.574 257.934C290.767 258.203 289.386 259.301 287.545 261.782L281.266 270.249L282.457 271.138L284.093 268.96L300.621 281.231L299.005 283.409L300.206 284.307L306.178 276.265L304.967 275.376L303.37 277.539L296.143 272.148L296.709 271.381L306.65 272.089C308.891 272.24 309.282 272.074 310.546 270.385L313.246 266.733L312.032 265.819Z" fill="black"/>
<path d="M28.716 227.352L26.323 217.621L27.788 217.269L28.438 219.877L37.559 217.645L34.795 206.366L25.669 208.588L26.309 211.195L24.859 211.542L22.481 201.83L23.926 201.473L24.585 204.115L44.59 199.227L43.95 196.581L45.396 196.234L47.764 205.951L46.304 206.302L45.669 203.705L36.856 205.853L39.624 217.142L48.443 214.984L47.788 212.377L49.268 212.03L51.636 221.747L50.181 222.108L49.532 219.476L29.527 224.354L30.186 227.005L28.716 227.352Z" fill="black"/>
<path d="M50.049 249.711C56.275 246.884 58.999 239.872 56.275 233.881C53.536 227.89 46.461 225.375 40.25 228.212C34.049 231.049 31.251 238.041 33.98 244.032C36.699 250.023 43.838 252.547 50.049 249.711ZM42.344 232.792C47.261 230.551 52.93 231.459 54.409 234.721C55.908 238.002 52.871 242.885 47.964 245.131C43.008 247.377 37.324 246.469 35.835 243.188C34.351 239.921 37.388 235.052 42.344 232.792Z" fill="black"/>
<path d="M59.131 283.68L52.901 275.082L54.107 274.203L55.874 276.634L68.374 267.562L49.756 271.346L58.433 254.418L46.187 263.29L47.964 265.726L46.743 266.61L41.885 259.93L43.101 259.046L44.873 261.473L61.529 249.364L59.766 246.942L60.987 246.068L64.693 251.175L56.231 267.811L74.073 264.081L78.242 269.813L77.017 270.692L75.254 268.265L58.584 280.365L60.357 282.796L59.131 283.68Z" fill="black"/>
<path d="M77.735 301.966L65.21 290.433L66.236 289.339L68.238 291.161L82.193 276.029L80.196 274.178L81.206 273.085L92.056 283.065L92.71 282.323L94.156 283.636L90.298 287.811L88.897 286.532L90.635 284.652L85.171 279.598L79.453 285.799L83.657 289.671L85.313 287.884L86.748 289.173L81.973 294.354L80.542 293.075L82.222 291.224L78.023 287.357L72.032 293.841L77.74 299.105L79.532 297.162L80.948 298.465L77.735 301.966Z" fill="black"/>
<path d="M99.019 316.561L85.01 307.137L85.86 305.897L88.115 307.421L99.605 290.321L97.354 288.812L98.194 287.562L106.499 293.143L105.655 294.398L103.443 292.899L92.281 309.486L98.599 313.749L100.073 311.546L101.675 312.63L99.019 316.561Z" fill="black"/>
<path d="M124.79 327.513L123.423 326.893L124.819 302.43L122.837 301.527L104.976 318.5L102.959 317.582L102.339 318.944L109.068 322.01L109.703 320.648L107.086 319.461L111.612 315.149L119.512 318.743L119.126 324.939L116.86 323.909L116.225 325.266L124.164 328.879L124.79 327.513ZM113.282 313.519L120.279 306.883L119.664 316.424L113.282 313.519Z" fill="black"/>
<path d="M149.527 335.961L147.095 335.375L139.073 315.428L135.44 330.624L138.184 331.288L137.837 332.743L129.981 330.873L130.327 329.398L133.208 330.091L137.588 311.839L136.89 309.803L134.385 309.208L134.732 307.738L141.665 309.398L149.082 328.124L152.578 313.558L149.829 312.894L150.176 311.434L158.047 313.314L157.681 314.779L154.751 314.076L149.527 335.961Z" fill="black"/>
<path d="M171.851 337.718C175.352 337.845 177.92 336.981 180.249 334.915C182.764 332.635 184.204 329.622 184.326 326.331C184.56 319.72 179.492 314.393 172.734 314.148L161.587 313.733L161.543 315.247L164.258 315.335L163.511 335.911L160.796 335.818L160.747 337.322L171.851 337.718ZM169.121 316.815L172.143 316.937C176.332 317.093 179.741 321.722 179.565 326.966C179.35 332.576 175.795 336.702 171.313 336.546L168.408 336.439L169.121 316.815Z" fill="black"/>
<path d="M179.873 232.801H178.74C178.169 229.232 175.576 227.03 171.802 225.872C168.931 224.978 164.771 223.626 155.864 220.901C145.537 217.727 140.268 209.417 139.555 198.987C138.554 184.236 137.084 158.318 136.533 141.819C148.188 138.963 165.39 136.716 179.873 136.716C194.36 136.716 211.553 138.962 223.213 141.819C222.686 158.318 221.182 184.236 220.195 198.987C219.477 209.417 214.214 217.727 203.886 220.901C194.975 223.626 190.82 224.978 187.948 225.872C184.164 227.029 181.571 229.231 181.014 232.801H179.873Z" fill="white"/>
<path d="M176.924 195.145L174.81 194.085L173.448 190.525L170.357 189.172L166.871 186.062L164.801 188.342L161.71 189.07L160.064 191.673L157.579 194.315L154.195 196.117L151.856 200.077L150.528 201.83L148.248 203.612L146.983 202.274L145.63 203.563L143.941 206.693C143.052 204.354 142.515 202.543 142.247 198.802C141.749 191.868 141.246 183.167 140.758 174.256C152.194 171.79 166.749 170.159 178.566 170.047V197.054C178.023 196.727 177.481 196.468 176.924 195.145Z" fill="#A0A0A0"/>
<path d="M178.565 208.153H144.556C145.059 209.208 145.63 210.184 146.294 211.112C148.74 214.55 152.227 217.089 156.65 218.446C162.651 220.287 166.484 221.493 169.272 222.382L172.602 223.422C175.322 224.262 177.226 225.492 178.564 226.84V208.153" fill="#878787"/>
<path d="M214.478 195.008C215.411 194.266 216.48 193.402 217.891 192.889C218.091 189.71 218.296 186.317 218.511 182.801C218.135 183.055 217.744 183.377 217.261 183.758C215.64 185.071 213.614 186.722 210.044 186.722C206.704 186.722 204.536 185.384 202.798 184.31C201.387 183.436 200.249 182.752 198.584 182.752C196.748 182.752 195.171 183.69 193.491 184.7C191.679 185.774 189.634 187 187.129 187C184.561 187 182.705 186.209 181.187 185.384V194.93C181.529 195.125 181.866 195.33 182.193 195.531C183.716 196.469 185.035 197.279 187.13 197.279C188.424 197.279 189.708 196.508 191.222 195.594C193.239 194.393 195.534 193.026 198.585 193.026C201.485 193.026 203.404 194.193 205.118 195.238C206.632 196.185 207.955 196.981 210.045 196.981C212.041 196.981 213.13 196.117 214.478 195.008Z" fill="black"/>
<path d="M187.129 216.771C184.561 216.771 182.705 215.99 181.187 215.145V226.834C182.52 225.491 184.419 224.261 187.154 223.421L190.469 222.381C193.262 221.492 197.075 220.286 203.096 218.445C204.849 217.903 206.46 217.185 207.92 216.282C205.732 215.882 204.141 214.905 202.798 214.08C201.387 213.206 200.249 212.517 198.584 212.517C196.748 212.517 195.171 213.469 193.491 214.47C191.68 215.541 189.634 216.771 187.129 216.771Z" fill="black"/>
<path d="M214.478 180.326C215.591 179.432 216.939 178.358 218.79 177.933C218.863 176.717 218.932 175.487 219 174.256C207.564 171.79 193.023 170.159 181.187 170.047V180.247C181.529 180.452 181.866 180.643 182.193 180.852C183.716 181.78 185.035 182.605 187.13 182.605C188.424 182.605 189.708 181.814 191.222 180.916C193.239 179.695 195.534 178.333 198.585 178.333C201.485 178.333 203.404 179.529 205.118 180.555C206.632 181.497 207.955 182.303 210.045 182.303C212.041 182.303 213.13 181.434 214.478 180.326Z" fill="#A0A0A0"/>
<path d="M181.187 200.067V210.013C181.529 210.203 181.866 210.418 182.193 210.614C183.716 211.552 185.035 212.367 187.13 212.367C188.424 212.367 189.708 211.586 191.222 210.687C193.239 209.481 195.534 208.109 198.585 208.109C201.485 208.109 203.404 209.286 205.118 210.321C206.632 211.268 207.955 212.074 210.045 212.074C211.671 212.074 212.687 211.493 213.746 210.692C215.929 207.46 217.198 203.456 217.506 198.802C217.511 198.597 217.53 198.406 217.545 198.221C217.452 198.284 217.359 198.367 217.262 198.441C215.641 199.754 213.615 201.385 210.045 201.385C206.705 201.385 204.537 200.067 202.799 199.002C201.388 198.113 200.25 197.425 198.585 197.425C196.749 197.425 195.172 198.367 193.492 199.388C191.68 200.462 189.635 201.683 187.13 201.683C184.561 201.683 182.705 200.902 181.187 200.067Z" fill="#A0A0A0"/>
<path d="M140.606 171.654C140.064 161.722 139.59 151.717 139.293 143.832C151.358 141.088 167.325 139.281 179.874 139.281C192.423 139.281 208.414 141.088 220.45 143.832C220.177 151.718 219.693 161.723 219.141 171.654C207.784 169.257 192.764 167.465 179.873 167.465C166.992 167.464 151.968 169.256 140.606 171.654Z" fill="black"/>
<path d="M148.526 150.389L148.965 148.251L146.983 147.347L149.146 147.118L149.365 144.95L150.254 146.947L152.364 146.507L150.762 147.967L151.856 149.867L149.971 148.758L148.526 150.389Z" fill="white"/>
<path d="M161.758 148.636L159.927 147.445L158.399 149.017L158.946 146.898L157.017 145.912L159.165 145.77L159.497 143.612L160.283 145.643L162.427 145.296L160.757 146.693L161.758 148.636Z" fill="white"/>
<path d="M171.685 147.865L169.922 146.586L168.325 148.07L168.98 145.985L167.095 144.901L169.253 144.877L169.698 142.728L170.381 144.808L172.53 144.569L170.782 145.863L171.685 147.865Z" fill="white"/>
<path d="M181.607 147.65L179.922 146.278L178.247 147.65L179.014 145.609L177.188 144.403L179.361 144.52L179.922 142.406L180.474 144.52L182.642 144.403L180.84 145.609L181.607 147.65Z" fill="white"/>
<path d="M209.868 148.783L207.993 149.881L209.073 147.982L207.466 146.522L209.585 146.971L210.479 144.955L210.689 147.132L212.857 147.367L210.865 148.275L211.323 150.409L209.868 148.783Z" fill="white"/>
<path d="M199.073 146.693L197.388 145.301L199.522 145.658L200.327 143.612L200.65 145.77L202.818 145.902L200.879 146.898L201.436 149.017L199.893 147.445L198.072 148.646L199.073 146.693Z" fill="white"/>
<path d="M189.058 145.873L187.324 144.569L189.478 144.818L190.157 142.733L190.601 144.891L192.764 144.901L190.869 145.995L191.529 148.085L189.932 146.586L188.169 147.865L189.058 145.873Z" fill="white"/>
<path d="M149.971 166.459L150.415 164.325L148.452 163.407L150.601 163.202L150.855 161.029L151.724 163.036L153.833 162.611L152.227 164.056L153.282 165.956L151.411 164.838L149.971 166.459Z" fill="white"/>
<path d="M162.842 164.838L161.021 163.631L159.483 165.179L160.039 163.075L158.12 162.064L160.279 161.947L160.62 159.789L161.407 161.844L163.54 161.503L161.851 162.88L162.842 164.838Z" fill="white"/>
<path d="M172.388 164.144L170.615 162.855L169.024 164.339L169.683 162.245L167.808 161.156L169.971 161.151L170.406 159.003L171.079 161.078L173.247 160.834L171.494 162.142L172.388 164.144Z" fill="white"/>
<path d="M181.939 163.968L180.249 162.587L178.57 163.968L179.351 161.908L177.53 160.712L179.683 160.829L180.249 158.714L180.806 160.829L182.969 160.712L181.157 161.908L181.939 163.968Z" fill="white"/>
<path d="M209.082 164.96L207.207 166.073L208.291 164.169L206.68 162.709L208.794 163.133L209.673 161.151L209.898 163.314L212.061 163.534L210.083 164.442L210.542 166.586L209.082 164.96Z" fill="white"/>
<path d="M198.657 162.958L196.973 161.576L199.116 161.908L199.893 159.872L200.225 162.04L202.398 162.152L200.459 163.148L201.006 165.262L199.483 163.71L197.657 164.911L198.657 162.958Z" fill="white"/>
<path d="M188.999 162.176L187.276 160.878L189.429 161.117L190.108 159.046L190.547 161.18L192.725 161.224L190.821 162.284L191.47 164.374L189.878 162.894L188.12 164.173L188.999 162.176Z" fill="white"/>
<path d="M154.702 156.976L155.21 154.847L153.262 153.885L155.43 153.724L155.718 151.551L156.529 153.573L158.653 153.202L157.017 154.613L158.047 156.546L156.201 155.394L154.702 156.976Z" fill="white"/>
<path d="M145.21 158.485L145.65 156.332L143.653 155.448L145.801 155.204L146.016 153.031L146.914 155.013L149.038 154.579L147.432 156.039L148.526 157.943L146.646 156.839L145.21 158.485Z" fill="white"/>
<path d="M167.549 155.638L165.767 154.383L164.185 155.912L164.81 153.797L162.891 152.757L165.069 152.704L165.445 150.541L166.177 152.606L168.325 152.313L166.612 153.656L167.549 155.638Z" fill="white"/>
<path d="M177.061 155.179L175.332 153.841L173.697 155.282L174.409 153.216L172.554 152.074L174.707 152.118L175.21 149.989L175.835 152.074L177.993 151.913L176.211 153.168L177.061 155.179Z" fill="white"/>
<path d="M186.577 155.306L184.932 153.861L183.213 155.184L184.053 153.168L182.285 151.913L184.439 152.084L185.064 149.994L185.557 152.132L187.725 152.084L185.869 153.226L186.577 155.306Z" fill="white"/>
<path d="M213.643 156.908L211.729 157.972L212.857 156.112L211.294 154.608L213.394 155.096L214.312 153.104L214.488 155.282L216.646 155.565L214.639 156.415L215.049 158.578L213.643 156.908Z" fill="white"/>
<path d="M203.262 154.676L201.597 153.265L203.731 153.641L204.571 151.62L204.849 153.797L207.002 153.959L205.064 154.906L205.567 157.035L204.082 155.448L202.222 156.625L203.262 154.676Z" fill="white"/>
<path d="M193.657 153.7L191.948 152.352L194.102 152.64L194.824 150.585L195.21 152.728L197.383 152.821L195.469 153.841L196.065 155.951L194.502 154.437L192.725 155.672L193.657 153.7Z" fill="white"/>
<path d="M83.238 203.895C86.436 199.349 92.452 198.368 89.737 186.161C82.915 189.144 79.737 197.65 83.238 203.895Z" fill="white"/>
<path d="M82.793 173.378C80.605 174.281 77.515 177.314 76.123 181.313C78.418 183.964 79.39 187.221 79.287 190.18C83.462 186.356 84.912 179.759 82.793 173.378Z" fill="white"/>
<path d="M86.841 215.604C87.119 215.643 87.051 215.614 86.743 215.516C83.535 213.729 81.269 213.109 76.865 213.704C80.996 214.007 83.892 214.584 86.841 215.604Z" fill="white"/>
<path d="M100.244 230.428C100.205 230.521 100.161 230.618 100.137 230.716C100.02 235.653 103.184 241.151 97.525 248.948C97.252 249.881 96.88 251.897 99.791 248.44C105.532 241.625 100.65 236.063 100.244 230.428Z" fill="white"/>
<path d="M88.814 238.153C89.288 235.077 91.329 231.41 94.327 228.939C96.412 227.21 97.594 226.576 95.846 228.412C93.194 231.18 90.113 235.677 88.814 238.153Z" fill="white"/>
<path d="M95.366 246.537C94.219 243.646 95.22 239.003 96.46 235.956C97.329 233.866 99.468 230.683 100.147 230.385C97.774 234.037 95.24 243.734 95.366 246.537Z" fill="white"/>
<path d="M85.752 206.205C85.537 205.111 84.473 204.393 83.384 204.623C82.285 204.843 81.577 205.902 81.802 206.996C82.022 208.095 83.096 208.798 84.175 208.588C85.269 208.368 85.987 207.303 85.752 206.205Z" fill="white"/>
<path d="M103.35 208.968C103.423 205.95 102.959 202.835 103.306 199.31C97.295 203.705 95.24 211.405 97.735 216.781C97.476 216.742 97.222 216.727 96.954 216.796C95.821 217.025 95.094 218.124 95.318 219.267C95.543 220.385 96.651 221.122 97.794 220.893C98.922 220.668 99.664 219.56 99.43 218.432C99.298 217.856 98.971 217.377 98.512 217.089C97.516 212.328 98.336 206.376 100.831 203.871C100.06 206.85 98.639 213.095 99.552 218.851C100.538 217.728 101.276 216.649 101.823 215.565C101.94 216.483 102.15 217.416 102.531 218.402C102.668 213.817 104.196 209.286 108.957 206.122C105.471 210.541 103.478 215.702 103.063 219.594C105.592 216.376 111.344 215.419 111.759 202.822C108.843 203.705 105.352 205.824 103.35 208.968Z" fill="white"/>
<path d="M107.324 221.927C107.075 220.726 105.937 219.959 104.751 220.203C103.555 220.447 102.793 221.59 103.032 222.796C103.271 223.978 104.438 224.73 105.62 224.49C106.807 224.242 107.569 223.104 107.324 221.927Z" fill="white"/>
<path d="M106.563 228.558C106.319 227.367 105.162 226.6 103.975 226.829C102.803 227.073 102.027 228.221 102.271 229.407C102.505 230.598 103.658 231.36 104.859 231.131C106.04 230.897 106.807 229.72 106.563 228.558Z" fill="white"/>
<path d="M93.887 196.234C89.434 199.95 88.189 204.613 88.672 208.714C88.486 208.694 88.316 208.694 88.15 208.724C87.212 208.919 86.622 209.808 86.807 210.726C86.997 211.644 87.896 212.249 88.804 212.054C89.019 212.015 89.204 211.927 89.37 211.829C89.785 213.016 90.351 214.104 90.991 215.042C90.6 213.665 90.312 212.146 90.156 210.589C90.166 210.413 90.18 210.228 90.136 210.062C90.136 210.013 90.112 209.984 90.102 209.945C89.868 206.464 90.415 202.855 92.338 200.253C91.742 204.066 90.844 211.405 91.698 215.976C93.003 211.112 100.01 208.968 93.887 196.234Z" fill="white"/>
<path d="M111.68 224.886C111.48 223.983 110.596 223.377 109.659 223.563C108.746 223.749 108.145 224.647 108.321 225.56C108.531 226.488 109.415 227.083 110.338 226.898C111.265 226.703 111.856 225.799 111.68 224.886Z" fill="white"/>
<path d="M102.261 224.574C102.085 223.724 101.27 223.173 100.415 223.344C99.565 223.515 99.019 224.34 99.185 225.19C99.351 226.035 100.186 226.586 101.031 226.42C101.876 226.254 102.422 225.414 102.261 224.574Z" fill="white"/>
<path d="M80.796 202.982C80.679 202.289 80.0589 201.791 79.3899 201.791C77.1829 198.803 74.0089 195.609 68.7209 195.072C71.6209 196.429 75.9769 199.11 78.9939 201.83C78.2759 202.02 77.8069 202.724 77.9299 203.476C78.0719 204.262 78.8189 204.789 79.6239 204.663C80.3959 204.52 80.938 203.773 80.796 202.982Z" fill="white"/>
<path d="M80.8651 192.963C80.6651 191.972 79.6931 191.332 78.6971 191.542C78.6631 191.547 78.6191 191.552 78.5751 191.576C77.3691 186.884 76.2171 183.241 70.9041 179.589C73.5551 183.007 76.6361 187.973 78.3651 191.64C77.5741 191.967 77.0861 192.817 77.2611 193.696C77.4561 194.692 78.4281 195.332 79.4291 195.136C80.4151 194.93 81.0601 193.963 80.8651 192.963Z" fill="white"/>
<path d="M86.2549 211.366C86.1229 210.59 85.3859 210.053 84.5799 210.184C84.1939 210.252 83.8619 210.462 83.6569 210.76C78.9599 206.6 75.7219 206.575 73.2419 206.463C74.7359 206.995 80.1119 208.543 83.5349 210.965C83.3929 211.224 83.3399 211.531 83.3929 211.854C83.5199 212.655 84.2909 213.192 85.0679 213.06C85.8599 212.914 86.4019 212.171 86.2549 211.366Z" fill="white"/>
<path d="M90.205 217.25C89.985 216.117 88.872 215.385 87.739 215.604C86.616 215.833 85.879 216.937 86.103 218.075C86.332 219.213 87.436 219.945 88.574 219.706C89.707 219.486 90.43 218.363 90.205 217.25Z" fill="white"/>
<path d="M93.252 220.853C93.12 220.057 92.373 219.535 91.587 219.666C91.079 219.744 90.679 220.066 90.498 220.496C86.401 219.959 81.948 220.525 78.198 222.61C82.397 221.638 86.792 220.735 90.386 220.725C90.406 220.725 90.406 220.725 90.41 220.725C90.356 220.92 90.347 221.125 90.366 221.335C90.522 222.116 91.274 222.668 92.06 222.526C92.866 222.401 93.389 221.639 93.252 220.853Z" fill="white"/>
<path d="M97.466 223.304C97.266 222.274 96.26 221.615 95.23 221.829C94.219 222.015 93.545 223.016 93.746 224.036C93.707 224.036 93.678 224.021 93.614 224.012C90.587 223.909 85.538 224.705 82.442 228.377C85.616 226.507 90.67 224.583 93.707 224.168C93.727 224.178 93.761 224.168 93.79 224.168C94.044 225.12 95.001 225.726 95.982 225.535C97.002 225.326 97.661 224.33 97.466 223.304Z" fill="white"/>
<path d="M124.014 232.826C132.657 239.335 137.564 248.368 138.814 255.634C137.73 254.838 135.689 254.013 134.439 254.247C133.316 246.576 129.317 240.37 123.038 235.336C123.296 234.173 123.662 233.373 124.014 232.826Z" fill="white"/>
<path d="M117.412 239.579C119.463 240.394 120.493 240.092 121.02 239.359C122.114 237.816 121.586 235.746 120.893 235.394C121.049 236.024 121.02 236.683 120.873 237.435C120.761 238.04 120.448 239.041 119.315 238.91C118.71 238.837 117.591 238.539 116.932 238.095C116.463 237.768 116.463 236.952 116.732 236.254C116.859 235.927 117.01 235.429 117.43 235.082C116.732 235.248 116.312 235.609 115.76 236.039C115.213 236.464 114.403 236.547 113.934 236.049C113.358 235.404 112.992 234.916 112.796 234.491C112.322 233.383 113.753 232.553 114.588 232.118C113.143 232.133 112.894 232.68 111.746 232.484C110.564 232.289 110.267 230.414 110.271 229.794C110.271 229.34 110.833 228.9 111.501 228.734C112.15 228.592 112.927 228.651 113.352 228.69C113.284 228.407 113.249 228.045 113.254 227.674C112.087 227.405 109.807 227.796 109.377 228.441C108.835 229.271 108.977 229.696 109.411 231.161C109.841 232.572 110.173 233.075 111.086 233.212C111.335 233.246 111.828 233.31 112.375 233.105C112.087 233.286 111.896 233.447 111.755 233.818C111.594 234.189 111.34 234.819 112.463 236.162C113.425 237.329 114.377 237.773 115.168 237.339C115.622 237.085 115.793 236.807 116.003 236.587C115.876 236.89 115.744 237.236 115.676 237.573C115.464 238.714 116.323 239.164 117.412 239.579Z" fill="white"/>
<path d="M115.908 230.599C116.489 229.862 117.915 229.769 118.721 230.282C118.174 231.317 118.12 233.036 118.423 233.881C116.392 233.568 116.026 231.62 115.908 230.599Z" fill="white"/>
<path d="M119.097 230.482C120.293 230.394 120.743 229.794 120.952 229.208C121.167 228.642 121.806 228.285 121.826 229.159C121.831 230.038 121.836 230.433 121.343 230.668C120.84 230.921 119.951 230.99 119.097 230.482Z" fill="white"/>
<path d="M119.707 232.372C119.595 233.012 119.365 233.627 118.96 234.213C118.652 234.652 118.218 234.911 117.9 235.199C118.452 235.609 119.233 235.848 119.887 235.819C120.527 235.78 120.566 235.697 120.527 235.443C120.381 234.349 119.951 232.801 119.707 232.372Z" fill="white"/>
<path d="M240.113 229.54C240.67 230.57 240.709 232.309 240.406 233.139C242.457 232.817 242.808 230.878 242.935 229.863C242.339 229.12 240.923 229.037 240.113 229.54Z" fill="white"/>
<path d="M239.741 229.745C238.55 229.652 238.1 229.061 237.886 228.49C237.666 227.909 237.027 227.543 237.022 228.431C237.012 229.305 237.002 229.691 237.496 229.925C237.993 230.179 238.877 230.243 239.741 229.745Z" fill="white"/>
<path d="M239.868 233.456C239.472 232.885 239.243 232.269 239.126 231.63C238.877 232.065 238.462 233.608 238.306 234.701C238.272 234.955 238.286 235.053 238.946 235.077C239.605 235.106 240.386 234.882 240.928 234.467C240.606 234.188 240.181 233.92 239.868 233.456Z" fill="white"/>
<path d="M275.386 201.044L277.447 201.62L246.378 226.156H246.383L245.651 226.747C245.617 226.752 245.563 226.752 245.524 226.771C245.548 227.118 245.524 227.469 245.465 227.787C245.9 227.763 246.5 227.763 247.018 227.899C247.692 228.085 248.234 228.529 248.214 228.978C248.214 229.603 247.867 231.473 246.686 231.644C245.524 231.8 245.294 231.253 243.849 231.195C244.655 231.654 246.085 232.508 245.553 233.607C245.353 234.046 244.987 234.515 244.381 235.14C243.912 235.628 243.097 235.526 242.565 235.077C242.033 234.638 241.618 234.262 240.924 234.076C241.344 234.432 241.476 234.93 241.588 235.272C241.832 235.956 241.817 236.781 241.344 237.093C240.66 237.513 239.542 237.781 238.932 237.84C237.809 237.947 237.511 236.932 237.413 236.331C237.291 235.579 237.286 234.905 237.462 234.285C236.749 234.632 236.163 236.668 237.228 238.25C237.716 238.992 238.732 239.305 240.807 238.582C241.911 238.186 242.799 237.767 242.604 236.609C242.55 236.253 242.428 235.925 242.311 235.608C242.526 235.842 242.663 236.121 243.107 236.389C243.913 236.838 244.86 236.418 245.866 235.281C246.999 233.977 246.774 233.328 246.637 232.957C246.5 232.586 246.31 232.42 246.032 232.244C246.569 232.469 247.038 232.41 247.302 232.371C248.235 232.268 248.572 231.775 249.04 230.384C249.528 228.929 249.67 228.504 249.147 227.664C248.927 227.308 248.185 227.019 247.35 226.858L278.18 202.542L278.253 204.686L283.795 197.347L275.386 201.044Z" fill="white"/>
<path d="M258.819 208.588L280.709 180.868L281.29 182.933L284.962 174.515L277.637 180.067L279.79 180.15L259.956 205.277C258.418 207.626 256.763 210.131 255.21 212.474L255.239 212.503C256.416 211.224 257.608 209.921 258.819 208.588Z" fill="white"/>
<path d="M256.211 216.83C258.047 215.37 259.956 213.861 261.836 212.367L280.068 195.497L280.337 197.626L285.249 189.862L277.178 194.232L279.273 194.637L260.972 211.585C259.341 213.397 257.73 215.16 256.211 216.83Z" fill="white"/>
<path d="M276.47 212.85L250.782 225.711C250.338 226.067 249.971 226.356 249.747 226.536C249.928 226.678 250.069 226.839 250.191 227.019C250.245 227.097 250.279 227.175 250.318 227.248L276.988 213.908L276.627 216.012L283.541 209.962L274.552 211.876L276.47 212.85Z" fill="white"/>
<path d="M237.666 240.047C237.275 239.92 236.938 239.73 236.65 239.471L232.055 248.997L232.079 249.012L230.404 249.569L224.96 259.994L227.602 259.198L228.549 261.781L233.7 251.21L233.095 249.511L237.666 240.047Z" fill="white"/>
<path d="M255.557 221.957C257.325 221.068 259.356 220.043 261.416 219.003L278.496 207.86L278.384 209.999L284.541 203.187L275.845 206.122L277.842 206.874L259.278 219.018C257.954 220.057 256.704 221.044 255.557 221.957Z" fill="white"/>
<path d="M235.572 237.504C235.435 236.991 235.396 236.464 235.435 235.941L229.341 242.596L227.539 242.742L227.383 242.893V242.903L218.902 251.384L219.302 251.36L219.263 251.384L219.375 251.36L221.46 251.262L221.831 253.337L228.862 244.094L230.219 243.801L235.572 237.504Z" fill="white"/>
<path d="M246.812 224.242C247.554 223.661 248.633 222.806 249.922 221.786L279.898 189.032L280.308 191.127L284.6 183.007L276.895 187.997L279.019 188.231L247.647 222.552C247.349 223.168 247.075 223.734 246.812 224.242Z" fill="white"/>
<path d="M219.99 246.649L231.157 238.783C232.431 237.377 233.843 235.868 234.331 235.326L220.386 244.535L220.396 244.545L218.648 244.184L217.632 244.824L208.687 250.41L211.197 250.928L211.505 252.823L218.712 246.588L219.99 246.649Z" fill="white"/>
<path d="M210.747 247.674L215.22 244.886L219.385 242.049L220.811 242.318C220.811 242.318 230.982 236.048 233.453 234.432C233.585 234.339 233.658 234.29 233.658 234.29C233.687 234.28 233.707 234.261 233.736 234.246L220.396 240.896L218.692 240.369L208.072 245.418L210.465 246.297L210.747 247.674Z" fill="white"/>
<path d="M261.094 186.019L263.194 185.648L244.014 224.515C244.16 224.598 244.307 224.676 244.41 224.73C244.635 224.862 244.825 225.028 244.981 225.209L264.249 186.176L265.24 188.071L267.105 179.077L261.094 186.019Z" fill="white"/>
<path d="M263.384 192.567L265.528 192.455L253.492 210.751C252.076 213.612 250.704 216.396 249.493 218.827C249.556 218.759 249.615 218.695 249.669 218.622L266.524 193.119L267.256 195.121L270.22 186.415L263.384 192.567Z" fill="white"/>
</svg>
