<svg id="svg59664" xmlns="http://www.w3.org/2000/svg" viewBox="0 0 720 720"><defs><style>.cls-1{fill:#fff;}.cls-10,.cls-11,.cls-12,.cls-13,.cls-14,.cls-17,.cls-18,.cls-19,.cls-2,.cls-5,.cls-7,.cls-8,.cls-9{fill:none;}.cls-10,.cls-11,.cls-12,.cls-13,.cls-14,.cls-18,.cls-19,.cls-2,.cls-8,.cls-9{stroke:#000;}.cls-10,.cls-11,.cls-12,.cls-13,.cls-16,.cls-18,.cls-2,.cls-5,.cls-8{stroke-miterlimit:10;}.cls-2{stroke-width:10.67px;}.cls-16,.cls-3{fill:#323232;}.cls-4{fill:#b8b8b8;}.cls-17,.cls-5{stroke:#b8b8b8;}.cls-12,.cls-16,.cls-5{stroke-width:1.78px;}.cls-6{fill:#6d6d6d;}.cls-7{stroke:#6d6d6d;}.cls-14,.cls-17,.cls-19,.cls-7,.cls-9{stroke-miterlimit:18.55;}.cls-17,.cls-19,.cls-7{stroke-width:1.78px;}.cls-8{stroke-width:5.33px;}.cls-9{stroke-width:5.33px;}.cls-10{stroke-width:7.11px;}.cls-11{stroke-width:8.89px;}.cls-13{stroke-width:0.89px;}.cls-14{stroke-width:3.56px;}.cls-15{fill:#4b4b4b;}.cls-16{stroke:#323232;}.cls-18{stroke-width:3.56px;}</style></defs><g id="g62987"><path id="path59674" class="cls-1" d="M5.33,360l.46-18.26,1.37-18L9.42,306l3.12-17.47,4-17.16,4.78-16.82,5.57-16.48L33.2,222l7.11-15.72L48.14,191l8.54-14.86,9.22-14.38,9.89-13.91,10.53-13.4,11.15-12.87,11.74-12.32,12.32-11.73L134.4,86.33l13.4-10.54,13.9-9.89,14.39-9.22L191,48.14l15.29-7.84,15.7-7.09L238,26.86l16.48-5.58,16.84-4.78,17.16-4L306,9.42l17.74-2.26,18-1.36L360,5.33C555.88,5.33,714.67,164.12,714.67,360S555.88,714.67,360,714.67,5.33,555.88,5.33,360Z" transform="translate(0 0)"/><path id="path59676" class="cls-2" d="M5.33,360l.46-18.26,1.37-18L9.42,306l3.12-17.47,4-17.16,4.78-16.82,5.57-16.48L33.2,222l7.11-15.72L48.14,191l8.54-14.86,9.22-14.38,9.89-13.91,10.53-13.4,11.15-12.87,11.74-12.32,12.32-11.73L134.4,86.33l13.4-10.54,13.9-9.89,14.39-9.22L191,48.14l15.29-7.84,15.7-7.09L238,26.86l16.48-5.58,16.84-4.78,17.16-4L306,9.42l17.74-2.26,18-1.36L360,5.33C555.88,5.33,714.67,164.12,714.67,360S555.88,714.67,360,714.67,5.33,555.88,5.33,360Z" transform="translate(0 0)"/><path id="path59678" class="cls-3" d="M84.5,359.8l.36-14.09,1-13.91,1.75-13.72,2.41-13.48,3.05-13.26,3.7-13,4.3-12.73L106,253.17,111.51,241l6-11.8,6.6-11.47,7.13-11.13,7.63-10.74,8.13-10.34,8.62-9.94,9.07-9.51,9.51-9.07,9.95-8.62,10.34-8.13,10.74-7.64,11.11-7.11,11.47-6.61,11.82-6,12.12-5.47,12.45-4.91L277,98.17l13-3.68,13.27-3.06L316.73,89l13.71-1.74,13.92-1,14.08-.35c151.3,0,274,122.65,274,273.93s-122.65,274-273.95,274S84.5,511.11,84.5,359.8Z" transform="translate(0 0)"/><path id="path59680" class="cls-2" d="M84.5,359.8l.36-14.09,1-13.91,1.75-13.72,2.41-13.48,3.05-13.26,3.7-13,4.3-12.73L106,253.17,111.51,241l6-11.8,6.6-11.47,7.13-11.13,7.63-10.74,8.13-10.34,8.62-9.94,9.07-9.51,9.51-9.07,9.95-8.62,10.34-8.13,10.74-7.64,11.11-7.11,11.47-6.61,11.82-6,12.12-5.47,12.45-4.91L277,98.17l13-3.68,13.27-3.06L316.73,89l13.71-1.74,13.92-1,14.08-.35c151.3,0,274,122.65,274,273.93s-122.65,274-273.95,274S84.5,511.11,84.5,359.8Z" transform="translate(0 0)"/><path id="path59682" class="cls-4" d="M242,362.76H476.23L464,377.64,462,552.7,450.7,574.84l-53.94,10.89-23.84,5.46-11.73,12.1-2.08,4.21-8-12.14-15.9-7.13L311,584.06l-25.53-3.75-21.35-8.39-8.76-12.55-3.79-28.45,1.3-109.14L252,379.11S235.73,362.76,242,362.76Z" transform="translate(0 0)"/><path id="path59684" class="cls-5" d="M242,362.76H476.23L464,377.64,462,552.7,450.7,574.84l-53.94,10.89-23.84,5.46-11.73,12.1-2.08,4.21-8-12.14-15.9-7.13L311,584.06l-25.53-3.75-21.35-8.39-8.76-12.55-3.79-28.45,1.3-109.14L252,379.11S235.73,362.76,242,362.76Z" transform="translate(0 0)"/><polygon id="polygon59686" class="cls-6" points="253.05 434.92 461.92 434.92 461.92 508.62 253.05 508.62 253.05 434.92"/><polygon id="polygon59688" class="cls-7" points="253.05 508.62 461.92 508.62 461.92 434.92 253.05 434.92 253.05 508.62"/><path id="path59690" class="cls-8" d="M322.4,420.11h80.25c0-5.48,0-3.47,0-6.85-5.53-.9-11.65-1.95-11.45-12.76.2-11.2,13.3-12,21.32-12,0-9.38,0-5.08,0-8-17.84,0-103.68,0-113.18,0,1.55,7.42,11,13.18,20.94,13.62,5.8.25,15.36.06,18.92,3.84a8.47,8.47,0,0,1,.12,11c-2.48,2.95-16.94,1.85-16.94,2.1Z" transform="translate(0 0)"/><polyline id="polyline59692" class="cls-9" points="382.2 490.38 328.37 490.38 382.03 453.72"/><polyline id="polyline59694" class="cls-9" points="376.76 490.19 362.22 468.98 348.91 490.38"/><line id="line59696" class="cls-10" x1="254.6" y1="434.65" x2="463.63" y2="434.65"/><line id="line59698" class="cls-10" x1="255.36" y1="509.17" x2="464.41" y2="509.17"/><path id="path59700" class="cls-11" d="M238.33,363.54h10.1l2.43,0h18.88l7.72,0h17.15l9.28,0h29.89l20.89,0,21,0H386l10.17,0h28.67l8.71,0h8.18l7.56,0h10l3,0h11.54l1.6,0h2.38c-12.07,7.36-14.2,12.77-14.18,17.6.07,10,0,152.16,0,160.06s-.45,33.63-27.1,39.5-64.55,0-77.86,25.74c-12.43-25.74-34.53-19.6-68.86-24.39-35.68-5-37-19.18-37-40.85V380.92C252.78,376.18,248,370.08,238.33,363.54Z" transform="translate(0 0)"/><path id="path59702" d="M287.15,467.57v-.28l0-.27,0-.28,0-.27.07-.27.08-.24.08-.25.09-.25.11-.25.12-.23.13-.23.14-.22.16-.21.16-.21.18-.2.18-.18.17-.19.2-.16.21-.16.22-.16.21-.14.23-.13.23-.12.25-.11.25-.11.25-.07.25-.07.26-.07.27-.05.29,0,.26,0h.29a5.44,5.44,0,1,1-5.44,5.44Z" transform="translate(0 0)"/><path id="path59704" class="cls-12" d="M287.15,467.57v-.28l0-.27,0-.28,0-.27.07-.27.08-.24.08-.25.09-.25.11-.25.12-.23.13-.23.14-.22.16-.21.16-.21.18-.2.18-.18.17-.19.2-.16.21-.16.22-.16.21-.14.23-.13.23-.12.25-.11.25-.11.25-.07.25-.07.26-.07.27-.05.29,0,.26,0h.29a5.44,5.44,0,1,1-5.44,5.44Z" transform="translate(0 0)"/><path id="path59706" class="cls-8" d="M290.67,462.54s-6.1-10,1.92-15.55" transform="translate(0 0)"/><path id="path59708" class="cls-8" d="M296,463.64s8.53-8.76,16.37-3" transform="translate(0 0)"/><path id="path59710" class="cls-8" d="M297.33,468.09s12.63.48,13.07,10.2" transform="translate(0 0)"/><path id="path59712" class="cls-8" d="M294.44,471.86s4.37,12.23-4.56,16.14" transform="translate(0 0)"/><path id="path59714" class="cls-8" d="M289.56,471.64s-6.29,10.55-14.86,5.92" transform="translate(0 0)"/><path id="path59716" class="cls-8" d="M288.44,467.2s-13.12-1.42-12.55-11.15" transform="translate(0 0)"/><path id="path59718" class="cls-8" d="M271.79,467.77v-1.09l.09-1,.13-1.05.18-1,.23-1,.28-1,.32-1,.37-.94.43-.92.46-.89.5-.87.53-.86.59-.81.62-.79.64-.74.7-.73.73-.69.74-.64.8-.63.8-.58.86-.54.87-.49.89-.47.92-.42.94-.38,1-.32,1-.28,1-.23,1-.18,1-.14,1.07-.07,1.07,0a20.81,20.81,0,1,1-20.8,20.82Z" transform="translate(0 0)"/><path id="path59720" d="M270,491.06v-.43l0-.21,0-.2.06-.21,0-.2.07-.19.07-.2.09-.18.09-.17.09-.18.12-.18.11-.16.13-.16.14-.16.12-.14.16-.14.14-.13.16-.12.16-.13.18-.1.18-.11.18-.09.19-.09.18-.07.2-.05.19-.07.22,0,.21,0,.19,0,.22,0h.21a4.21,4.21,0,1,1-4.19,4.2Z" transform="translate(0 0)"/><path id="path59722" d="M306.54,491.13l0-.21,0-.22,0-.21,0-.2.05-.21.06-.2.07-.19.07-.2.09-.17.09-.18.1-.18.11-.18.11-.16.12-.16.14-.16.13-.14.16-.14.14-.13.16-.12.16-.13.18-.1.18-.11.17-.09.2-.09.18-.07.19-.07.22-.05.19,0,.22,0,.19,0,.23,0h.22a4.2,4.2,0,1,1-4.22,4.2Z" transform="translate(0 0)"/><path id="path59724" d="M421.69,471.32l0-.21v-.21l0-.22,0-.21.05-.19.05-.22.08-.19.07-.18.09-.2.08-.17.11-.18.11-.16.1-.18.13-.16.14-.14.14-.14.15-.15.14-.14.16-.12.18-.11.16-.11.17-.1.18-.09.2-.09.17-.07.2-.07.21-.06.2-.05.21,0h.2l.21,0,.23,0a4.21,4.21,0,1,1-4.21,4.21Z" transform="translate(0 0)"/><path id="path59726" d="M392.84,459v-.44l0-.2,0-.21,0-.2.05-.21.07-.2.08-.17.08-.2.09-.18.11-.18.11-.16.12-.17.13-.16.12-.15.14-.14.14-.14.16-.14.16-.13.16-.1.16-.11.18-.11.2-.09.18-.08.19-.08.2-.07.19-.05.2-.05.21,0,.21,0h.22l.21,0a4.21,4.21,0,1,1-4.19,4.21Z" transform="translate(0 0)"/><path id="path59728" d="M390,479.68v-.21l0-.22V479l0-.21.05-.2.06-.19.07-.2.07-.2.09-.17.09-.2.1-.16.11-.18.11-.16L391,477l.14-.16.15-.14.14-.14.16-.13.14-.12.18-.12.16-.11.18-.11.17-.09.2-.09.19-.07.2-.07.2-.05.19,0,.21-.05.22,0,.21,0h.21a4.2,4.2,0,1,1-4.19,4.2Z" transform="translate(0 0)"/><polygon id="polygon59730" class="cls-9" points="402.74 490.58 443.48 490.58 402.74 467.95 402.74 490.58"/><line id="line59732" class="cls-8" x1="417.56" y1="536.3" x2="417.56" y2="545.42"/><line id="line59734" class="cls-8" x1="375.95" y1="530.38" x2="375.95" y2="539.48"/><path id="path59736" class="cls-8" d="M283,526.65l.25-.2.3-.19.34-.23.39-.23.41-.25.44-.25.46-.27.52-.27.53-.28.57-.27.59-.28.6-.27.64-.28.64-.27.68-.27.69-.26.71-.25.73-.23.73-.23.75-.2.74-.19.77-.18.78-.16L297,521l.78-.11.78-.11.78,0,.78,0h.77l.78,0,.77,0,.74.09c10.7,1.59,21.76,23.34,26.69,30.49" transform="translate(0 0)"/><path id="path59738" class="cls-8" d="M320.94,537.33h0l.09-.06.14-.09.19-.14.27-.14.3-.2.36-.21.41-.23.46-.27.5-.28.55-.3.59-.32.62-.34.67-.36.71-.35.73-.38.79-.37.81-.39.84-.39.87-.39.89-.39.92-.38.95-.39,1-.37,1-.38,1-.35,1-.34,1.05-.34,1.05-.32,1.06-.28,1.09-.29L343,528c11.66-2.58,25.46-.22,40.75,2.15s46.95,7.14,46.95,7.14" transform="translate(0 0)"/><path id="path59740" class="cls-8" d="M345.33,546.53s2.56-18.49,18.49-18.92" transform="translate(0 0)"/><path id="path59742" class="cls-8" d="M329.33,554.75v.5l0,.46.09.42.12.38.2.35.23.31.29.29.32.26.37.24.43.22.46.2.5.19.55.17.58.17.64.16.68.17.71.16.75.16.78.17.83.18.88.2.88.2.95.23,1,.25,1,.27,1,.29,1.07.33,1.1.36,1.12.4,1.16.43,1.19.47,1.21.52c8.28,3.65,12,9.11,12.67,8.67,4.11-2.74,3.56-2.22,9.12-3.78,0,0-14.49-8.31-20.44-20.89C349.78,543.64,329.78,549.19,329.33,554.75Z" transform="translate(0 0)"/><path id="path59744" d="M427.11,537.62v-.23l0-.23,0-.22,0-.21.05-.21.06-.22.07-.21.09-.2.09-.19.08-.2.11-.18.11-.17L428,535l.14-.16.15-.16.14-.16.14-.14.16-.15.18-.12.18-.12.17-.13.18-.11.2-.08.19-.09.2-.09.21-.07.2-.06.21-.05.23,0,.22,0h.23l.21,0a4.42,4.42,0,1,1-4.41,4.43Z" transform="translate(0 0)"/><path id="path59746" class="cls-13" d="M427.11,537.62v-.23l0-.23,0-.22,0-.21.05-.21.06-.22.07-.21.09-.2.09-.19.08-.2.11-.18.11-.17L428,535l.14-.16.15-.16.14-.16.14-.14.16-.15.18-.12.18-.12.17-.13.18-.11.2-.08.19-.09.2-.09.21-.07.2-.06.21-.05.23,0,.22,0h.23l.21,0a4.42,4.42,0,1,1-4.41,4.43Z" transform="translate(0 0)"/><path id="path59748" d="M376,535.63l.56.48.53.46.51.44.5.45.48.42.45.43.44.43.45.41.4.39.4.39.37.39.37.37.34.38.34.35.32.36.3.35.28.35.27.34.25.33.25.33.21.32.22.31.19.32.18.3.16.31.16.3.12.29.13.29.1.29.11.28.07.29.07.28c1.18,5.47-13.69-1.47-14.38-5.3C370.68,539.43,374.68,534.52,376,535.63Z" transform="translate(0 0)"/><path id="path59750" class="cls-13" d="M376,535.63l.56.48.53.46.51.44.5.45.48.42.45.43.44.43.45.41.4.39.4.39.37.39.37.37.34.38.34.35.32.36.3.35.28.35.27.34.25.33.25.33.21.32.22.31.19.32.18.3.16.31.16.3.12.29.13.29.1.29.11.28.07.29.07.28c1.18,5.47-13.69-1.47-14.38-5.3C370.68,539.43,374.68,534.52,376,535.63Z" transform="translate(0 0)"/><path id="path59752" d="M412.44,550v-.28l0-.27,0-.28,0-.27.07-.26.07-.26.09-.25.09-.25.11-.24.12-.23.13-.23.14-.22.16-.22.16-.2.18-.2.17-.19.18-.18.2-.17.21-.16.21-.15.22-.14.23-.13.23-.13.25-.1.25-.1.25-.09.26-.07.25-.06.29,0,.26,0,.27,0h.28a5.45,5.45,0,1,1-5.44,5.44Z" transform="translate(0 0)"/><path id="path59754" class="cls-13" d="M412.44,550v-.28l0-.27,0-.28,0-.27.07-.26.07-.26.09-.25.09-.25.11-.24.12-.23.13-.23.14-.22.16-.22.16-.2.18-.2.17-.19.18-.18.2-.17.21-.16.21-.15.22-.14.23-.13.23-.13.25-.1.25-.1.25-.09.26-.07.25-.06.29,0,.26,0,.27,0h.28a5.45,5.45,0,1,1-5.44,5.44Z" transform="translate(0 0)"/><path id="path59756" class="cls-4" d="M234.29,157.46l.16-.39.27-.34.36-.29.48-.21.56-.14.66-.09.75,0,.83,0,.93.09,1,.13,1.09.19,1.14.23,1.22.3,1.28.32,1.35.4,1.43.42,3,1,3.2,1.14,3.38,1.3,3.54,1.42,3.64,1.54,3.75,1.66,3.84,1.76,3.88,1.85,3.89,1.92,3.9,2,3.85,2,3.81,2.08,3.73,2.1,3.61,2.12,3.49,2.11,3.32,2.1,3.13,2.08,2.93,2.05,2.69,2,1.24,1,1.17,1,1.11,1,1,.92.94.91.87.87.78.85.7.84.58.8.52.76c7.86,13.1,1.21,12.75,1.51,22.83.25,7.82,5.14,12.8,10.76,13,6.4.25,12-3.28,13.42-7.78,2.29-7.15-2.14-20.43-10.69-16.25-4.74,2.31,2.37-11.91,9.78-7.33,6,3.72,3.93-3.48,11.49-3.92,10.2-.59,7.43,12.32,6.88,17.12-1.11,9.77,3.55,21,13.56,16.88,12.89-5.33.68-16.92,6.22-30.45s56.11-43.89,92.68-48.66c10.2-1.33,3.77,6.67-1.12,10.67-2.49,2,2.11,11.66-10.44,24.21-2.45,2.46,6.1,10.08-19.09,29.59-3.13,2.41,5.3,17.08-22.26,24.87-6.13,1.72,3.7,8.37-4.66,17.77-5.33,6,6.33,14.55-6.66,18.88-4,1.34,4.67,12.68-9.55,14.67-3.38.48-3.38,18.74-20.23,5.57-5.12-4,3.09,11.94-1.1,10.88s-5.57-2.88-5.57-2.88-1.51,11,5.1,16.44c3.79,3.11,2.88,18.29-8.88,10.44-1.32-.89,1.12,12.44-10,5.56-1.68-1.05-5.76,10.58-13.12-.44-.88-1.34-8.74,7.69-10.2-4-.23-1.78-4.23,6-9.56.21-5.55-6,2.4-12.53,3.66-14.21,3.66-4.9-1.05-9.13.57-12.9,3.77-8.89-2.9,5.78-6.46,1.56-2.89-3.45,5.34-13.86,1.12-11.78-15.78,7.78-13.79-3.33-16.23-3.56-13.65-1.23-5.56-12.44-9.54-12.66-17.11-.94-6.46-17.56-9.78-18.9-12.66-5.06-1.35-15.55-4.46-16.83-27.81-11.33-15-19.79-21.07-23.27-26.19-15.06-12.55-23.13-16.2-27.24-8-9-17.21-16.19-12.85-28.74C237.78,164.76,232,166.83,234.29,157.46Z" transform="translate(0 0)"/><path id="path59758" class="cls-10" d="M234.29,157.46l.16-.39.27-.34.36-.29.48-.21.56-.14.66-.09.75,0,.83,0,.93.09,1,.13,1.09.19,1.14.23,1.22.3,1.28.32,1.35.4,1.43.42,3,1,3.2,1.14,3.38,1.3,3.54,1.42,3.64,1.54,3.75,1.66,3.84,1.76,3.88,1.85,3.89,1.92,3.9,2,3.85,2,3.81,2.08,3.73,2.1,3.61,2.12,3.49,2.11,3.32,2.1,3.13,2.08,2.93,2.05,2.69,2,1.24,1,1.17,1,1.11,1,1,.92.94.91.87.87.78.85.7.84.58.8.52.76c7.86,13.1,1.21,12.75,1.51,22.83.25,7.82,5.14,12.8,10.76,13,6.4.25,12-3.28,13.42-7.78,2.29-7.15-2.14-20.43-10.69-16.25-4.74,2.31,2.37-11.91,9.78-7.33,6,3.72,3.93-3.48,11.49-3.92,10.2-.59,7.43,12.32,6.88,17.12-1.11,9.77,3.55,21,13.56,16.88,12.89-5.33.68-16.92,6.22-30.45s56.11-43.89,92.68-48.66c10.2-1.33,3.77,6.67-1.12,10.67-2.49,2,2.11,11.66-10.44,24.21-2.45,2.46,6.1,10.08-19.09,29.59-3.13,2.41,5.3,17.08-22.26,24.87-6.13,1.72,3.7,8.37-4.66,17.77-5.33,6,6.33,14.55-6.66,18.88-4,1.34,4.67,12.68-9.55,14.67-3.38.48-3.38,18.74-20.23,5.57-5.12-4,3.09,11.94-1.1,10.88s-5.57-2.88-5.57-2.88-1.51,11,5.1,16.44c3.79,3.11,2.88,18.29-8.88,10.44-1.32-.89,1.12,12.44-10,5.56-1.68-1.05-5.76,10.58-13.12-.44-.88-1.34-8.74,7.69-10.2-4-.23-1.78-4.23,6-9.56.21-5.55-6,2.4-12.53,3.66-14.21,3.66-4.9-1.05-9.13.57-12.9,3.77-8.89-2.9,5.78-6.46,1.56-2.89-3.45,5.34-13.86,1.12-11.78-15.78,7.78-13.79-3.33-16.23-3.56-13.65-1.23-5.56-12.44-9.54-12.66-17.11-.94-6.46-17.56-9.78-18.9-12.66-5.06-1.35-15.55-4.46-16.83-27.81-11.33-15-19.79-21.07-23.27-26.19-15.06-12.55-23.13-16.2-27.24-8-9-17.21-16.19-12.85-28.74C237.78,164.76,232,166.83,234.29,157.46Z" transform="translate(0 0)"/><path id="path59760" class="cls-10" d="M331.56,235.41c-2,36.89,57.56,37.78,52.44-3.55" transform="translate(0 0)"/><path id="path59762" class="cls-10" d="M340.89,235.64c10.43,22.67,34.22,8.66,32.89.45" transform="translate(0 0)"/><path id="path59764" class="cls-10" d="M324.23,204.3c-50.67,102.67,123.56,95.34,62.22,0" transform="translate(0 0)"/><line id="line59766" class="cls-10" x1="351.79" y1="292.3" x2="362.88" y2="292.3"/><path id="path59768" class="cls-10" d="M349.33,315.41l.39.39.36.41.34.43.32.44.28.47.29.48.25.49.23.52.42,1.07.36,1.1.28,1.17.25,1.21.18,1.23.14,1.26.13,1.26.07,1.3.05,1.28,0,1.3,0,2.52,0,1.25,0,1.21v1.17l.06,1.12.07,1.08.1,1,.15.94.17.89.11.41.13.39.12.37.14.36.18.32.18.3.18.27.21.26.23.22.25.19.27.18.28.14.3.11.34.09.34,0,.39,0c8.21,0,.66-31.56,10.43-31.77" transform="translate(0 0)"/><path id="path59770" class="cls-10" d="M339.11,339.64c7-3.52,6.88-15.34,7.56-17.56" transform="translate(0 0)"/><path id="path59772" class="cls-10" d="M377,339.34c-7-3.52-6.88-15.34-7.56-17.56" transform="translate(0 0)"/><path id="path59774" class="cls-10" d="M311.32,296.75c8-.89,19.56-26.23,14.46-30.23" transform="translate(0 0)"/><path id="path59776" class="cls-10" d="M302,285.19c8.25-1.1,21.1-22.43,17.78-26.22" transform="translate(0 0)"/><path id="path59778" class="cls-10" d="M292.23,264.53c7.77,2.23,23.54-8.67,24-14.66" transform="translate(0 0)"/><path id="path59780" class="cls-10" d="M240.44,169l.63-.14.62-.11.62,0,.62,0h.61l.6,0,.62,0,.61.11.6.12.59.14,1.19.39,1.17.5,1.16.59,1.16.66,1.12.74,1.12.82,1.08.89,1.08.92,1.05,1,1.05,1,1,1.05,1,1.09,1,1.08L262.6,182l.9,1.09.87,1.06.86,1,.81,1,.8,1,.77.92.73.85.71.79.67.73.64.64.61.55.59.46c11.11,8,19.52,6.45,22.66,4.89.45-.23-6.22,25.54,20.89,50.88" transform="translate(0 0)"/><path id="path59782" class="cls-10" d="M476,167.52l-.63-.12-.62-.11-.62-.09-.61,0h-1.22l-.61.06-.6.07-1.19.23-1.18.34-1.15.42-1.16.52-1.12.59-1.12.65-1.1.73-1.07.8-1.06.84-1,.89-1,.9-1,1-1,1-1,1-1.83,2-.89,1-.85,1-.84,1-.8.92-.78.91-.77.85-.72.8-.7.75-.66.67-.64.61-.62.53-.57.46c-11.11,8-19.93,8.57-23.07,7-.45-.21,4.41,27-22.7,52.34" transform="translate(0 0)"/><path id="path59784" class="cls-10" d="M250.67,195.41l1,0,1,.07.93.16.92.2.89.25.87.32.85.35.84.39.82.45.78.48.78.51.77.54.76.57.73.58.73.61.71.62,1.4,1.26,1.36,1.28,1.33,1.26,1.33,1.21.66.59.64.55.66.52.66.49.65.47.66.42.66.39.66.34c3.87,1.81,14,4.45,18.66,2.44" transform="translate(0 0)"/><path id="path59786" class="cls-10" d="M266.45,224.75c7.77,3.34,30.65,6.89,32.22,2" transform="translate(0 0)"/><path id="path59788" class="cls-10" d="M286.9,248.75c5.35.41,15.54-4.45,18.66-11.33" transform="translate(0 0)"/><path id="path59790" class="cls-10" d="M385.33,271.64c-.89,4,10.23,23.12,22.23,25.11" transform="translate(0 0)"/><path id="path59792" class="cls-10" d="M392.89,263.41c5.78.23,19.11,14.49,20.44,20" transform="translate(0 0)"/><path id="path59794" class="cls-10" d="M397.33,255.41c7.11-2.22,21.12,6.67,22.67,12" transform="translate(0 0)"/><path id="path59796" class="cls-10" d="M402,244.3c6-2.43,20.45.68,22.69,5.57" transform="translate(0 0)"/><path id="path59798" class="cls-10" d="M418,225.64c4.45,1.33,24.23,1.12,32.68-6.23" transform="translate(0 0)"/><path id="path59800" class="cls-10" d="M422.22,209.64l.52.19.51.18.55.14.56.13.56.1.57.07.61.06.58,0,.61,0,.6,0,.61,0,.6-.05.62-.05.61-.09.6-.09.59-.12.6-.13.59-.14.57-.16.57-.18.53-.19.54-.2.53-.21.5-.23.48-.24.46-.24.43-.25.4-.27.4-.28.35-.29.34-.28.3-.31c4-4.21,20.66-17.54,28.23-15.11" transform="translate(0 0)"/><path id="path59802" class="cls-4" d="M372.53,276.89l-.78.05-.73.11-.69.14-.66.18-.6.21-.57.27-.52.28-.48.34-.44.39-.41.41-.39.46-.34.52-.3.53-.29.59-.26.62-.22.68-.21.69-.18.76-.14.79-.14.83-.11.87-.11.93-.07,1-.07,1-.05,1.05,0,1.08,0,1.14,0,1.18,0,1.22v2.58l0,1.35a57.8,57.8,0,0,0,1,12.75c.39,2.86,6.33,9,10.1,8.35s7.11-4.89,7.11-9.77V286.67C381.87,283.09,379,276.55,372.53,276.89Z" transform="translate(0 0)"/><path id="path59804" class="cls-10" d="M372.53,276.89l-.78.05-.73.11-.69.14-.66.18-.6.21-.57.27-.52.28-.48.34-.44.39-.41.41-.39.46-.34.52-.3.53-.29.59-.26.62-.22.68-.21.69-.18.76-.14.79-.14.83-.11.87-.11.93-.07,1-.07,1-.05,1.05,0,1.08,0,1.14,0,1.18,0,1.22v2.58l0,1.35a57.8,57.8,0,0,0,1,12.75c.39,2.86,6.33,9,10.1,8.35s7.11-4.89,7.11-9.77V286.67C381.87,283.09,379,276.55,372.53,276.89Z" transform="translate(0 0)"/><path id="path59806" class="cls-4" d="M340.66,277.19l-.78.07-.73.09-.7.14-.65.18-.61.23-.57.25-.51.3-.48.34-.45.37-.41.43-.39.46-.34.5-.3.55-.28.59-.27.62L333,283l-.22.71-.17.75-.15.8-.14.83-.1.87-.11.93-.07,1-.07,1-.06,1.05,0,1.1,0,1.12,0,1.2v3.78l0,1.35c0,8.68,1.63,8.91,1.78,11.79.23,4.21,1.88,12,9.35,9.33,3.59-1.31,6.54-2.91,7.11-7.78.89-7.77,0-17.55,0-25.78C350,283.41,347.11,276.85,340.66,277.19Z" transform="translate(0 0)"/><path id="path59808" class="cls-10" d="M340.66,277.19l-.78.07-.73.09-.7.14-.65.18-.61.23-.57.25-.51.3-.48.34-.45.37-.41.43-.39.46-.34.5-.3.55-.28.59-.27.62L333,283l-.22.71-.17.75-.15.8-.14.83-.1.87-.11.93-.07,1-.07,1-.06,1.05,0,1.1,0,1.12,0,1.2v3.78l0,1.35c0,8.68,1.63,8.91,1.78,11.79.23,4.21,1.88,12,9.35,9.33,3.59-1.31,6.54-2.91,7.11-7.78.89-7.77,0-17.55,0-25.78C350,283.41,347.11,276.85,340.66,277.19Z" transform="translate(0 0)"/><polyline id="polyline59810" class="cls-14" points="337.33 207.2 333.78 214.75 344.44 214.75"/><path id="path59812" class="cls-3" d="M73.82,283.54l5.48-15.1c3-8.21,2.66-13.61.35-18.15-2.46-4.57-7.17-7.91-13.37-10.17-6-2.18-11.74-2.56-16.75-.33-4.65,2.11-7.57,6-10,12.64l-6,16.44,2,.75c1.51-4.16,2.06-4.34,6-2.92l27.46,10c3.94,1.44,4.24,1.92,2.73,6.08Z" transform="translate(0 0)"/><path id="path59814" class="cls-1" d="M42.4,260.34l-.1,0-.1,0-.1,0-.09,0-.18-.08-.16-.07-.16-.07-.14-.07-.14-.07-.13,0-.12-.07-.1-.08-.1-.07-.1-.07-.08-.07-.07-.07-.07-.07-.05-.09,0-.07,0-.09,0-.09,0-.09,0-.09v-.42l0-.11,0-.12,0-.13,0-.12,0-.15,0-.14.06-.16,1.4-3.84c1.6-4.41,4-7.3,7.87-8.53,4.32-1.33,9-.69,14.94,1.47,5.4,2,9.29,4.56,11.44,8,2.33,3.63,2.54,8,.75,12.92l-1,2.69c-.65,1.81-1.2,1.92-3.9.94Z" transform="translate(0 0)"/><path id="path59816" class="cls-3" d="M103.52,214.17,95.87,208l-1.28,2.42c5,4.34,5.17,5.14,3.61,8.07l-3.82,7.2c-.56,1-1,1.3-3.1.22L77.5,218.54l2.83-5.33c1.23-2.29,1.79-2.53,6.73.11L88.31,211l-12.83-6.83-1.25,2.33c4.61,2.45,4.94,3.2,3.71,5.47l-2.81,5.32-12.21-6.49c-2.07-1.1-2.32-1.44-1.41-3.15l2.91-5.49c1.54-2.9,2.07-3.27,8.46-1.58l1.29-2.42L65,195.32l-12,22.49,1.91,1c1.93-3.63,2.54-3.81,6.27-1.83L87,230.7c3.72,2,3.93,2.56,2,6.19l1.92,1Z" transform="translate(0 0)"/><path id="path59818" class="cls-3" d="M105.9,197.4l.16.13.16.11.15.1.14.11.14.09.14.1.13.11.13.09.12.09.11.09.12.09.1.1.2.16.19.18.16.16.15.16.13.16.11.16.1.16.07.16.06.16,0,.16,0,.16v.34l0,.18,0,.17-.06.2-.07.2-.09.21-.11.21-.12.22-.06.12-.07.12-.08.13-.08.12-.08.13-.08.12-.09.14-.1.15-.09.14-.1.14-.11.16-.11.16L109,205l9-12.88-1.77-1.24c-2.69,3.84-3.21,3.82-6.69,1.39l-9.92-7,1.65-2.37c3.4-4.85,4.49-8.07,4.32-11.29s-2.12-6.2-5.4-8.48-6.72-2.9-9.64-2-5.26,2.93-8.32,7.31l-8.34,11.89,1.78,1.24c2.35-3.34,3-3.37,6.39-1Z" transform="translate(0 0)"/><path id="path59820" class="cls-1" d="M84.06,170.52l.15-.21.16-.21.15-.22.16-.19.16-.2.16-.19.16-.18.15-.18.16-.18.16-.16.16-.16.16-.16.17-.14.16-.14.16-.14.16-.13.17-.12.16-.13.17-.12.17-.11.16-.09.17-.1.17-.09.17-.09.18-.07.17-.07.17-.07.18-.07.18-.06.17,0,.18-.05.18,0c2.13-.39,4.64.3,7.14,2,3.07,2.16,4.26,4.13,4.65,6.16.42,2.41-.62,4.67-2.07,6.75l-1.7,2.44-12.45-8.73c-2.29-1.6-2.6-2.05-2-3Z" transform="translate(0 0)"/><path id="path59822" class="cls-3" d="M133.57,151.59l7.06,3.24c2.8,1.22,3.4,1.92,1.12,4.44l1.61,1.46,8.61-9.55-1.62-1.46c-1.36,1.52-2.23,1.64-5.59.16l-36.47-15.5L105.9,137l20.59,34.35c1.45,2.43,1.35,3.34,0,4.83l1.61,1.46,6.44-7.15-1.62-1.44c-2.18,2.42-2.76,2.14-4.84-1.13l-3.85-6Z" transform="translate(0 0)"/><polygon id="polygon59824" class="cls-1" points="130.97 150.44 122.82 159.5 112.16 142.31 112.29 142.15 130.97 150.44"/><path id="path59826" class="cls-3" d="M161.19,116.21l.18-.23.18-.23.17-.23.16-.23.32-.48.29-.48.27-.48.24-.46.22-.48.2-.48.17-.48.16-.48.13-.47.11-.46.09-.46.06-.44.05-.43v-.45a11,11,0,0,0-2.68-7.37,9.9,9.9,0,0,0-8.54-4c-3.55.25-6.5,1.87-10.6,5.32l-11.65,9.76,1.4,1.67c3.23-2.72,3.81-2.6,6.53.64l18.73,22.31c2.72,3.23,2.72,3.84-.5,6.54l1.39,1.67L170,135.54l-1.39-1.67c-3.14,2.65-3.61,2.54-6.37-.75L154,123.34l3.17-2.66,20.64,8.3,6.76-5.67-1.39-1.67c-1.81,1.52-2.82,1.79-6.74.35Z" transform="translate(0 0)"/><path id="path59828" class="cls-1" d="M143.08,110.31l-.09-.11-.09-.08-.08-.11-.08-.11-.08-.09-.08-.1-.08-.09-.07-.09-.07-.09-.07-.09-.06-.07-.06-.09-.07-.07,0-.09L142,109l-.05-.07-.05-.07,0-.07-.05-.07,0-.08-.09-.12-.07-.12-.06-.11-.05-.11,0-.1,0-.11,0-.09,0-.09v-.27l0-.07,0-.09,0-.07,0-.07.05-.09.05-.07.07-.07.07-.09.08-.07.08-.07.09-.09,2.16-1.81c2.41-2,4.44-2.74,6.37-2.65a8.41,8.41,0,0,1,6,3.29c2.12,2.54,3,4.71,2.64,7.2-.31,2.33-1.82,4.39-4.29,6.47l-2.56,2.13Z" transform="translate(0 0)"/><path id="path59830" class="cls-3" d="M185.67,75.06l5.26-3.29c2.92-1.81,3.47-1.89,8.29,3.39l2.15-1.35L194.86,66,168.19,82.67,172.37,92l2.17-1.35c-2.64-6.55-2.4-7.08.54-8.93l5.28-3.29L198,106.56c2.24,3.57,2.23,4.11-2.08,6.81l1.12,1.81,14.44-9-1.12-1.79c-4.32,2.68-4.8,2.45-7-1.12Z" transform="translate(0 0)"/><path id="path59832" class="cls-3" d="M242.08,44.6l2.08,35.7-.16.06-23.66-27-10,4,.8,2c3.73-1.51,4.18-1.23,5.69,2.51l11,27.23c1.58,3.91,1.48,4.46-2.24,6l.82,2,10.49-4.24-.82-2c-3.43,1.38-3.89,1.06-5.47-2.85L219.73,61.19l.11,0,25.26,28.8,2.08-.84-2.11-38,.14-.06L256,77.8c1.58,3.91,1.52,4.42-2.12,5.92l.82,2,13.74-5.55-.8-2c-3.77,1.51-4.25,1.21-5.83-2.7l-10.9-27c-1.6-4-1.53-4.5,2.26-6l-.8-2Z" transform="translate(0 0)"/><path id="path59834" class="cls-3" d="M303.88,71.32l-.5-9.84-2.65.65c.11,6.63-.37,7.29-3.59,8.09l-7.91,2c-1.14.28-1.67.1-2.24-2.16l-3.77-15.12,5.85-1.48c2.54-.62,3.07-.36,4.42,5.08l2.58-.64-3.52-14.11-2.56.64c1.26,5.08.93,5.81-1.58,6.43l-5.85,1.46-3.34-13.42c-.57-2.28-.48-2.68,1.38-3.15l6-1.51c3.18-.8,3.8-.66,6.84,5.23l2.65-.66-4-8.69L267.4,36.25l.53,2.1c4-1,4.53-.64,5.55,3.43l7,28.32c1,4.07.73,4.62-3.27,5.62l.54,2.11Z" transform="translate(0 0)"/><path id="path59836" class="cls-3" d="M321.87,25.71l-10.79,1,.19,2.15c4.25-.38,4.64-.06,5,4.19l2.56,29.14c.36,4.2,0,4.66-4.16,5l.18,2.15,12.13-1-.2-2.16c-4.14.35-4.6,0-5-4.24l-2.65-30.16h.13L345.67,67.2l4.2-.37-3.2-36.45c-.36-4.19.09-4.67,4-5l-.2-2.15-12.11,1.05.2,2.17c4.25-.38,4.76,0,5.14,4.21l2.45,28.11H346Z" transform="translate(0 0)"/><path id="path59838" class="cls-3" d="M386.13,27.59l6.19.45c3.41.23,3.91.49,4.69,7.6l2.55.18-.68-10.15-31.36-2.2-2.1,10,2.56.2c1.71-6.86,2.22-7.15,5.69-6.9l6.21.44-2.32,33.16c-.3,4.2-.62,4.62-5.68,4.27l-.16,2.13,17,1.19.14-2.13c-5.08-.36-5.33-.82-5-5Z" transform="translate(0 0)"/><path id="path59840" class="cls-3" d="M446.35,80.48l.57.18.55.14.57.14.55.14.53.11.55.11.53.09.54.09.53,0,.52,0,.51.06h.52l.51,0h1l.48,0,.49,0,.48,0,.5-.06.46-.09.48-.08.47-.09.46-.13.46-.12.46-.14.45-.16.44-.18.43-.18.44-.2.43-.21.41-.23.43-.25c4.07-2.45,7.52-7.06,9.77-14.43s1.94-13.68-.65-18.37c-2.48-4.35-6.74-7.16-11.86-8.73s-10.22-1.62-14.72.61c-4.77,2.43-8.54,7.39-10.81,14.86s-2,13.12,0,17.44c2.19,4.66,6.46,7.84,12.41,9.67Z" transform="translate(0 0)"/><path id="path59842" class="cls-1" d="M458.6,40.28l.33.11.32.11.32.12.32.13.31.12.3.14.3.15.3.14.29.16.28.18.29.16.26.17.27.18.27.2.24.19.25.22.25.21.23.21.23.22.24.23.21.25.21.24.22.25.19.25.2.27.17.27.18.28.18.28.16.31.16.3.14.3.14.32c1.46,3.56,1.5,8.61-.8,16.13-1.93,6.31-4.76,11.11-8.26,13.65a12.55,12.55,0,0,1-18-5.49c-1.47-4.09-1.14-9.66.8-16,2.29-7.52,5.14-11.68,8.34-13.81a11.74,11.74,0,0,1,10.13-1.19Z" transform="translate(0 0)"/><path id="path59844" class="cls-3" d="M507.86,72.94l-2.4-1.12c-2.19,4.68-3,5.05-5.37,4L495,73.39l6-12.84c1.07-2.29,1.41-2.54,3.15-1.72L510,61.56c2.89,1.36,3.21,2,1.92,8.41l2.45,1.14,2.31-9.4L493.49,50.92l-.92,2c3.71,1.72,3.93,2.33,2.15,6.15L482.38,85.46c-1.78,3.82-2.31,4.09-6.08,2.33l-.92,1.95L490,96.55l.91-2c-4.52-2.1-4.62-2.58-2.81-6.46l5.74-12.3L499,78.26c2.33,1.08,2.63,1.7.29,6.74l2.4,1.12Z" transform="translate(0 0)"/><path id="path59846" class="cls-3" d="M553.37,124.82l-2.22-1.62c-5.21,4.6-6.07,4.75-8.86,2.74l-5.19-3.79c-1.1-.8-1.28-1.31.13-3.25l17.92-24.66c2.56-3.52,3.05-3.7,6.57-1.14L563,91.34l-12.4-9-1.28,1.76c3.2,2.35,3.28,3,.81,6.4L533,114c-2.49,3.43-3.11,3.57-6.33,1.23L525.4,117l20.54,14.93Z" transform="translate(0 0)"/><path id="path59848" class="cls-3" d="M579.24,144.82l-3.6,6.88c-1.38,2.74-2.11,3.29-4.51.89l-1.53,1.53,9.1,9.1,1.53-1.53c-1.44-1.44-1.53-2.33.13-5.62l17.38-35.59L595.22,118l-35.38,18.73c-2.49,1.34-3.41,1.19-4.84-.23L553.48,138l6.79,6.81,1.54-1.55c-2.33-2.29-2-2.86,1.37-4.78l6.19-3.52Z" transform="translate(0 0)"/><polygon id="polygon59850" class="cls-1" points="580.52 142.29 571.89 133.67 589.62 123.93 589.76 124.07 580.52 142.29"/><path id="path59852" class="cls-3" d="M617.16,145.05l.1.14.13.16.1.14.11.15.09.14.11.14.08.12.09.15.09.12.07.13.09.12.07.11.07.12.06.11.12.21.11.21.07.2.07.2.05.17,0,.18,0,.18v.18l0,.16,0,.16-.06.17-.07.16-.09.16-.1.16-.13.18-.14.16-.16.18-.18.18-.19.18-.11.1-.11.09-.12.09-.11.11-.12.1-.14.11-.13.11-.14.1-.14.11-.16.11-.15.12-.16.13L592.92,169c-3.39,2.56-4,2.54-6.52-.82l-1.72,1.32,9.77,13c3.42,4.53,6.44,6.52,9.66,7,2.93.42,5.86-.41,8.85-2.65a9.24,9.24,0,0,0,3.89-7.47,15.36,15.36,0,0,0-3.21-9l.08-.07c2.72,2.7,5.25,4,7.7,4.37a9.29,9.29,0,0,0,7.22-2,8.73,8.73,0,0,0,3.64-7.1c0-3.43-1.58-6.13-4.87-10.52l-8.53-11.31Z" transform="translate(0 0)"/><path id="path59854" class="cls-1" d="M621.69,155.2l.11-.07.1-.07L622,155l.11-.07.09-.06.09-.05.08-.05.09-.06.09,0,.09,0,.07,0,.07,0,.09,0,.07,0h.31l.07,0,.07,0,.07,0,.07,0,.07,0,.07.05.09.05.07.07.07.08.09.07,0,0,0,0,0,0,0,.05,0,0,0,.05.06,0,0,.08,1.73,2.27c1.63,2.19,2,4.07,1.7,5.64a8.83,8.83,0,0,1-3.43,4.76,8.73,8.73,0,0,1-6.74,2,9.19,9.19,0,0,1-5.52-3.79l-1.84-2.43Z" transform="translate(0 0)"/><path id="path59856" class="cls-1" d="M608.05,165.49l2.37,3.15c1.85,2.45,2.7,4.75,2.45,6.88a8.72,8.72,0,0,1-3.77,6c-2.75,2.08-5.05,2.9-7,2.83-2.16-.14-3.86-1.25-5.41-3.29l-2.08-2.76c-1-1.42-.85-2,1-3.46Z" transform="translate(0 0)"/><path id="path59858" class="cls-3" d="M618.65,220.82l.28.51.31.5.3.5.3.46.32.46.3.47.34.42.32.43.34.43.34.39.33.39.36.37.35.37.36.36.37.34.38.32.37.32.39.3.39.28.39.29.41.27.41.24.41.24.43.23.42.21.43.2.44.17.43.18.46.14.45.16.46.13.46.12c4.66,1.07,10.33.14,17.09-3.59s10.89-8.5,12.28-13.67c1.25-4.87.13-9.85-2.45-14.52s-6.24-8.27-11-9.8c-5.12-1.55-11.29-.59-18.1,3.2s-10.54,8.05-12.09,12.57c-1.67,4.85-.82,10.11,2.22,15.55Z" transform="translate(0 0)"/><path id="path59860" class="cls-1" d="M655.4,200.41l.16.3.16.3.14.32.14.31.12.3.13.32.12.32.11.3.09.32.09.32.09.3.07.32.07.32.05.32,0,.32,0,.32,0,.32,0,.32v1.3l0,.32,0,.32-.06.34-.05.32-.07.32-.07.32-.09.34-.09.32-.11.32-.1.32c-1.44,3.59-4.93,7.23-11.79,11-5.78,3.2-11.15,4.67-15.45,4.08A12.53,12.53,0,0,1,620,209.24c1.78-4,5.89-7.71,11.66-10.93,6.87-3.8,11.81-4.82,15.6-4.14a11.86,11.86,0,0,1,8.12,6.19Z" transform="translate(0 0)"/><path id="path59862" class="cls-3" d="M659.43,261.26l.16.25.14.25.16.25.16.23.32.46.34.45.36.42.35.39.38.4.37.35.39.32.37.32.39.29.4.26.4.25.4.23.39.2.19.09.2.09a11.28,11.28,0,0,0,7.86.16,9.9,9.9,0,0,0,6.73-6.58c1-3.4.59-6.74-1.15-11.81l-5-14.36-2,.71c1.37,4,1.07,4.48-2.93,5.85l-27.54,9.49c-4,1.37-4.57,1.18-5.94-2.82l-2.06.71,5,14.43,2-.69c-1.33-3.88-1.08-4.29,3-5.69L655.36,252l1.35,3.91L641.56,272.2l2.88,8.35,2-.71c-.77-2.24-.68-3.27,2.08-6.4Z" transform="translate(0 0)"/><path id="path59864" class="cls-1" d="M671.41,246.47l.15,0,.12-.06.12,0,.13-.06.12,0,.11,0,.12,0,.11,0,.11,0,.1,0,.09,0h.11l.09,0,.11,0,.08,0,.09,0,.07,0,.09,0,.09,0,.07,0,.15,0,.14,0,.12,0H674l.12,0,.11,0h.09l.1,0,.07,0,.09,0,.07,0,.08,0,.07.06,0,0,0,.07.07.07,0,.07.05.09.06.09,0,.11.06.1,0,.13.93,2.66c1,3,1,5.12.17,6.88a8.32,8.32,0,0,1-5.22,4.43c-3.13,1.09-5.46,1.09-7.65-.11s-3.46-3.27-4.51-6.32l-1.09-3.15Z" transform="translate(0 0)"/><path id="path59866" class="cls-3" d="M50.92,436.37l-.72.13-.71.12-.69.11-.68.07-.66.05-.65.06H45.57l-.3,0-.3,0-.29,0-.29,0-.29,0-.28,0-.28-.05-.27-.06-.27-.07-.27-.09-.26-.07-.25-.11L42,436.2l-.25-.13-.24-.11-.24-.12c-2.4-1.21-3.81-3.61-4.38-6.58-.66-3.34-.14-5.78,1.39-7.62,1.76-2.35,4.86-3.56,9.15-4.4l20.72-4c4.23-.84,4.63-.61,5.38,3.23l2.12-.41-2.83-14.59-2.13.41c.75,3.89.39,4.28-3.75,5.08l-21,4.09c-5.88,1.14-9.5,2.86-11.43,6.35-1.57,2.82-1.79,6.63-.86,11.39.88,4.52,2.73,7.54,5.45,9.35,3,1.92,6.76,2.35,11.83,1.35l21.54-4.17c4.14-.8,4.64-.54,5.36,3.13l2.12-.41L77.72,426.9l-2.12.41c.71,3.68.44,4.17-3.78,5Z" transform="translate(0 0)"/><path id="path59868" class="cls-3" d="M85.5,454.67l-3.88-10.12-2,.78c1.53,4,1.34,4.45-2.64,6l-27.3,10.47c-3.95,1.51-4.5,1.28-6-2.62l-2,.79L46,471.29l2-.78c-1.48-3.86-1.23-4.41,2.7-5.92L79,453.74l0,.11L52.19,489l1.51,4L87.84,479.8c3.94-1.52,4.51-1.22,5.92,2.44l2-.78-4.35-11.33-2,.77c1.53,4,1.31,4.58-2.64,6.1L60.44,487.11l0-.12Z" transform="translate(0 0)"/><path id="path59870" class="cls-3" d="M69.2,508.3l-.17.09-.17.09-.16.09-.16.09-.15.07-.16.07-.14.07-.14.07-.14.07-.14.06-.26.12-.24.11-.24.07-.22.07-.21.05-.2.06h-.2l-.18,0-.18,0h-.17l-.17,0-.16-.07-.15-.07-.16-.09-.15-.11-.15-.14-.15-.14-.14-.16-.16-.2-.07-.09-.08-.1-.07-.13-.08-.1L63.8,508l-.08-.12-.08-.13-.08-.14-.09-.14-.08-.14-.09-.16-.09-.16-.09-.16-.09-.16-.09-.18-.1-.18-1.91,1,7.4,13.92,1.92-1c-2.06-3.89-1.82-4.41,1.9-6.38l25.74-13.69c3.72-2,4.3-1.88,6.34,2l1.92-1-7.37-13.86-1.92,1c2,3.84,1.81,4.37-1.92,6.34Z" transform="translate(0 0)"/><path id="path59872" class="cls-3" d="M116.65,524.25l3.37,5.21c1.86,2.88,1.94,3.43-3.26,8.34l1.4,2.13,7.7-6.65L108.74,506.9l-9.21,4.34,1.39,2.15c6.49-2.76,7-2.53,8.92.39l3.39,5.22L85.35,537.1c-3.52,2.3-4.06,2.3-6.83-2l-1.79,1.15L86,550.56l1.79-1.16c-2.77-4.26-2.55-4.75,1-7Z" transform="translate(0 0)"/><path id="path59874" class="cls-3" d="M114.63,586.78l8.62-4.75-1.76-2.1c-5.89,3-6.71,2.86-8.84.33L107.41,574c-.76-.9-.83-1.46,1-3l12-10,3.88,4.62c1.68,2,1.67,2.6-2.62,6.2l1.71,2,11.13-9.34-1.71-2c-4,3.36-4.8,3.38-6.47,1.39l-3.86-4.6L133,550.41c1.79-1.51,2.2-1.61,3.44-.13l4,4.77c2.1,2.51,2.26,3.14-1.7,8.44l1.76,2.09,6.06-7.43-16.38-19.52L128.49,540c2.65,3.14,2.58,3.78-.65,6.49L105.5,565.27c-3.22,2.71-3.85,2.68-6.49-.48l-1.67,1.4Z" transform="translate(0 0)"/><path id="path59876" class="cls-3" d="M124.22,597.11l11.93,10.74c6.5,5.86,11.63,7.57,16.71,7.12s10-3.68,14.43-8.58,6.77-9.92,6.58-15.4c-.22-5.11-2.7-9.27-8-14l-13-11.71-1.46,1.61c3.29,3,3.27,3.53.45,6.65l-19.55,21.71c-2.81,3.13-3.38,3.22-6.66.26Z" transform="translate(0 0)"/><path id="path59878" class="cls-1" d="M157.5,576.67l.07-.08.07-.08.07-.07.07-.07.13-.14.12-.13.12-.12.12-.11.12-.1.11-.09.1-.09.11-.07.1-.07.1-.05.1,0,.09,0,.1,0,.09,0h.37l.09,0,.1,0,.09,0,.1,0,.1,0,.1.06.1.07.11.07.11.08.11.09.12.1.12.11,3,2.74c3.48,3.14,5.27,6.44,5,10.5-.38,4.5-2.74,8.6-7,13.3-3.84,4.26-7.7,6.9-11.73,7.59-4.25.8-8.37-.64-12.27-4.15l-2.12-1.91c-1.42-1.29-1.33-1.84.59-4Z" transform="translate(0 0)"/><path id="path59880" class="cls-3" d="M216.85,625l.45-1.13.46-1.12.23-.56.23-.55.23-.55.23-.53.24-.53.21-.51.23-.49.21-.48.22-.46.19-.44.2-.42.09-.2.09-.19a22.86,22.86,0,0,0-6.39-5.52c-3.45-2.06-6.5-2.6-9.12-2.12a9.92,9.92,0,0,0-6.63,4.65,11.91,11.91,0,0,0-1.72,6c.07,2.79,1.47,5.9,3,10.19a27.66,27.66,0,0,1,2.51,8.16,8.52,8.52,0,0,1-1.35,5.09,7.81,7.81,0,0,1-4.61,3.7,6.89,6.89,0,0,1-5.3-.82c-3.75-2.25-4.87-5.14-2.68-12l-2.65-.81a62,62,0,0,1-3.47,8.79,29.49,29.49,0,0,0,7.19,6.18c4,2.43,7.76,2.77,10.77,2a11.4,11.4,0,0,0,6.7-5.27,12.45,12.45,0,0,0,1.81-7.39c-.26-2.76-1.36-5.14-3.34-10.21-1.53-4-2.18-5.87-2.31-7.74a7.38,7.38,0,0,1,1.1-4.29,5.94,5.94,0,0,1,3.43-2.74,6.59,6.59,0,0,1,5.11.8c3.94,2.37,4.12,4.59,1.86,10.49Z" transform="translate(0 0)"/><path id="path59882" class="cls-3" d="M245.33,631.2l5.66,2.52c3.13,1.4,3.5,1.82,1.81,8.76l2.33,1,2.84-9.77L229.24,621l-5.36,8.65,2.34,1c3.93-5.85,4.52-5.95,7.68-4.53l5.69,2.53L226.08,659c-1.71,3.84-2.15,4.14-6.81,2.07l-.85,1.95L234,670l.87-2c-4.66-2.07-4.73-2.61-3-6.45Z" transform="translate(0 0)"/><path id="path59884" class="cls-3" d="M272.8,669.22l.05,7.75c.07,3.07-.32,3.9-3.57,2.91l-.62,2.07,12.3,3.77.64-2.08c-2-.6-2.44-1.33-2.54-5L277.71,639l-3.42-1-22.41,33.16c-1.59,2.34-2.48,2.65-4.4,2.06l-.64,2.08,9.2,2.81.64-2.08c-3.13-1-3.12-1.6-1-4.87l3.81-6Z" transform="translate(0 0)"/><polygon id="polygon59886" class="cls-1" points="272.73 666.38 261.07 662.81 272.16 645.89 272.36 645.95 272.73 666.38"/><path id="path59888" class="cls-3" d="M313.92,651l6.1,1.08c3.38.6,3.84.91,3.87,8.06l2.51.44.39-10.17-31-5.46-3.09,9.69,2.51.44c2.41-6.62,2.95-6.85,6.38-6.25l6.11,1.08L302,682.67c-.72,4.14-1.09,4.53-6.08,3.65l-.38,2.1,16.77,3,.35-2.09c-5-.89-5.21-1.38-4.48-5.53Z" transform="translate(0 0)"/><path id="path59890" class="cls-3" d="M359.15,694.56l2.24-9.6-2.74-.1c-1.73,6.39-2.37,6.9-5.67,6.79l-8.16-.28c-1.18,0-1.64-.36-1.55-2.68l.55-15.61,6,.22c2.59.09,3,.5,2.86,6.1l2.63.09.52-14.53-2.65-.09c-.2,5.22-.71,5.83-3.31,5.74l-6-.21.46-13.82c.09-2.34.29-2.71,2.23-2.64l6.2.21c3.29.11,3.86.42,5.14,6.91l2.74.09-1.48-9.47-25.46-.89-.05,2.18c4.09.13,4.53.61,4.37,4.82l-1,29.15c-.14,4.21-.59,4.65-4.69,4.51l-.09,2.17Z" transform="translate(0 0)"/><path id="path59892" class="cls-3" d="M391.18,659.5l-.28-1.18-.27-1.19-.14-.59-.13-.59-.12-.57-.11-.57-.12-.56-.11-.55-.1-.53-.09-.52-.09-.49-.09-.48-.09-.45,0-.22,0-.21a23.14,23.14,0,0,0-8.39-.86c-4,.29-6.83,1.61-8.68,3.5a9.75,9.75,0,0,0-2.77,7.6,12.07,12.07,0,0,0,2,5.94c1.66,2.24,4.59,4,8.32,6.61a27.84,27.84,0,0,1,6.74,5.25,8.61,8.61,0,0,1,1.81,4.94,7.81,7.81,0,0,1-1.65,5.67,6.82,6.82,0,0,1-4.82,2.38c-4.35.3-6.93-1.42-9.06-8.29l-2.65.86a59.29,59.29,0,0,1,2.22,9.18,29.35,29.35,0,0,0,9.42,1c4.7-.34,8-2.19,10-4.55a11.41,11.41,0,0,0,2.45-8.17,12.49,12.49,0,0,0-2.74-7.08c-1.81-2.11-4.07-3.44-8.6-6.45-3.56-2.41-5.16-3.56-6.33-5a7.45,7.45,0,0,1-1.57-4.14,6,6,0,0,1,1.25-4.23,6.57,6.57,0,0,1,4.64-2.26c4.58-.32,6,1.4,7.55,7.53Z" transform="translate(0 0)"/><path id="path59894" class="cls-3" d="M448.66,683.4l.57-.15.55-.17.55-.17.53-.18.52-.19.51-.2.52-.21.48-.22.5-.22.46-.23.46-.24.46-.25.43-.26.44-.27.41-.27.41-.28.39-.3.39-.3.38-.31.37-.31.36-.33.33-.33.32-.35.32-.35.32-.36.29-.37.28-.38.29-.39.25-.4.25-.4.24-.42.22-.42c2.17-4.25,2.65-10,.64-17.43s-5.6-12.64-10.28-15.24c-4.42-2.38-9.53-2.51-14.68-1.12s-9.53,4-12.16,8.32c-2.76,4.59-3.31,10.8-1.3,18.33S429,679.22,433,681.81c4.32,2.78,9.62,3.22,15.64,1.61Z" transform="translate(0 0)"/><path id="path59896" class="cls-1" d="M437.74,642.82l.34-.09.34-.07.32-.07.34-.07.33,0,.34-.05.32,0,.34,0,.32,0H442l.33,0,.32,0,.32,0,.31,0,.32.06.32.07.32.08.3.08.3.1.32.1.3.12.31.12.3.13.3.15.28.15.31.16.28.17.3.18.29.19c3.13,2.25,5.83,6.51,7.86,14.11,1.7,6.38,1.84,11.94.23,16a12.52,12.52,0,0,1-18.21,4.88c-3.41-2.67-6.06-7.56-7.78-13.95-2-7.59-1.84-12.63-.25-16.13a11.85,11.85,0,0,1,8-6.39Z" transform="translate(0 0)"/><path id="path59898" class="cls-3" d="M489.48,636.81l-2.44,1c2,4.75,1.72,5.63-.66,6.64l-5.22,2.22-5.53-13c-1-2.32-1-2.74.81-3.49l6-2.54c2.95-1.24,3.66-1.06,7.54,4.2l2.48-1.06-5.44-8-23.52,10,.86,2c3.77-1.6,4.35-1.35,6,2.53l11.39,26.84c1.66,3.87,1.48,4.46-2.34,6.08l.85,2L495,665.91l-.84-2c-4.58,2-5,1.7-6.68-2.24l-5.3-12.49,5.3-2.24c2.36-1,3-.81,5.19,4.29l2.44-1Z" transform="translate(0 0)"/><path id="path59900" class="cls-3" d="M539.08,626.05l6,5c2.4,1.92,2.79,2.74-.07,4.6l1.19,1.82,10.79-7-1.19-1.82c-1.71,1.11-2.58,1-5.46-1.29l-31.2-24.42-3,2,11,38.5c.77,2.72.45,3.59-1.24,4.68l1.17,1.82,8.07-5.23-1.19-1.82c-2.74,1.77-3.22,1.35-4.39-2.34l-2.17-6.79Z" transform="translate(0 0)"/><polygon id="polygon59902" class="cls-1" points="536.85 624.28 526.63 630.92 520.8 611.54 520.96 611.44 536.85 624.28"/><path id="path59904" class="cls-3" d="M563.32,568l14.74,32.58-.12.11L546.19,584l-7.91,7.37,1.47,1.59c3-2.75,3.47-2.64,6.22.29l20,21.49c2.86,3.08,3,3.63,0,6.36l1.48,1.59,8.27-7.71-1.48-1.59c-2.7,2.52-3.25,2.39-6.11-.69l-19.79-21.2.09-.08,33.9,17.83,1.64-1.52L568.44,573l.11-.1L588.25,594c2.88,3.07,3,3.58.14,6.27l1.48,1.58,10.86-10.12-1.49-1.58c-3,2.76-3.52,2.66-6.4-.43L573,568.45c-2.92-3.12-3-3.65,0-6.44l-1.49-1.59Z" transform="translate(0 0)"/><path id="path59906" class="cls-3" d="M625.9,561.51l-6.33-7.57-1.72,2.13c4.07,5.22,4.09,6,2,8.62L614.74,571c-.75.92-1.28,1.09-3.1-.37l-12.12-9.82,3.8-4.7c1.64-2,2.23-2.13,6.58,1.39l1.67-2.06-11.29-9.14-1.67,2.06c4.06,3.29,4.23,4.07,2.6,6.09l-3.79,4.67-10.74-8.7c-1.83-1.48-2-1.86-.78-3.36l3.91-4.84c2.07-2.54,2.65-2.81,8.61.06l1.72-2.12-8.44-4.54-16,19.81,1.69,1.36c2.58-3.2,3.22-3.25,6.49-.6l22.67,18.35c3.29,2.66,3.37,3.27.78,6.47L609,582.4Z" transform="translate(0 0)"/><path id="path59908" class="cls-3" d="M627.38,522.33l.1-.29.09-.26.09-.29.09-.26.16-.55.13-.54.1-.53.09-.53,0-.54.06-.51,0-.5V517l0-.5-.06-.46,0-.46-.07-.45-.09-.44-.05-.2-.07-.21a11,11,0,0,0-4.82-6.2,9.93,9.93,0,0,0-9.35-1.11c-3.29,1.34-5.6,3.79-8.45,8.34l-8.05,12.87,1.85,1.16c2.24-3.57,2.83-3.65,6.4-1.41l24.71,15.44c3.59,2.25,3.79,2.8,1.55,6.38l1.83,1.15L641.71,538l-1.83-1.15c-2.17,3.46-2.65,3.53-6.3,1.26l-10.84-6.78,2.18-3.52,22.21,1.53,4.67-7.5L650,520.69c-1.26,2-2.13,2.58-6.29,2.42Z" transform="translate(0 0)"/><path id="path59910" class="cls-1" d="M608.34,522.33l-.13-.09-.1-.07-.11-.07-.12-.07-.11-.07-.09-.06-.11-.07-.1-.07-.09,0-.09-.06-.09-.07-.09-.05-.07,0-.09-.06-.07,0-.07,0-.07-.06-.07,0-.07-.05-.06-.06-.12-.09-.11-.1-.09-.09-.09-.09-.07-.07-.07-.09,0-.09-.06-.07,0-.09,0-.07,0-.09v-.34l0-.09,0-.09,0-.08,0-.09,0-.11.07-.09.06-.11,1.49-2.4c1.67-2.66,3.38-4,5.24-4.48a8.47,8.47,0,0,1,6.72,1.28c2.81,1.76,4.27,3.56,4.75,6s-.37,4.75-2.1,7.49l-1.76,2.82Z" transform="translate(0 0)"/><path id="path59912" class="cls-3" d="M651.91,505.65l.18.09.16.09.18.07.16.07.16.09.14.07.14.07.14.08.15.07.12.07.25.14.23.14.21.13.18.14.18.12.16.15.12.14.13.14.1.14.09.16.06.14.05.18,0,.16v.57l0,.21-.06.22,0,.23,0,.12,0,.13,0,.12,0,.13-.05.14-.06.14-.05.14,0,.15-.07.16-.06.16-.07.16-.07.16-.09.17-.07.16-.09.2-.09.18,2,.9,6.65-14.29-2-.91c-1.85,4-2.42,4.11-6.24,2.31l-26.44-12.32c-3.8-1.77-4.08-2.27-2.24-6.24l-2-.9-6.63,14.22,2,.92c1.85-4,2.42-4.08,6.24-2.31Z" transform="translate(0 0)"/><path id="path59914" class="cls-3" d="M667.09,455.63l.45.39.42.37.41.41.39.39.38.39.35.41.34.39.3.41.31.41.28.43.27.41.23.42.23.41.21.43.18.42.18.43a10.07,10.07,0,0,1,0,7.59,11.2,11.2,0,0,1-7.5,6.92c-4.53,1.35-10,.58-15.71-1.5-6.64-2.41-10.83-5.83-12.72-9.28a11.83,11.83,0,0,1-.56-9.95c1-2.86,2.32-4.39,3.78-5.21,1.89-1.08,4.61-.89,8.91-.23l.41-2.7c-3.4-.5-6.67-1.16-9.9-1.91a30.07,30.07,0,0,0-2.8,3.65,27.85,27.85,0,0,0-2.88,5.81c-2.06,5.71-1.88,10.83.06,15,2.26,4.87,7,8.68,13.76,11.11,7.13,2.62,13,3,18.08,1.05,4.28-1.76,7.57-5.31,9.56-10.75a14.79,14.79,0,0,0,.06-10.62,18.77,18.77,0,0,0-5.8-7.66Z" transform="translate(0 0)"/><path id="path59916" class="cls-3" d="M673.46,419.36l7.71-.87c3-.37,3.91-.09,3.26,3.25l2.13.41L689,409.51l-2.13-.41c-.39,2-1.07,2.56-4.71,3l-39.25,5.48-.68,3.52L677.58,440c2.49,1.34,2.88,2.17,2.49,4.16l2.13.41,1.84-9.44-2.14-.41c-.6,3.2-1.26,3.26-4.73,1.53l-6.38-3.16Z" transform="translate(0 0)"/><polygon id="polygon59918" class="cls-1" points="670.65 419.72 668.32 431.68 650.33 422.42 650.36 422.22 670.65 419.72"/><path id="path59920" class="cls-15" d="M39.11,340.09v-.29l0-.26,0-.27,0-.27.06-.24.07-.25.08-.25.1-.25.11-.23.11-.23.13-.23.14-.22.15-.21.16-.2.17-.19.17-.18.19-.18.19-.18.2-.16.21-.14.22-.14.22-.12.23-.13.24-.11.24-.08.25-.09.25-.07.26-.06.26-.05.27,0h.54a5.33,5.33,0,1,1-5.33,5.33Z" transform="translate(0 0)"/><path id="path59922" class="cls-16" d="M39.11,340.09v-.29l0-.26,0-.27,0-.27.06-.24.07-.25.08-.25.1-.25.11-.23.11-.23.13-.23.14-.22.15-.21.16-.2.17-.19.17-.18.19-.18.19-.18.2-.16.21-.14.22-.14.22-.12.23-.13.24-.11.24-.08.25-.09.25-.07.26-.06.26-.05.27,0h.54a5.33,5.33,0,1,1-5.33,5.33Z" transform="translate(0 0)"/><path id="path59924" class="cls-15" d="M668.23,337.8l0-.27,0-.27,0-.26,0-.27.07-.27.07-.25.09-.25.09-.24.1-.24.13-.23L669,335l.15-.23.14-.2.16-.21.16-.2.18-.17.19-.18.2-.16.19-.16.22-.16.21-.13.21-.14.23-.1.25-.11.23-.11.25-.07.25-.07.27-.07.26,0,.27,0,.27,0,.26,0a5.34,5.34,0,1,1-5.33,5.34Z" transform="translate(0 0)"/><path id="path59926" class="cls-16" d="M668.23,337.8l0-.27,0-.27,0-.26,0-.27.07-.27.07-.25.09-.25.09-.24.1-.24.13-.23L669,335l.15-.23.14-.2.16-.21.16-.2.18-.17.19-.18.2-.16.19-.16.22-.16.21-.13.21-.14.23-.1.25-.11.23-.11.25-.07.25-.07.27-.07.26,0,.27,0,.27,0,.26,0a5.34,5.34,0,1,1-5.33,5.34Z" transform="translate(0 0)"/><path id="path59928" class="cls-11" d="M283.56,343v-1.39l0-.66V338.4l0-.59,0-.57,0-.55.07-.53.07-.52.09-.49.12-.47.13-.46.17-.42.18-.41.23-.39.25-.38.29-.34.32-.33.17-.15.18-.14.2-.14.21-.14.21-.13.22-.12L287,331l.23-.1.26-.11.27-.11.29-.09.3-.07.3-.07.32-.07.34-.07.34-.05.35-.06.37,0,.4,0,.39,0,.42,0,.43,0c3.57-.09,11.77,0,18.9,0,10.43,0,3.09-8.89,17.78-8.89h20.87" transform="translate(0 0)"/><path id="path59930" class="cls-11" d="M432.57,342.92v-1.39l0-.66v-2.52l0-.59,0-.57,0-.55-.07-.53-.07-.52-.09-.5-.13-.46-.12-.46-.18-.43-.18-.42-.23-.38-.25-.37-.28-.36-.32-.32-.18-.14-.18-.14-.19-.14-.22-.15-.21-.12-.21-.12-.25-.11-.23-.11-.27-.1-.27-.11-.28-.09-.3-.07-.31-.09-.32-.07-.33-.05-.34-.06-.36-.05-.37,0-.39,0-.39,0-.43,0h-.43c-3.55-.09-11.76,0-18.88,0-10.45,0-3.11-8.89-17.77-8.89H366.58" transform="translate(0 0)"/><polygon id="polygon59932" class="cls-4" points="368.21 301.33 377.16 301.33 377.16 317 368.21 317 368.21 301.33"/><polygon id="polygon59934" class="cls-17" points="368.21 317 377.16 317 377.16 301.33 368.21 301.33 368.21 317"/><polygon id="polygon59936" class="cls-4" points="336.27 301.24 345.19 301.24 345.19 316.89 336.27 316.89 336.27 301.24"/><polygon id="polygon59938" class="cls-17" points="336.27 316.89 345.19 316.89 345.19 301.24 336.27 301.24 336.27 316.89"/><line id="line59940" class="cls-18" x1="368.75" y1="304.48" x2="368.75" y2="323.59"/><line id="line59942" class="cls-18" x1="376.75" y1="304.52" x2="376.75" y2="323.61"/><line id="line59944" class="cls-18" x1="336.98" y1="304.5" x2="336.98" y2="322.52"/><line id="line59946" class="cls-18" x1="345.1" y1="304.52" x2="345.1" y2="323.63"/><polygon id="polygon59948" points="335.79 321.87 347.11 322.76 353.33 326.31 354.88 339.41 348.66 344.75 341.33 343.64 338.22 341.42 333.78 342.31 328.68 335.64 332 327.64 335.79 321.87"/><polygon id="polygon59950" class="cls-19" points="335.79 321.87 347.11 322.76 353.33 326.31 354.88 339.41 348.66 344.75 341.33 343.64 338.22 341.42 333.78 342.31 328.68 335.64 332 327.64 335.79 321.87"/><path id="path59952" d="M364.23,343l8.21,1.78,2.46-5.34,7.11,1.34,5.55-6.23L384,326.31l-7.79-5.12-5.1-1.33-8,.44s-1.78,3.56-1.78,4.45.23,11.78.23,11.78Z" transform="translate(0 0)"/><path id="path59954" class="cls-12" d="M364.23,343l8.21,1.78,2.46-5.34,7.11,1.34,5.55-6.23L384,326.31l-7.79-5.12-5.1-1.33-8,.44s-1.78,3.56-1.78,4.45.23,11.78.23,11.78Z" transform="translate(0 0)"/><path id="path59956" class="cls-4" d="M334.42,329.26l.19-.34.22-.32.21-.32.21-.3.22-.28.21-.29.23-.28.23-.27.22-.25.23-.25.23-.23.23-.21.23-.21.23-.2.23-.18.23-.17.23-.16.24-.15.21-.12.23-.13.21-.1.22-.07.21-.07.21-.08.2,0,.19,0,.2,0,.18,0,.18,0,.17,0,.16.08.16.07c1.62.92,1.23,4.58-.87,8.17s-5.14,5.75-6.75,4.84S332.32,332.85,334.42,329.26Z" transform="translate(0 0)"/><path id="path59958" class="cls-4" d="M380.73,328.8l-.2-.34-.19-.32-.2-.32-.21-.32-.21-.3-.22-.28-.21-.29-.21-.28-.24-.25-.21-.25-.23-.25-.23-.21-.21-.22-.24-.19-.23-.2-.21-.18-.23-.16-.21-.14-.22-.14-.21-.11-.21-.1-.22-.09-.21-.07-.2-.06-.19-.05-.2,0-.18,0-.17,0-.18,0-.16.05-.16.06-.16.09c-1.58.92-1.19,4.67.85,8.33s5,5.89,6.58,5S382.79,332.48,380.73,328.8Z" transform="translate(0 0)"/><path id="path59960" class="cls-4" d="M345.05,334.7l.09-.34.09-.33.1-.32.11-.31.12-.3.11-.3.13-.28.12-.29L346,332l.15-.26.12-.25.14-.25.13-.23.14-.21.14-.22.14-.19.16-.18.15-.18.14-.16.14-.14.14-.14.16-.13.15-.09.14-.1.14-.07.14-.08.14,0,.15,0h.41l.12,0c1.37.48,1.69,3.77.73,7.36s-2.88,6.1-4.25,5.63S344.07,338.28,345.05,334.7Z" transform="translate(0 0)"/><path id="path59962" class="cls-4" d="M370.65,334.77l-.09-.33-.11-.34-.09-.32-.1-.32-.13-.32-.1-.3-.13-.31-.1-.28-.13-.27-.14-.26-.13-.27-.12-.23-.14-.25-.14-.21-.13-.22-.14-.21-.14-.18-.15-.18-.14-.17-.14-.15-.14-.14-.14-.12-.15-.11-.14-.09-.14-.09-.14-.05-.13-.05-.14,0-.12,0-.15,0-.12,0-.13,0c-1.33.48-1.65,3.84-.71,7.51s2.79,6.24,4.13,5.76S371.59,338.44,370.65,334.77Z" transform="translate(0 0)"/></g><path id="rect4358" d="M416.56,391.91l-52.34,17.75-1.41-5.84L355,407.26l3.78,15.56,7.81-3.44-1.09-4.53,50.72-17.22.25-.22.09-5.5Z" transform="translate(0 0)"/></svg>