<svg id="Layer_1" data-name="Layer 1" xmlns="http://www.w3.org/2000/svg" viewBox="0 0 99.13 99.13"><defs><style>.cls-1,.cls-10,.cls-14,.cls-16,.cls-17,.cls-19,.cls-20,.cls-7{fill:none;}.cls-1{stroke:#bebebe;stroke-width:2.7px;}.cls-1,.cls-10,.cls-14,.cls-15,.cls-16,.cls-17,.cls-19,.cls-20,.cls-7,.cls-9{stroke-miterlimit:12.5;}.cls-2{fill:#1b1b1b;}.cls-3{fill:#fff;}.cls-4{fill:#b9b9b9;}.cls-5{fill:#565656;}.cls-15,.cls-6{fill:#bcbcbc;}.cls-7{stroke:#646464;}.cls-15,.cls-16,.cls-19,.cls-7,.cls-9{stroke-width:0.35px;}.cls-8{fill:#cfcfcf;}.cls-9{fill:#999;}.cls-10,.cls-15,.cls-16,.cls-9{stroke:#202020;}.cls-10{stroke-width:0.43px;}.cls-11{fill:#202020;}.cls-12{fill:#707070;}.cls-13{fill:#a6a6a6;}.cls-14,.cls-20{stroke:#fff;}.cls-14{stroke-width:0.2px;}.cls-17{stroke:#d2d2d2;stroke-width:0.44px;}.cls-18{fill:#4a4a4a;}.cls-19{stroke:silver;}.cls-20{stroke-width:1.04px;}.cls-21{fill:#bebebe;}</style></defs><path class="cls-1" d="M50.49,98.68A48.22,48.22,0,1,0,2.27,50.47,48.21,48.21,0,0,0,50.49,98.68Z" transform="translate(-0.92 -0.9)"/><path class="cls-2" d="M50.45,98.31A47.78,47.78,0,1,0,2.68,50.53,47.78,47.78,0,0,0,50.45,98.31" transform="translate(-0.92 -0.9)"/><path class="cls-3" d="M88.8,50.62A37.63,37.63,0,1,1,51.18,13,37.62,37.62,0,0,1,88.8,50.62" transform="translate(-0.92 -0.9)"/><path class="cls-3" d="M49.81,43.16a2.4,2.4,0,0,1,.09.91,8.73,8.73,0,0,1,.92.62c.19.18,0,1-.23,1.09s-.73,1.26-.87,1.44a.88.88,0,0,0,.18,1c.32.27,1.51-.8,1.74-1-.09.55,0,1.5.32,1.57s.86-1.76,1-2c-.1.37.56,2.28,1,2s.58-1.8.62-2c0,.23.84,2.13,1.35,1.62A1.18,1.18,0,0,0,56.07,47a2.39,2.39,0,0,0,.19-1.09c0-.14-.23-.46,0-.82a5.52,5.52,0,0,0,.18-1.92c0-.37-.18-.48-.13-.69,0,0,.7-.3.27-.55a12.11,12.11,0,0,0-3.79-1.28,3.41,3.41,0,0,0-2.52.23c-.7,0-1.09,0-1.21.28.06-.16-3.31.38-2.07,2.51.18-.46.5-.92,1.82-.73A6.5,6.5,0,0,1,51,43.7c-.32-.32-.13-.68-1-1.05" transform="translate(-0.92 -0.9)"/><path class="cls-3" d="M42.65,22.11a1.93,1.93,0,0,1,2.46-2.63,1.87,1.87,0,0,1,3.09-1.7,1.9,1.9,0,0,1,3.51-.62,1.85,1.85,0,0,1,3.49.63,1.89,1.89,0,0,1,3.18,1.71,1.87,1.87,0,0,1,2.47,2.58,1.89,1.89,0,0,1,1.49,3.28,1.93,1.93,0,0,1,.3,3.61,1.93,1.93,0,0,1-.83,3.51,2,2,0,0,1-2.06,3c.23,1.81-1.23,3-2.89,2.15a1.92,1.92,0,0,1-3.37,1.16,1.91,1.91,0,0,1-3.58-.1,1.92,1.92,0,0,1-3.39-1.15,1.91,1.91,0,0,1-2.77-2.27,1.91,1.91,0,0,1-2-3,1.91,1.91,0,0,1-.8-3.44,1.93,1.93,0,0,1,.22-3.55,1.91,1.91,0,0,1,1.44-3.23" transform="translate(-0.92 -0.9)"/><path class="cls-3" d="M46.38,75.12c-.41.28-3.87,3.18-3.14,1.8-.07.14,2-4.27,4.93-6.37l7.67.09a16,16,0,0,1,4.79,6.17c.73,1.37-2.6-1.42-3-1.69" transform="translate(-0.92 -0.9)"/><path class="cls-3" d="M55.1,71.64A17.26,17.26,0,0,1,59,78.89c.51,1.47-2.35-1.81-2.71-2.14" transform="translate(-0.92 -0.9)"/><path class="cls-3" d="M54.38,72.33c2.09,2.87,2.61,8.5,2.6,8.18.05,1.6-2.06-2.5-2.28-2.79" transform="translate(-0.92 -0.9)"/><path class="cls-3" d="M53.05,72.38a18.28,18.28,0,0,1,1.69,9.41c-.18,1.59-1.56-2.32-1.74-2.64" transform="translate(-0.92 -0.9)"/><path class="cls-3" d="M48.75,71.74A17.25,17.25,0,0,0,44.89,79c-.5,1.47,2.34-1.82,2.7-2.16" transform="translate(-0.92 -0.9)"/><path class="cls-3" d="M49.48,72.42c-2.09,2.87-2.59,8.51-2.58,8.19,0,1.6,2.08-2.51,2.3-2.8" transform="translate(-0.92 -0.9)"/><path class="cls-3" d="M50.8,72.47a18.21,18.21,0,0,0-1.65,9.42c.19,1.59,1.55-2.33,1.73-2.65" transform="translate(-0.92 -0.9)"/><path class="cls-3" d="M51.35,73.24a42.06,42.06,0,0,0-.48,6.59c.15,1,.5,3.54,1.05,3.68.55-.14.94-2.76,1.08-3.77a43,43,0,0,0-.51-6.58" transform="translate(-0.92 -0.9)"/><path class="cls-3" d="M59.25,52.24l0,15.65c0,.66-.25,1.1-1.05,1.1-.54.05-5.57,0-5.57,0-.66,0-.46.3-.73.62-.18-.32-.09-.62-.73-.62H45.61a1.06,1.06,0,0,1-1.24-.93c0-.52,0-15.82,0-15.82Z" transform="translate(-0.92 -0.9)"/><path class="cls-4" d="M49.85,40.76c-.28,0-.74,0-.81.2a4.41,4.41,0,0,0-1.83.73,1.25,1.25,0,0,0-.55.89s0,1.25.11,1,.43-.18.43-.18a2.84,2.84,0,0,1,1.3.05,7.06,7.06,0,0,1,2.36,1.18,2.11,2.11,0,0,0,.33-1.09,3.71,3.71,0,0,0-.43-1.06A5.35,5.35,0,0,1,50.27,41C50.2,40.78,50,40.76,49.85,40.76ZM71,67a1.44,1.44,0,0,0-.85.16,1.31,1.31,0,0,0-.23,2c-.23,0-2.53,0-2.5,0s-.23.3-.49.33a8.45,8.45,0,0,1-1.56,0,11.46,11.46,0,0,1,1,.63c.25.21.61.56.48.86C67,71,68.11,71,68.44,71s1.34-.1,1.34-.1a1.51,1.51,0,0,1,.07.25.73.73,0,0,0,0,.63,8.19,8.19,0,0,0,.61.82,2,2,0,0,0,1.14,1,1,1,0,0,0,1.26-1.24,1.41,1.41,0,0,0,1.06-.2c.31-.23.18-.61,0-1.09a.87.87,0,0,0,.76-.23c.33-.27.2-.93.1-1.06s-1-1.14-1.49-1.56A1,1,0,0,0,72.08,68a1.84,1.84,0,0,0-.51-.86A1.36,1.36,0,0,0,71,67Zm-37.66.17c-.42,0-1,.16-1.49,1a1.86,1.86,0,0,0-1.77,1c-.56.76-.81.61-.81,1.37s.61.81.86.71c-.2.65-.05,1.36,1.11,1.31a1,1,0,0,0,1.27,1.22,4.14,4.14,0,0,0,1.62-1.57,1.93,1.93,0,0,0,.15-.91V71a11.19,11.19,0,0,0,1.36.16c.61.05,1.42.05,1.67.05-.1-.31.71-1.52,1.32-1.52-1,.15-1.87,0-1.87-.25l-2.84-.16c.81-1.41.21-1.56,0-1.87A.91.91,0,0,0,33.35,67.13Z" transform="translate(-0.92 -0.9)"/><path class="cls-5" d="M80.22,31.58a9.61,9.61,0,0,0-3.49.86l-3.64,1.82a33.39,33.39,0,0,0-4.65,3.19,57.17,57.17,0,0,0-4.76,4.3C62.27,43,61.86,43.82,62,44.63s.46,1,1.16,1.77a2.25,2.25,0,0,1,.76,2.07,6.12,6.12,0,0,1-1.67,3.9,2.65,2.65,0,0,1-3,.46l.05,10s.15.31.3.26.36-.46.51-1.17c.2.41.86,1.17,1.52,1,.37-.08.35-.35.5-1.31.36.3,1.07.86,1.52.66s.41-.41.46-1.42a1.15,1.15,0,0,0,1.46.4c.31-.2.46-.61.21-1.26a2,2,0,0,0,1.82.1c.25-.2.2-.56,0-1.42a1.79,1.79,0,0,0,1.61.41c.36-.2.26-.66,0-1.52.25.15,1.21.35,1.41.15s.26-.76-.1-1.47c.3.16,1.23.16,1.37-.1.45-.86-.66-1.82-.66-1.82s-.1-.1.3.05,1.22.31,1.52,0,0-.91-.41-1.51a1.7,1.7,0,0,0,1.32-.46c.2-.25-.41-1.06-.81-1.62.4,0,1.52,0,1.62-.45s-.31-.91-1.06-1.32c.35-.1,1.21-.35,1.36-.76s-.25-.81-.86-1.16c.51-.2.76-.26.86-.71s-.45-1-1.11-1.21A1.68,1.68,0,0,0,75,44c0-.5-.6-.66-1.41-.91.7-.3,1.16-.86,1.06-1.21s-.51-.46-1.22-.51c0,0,1.57-.71,2-1a1.69,1.69,0,0,0,.86-1.21c0-.56-.86-.51-1.62-.71A25.82,25.82,0,0,0,77,37.24c.4-.3.91-1.26.76-1.67s-.61-.55-1.57-.45l1.26-.71a21.8,21.8,0,0,0,3-2.28c.5-.55.2-.55-.26-.55Zm-57.06.2c-.46,0-.35.41.15,1a17,17,0,0,0,2.83,1.87c.46.26,1.78,1.07,1.78,1.07-1-.11-1.93-.31-2.08.1s.35,1.36.76,1.67,1.82,1.21,2.12,1.36c-.75.2-1.61,0-1.56.56A1.73,1.73,0,0,0,28,40.63c.4.26,1.87,1,1.87,1-.71.06-1.16.26-1.27.61s.51.81,1.22,1.12c-.81.25-1.42.55-1.37,1.06s.81.76,1.32.91c-.66.25-1.42.76-1.32,1.21s.56.51,1.06.71c-.6.35-1.16.81-1,1.21s.86.66,1.52.71c-.76.41-1.16.86-1.06,1.32s1.06.61,1.46.61c-.4.55-.86,1.21-.65,1.46A1.66,1.66,0,0,0,31.1,53c-.4.61-.71,1.21-.4,1.52a1.56,1.56,0,0,0,1.51,0c.26-.16-.3.4-.3.4a1.16,1.16,0,0,0-.05,1.37c.14.26,1.06.25,1.37.1-.36.71-.31,1.26-.1,1.47s1.16,0,1.41-.16c-.3.86-.4,1.32,0,1.52a1.83,1.83,0,0,0,1.62-.4c-.25.86-.3,1.21,0,1.41a2,2,0,0,0,1.82-.1c-.25.66-.1,1.06.2,1.27A1.17,1.17,0,0,0,39.55,61c.05,1,0,1.21.46,1.42s1.16-.36,1.51-.66c.15,1,.3,1.08.66,1.21s1.17-.5,1.37-.91a1.72,1.72,0,0,0,.76,1.17c.15,0,0-.26,0-.26l0-10a2.65,2.65,0,0,1-3-.46,6.07,6.07,0,0,1-1.82-3.74,2.42,2.42,0,0,1,.71-2.18c.71-.81,1.09-1,1.21-1.77.15-1-.91-2.17-1.87-3.18a58.43,58.43,0,0,0-4.45-4.05,26.67,26.67,0,0,0-4.81-3c-1.11-.55-2.41-1.15-3.64-1.77a11.79,11.79,0,0,0-3.59-1.06Zm26.4,15.49a2.41,2.41,0,0,0-1.16,1.2c-.1.46-.2.51-.2.51s-.1.1-.4.35a4.5,4.5,0,0,0-.71.76.91.91,0,0,0-.1.41s-.05,0-.36.45-.55.61-.5,1.22l12-.05s.1,0,.1-.41a11.91,11.91,0,0,0-1-2.32c-.31,0-.36-.06-.56-.41a2.18,2.18,0,0,1-.3-.86,1.21,1.21,0,0,0-.23-.45c-.13.8-.43.75-.68.75s-.81-.6-.91-.86c-.16.76-.26,1.12-.56,1.22a.72.72,0,0,1-.86-.46,5.64,5.64,0,0,1-.3-.71,2,2,0,0,1-.56,1.07c-.25.2-.86,0-1-.36a1.94,1.94,0,0,1,0-.71c-.61.51-1.12.81-1.42.66a.53.53,0,0,1-.31-.54,4.15,4.15,0,0,0,0-.46ZM60,63.54a3.31,3.31,0,0,0-.7,0s.05,1.16,0,2.07.1,2.48-.25,2.94-.86.4-2.08.35c0,0,.46.36.66.56a8.87,8.87,0,0,0,1.67.91,4.62,4.62,0,0,0,2.13.56,2.76,2.76,0,0,0,1.36.35c.46,0,1-.05,1-.05a2.24,2.24,0,0,0,.76.25A2.94,2.94,0,0,0,66,71.34c.61-.2.91-.1.76-.61s-.66-.86-1.32-1.21c0,0,.91,0,1.32,0s.81-.2.7-.36a4,4,0,0,0-1.36-1,6.58,6.58,0,0,0-.41-.7,3.37,3.37,0,0,0-1.31-1.12,11.87,11.87,0,0,0-1.11-1.26c-.71-.71-1-.56-1-.56l-.7-.51A3.29,3.29,0,0,0,60,63.54Zm-15.67.21a2.66,2.66,0,0,0-2.28.76c-.3.46-.15.15-.15.15a2,2,0,0,0-1.22.71,6.4,6.4,0,0,0-1,1.17,4.71,4.71,0,0,0-1.52,1.31,1.33,1.33,0,0,0-.2.66,2.81,2.81,0,0,0-1.16.76c-.1.15,0,.4.41.4h1.36a4.64,4.64,0,0,0-1.23,1c-.15.19-.29.44.32.64s1.87.51,2.18.25a2.93,2.93,0,0,1,.5-.35s0,.2.46.2A3.59,3.59,0,0,0,42.74,71a3.49,3.49,0,0,0,2.07-.56l1.87-1.52c-1.21,0-1.72.1-2.07-.35s-.2-2-.25-2.94,0-1.87,0-1.87Zm4.41,5.1a7.67,7.67,0,0,0-.71.81.69.69,0,0,0-.05.76c.1.26.86.15,1.41-.35a4.84,4.84,0,0,0-.4.61c-.2.35-.26.91,0,1.06s.45.05,1.21-.76a4.35,4.35,0,0,1-.35.71c-.2.3-.46.81,0,1.16s.74.24,1.24-.52a2.12,2.12,0,0,0-.11,1,.84.84,0,0,0,1.09.34c.65-.28.56-1.37.51-2.28.35,1.12,1.31,1.88,1.52,1.67s.36-.65.06-1.36c.3.26.59.4,1,0s.15-.61-.25-1.32c.25.26,1.16.31,1.31,0s-.4-1-.91-1.57l-2.68.05c-.51,0-.46.26-.71.61a.58.58,0,0,0-.61-.66Z" transform="translate(-0.92 -0.9)"/><path class="cls-6" d="M81.63,53.49l-2,2.17.79.05.5.73.67-2.95Zm1.46,1.13-2,2.09.79.09.46.74.79-2.92Zm-5.1.79-1.62,2.44.8-.06.58.62-1,1.32h.8l.55.68.42-3-.74,1,.22-3Zm2.77,1.74-2,1.65.71.13.36.67.93-2.45Zm2.83,0-2.33,1.76.77.2.34.81,1.22-2.77Zm-7.42.31L74.68,60l.79-.11.62.62.08-3Zm7.46,1.62-2.14,1.47.69.19.3.7,1.15-2.36Zm-9.33.18-1.23,2.65.78-.18.68.54-.23-3Zm5.51.93-2,1.64.71.13.36.67.94-2.45Zm1.69.22-2,1.65.71.13.36.67.94-2.45Zm.14,1.83-2.53,1.46.74.3.1.34-2.49,1.11.71.37.16.86L80,64.49l.11.38,1.55-2.6ZM49.16,70.33a3,3,0,0,0-.86.35c-.59.48-.91.76-1.41,1.22s-1.37,1.11-.86,1a5.19,5.19,0,0,1,1.41-.15.44.44,0,0,1,.41.2s-.51.76-.66,1a3.64,3.64,0,0,1-.3.35,3.51,3.51,0,0,1,.55-.35,8.93,8.93,0,0,1,1-.35l.56-.21a4.74,4.74,0,0,0-.56,1.22c-.15.3-.3.71-.3.71.61-.36.45-.51.86-.61l.86-.2h.25a10,10,0,0,0-.5,1.41,2,2,0,0,1-.1.46c.45-.41.65-.76.91-.91s.6-.31.6-.31h.21a8.9,8.9,0,0,0-.16,1.22c.26.56,1.42.5,1.77,0a6.18,6.18,0,0,0-.05-1.11c.51.35,1.47.4,1.62.91-.1-.41-.5-1.67-.5-1.67.76.25.91.35,1.11.6s.76.26.76.26c-.15-.56-.51-1.47-.51-1.47a6.67,6.67,0,0,1,1.32.56.49.49,0,0,0,.6,0,4.23,4.23,0,0,0-.6-1.07,2.64,2.64,0,0,0-.3-.35c.8.09.92,0,1.21.1a5.27,5.27,0,0,0,.71,0s.15.21-.15-.3a23.47,23.47,0,0,0-2.23-2.18,1.8,1.8,0,0,1-1-.15c.45.76.56.91.25,1.22s-.91-.15-.91-.15c.31.7.25,1.31-.1,1.51s-1.42-1.11-1.47-1.36c.1.81,0,1.82-.55,2s-.66-.2-.76-.66a5,5,0,0,1-.11-.86c-.6.76-.8,1-1.31.81s-.35-.76-.3-.91.45-.91.45-.91c-.71.76-.86.76-1.16.5a.52.52,0,0,1-.1-.8,2.19,2.19,0,0,0,.35-.61Zm16.9,4L64.19,76l1.11,0,.17,1.1.54-.7.64-.09.35,1,.49-.93.31-.06.4,1,1-2.33-.34-.75-.75.14-.08.13-.11-.27-.82.1-.12.16-.06-.32-.83,0Zm4,1.29-.78.23-1.17,2.27,1.06-.34.21.4-.08.2.15-.07.25.45.2-.64.42-.18.63.92.54-2.51L71,75.64l-.71.3-.23-.37Z" transform="translate(-0.92 -0.9)"/><path class="cls-7" d="M49.56,47.27c-.55.35-1.05.75-1.15,1.2s-.2.51-.2.51-.1.1-.41.36a5,5,0,0,0-.71.75.91.91,0,0,0-.1.41s-.05,0-.35.45-.56.61-.51,1.22l12-.05s.1,0,.1-.41a11.33,11.33,0,0,0-1-2.32c-.3,0-.35,0-.55-.41a2.08,2.08,0,0,1-.31-.86,1.23,1.23,0,0,0-.22-.45c-.13.81-.43.76-.69.76s-.81-.61-.91-.86c-.15.75-.25,1.11-.55,1.21a.72.72,0,0,1-.86-.46,5.24,5.24,0,0,1-.31-.7,1.9,1.9,0,0,1-.55,1.06c-.26.2-.86,0-1-.36a1.81,1.81,0,0,1-.06-.71c-.6.51-1.11.81-1.41.66a.52.52,0,0,1-.31-.54,3.49,3.49,0,0,0-.06-.46Z" transform="translate(-0.92 -0.9)"/><path class="cls-8" d="M32.4,26.37a.85.85,0,0,0-.4,0c-.46.18-.49.18-.69.66a16.2,16.2,0,0,0-.45,2,6.33,6.33,0,0,1-.74,1.09,1.33,1.33,0,0,0,0,1.44,5.36,5.36,0,0,0,2,1.52,6,6,0,0,0,.05,1.47,1,1,0,0,0,.86.88c.58.13,4.23.76,6.3,2.12,1.67,1.11,3.29,2,4.35,3.7,0,0-.33.33-.43.46a2.13,2.13,0,0,1-1,.5c-.63.2-.37.73-.25,1a3.78,3.78,0,0,0,1.11,1.06c.43.26.46.86.49,1.27a1.13,1.13,0,0,0,.65.86,1.67,1.67,0,0,0,1-.05c.25-.1.61-.13.78-.23s.86-.56.92-.86.08-1.62.08-1.62c-.35-.13-.35-.95-.35-.95a1.24,1.24,0,0,0-1,1.23,6.33,6.33,0,0,1,0,1.49c-.35.15-.5,0-.58-.45s.08-.74-.25-1.14a4.18,4.18,0,0,0-.76-.71c.38-.13.35-.13.4-.43a2,2,0,0,1,.48-.71,1.75,1.75,0,0,1,.94-.45c.43,0,.6-.57,0-1.37A17.55,17.55,0,0,0,42.79,37a18.59,18.59,0,0,0-7.15-3.39,8.15,8.15,0,0,1,.4-1.26,1.35,1.35,0,0,0-.78-1.54c-1.29-.55-1.9-.76-2.2-.89a4.86,4.86,0,0,1-.76-.43,5.78,5.78,0,0,0,1-2.17,1,1,0,0,0-.94-1Zm38.92.06a1.37,1.37,0,0,0-1,.44c-.15.28-.45.58-.07,1a2.17,2.17,0,0,1,.55,1.67c-.15.33-.17.2-.17.2a7.68,7.68,0,0,1-1.17.56c-.43.12-1.72.43-2,1.06s-.15.58-.05.84a5.9,5.9,0,0,1,.3.91v.2l-1,.3a24.16,24.16,0,0,0-2.69,1.09c-.53.3-2.83,1.82-2.83,1.82a32.61,32.61,0,0,0-2.6,2.2c-.56.56-.69.79-1.12,1.22s-.91.88-.68,1.06a11.53,11.53,0,0,1,1,.68c.2.2.35.58.6.88s.66.77,1,.46c.14-.13.17-.16.17-.18a.68.68,0,0,1,.41.11,4.14,4.14,0,0,1,.51.4.44.44,0,0,1,.12.2s-.75.69-1.06,1a5.22,5.22,0,0,0-1.14,1.92c0,.51-.25,1.14-.25,1.44s.05.76.05.76-.35-.81-.48-1.06-1-1.85-1.09-2-.3-.47-.3-.47a.84.84,0,0,0,0,.73,2.06,2.06,0,0,1-.15,1.11c0,.15.13.28.13.51s0,.23,0,.23a.79.79,0,0,1,.15.22c.05.13.25.74.33.89a.78.78,0,0,0,.81.66,2.7,2.7,0,0,0,1.7-.38,3.41,3.41,0,0,0,.27-1.39,2.87,2.87,0,0,1,.81-1.22,7.56,7.56,0,0,0,1-.89.6.6,0,0,0-.15-.65,1.29,1.29,0,0,1,0-1.42A1.36,1.36,0,0,0,61.08,42c-.23-.25-.61-.13-.87,0s-.58-.15-.7-.3-.28-.48.23-.93,2.13-1.83,3.18-2.64a14.72,14.72,0,0,1,4.13-2.1c.78-.22,2.93-.83,3.34-.93a2.14,2.14,0,0,0,.63-.25c.1,0,.17-.12,0-.51-.1-.2,0-.68,0-1V33l.7-.49A5,5,0,0,0,73,31.28a1.17,1.17,0,0,0,0-1.4c-.46-.63-.56-.71-.56-1.36a3.56,3.56,0,0,0-.83-2,.5.5,0,0,0-.33-.11ZM48.45,42.91a4.91,4.91,0,0,1,0,1.92,9.62,9.62,0,0,0-.7,2,2.8,2.8,0,0,0,.5,1.82,3.92,3.92,0,0,1,.41-.66,3.74,3.74,0,0,1,.45-.46,4.58,4.58,0,0,1,.31-1.82A7.54,7.54,0,0,0,50,44.12a5.8,5.8,0,0,0-.2-1l-.71-.1c-.4,0-.61-.1-.61-.1Z" transform="translate(-0.92 -0.9)"/><path class="cls-9" d="M44.28,23.21a2,2,0,0,1-1.16,2.69,1.93,1.93,0,0,1-.23,2.91,2,2,0,0,1,.71,2.81,1.94,1.94,0,0,1,1.57,2.52A1.9,1.9,0,0,1,47.43,36a1.91,1.91,0,0,1,2.8,1,1.91,1.91,0,0,1,3,0A2,2,0,0,1,56,36.05a1.88,1.88,0,0,1,2.49-1.71,1.9,1.9,0,0,1,1.6-2.53,1.92,1.92,0,0,1,.85-2.93,1.86,1.86,0,0,1-.28-3,1.85,1.85,0,0,1-1.21-2.74,1.92,1.92,0,0,1-2.08-2.22,1.94,1.94,0,0,1-2.65-1.39,1.93,1.93,0,0,1-2.91-.44,2,2,0,0,1-3,.52A1.94,1.94,0,0,1,46.25,21a1.93,1.93,0,0,1-2,2.17" transform="translate(-0.92 -0.9)"/><path class="cls-10" d="M50.91,41.88c.19-.13.6,0,1,0a4.36,4.36,0,0,1,1.28-.05.83.83,0,0,1,.5.6" transform="translate(-0.92 -0.9)"/><path class="cls-11" d="M51.28,42c.23,0,.89-.1,1.09-.1.23.23.51.42.09.6s-1.32-.5-1.18-.5" transform="translate(-0.92 -0.9)"/><path class="cls-11" d="M32.29,69a.38.38,0,0,1-.61,0c-.09,0-.26-.32.15-.68s.94.07,1.19.41-.1.06-.53.15l-.2.07Z" transform="translate(-0.92 -0.9)"/><path class="cls-11" d="M34,69.76c.41-.14-1-.39-1.36.12a.47.47,0,0,0,.38.76c.18,0,.19-.07.32-.31a1.8,1.8,0,0,1,.66-.57" transform="translate(-0.92 -0.9)"/><path class="cls-11" d="M34.09,71.49a.47.47,0,0,1-.45.09c-.26,0-.37-.33-.14-.61a2.61,2.61,0,0,0,.58-.73,1.26,1.26,0,0,1,.13,1l-.12.3Z" transform="translate(-0.92 -0.9)"/><path class="cls-11" d="M71.9,69a.53.53,0,0,0,.34-.75c-.47-.75-1.55.31-1.48.23-.1.11.51,0,.79.35Z" transform="translate(-0.92 -0.9)"/><path class="cls-11" d="M70.16,69.57c-.41-.14,1.07-.4,1.39.1a.54.54,0,0,1-.48.87c-.18,0-.21-.12-.34-.36a1.79,1.79,0,0,0-.57-.61" transform="translate(-0.92 -0.9)"/><path class="cls-11" d="M69.75,70.66a1.32,1.32,0,0,1,.14-.68,6,6,0,0,0,.44.63l.38.17a.57.57,0,0,1,0,.61c-.31.33-.51.13-.74-.13l-.2-.6Z" transform="translate(-0.92 -0.9)"/><path class="cls-12" d="M21.4,51.62a8.11,8.11,0,0,0-.73,2.74,5.38,5.38,0,0,0,1,2.51,5.48,5.48,0,0,1,1,2.42,7.43,7.43,0,0,0-2-2.38c-.78-.41-1.42-.5-1.74-.95s-.46-.37-.69-.64a5.94,5.94,0,0,0,.69,2.23c1.14,1.43.79,1.11,2.88,2,1.22.5.94,1.12,1.05,1.46-.28,0-.73.07-1,.07.11-.11.29-.74,0-.86a.58.58,0,0,0-.73.38c-.05.27.09.28.18.41a2,2,0,0,0-.82-.27,3.08,3.08,0,0,0-1.74.41c.32.36.87.87,1.14,1.14a1.38,1.38,0,0,0,.66.35l.44.28a2.78,2.78,0,0,0-1.51.47c-.55.41.14.18.46.32s.78.64,1.05.78a4.79,4.79,0,0,0,2.79.41c1.25-.38,1.78.92,2,1.23a7.34,7.34,0,0,0-1-.45c0-.36-.05-.58-.44-.58s-.72.43-.44.76l.48.2c-.41,0-1.92,0-2.37.53-.28.35-.82.31-1,.36.32.27,1.23,1.14,2.1,1l.23,0c-.27.2-.54.36-.6.62-.14.64-.59.73-.68.87a4.41,4.41,0,0,0,2.65-.09c.66-.35,1.67-1.33,2.14-1.6a.84.84,0,0,1,.92,0c.23.19.41.14.59.32-.27.14-.64.46-.64.32s-.08-.63-.5-.55-.55.55-.18.78c-.23.18-.69.34-.78.48.07-.34-.39-.64-.62-.46s-.35.33-.17.61.32.06.45.15c-.18.14-1.4.82-1.49,1.51s-.13,1.5-.32,1.64a5.75,5.75,0,0,0,2.17-1v.31a4.92,4.92,0,0,0,0,1.92,1,1,0,0,1,.09.69,5.81,5.81,0,0,0,2.05-3.16,9.1,9.1,0,0,0,0-2.69l.41-.23c.23.14.87.51,1,.74l.66-.7c-.42-.27-.57-.27-.75-.54s.17-.9.28-.55a.42.42,0,0,0,.77-.26c0-.31-.25-.66-.78-.33a1.76,1.76,0,0,1,.78-.78,4.58,4.58,0,0,0,1.78-1.6c.28-.69.28-1.1.42-1.33s.45-1,.45-1c-.5.18-.41.32-.73.46A8.17,8.17,0,0,0,31.4,63a6.57,6.57,0,0,0-1.06,1.26l.16-.66a7,7,0,0,0-.1-2.39,1.65,1.65,0,0,1-.1-.77,8.38,8.38,0,0,1-1.05,1.37A4.24,4.24,0,0,0,28.16,64c-.05.86.39,1.38.39,1.75-.51-.13-.79,0-.84.41s.66.5.89.17c0,.14-.05.66-.28.66,0,0-1.09-.29-1-.81l.4-.25c.38-.63-.1-.8-.26-.84h0a.6.6,0,0,0-.62.43,1.2,1.2,0,0,1,.46-.88,5.64,5.64,0,0,0,.78-2,21.2,21.2,0,0,0-.46-3.24c-.37.36-.69.87-1.1,1.37a4,4,0,0,0-.73,2.6,8.74,8.74,0,0,0,.37,1.69,5.14,5.14,0,0,1,.18.73c-.32-.55-.73-.82-.87-1.32s-.27-.69-.13-.91.36-.55.22-.78-.27-.32-.5-.28-.36.14-.36.46l-.23.18c-.28-.41-.6-.59-.74-1.05A1.52,1.52,0,0,1,24,60.89a16.22,16.22,0,0,0,1.7-2.29,5.85,5.85,0,0,0,.18-2.55,10.85,10.85,0,0,0-1.3,1.21.65.65,0,0,0-.49-.57,4.6,4.6,0,0,0,.87-4.12,5.5,5.5,0,0,0-1.85,2.35,3.75,3.75,0,0,0-.48-1.39c-.95-1.78-1.18-1.69-1.18-1.92ZM23,55.71c0,.22-.09.42-.14.61-.1.35-.16.7-.21,1l.1-.66a6.52,6.52,0,0,1,.25-.91Zm.73,1.12a.61.61,0,0,0-.11.38c0,.46.5.35.55.35a2.71,2.71,0,0,1-.63,1,1.62,1.62,0,0,0-.36,1,2.1,2.1,0,0,0,0,.74l-.06-.24a2.8,2.8,0,0,1,.41-2.4l.05-.45a.38.38,0,0,1,.11-.38Zm1.16,4a.52.52,0,0,0-.52.52.52.52,0,1,0,1,0A.52.52,0,0,0,24.89,60.82ZM22,65.11a.5.5,0,1,0,.49.49A.49.49,0,0,0,22,65.11ZM34.33,72a3.34,3.34,0,0,1-.46.82,6.42,6.42,0,0,1,.82,1.83,7.56,7.56,0,0,1,.09,2.65,1.19,1.19,0,0,0,1,1.33,2.72,2.72,0,0,1,1,.59c.13.18.41.39.41-.14A32.77,32.77,0,0,0,36,74.87,7.61,7.61,0,0,0,34.33,72Z" transform="translate(-0.92 -0.9)"/><path class="cls-3" d="M29.74,65.93a4.62,4.62,0,0,0-.71.95c-.23.46.13.82.32.78s.13-.27.18-.55a4.54,4.54,0,0,0,.09-.51c.07-.21.12-.42.12-.42v-.25Z" transform="translate(-0.92 -0.9)"/><path class="cls-13" d="M67.86,76.61l-.54,1.09h1l1-1.92.18,0-.36-.5-.94,2.22Z" transform="translate(-0.92 -0.9)"/><path class="cls-14" d="M56.44,27.86l3.43-.23m-9.51-5.1-.59-1.76m0,3.7-1.65-3m-.45,2.42-1.33-1.46m.09,2.47-1.69-1.15m1.69,2.7-2-.64m3.06,2h-3.2m3.47,1.06-3.38.63m2.15,1.19-1.69.83m2.37.59-1.28,1.28m3.32-1.69-1.81,2.51m2.74-2L49,35.26m4.57-3,1.18,2.88m0-3.24,1.76,2.26M56.76,32l1.32,1.23m-.68-2.56,1.94.94m-3-2.67,3.15.54m-2.15-2.92,2.06-.91m-2.2-.87,1.56-1.1m-3.47.78,1.78-1.92m-3.15,1.87,1.6-2.88m-1.74-.91-.5,1.78M51.78,20v1.64m-1,12.84-.3,1.78m2.06-1.83L53,36.17" transform="translate(-0.92 -0.9)"/><path class="cls-3" d="M51.83,22l-.27.8h-.82l.65.54-.3.84.78-.47.72.49-.27-.9.6-.5h-.85Zm-4.09,2.37-.27.8h-.82l.66.53-.31.85.78-.47.72.49-.27-.91.6-.49H48Zm2.83,0-.27.8h-.82l.66.53-.31.85.78-.47.72.49-.27-.91.6-.49h-.85Zm2.8,0-.26.8h-.82l.65.53-.31.85.79-.47.72.49-.27-.91.59-.49h-.84Zm2.79,0-.27.8h-.82l.65.53-.3.85.78-.47.72.49-.27-.91.6-.49H56.4Zm-4.38,2.48-.26.8h-.83l.66.53L51,29l.78-.48.72.49-.27-.9.6-.49H52ZM49,26.92l-.27.8h-.82l.66.53-.31.85.78-.48.72.49-.27-.9.6-.49h-.84Zm5.75,0-.27.8h-.82l.66.53L54,29.1l.78-.48.72.49-.26-.9.59-.49H55Zm-7.07,2.49-.27.8H46.6l.65.54-.31.84.79-.47.72.49-.27-.9.59-.5h-.84Zm2.81,0-.27.8h-.82l.65.54-.3.84.78-.47.72.49-.27-.9.6-.5h-.85Zm3,0-.27.8h-.82l.65.54-.3.84.78-.47.72.49-.27-.9.6-.5H53.7Zm2.86,0-.27.8h-.82l.66.54-.31.84.78-.47.72.49-.27-.9.6-.5h-.84ZM52,31.8l-.26.8h-.83l.66.53-.31.85L52,33.5l.71.5-.26-.91L53,32.6H52.2Z" transform="translate(-0.92 -0.9)"/><path class="cls-15" d="M67,73.13l.08.81-.36.38-.59,0-1.2,1.12-.12.07.14-.59-1.05-.09L66.08,73l.87.18,2.78-2" transform="translate(-0.92 -0.9)"/><path class="cls-11" d="M32.9,69.28c-.22.37,1-.39,1-1a.47.47,0,0,0-.78-.33c-.11.16-.1.18,0,.45a1.88,1.88,0,0,1-.13.86" transform="translate(-0.92 -0.9)"/><path class="cls-11" d="M70,68.63a1.22,1.22,0,0,0,.44.53,5.39,5.39,0,0,1,.09-.76l.25-.33a.55.55,0,0,0-.31-.53c-.42-.14-.5.13-.58.46Z" transform="translate(-0.92 -0.9)"/><path class="cls-16" d="M30.34,64.38a3,3,0,0,1-.53,1.44m38.08,8.55L70,72.05m.13.21-2,3.45M71,73.22l-1.49,3.86m2-3.54-.75,3.31m-3.87-3.67-1.42,1.14M70,68.62a1.22,1.22,0,0,0,.44.53,5.39,5.39,0,0,1,.09-.76l.25-.33a.53.53,0,0,0-.31-.52c-.42-.15-.5.12-.58.45Zm-37.14.66c-.22.37,1-.39,1-1a.47.47,0,0,0-.79-.33c-.11.15-.1.18,0,.45a1.76,1.76,0,0,1-.13.86Zm-9.28-1.59a5.25,5.25,0,0,1,1-.5,7.42,7.42,0,0,1,2-.14,7.13,7.13,0,0,0-1.78-.92m3.55,2.58a3.1,3.1,0,0,0-1.18,2,1.52,1.52,0,0,1-.61.76m-3.82-9a1.75,1.75,0,0,1,1,.78c.27.45.82,1.09.91,1.28a8.11,8.11,0,0,0-2.47-1.6,3.35,3.35,0,0,0-.73-.07m.81-.2a.49.49,0,1,0-.5-.49A.49.49,0,0,0,22.29,62.63Zm15.49,7.65a10,10,0,0,1,1-.62,3.33,3.33,0,0,0-1.37,1c-.29.45,0,.46.41.46a3.47,3.47,0,0,0,1.79-.64m3.07-48.34a1.92,1.92,0,0,1,2.45-2.63,1.87,1.87,0,0,1,3.1-1.7,1.9,1.9,0,0,1,3.51-.62,1.85,1.85,0,0,1,3.49.63,1.89,1.89,0,0,1,3.18,1.71,1.87,1.87,0,0,1,2.46,2.59,1.89,1.89,0,0,1,1.5,3.27,1.93,1.93,0,0,1,.3,3.61,1.93,1.93,0,0,1-.84,3.51,2,2,0,0,1-2,3c.22,1.8-1.24,3-2.89,2.14a1.92,1.92,0,0,1-3.37,1.17,1.91,1.91,0,0,1-3.58-.11,1.91,1.91,0,0,1-3.39-1.15,1.92,1.92,0,0,1-2.78-2.27,1.91,1.91,0,0,1-2-3A1.91,1.91,0,0,1,41,29a1.93,1.93,0,0,1,.22-3.55,1.91,1.91,0,0,1,1.44-3.23ZM70.1,75.56l.43.71-.8,2.44-.53-1-1.06.34,1.17-2.27.79-.24m-2.24,1-.55,1.1h1l1-1.92.18,0-.36-.51-.94,2.22ZM66,75.08l3.82-3.18m-1,2.47.33.76-1,2.32-.41-1-1,.22,1.3-2.12.76-.15M71,75.64l.49.66L71,78.8l-.62-.91-1,.43L70.28,76l.76-.31m-4.16-1.32.16.81-1.57,2-.17-1.09-1.11,0,1.87-1.74.82,0m1,.05.3.77L67,77.41l-.36-1-1.1.16,1.53-2,.82-.11m9.57-8.9,2.67-1.19-1.81,2.43-.15-.87Zm-3.07,3.87,5.44-5.25m-.34-2,2-1.65-.94,2.44-.36-.67Zm-1.69-.23,2-1.65-.94,2.45L78.5,62Zm1-3.06,2-1.65-.94,2.44-.36-.66-.7-.13Zm-.35,3.32L75.9,65.41m6-6.12-6.72,7.49m5.17-11.06-7,12.57,8.38-11.52m-8,11.93,4.37-2.86m-.9-8-4,10.19m.64-6.31-1.17,6.13m6.43-4.15,2.53-1.46-1.54,2.59L79.84,64l-.74-.29Zm2.38-3.15,2.14-1.48-1.14,2.36-.3-.7Zm-.23-1.65,2.34-1.75-1.22,2.76-.35-.8-.77-.21ZM81,56.7l2-2.08-.79,2.92-.46-.75Zm-1.38-1.05,2-2.17-.67,3-.49-.72-.8-.06Zm-2.92,4.07,1.77-2.32-.42,3-.56-.68ZM74.67,60l1.49-2.52-.07,3-.63-.62Zm-1.61,1.94,1.24-2.65.23,3-.69-.55Zm3.31-4.09L78,55.41l-.22,3-.59-.64-.8.07ZM29.73,65.93a5.9,5.9,0,0,0-.71.94c-.23.46.14.82.32.78s.14-.26.18-.55a3.1,3.1,0,0,0,.09-.5c.07-.22.12-.42.12-.42v-.25Zm.61-1.73a6.82,6.82,0,0,1,1.06-1.26,7.31,7.31,0,0,1,1.37-.45c.32-.14.23-.28.73-.46,0,0-.32.82-.46,1s-.14.64-.41,1.32A4.48,4.48,0,0,1,30.85,66a1.89,1.89,0,0,0-.79.78c.53-.33.81,0,.79.33a.43.43,0,0,1-.78.26c-.1-.35-.4.36-.27.55s.33.28.74.55l-.66.69c-.09-.23-.72-.6-.95-.73l-.41.22a9.61,9.61,0,0,1,0,2.7,5.73,5.73,0,0,1-2.06,3.15.91.91,0,0,0-.09-.68,5.26,5.26,0,0,1,0-1.93v-.3a5.83,5.83,0,0,1-2.16,1,4.65,4.65,0,0,0,.32-1.65c.09-.68,1.31-1.36,1.49-1.5-.14-.09-.31.08-.46-.15s-.05-.43.18-.61.68.11.62.46c.09-.14.54-.3.77-.48-.36-.23-.27-.69.19-.78s.5.27.5.55.36-.18.64-.32c-.19-.18-.37-.14-.6-.32a.83.83,0,0,0-.91,0c-.47.27-1.49,1.25-2.15,1.6a4.41,4.41,0,0,1-2.65.09c.09-.13.55-.22.69-.86.05-.26.33-.42.6-.62l-.24,0c-.86.18-1.78-.69-2.1-1,.14,0,.67,0,1-.37C22.47,66,24,66,24.4,66l-.49-.21c-.27-.32.07-.75.45-.75s.47.22.44.58a7.32,7.32,0,0,1,1,.45c-.23-.31-.76-1.62-2-1.24A4.63,4.63,0,0,1,21,64.45c-.27-.14-.73-.64-1.05-.78s-1,.09-.45-.32A2.7,2.7,0,0,1,21,62.89l-.45-.29a1.32,1.32,0,0,1-.65-.34c-.28-.28-.82-.78-1.14-1.14a3,3,0,0,1,1.73-.42,1.86,1.86,0,0,1,.83.28c-.1-.14-.23-.14-.19-.41a.58.58,0,0,1,.73-.38c.3.11.12.75,0,.86.23,0,.69-.07,1-.07-.1-.35.18-1-1.05-1.46-2.09-.87-1.73-.54-2.88-2a6.16,6.16,0,0,1-.68-2.24c.23.28.36.19.68.64s1,.55,1.74,1a7.08,7.08,0,0,1,2,2.38,5.46,5.46,0,0,0-.95-2.42,5.39,5.39,0,0,1-1-2.52,8.24,8.24,0,0,1,.73-2.74c0,.23.23.14,1.19,1.92s.26,2.31.17,3.09l-.1.65c.05-.25.1-.6.2-1A4,4,0,0,0,23,55a5.22,5.22,0,0,1,1.87-2.42A4.58,4.58,0,0,1,24,56.68c-.44.07-.47.33-.43.52l-.05.46a2.76,2.76,0,0,0-.4,2.4l.24.92a3.79,3.79,0,0,1-.23-1.42,1.59,1.59,0,0,1,.37-1,3,3,0,0,0,.63-1c-.05,0-.56.1-.56-.36s.2-.56.43-.52a.65.65,0,0,1,.48.58A12.64,12.64,0,0,1,25.82,56a5.74,5.74,0,0,1-.18,2.56A16.82,16.82,0,0,1,24,60.89a1.47,1.47,0,0,0-.23,1.23c.14.46.46.64.73,1.05l.23-.18a.4.4,0,0,1,.37-.46c.22,0,.36,0,.5.28s-.09.54-.23.77,0,.41.14.91.55.78.87,1.33a6.61,6.61,0,0,0-.19-.73,9.14,9.14,0,0,1-.36-1.69,4,4,0,0,1,.73-2.61c.41-.5.73-1,1.09-1.37a20.32,20.32,0,0,1,.46,3.25,5.69,5.69,0,0,1-.77,2,1.23,1.23,0,0,0-.47.89.61.61,0,0,1,.63-.43c-.26,0,.76,0,.26.83l-.41.26c-.07.52,1,.81,1,.81.22,0,.27-.52.27-.66-.22.33-.93.28-.88-.18s.33-.53.83-.4c0-.37-.43-.89-.39-1.76a4.4,4.4,0,0,1,1.1-2.24,8,8,0,0,0,1.05-1.37,1.65,1.65,0,0,0,.09.78,6.5,6.5,0,0,1,.1,2.39l-.15.65ZM22,66.09a.49.49,0,0,0,.5-.49.5.5,0,1,0-1,0A.49.49,0,0,0,22,66.09Zm2.88-4.23a.52.52,0,1,0-.53-.52A.52.52,0,0,0,24.89,61.86Zm9,11a6.45,6.45,0,0,1,.83,1.83,7.56,7.56,0,0,1,.09,2.65,1.17,1.17,0,0,0,1,1.32,2.49,2.49,0,0,1,1,.6c.14.18.41.38.41-.14A30.8,30.8,0,0,0,36,74.87,7.36,7.36,0,0,0,34.32,72a3.34,3.34,0,0,1-.46.82Zm17.55.54a42,42,0,0,0-.48,6.58c.14,1,.5,3.55,1,3.69.55-.14.94-2.77,1.07-3.77a41.82,41.82,0,0,0-.5-6.58m-1.69-.69A18.25,18.25,0,0,0,49.2,82c.2,1.58,1.55-2.33,1.74-2.66m-1.41-6.8C47.45,75.41,47,81.05,47,80.72c0,1.6,2.08-2.5,2.3-2.79m-.46-6.08a17.25,17.25,0,0,0-3.86,7.27c-.5,1.47,2.34-1.82,2.7-2.16m.58-6.3c-2.91,2.1-5,6.51-4.93,6.38-.72,1.37,2.73-1.53,3.14-1.81m6.67-2.74a18.28,18.28,0,0,1,1.69,9.41c-.19,1.59-1.56-2.32-1.74-2.64m1.37-6.81C56.52,75.31,57,81,57,80.62c0,1.6-2.06-2.49-2.29-2.78m.42-6.08A17.19,17.19,0,0,1,59,79c.51,1.47-2.34-1.81-2.71-2.14m-.44-6.12a16,16,0,0,1,4.79,6.17c.73,1.37-2.6-1.41-3-1.69M49.9,69.9c.06-.12-1.6,1.27-1,1.86S50.21,71,50.22,71,49,72.77,50,73c.6.14,1.1-.65,1.24-.84m-2.47-3.22c-.8.5-1.12,1.34-.78,1.6s1.22.11,1.86-.81m.3-.69a2.56,2.56,0,0,0,0,1.77c.32.5.84,0,1-.27m.2.48c0-.19-.66,2.88.69,2.67,1.09-.17.33-2.87.37-2.88m2.88-1.87c.31.32,1,1,.86,1.46s-.9.28-1.49-.13M55.06,69c.19.28.37.69,0,1s-1.45-.64-1-.27M54,69.48c.5.41,1.7,1.84,1.43,2.38s-1.06.06-1.33-.17M53.51,69c.32.32,1.06,1.11.5,1.55a.52.52,0,0,1-.73,0m-.61-.71c-.11-.13,2.36,2.54,1.48,3.18s-1.74-1.68-1.7-2.07m17.4.23a.63.63,0,0,0,.06.81c.33.31.74,1.36,1.7,1.68a1,1,0,0,0,1.28-1c-.09-.41-.83-1-1.38-1.59s-.85-.67-1.08-.46m-.68.12a1.2,1.2,0,0,1,.14-.67,5.51,5.51,0,0,0,.44.62l.38.18a.56.56,0,0,1,0,.61c-.3.33-.5.12-.73-.13l-.2-.61Zm.41-1.08c-.41-.14,1.07-.4,1.39.1a.54.54,0,0,1-.48.87c-.18,0-.21-.13-.34-.37A1.84,1.84,0,0,0,70.16,69.57ZM71.9,69a.52.52,0,0,0,.33-.74c-.46-.76-1.54.31-1.47.22-.1.12.51,0,.78.35Zm-.17.43c-.34-.14-.34-.54-.19-.59m-.13.73c.27,0,.32-.26.78-.08a6.73,6.73,0,0,1,1.65,1.43c.09.19.37.78.1,1.1a1.38,1.38,0,0,1-1.1.33M72,68.05a1,1,0,0,1,1.33.24,10.31,10.31,0,0,1,1.42,1.59.8.8,0,0,1-.86,1.17M72,67.93a1.2,1.2,0,0,0-1.85-.83c-1.23.56-.49,2.09-.11,2.21M66.71,71a3,3,0,0,1-1.88.44,2,2,0,0,1-1.06-.27m6-.32c-.09,0-2.19.17-2.87.17m.43-1.85a19.66,19.66,0,0,0,2.42,0m-4.43.35a2.71,2.71,0,0,1,1.38,1c.29.45,0,.46-.41.46a14.31,14.31,0,0,1-1.79-.63M66,68.22a4,4,0,0,1,1.07.74c.32.27.42.41,0,.5a5,5,0,0,1-1.3.08l-.44,0M63,70.4a4.37,4.37,0,0,1,.69.54c.18.23.27.28-.23.37a3,3,0,0,1-2.06-.45m3.37-2.3a2.64,2.64,0,0,1,.6,1c.1.27-.19.25-.52.19s-.54,0-.8-.09a7.35,7.35,0,0,1-1-.55,7.76,7.76,0,0,1,1.49,1.32c.16.3.15.48-.18.46A4.46,4.46,0,0,1,63,70.4c-.18-.09-.45-.33-.6-.4m2-3.58a3.71,3.71,0,0,1,1.52,1.31c.21.46.2.58.19.63s-.3,0-.71-.21a1.18,1.18,0,0,0-.44-.18m-1.66-1.55A3.82,3.82,0,0,1,64.87,68c.19.47,0,.27,0,.45s-.47.1-.78,0c0,0-1.63-.75-1.25-.46m-1.71.13c.18.18.77.57,1,1a3.19,3.19,0,0,1,.23.82c.09.36-.22.39-.51.38a2.54,2.54,0,0,1-.87-.31c.18.26.19.3.38.62s0,.4-.37.32a5.63,5.63,0,0,1-1.84-.65,7.59,7.59,0,0,1-1.9-1.19m4-2.7a5.93,5.93,0,0,1,1.28,1.15,2.33,2.33,0,0,1,.47,1A.64.64,0,0,1,63,69c0,.13-.18.14-.46.09a1.51,1.51,0,0,1-.64-.27m-.71-3.64a6.81,6.81,0,0,1,1.7.89,3.36,3.36,0,0,1,.6.91c.14.32.17.44.12.51s-.49,0-.63,0a3.32,3.32,0,0,1-.67-.23m-.2-2.78a3,3,0,0,1,1.33.77,2.7,2.7,0,0,1,.87,1.14c.23.5,0,.27-.27.27a2.91,2.91,0,0,1-.64-.13m-4-3a3.18,3.18,0,0,1,2.75,1c.27.36.28.58,0,.55s-1.1-.13-1.38-.13,0,.13.14.27.69.36.88.73.27.23-.14.37a3,3,0,0,1-1.23-.09c-.39,0-.1,0,.09.18s.8.61.92.91.27.46.23.64-.46.23-.73.14c0,0-.81-.1-.87-.13a2.21,2.21,0,0,1,1,1c.2.42,0,.54,0,.72s-.46.05-.83,0a3.1,3.1,0,0,1-1.47-.72M34.08,71.49a.49.49,0,0,1-.44.09c-.27-.06-.38-.34-.14-.62a2.46,2.46,0,0,0,.57-.73,1.26,1.26,0,0,1,.14,1l-.13.31Zm-.53-.78c-.09-.14-.49-.06-1,.46s-1.28,1.19-1.37,1.6a.94.94,0,0,0,1.28,1,3.29,3.29,0,0,0,1.64-1.58A3.46,3.46,0,0,0,34.31,71M34,69.75c.41-.14-1.05-.38-1.37.12a.47.47,0,0,0,.38.76c.18,0,.19-.07.32-.31a2,2,0,0,1,.67-.57ZM32.29,69a.38.38,0,0,1-.61,0c-.09,0-.26-.32.15-.68s.93.07,1.19.41-.1.06-.54.15l-.19.07Zm.07.6a.82.82,0,0,0,.12-.67m.2.81c-.28,0-.32-.25-.78-.07a6.74,6.74,0,0,0-1.65,1.44c-.09.18-.36.78-.09,1.1a1.37,1.37,0,0,0,1.1.32M32,68.23a1.16,1.16,0,0,0-1.27.24,10.82,10.82,0,0,0-1.42,1.6.8.8,0,0,0,.87,1.16m1.69-3.13A1.38,1.38,0,0,1,34,67.42c.77.64,0,2.17-.31,2.17m5.83,2a4.22,4.22,0,0,1-2.1-.45,30.57,30.57,0,0,1-3.1-.2M34,69.25c.37.09,2.47.09,2.74.09m3.66,1.92a2.18,2.18,0,0,1-1.19.41M38,68.47a3.85,3.85,0,0,0-1.05.64c-.32.27-.41.41,0,.5a8.93,8.93,0,0,0,1.49.08m2.67.84c-.28.27-.5.32-.69.54s-.27.28.23.37A3,3,0,0,0,42.73,71M39.35,68.7a2.78,2.78,0,0,0-.6,1c-.09.27.14.41.46.32s.59-.18.87-.23a4.41,4.41,0,0,0,1-.59,5.85,5.85,0,0,0-1.51,1.37c-.13.36-.22.5.19.45a5.11,5.11,0,0,0,1.37-.45c.18-.09.55-.37.68-.32m-2.05-3.66c-.32.18-1.24.64-1.51,1.33s-.27.41-.23.59.27.18.69,0c.25-.14.32-.27.5-.32m1.64-1.55a3.84,3.84,0,0,0-1.64,1.55c-.19.48,0,.28,0,.46s.47.09.78,0,1-.41,1.18-.36m1.6.09a3.18,3.18,0,0,0-.77.91,2.92,2.92,0,0,0-.23.82c-.09.37.32.28.59.23s1.55-.79,1-.32a2.83,2.83,0,0,0-.55.78c-.18.32,0,.37.37.32,1.31-.16,1.06-.29,1.78-.69A21.52,21.52,0,0,0,46.77,69M42.68,66.6a4.78,4.78,0,0,0-1.14,1.05,2.75,2.75,0,0,0-.46,1c-.14.32,0,.41,0,.55s.19.13.46.09a1.67,1.67,0,0,0,.64-.28m.23-3.33a2.28,2.28,0,0,0-1.24.59,3.19,3.19,0,0,0-.59.92.9.9,0,0,0-.09.54c0,.1.46,0,.59-.09a3.51,3.51,0,0,0,.69-.18M42,64.63a3.08,3.08,0,0,0-1.32.78,2.68,2.68,0,0,0-.87,1.14c-.23.5,0,.28.27.28a2.73,2.73,0,0,0,.64-.14m3.66-2.93a2.39,2.39,0,0,0-2.38.87c-.27.37-.27.59,0,.55S43.09,65,43.37,65s0,.14-.14.28-.69.36-.87.73-.27.23.14.36a2.66,2.66,0,0,0,1.23-.09c.39,0,.09,0-.09.19s-.8.61-.91.91-.28.46-.23.64.22.24.51.24a1.78,1.78,0,0,0,.58,0,3.33,3.33,0,0,0-.58.81.47.47,0,0,0,.13.69c.12.13.57.09.93,0s.45-.27,1.09-.68M43.6,61.89a1.86,1.86,0,0,0,.73,1.28m-2.4-5.52c-.24.25-.4,1.2-.14,1.33S43,58.67,43.44,58a8.11,8.11,0,0,0,.89-2.13M43.45,58c-.24.25-.4,1.2-.14,1.33.51.26.36.39,1-.45M32.35,40.36a41.85,41.85,0,0,1-4-1.8c-.64-.37-1.22-.77-1.7-1A2.31,2.31,0,0,1,25.7,36c.17-.58,1.68-.29,2.09-.31M34.18,43c-.73-.17-3.51-1.08-4.17-1.38s-1.29-.63-1.79-.85S27,40,27.11,39.32c0-.36,1.09-.59,1.69-.52m5.58,5.89c-.64-.12-2.56-.74-3.26-.93a8.88,8.88,0,0,1-1.6-.63c-.55-.23-1.08-.67-1-.93s1-.53,1.45-.58m4.47,4.53c-.65,0-2.49-.3-3.2-.43a12.77,12.77,0,0,1-1.94-.45c-.67-.25-1-.69-.82-1.11s.93-.69,1.32-.8m4.74,4.07c-.64,0-2.42.12-3.14.09a11.13,11.13,0,0,1-1.85-.17c-.58-.12-1.09-.53-1.12-.81s.85-1,1.24-1.1m5.11,3.36c-.64.05-2.6.44-3.33.44a11.68,11.68,0,0,1-1.85-.09c-.59-.09-1.05-.39-1.12-.78s.58-.9,1-1.06M35,50.12a11.86,11.86,0,0,1-2.73.67,15.64,15.64,0,0,1-2.08.24c-.59,0-1.17-.28-1.26-.56s.6-1,1-1.26m5.27,2.37c-.6.23-1.61.78-2.31,1a11.11,11.11,0,0,1-1.64.41c-.59.08-1.36-.14-1.48-.4s.54-1.25.86-1.5m5.13,1.78c-.56.31-1.37.82-2,1.14a11.93,11.93,0,0,1-1.71.7,1.42,1.42,0,0,1-1.37-.2c-.39-.57.5-1.43.59-1.52m5.33,1.29c-.53.37-1.08.85-1.7,1.23a11.4,11.4,0,0,1-1.64.88,1.44,1.44,0,0,1-1.38-.06c-.23-.27.06-1.27.3-1.6m5.49.66c-.49.42-1,.95-1.58,1.38a12.78,12.78,0,0,1-1.56,1,1.42,1.42,0,0,1-1.38.07c-.25-.25,0-1.1.17-1.45m5.51,0c-.46.46-.91,1-1.45,1.52A13.51,13.51,0,0,1,35.83,59a1.44,1.44,0,0,1-1.37.19c-.28-.23-.15-1.09,0-1.46m3.4,2.3a2,2,0,0,1-1.64.33c-.51-.17-.26-1.14-.17-1.5m4.07-1.64c-.34.42-2,2.58-2.26,2.81s-.31,1.33.38,1.5c.9.24,1.59-.92,1.95-1.38s1.13-1.89,1.31-2.16m1.68.35c-.27.6-1.16,2.55-1.47,3s-1,1.15-1.68,1-.47-1.32-.42-1.46m4.71-1.12c-.32.58-.64,1.92-1,2.46s-.77.86-1,.83c-.73-.09-.7-1.14-.74-1.41M40.43,57c-.23.24-.4,1.19-.13,1.33A1.59,1.59,0,0,0,42,57.62a14.08,14.08,0,0,0,1.15-1.76m-4.18.27c-.25.23-.49,1.16-.24,1.32a1.6,1.6,0,0,0,1.71-.52,10.21,10.21,0,0,0,1.24-1.43m-4.06-.1c-.28.2-.55,1-.31,1.15s1,.08,1.66-.45a9.31,9.31,0,0,0,1.34-1.18m-3.66-.7c-.28.2-.62,1.11-.38,1.28s1.06,0,1.76-.33a4.42,4.42,0,0,0,1.33-1.06M36,52.81c-.31.2-.9,1-.72,1.27s1,.33,1.74,0a6,6,0,0,0,1.53-.86m-3.13-1.66c-.32.12-.88.73-.7,1a1.75,1.75,0,0,0,1.7.22,5.86,5.86,0,0,0,1.52-.51M35.2,50.12c-.33.08-1.17.62-1,.88s.59.57,1.37.49a6.51,6.51,0,0,0,2-.59M35,48.8c-.33.08-1.1.44-1,.81s.86.55,1.64.46a5.16,5.16,0,0,0,1.58-.29m-2.49-2.3c-.34,0-1.07.23-.95.51a1.77,1.77,0,0,0,1.58.78,9,9,0,0,0,2.17-.22M34.71,46.2c-.34,0-1.07.23-1,.51a1.79,1.79,0,0,0,1.59.78,14.88,14.88,0,0,0,2.35-.13m-3-2.63c-.41,0-1.28.15-1.23.43a1.93,1.93,0,0,0,1.66,1.12,16.37,16.37,0,0,0,2.83,0m-3.46-3.28c-.36-.09-1.46-.08-1.6.15s.15,1,1.11,1.31a31.63,31.63,0,0,0,4.21.74M33.8,41.13c-.28,0-1.33-.3-1.56.11s.52,1.09,1,1.36,4.58,1.51,4.72,1.6m-5.07-5.53c-.69-.22-1.56-.32-1.74.06-.38.82.61,1.29,1,1.59s5.41,2.42,5.55,2.61m6.66,10c-.45.46-2.64.48-3.66-1.25s-1.4-3.73-.77-4.56S42.47,45,41.17,43.4a51.12,51.12,0,0,0-7.55-6.88C31.41,35,26.2,32.3,23.4,31.78c-.81-.15-.46.83,0,1.14.63.49,5.62,3.26,6.07,3.64s6.47,3.64,7.07,4.23c-.09.64.83,1,1.75,1.54-.73-.18-1.28.47.56,1.46-.87-.18-1.18.55-.26,1.32-.51,0-1,.47-.45,1.15-.32.14-.82.6-.31,1.14-.27.14-.68.65,0,1-.59.19-.54.78-.08.91-.78.2-.36,1,.1,1.19-.25.38-.41.87.24,1.1-.25.44,0,1,.46.91,0,.22-.17,1,.65.86,0,.36.19,1.09.88.95.05.59.55.77,1.05.58.33.6.65.78,1.33.4.14.23,1.06.86,1.51.17a3.9,3.9,0,0,0,.4.43M60.15,62a1,1,0,0,1-.35.81c-.14.19-.53,0-.53,0M71.33,40.1c.88-.33,3.24-1.51,3.88-1.87a12,12,0,0,0,1.92-1.1,2.27,2.27,0,0,0,.73-1.51c0-.35-1-.64-1.69-.5m-6.85,7.67c.73-.18,3.5-1.11,4.16-1.41s1.28-.65,1.78-.87a2.32,2.32,0,0,0,1.09-1.46c0-.36-1.28-.46-1.69-.5m-5.53,5.93c.64-.13,2.55-.76,3.25-.95a9.62,9.62,0,0,0,1.6-.64c.54-.25.86-.84.73-1.1s-.83-.36-1.23-.41M69,46c.65-.05,2.49-.33,3.2-.46A12.42,12.42,0,0,0,74.17,45a1.42,1.42,0,0,0,.9-1.22c0-.36-1-.58-1.41-.69M69,47.23c.65,0,2.43.09,3.15.06a11.87,11.87,0,0,0,1.84-.19c.59-.12,1.08-.53,1.12-.82s-.67-.89-1-1M68.72,48.6c.65,0,2.61.41,3.34.41a11.5,11.5,0,0,0,1.85-.11c.59-.09,1.1-.48,1.15-.77s-.63-.91-1-1.07m-5.47,2.86a11.8,11.8,0,0,0,2.74.64,15.31,15.31,0,0,0,2.07.23,1.44,1.44,0,0,0,1.26-.57c.12-.34-.61-1-1-1.26m-5.25,2.42c.61.22,1.62.76,2.32,1a11.4,11.4,0,0,0,1.81.41,1.4,1.4,0,0,0,1.31-.42c.15-.32-.55-1.24-.87-1.49M67.9,52.66c.57.31,1.37.82,2,1.12a13,13,0,0,0,1.72.69A1.42,1.42,0,0,0,73,54.26c.2-.3-.18-1.09-.45-1.39m-5.48,1.21c.54.37,1.09.85,1.71,1.22a13.41,13.41,0,0,0,1.65.86,1.44,1.44,0,0,0,1.38-.07c.23-.27-.06-1.1-.31-1.43M66,55.2c.5.41,1,.94,1.6,1.36a12.78,12.78,0,0,0,1.56,1,1.43,1.43,0,0,0,1.38,0c.26-.25,0-1.1-.18-1.45m-5.5,0c.45.46.92,1,1.46,1.51a12.15,12.15,0,0,0,1.46,1.14,1.4,1.4,0,0,0,1.37.18c.28-.22.14-1.09,0-1.46m-3.39,2.33a2,2,0,0,0,1.65.32c.5-.18.25-1.14.16-1.51m-4.09-1.6c.23.28,1.87,2.47,2.28,2.79s.32,1.33-.36,1.51c-.9.24-1.6-.91-2-1.37s-1.14-1.87-1.32-2.15m-1.6.5a31.86,31.86,0,0,0,1.42,2.88c.34.51,1,1.14,1.69,1s.45-1.33.41-1.46m-4.75-1.15a20.64,20.64,0,0,0,1,2.52,3.87,3.87,0,0,0,1,.82c.73-.09.69-1.14.73-1.42m1.14-4.78c.24.25.41,1.19.14,1.33a1.6,1.6,0,0,1-1.67-.64,12.76,12.76,0,0,1-1.16-1.76m4.18.24c.26.23.5,1.16.25,1.32a1.59,1.59,0,0,1-1.71-.5A10.58,10.58,0,0,1,62,55.36M66,55.22c.28.2.55,1,.32,1.14s-1,.1-1.67-.43a10.8,10.8,0,0,1-1.35-1.16M67,54c.28.2.62,1.1.39,1.28s-1.07.06-1.76-.32a4.2,4.2,0,0,1-1.35-1.05m3.36-1.32c.32.2,1.05.91.86,1.14a1.64,1.64,0,0,1-1.86.1A5.57,5.57,0,0,1,65.09,53m3-1.66c.32.12,1,.7.85.93a1.71,1.71,0,0,1-1.69.24,5.47,5.47,0,0,1-1.52-.5m2.67-2.1c.33.08,1.17.61,1,.87s-.59.58-1.37.5a6.38,6.38,0,0,1-2-.57m2.58-2.12c.33.07,1.12.54,1,.8s-.86.55-1.65.48a5.66,5.66,0,0,1-1.57-.28m2.47-2.33c.33,0,1.07.23,1,.5a1.74,1.74,0,0,1-1.57.8,9.24,9.24,0,0,1-2.17-.2M68.82,46c.33,0,1.07.23,1,.5a1.77,1.77,0,0,1-1.57.81,15.4,15.4,0,0,1-2.36-.12m3-2.65c.41,0,1.28.14,1.23.41a1.9,1.9,0,0,1-1.64,1.14,15.05,15.05,0,0,1-2.83.07M69,42.84c.37-.09,1.47-.09,1.6.14s-.13,1-1.09,1.32a31.37,31.37,0,0,1-4.21.78m4.34-4.16c.28,0,1.33-.32,1.56.09s-.51,1.1-1,1.37S65.66,43.94,65.52,44m5-5.58a2.07,2.07,0,0,1,1.74,0c.32.27-.69,1.37-1,1.6s-5.39,2.47-5.53,2.65m-6.58,10.1c.46.45,2.65.45,3.66-1.28s1.37-3.75.73-4.57-2.56-2.1-1.28-3.75a50.73,50.73,0,0,1,7.49-6.94c2.19-1.56,6-3.86,8.77-4.48.82-.18,2.35-.52,2.06,0-.87,1.51-4.43,3.11-6.58,4.61-.48.34-6.49,3.57-7.08,4.16.09.64-.82,1-1.74,1.55.73-.18,1.28.46-.55,1.47.87-.19,1.19.54.28,1.32.5.05,1,.46.45,1.14.32.14.83.6.32,1.15.28.13.69.64,0,1,.6.18.55.78.09.91.78.2.37,1-.09,1.19.26.38.42.87-.23,1.1.26.44,0,1-.45.91,0,.23.18,1-.64.87,0,.37-.18,1.1-.87,1,0,.6-.55.78-1.05.6-.32.59-.64.77-1.32.41-.14.22-1.06.87-1.51.18-.14.18-.46.55-.46.55M60.41,58c0,.08.45,2.1-1,1m2.42-1.32c.18.29.18,1-.11,1.06s-1-.36-1.49-1a5,5,0,0,1-.87-1.63m-8,13c0,.55-.42,2,.63,1.92.69-.06.7-.94.59-1.92M49,69c.1-.12,0,0,0,0M47.18,43.3a14.12,14.12,0,0,1-.3,2.19,3.41,3.41,0,0,1-1.64.82M44.1,43.07c.32.23,1,.82,1,1.1a6.63,6.63,0,0,0,0,.91.41.41,0,0,0,.6.32M36,31.42c0,.41.17.9-.06,1.27a2.32,2.32,0,0,0-.26.88m7.91,7.9c-.27.13-.28.37-.6.5s-.64.14-.82.37M32.31,32.7a4.71,4.71,0,0,0-.09,1.6,1.09,1.09,0,0,0,1.07,1.21,20.61,20.61,0,0,1,5.65,1.8A19,19,0,0,1,42.68,40a8,8,0,0,1,1.6,2.19c.09.5-.09.78-.32.87M31.26,27.31A6.41,6.41,0,0,0,30.89,29a11.2,11.2,0,0,0-.77,1.28,1.4,1.4,0,0,0,.09,1.37c-.33-.65.64,1.1,2,1.51m1.05-5.71a6.92,6.92,0,0,1-1,2.1M46.63,42.7a1.14,1.14,0,0,0-.89,1.24c0,.82.06,2.17-.5,2.37a1.13,1.13,0,0,1-1.6-1.05c0-1.1-.78-1.1-1.14-1.46,0,0-1.35-1.41,0-1.6.32-.05.82.41.87.59s1,.64,1.14,0a1.73,1.73,0,0,1,1.28-1.24c.45,0,.91-.59,0-1.64a19.54,19.54,0,0,0-6.39-5,32.6,32.6,0,0,0-6.81-2c-.78-.1-.1-.87.23-.83.5,0,2,.28,2.33.23s1.37-.68.41-1.32-2.83-1.15-3.25-1.51-1.69-1-1.05-2.42a1.06,1.06,0,0,1,2.06.09c0,.59-.64,1.23-1.19.59-.28.46-.33.86-.5,1.1M48.58,43.48a3.83,3.83,0,0,0-1.35-.11m1,5.27c-1-1.23-.14-3,.14-3.61a5.9,5.9,0,0,0,.09-2.1m1.46,1.14A4.75,4.75,0,0,1,49.35,46a2.85,2.85,0,0,0-.23,1.46m.37,4.21c.14.27.14.41.27.5m-.64-.55c-.18.28-.23.41-.45.46m-1.37-1c0,.27-.19.73,0,1m-.32-1.6a4.52,4.52,0,0,0-.82,1.42M57.3,49.6c.41.5,1.23,2.2,1,2.47s-1.15-.5-1.28-.82m-5.17.68c.64.09.92-.87,1.1-1.14.23.55.69,1.19,1.14,1.28s1-1.23,1-1.51c.32.69.87,1.37,1.37,1.37s.46-1.55.55-1.83m-5.71,2c.14,0,.85-.14.5-.18-.86-.09-1-1-1-1.46-.09.18-1,1.46-1.55,1.23s-.73-1.46-.78-2c-.41.32-1.23,2.19-1.51,1.1s1.53-1.84,1.33-2m1.42-1.59c-.32.09-1.42,1-1.42,1.59s.05.78.18.92,1.57-.84,1.71-1.43c0,.45,0,1.57.49,2S51.91,49.51,52,49c.13.46.13,1.33,1,1.69s.94-1.1,1-1.42a1.46,1.46,0,0,0,1.16,1.1c.45.05.72-1,.72-1.33a2.26,2.26,0,0,0,1.11,1.06c.36.23.45-.5.32-.73m14.3-20.61c-.1-.36-.28-1.19-.28-1.19-.19.59-1.64.55-1.19-.36s1.65-1,1.92-.09-.91,2.37-1.73,2.83-2.38.73-2.75,1.19-.93,1.29,1,1,2.38-.73,2.38.09-1.47.64-2.56.92a18.59,18.59,0,0,0-5,2A27.35,27.35,0,0,0,58,39.23c-.64.82-1.91,1.51-1.1,1.92,1.28.64,1.19,1.64,1.83,1.83M70.19,27.81a2.59,2.59,0,0,1,.54,1.46M58.12,48.73a20.8,20.8,0,0,0-1.92-3.65m5.08-2.61c.18.73-.69,1.6-.14,2.43s-.09.73-.46,1.18-1.37,1-1.28,2.2-1,1.09-1.83,1.18m1.83-6.67c.61,0,1.1.73,1.1.73m-1-2.46c-.22.17,0,1.08.68,1m7.13-9.92c.15.59.47.86.28,1.24m3.29-1.15A2.59,2.59,0,0,1,71,33.38c0,.46-.18.82.09,1.19s-1.1.62-1.74.82a25.58,25.58,0,0,0-5,2,32.59,32.59,0,0,0-5.3,4.13c-.25.25-.8.92-.32,1.51s1.11-1,1.74-1.1,1.1.73.46,1.28S58.49,45,58.22,46.72s-.28,1.19-.1,2-1.18,1-1.46,0-.46-1.09-.46-1.09M72,27.08a3.61,3.61,0,0,1,.46,1.55A2.09,2.09,0,0,0,73.11,30c.37.46.09,1-.27,1.56A9.2,9.2,0,0,1,71,33M49.62,42.34l-.31-.28m.5,1.1a2.45,2.45,0,0,1,.09.91c.18.14.73.44.91.62s0,1-.23,1.1a12.74,12.74,0,0,0-.86,1.44.86.86,0,0,0,.18,1c.32.28,1.51-.79,1.73-1-.09.55,0,1.5.32,1.57s.87-1.76,1-2c-.09.36.56,2.28,1.06,2s.57-1.81.62-2c0,.22.84,2.12,1.34,1.62A1.2,1.2,0,0,0,56.07,47a2.55,2.55,0,0,0,.18-1.1c0-.14-.23-.45,0-.82a5.53,5.53,0,0,0,.19-1.92c0-.37-.19-.48-.14-.68,0,0,.71-.31.27-.55a11.62,11.62,0,0,0-3.79-1.28,3.32,3.32,0,0,0-2.51.23c-.71,0-1.1-.05-1.21.27.05-.16-3.32.39-2.08,2.51.18-.45.5-.91,1.83-.73a6.42,6.42,0,0,1,2.23.78c-.32-.32-.13-.69-1-1.05" transform="translate(-0.92 -0.9)"/><path class="cls-11" d="M33.16,34.94v0h.13s.06,0,.07-.1l.19-1a.11.11,0,0,0,0-.12s-.05,0-.11-.05v0l1.14.22-.07.4h-.05a.46.46,0,0,0-.08-.29.57.57,0,0,0-.32-.13h-.12s0,0,0,.07l-.08.46a.3.3,0,0,0,.24,0,.4.4,0,0,0,.13-.21h0l-.12.66h-.05a.54.54,0,0,0,0-.25.35.35,0,0,0-.23-.11l-.09.48a.09.09,0,0,0,0,.09s.06,0,.13,0a.56.56,0,0,0,.32,0,.62.62,0,0,0,.27-.23h0l-.16.4-1.16-.23Z" transform="translate(-0.92 -0.9)"/><path class="cls-11" d="M36.49,35c.07,0,.13-.1.17-.23a.35.35,0,0,0,0-.22c0-.07-.06-.11-.14-.14s-.07,0-.09,0,0,0,0,0l-.17.52a.54.54,0,0,0,.25,0m-.91.41a.24.24,0,0,0,.14,0,.22.22,0,0,0,.08-.13l.27-.85a.27.27,0,0,0,0-.15.48.48,0,0,0-.12-.08l0,0,.62.2a.77.77,0,0,1,.35.2.3.3,0,0,1,0,.31.26.26,0,0,1-.11.16.34.34,0,0,1-.2.09.58.58,0,0,1-.19,0l-.27-.07-.11.36a.27.27,0,0,0,0,.15.23.23,0,0,0,.12.08v0l-.65-.2,0-.06Z" transform="translate(-0.92 -0.9)"/><path class="cls-11" d="M39.11,35.33l0,.05a.26.26,0,0,0-.16,0s-.06,0-.09.13l-.26.62a.86.86,0,0,0,0,.24.25.25,0,0,0,.17.24.33.33,0,0,0,.36,0,.7.7,0,0,0,.14-.23l.24-.57a.24.24,0,0,0,0-.16.29.29,0,0,0-.13-.1l0,0,.41.17,0,0a.2.2,0,0,0-.13,0,.14.14,0,0,0-.08.1l-.25.6a.54.54,0,0,1-.26.32.48.48,0,0,1-.42,0,.45.45,0,0,1-.31-.66l.25-.63c0-.07,0-.11,0-.14s0-.06-.11-.09l0,0,.63.26Z" transform="translate(-0.92 -0.9)"/><path class="cls-11" d="M36.81,35.86l.12,0a.14.14,0,0,0,.1-.1l.33-.92a.12.12,0,0,0,0-.13l-.1-.06,0-.05.66.24,0,0a.39.39,0,0,0-.17,0s-.06,0-.09.13l-.33.89a.17.17,0,0,0,0,.1l.13.07a.57.57,0,0,0,.31,0,.67.67,0,0,0,.31-.23l.06,0-.24.41-1.1-.4Z" transform="translate(-0.92 -0.9)"/><path class="cls-11" d="M40.41,36.71a.29.29,0,0,0,.2-.17.6.6,0,0,0,.07-.18.23.23,0,0,0-.12-.2.21.21,0,0,0-.11,0s0,0-.05.05l-.26.44a.7.7,0,0,0,.27.1m-1,.2a.21.21,0,0,0,.14,0s.07,0,.11-.1l.45-.77c0-.07.06-.12,0-.15a.26.26,0,0,0-.09-.1l0,0,.56.33a1,1,0,0,1,.27.2.32.32,0,0,1,.05.39.33.33,0,0,1-.23.17.47.47,0,0,1-.21,0l0,.69s0,0,0,0l0,0,0,0-.35-.21,0-.76,0,0-.2.35c0,.06,0,.1,0,.14a.19.19,0,0,0,.1.1l0,0L39.35,37l0,0Z" transform="translate(-0.92 -0.9)"/><path class="cls-11" d="M40.79,37.77l.11.06a.17.17,0,0,0,.12-.06l.59-.78c0-.05,0-.09,0-.13a.26.26,0,0,0-.09-.1l0,0,.57.43,0,0L42,37.13a.11.11,0,0,0-.12.06l-.59.78a.1.1,0,0,0,0,.12.27.27,0,0,0,.09.11l0,0-.56-.43,0,0Z" transform="translate(-0.92 -0.9)"/><path class="cls-11" d="M42.66,38.19c.06,0,.12,0,.19-.13a.48.48,0,0,0,.08-.18.15.15,0,0,0-.08-.16.12.12,0,0,0-.08,0s0,0-.07,0l-.27.35a.32.32,0,0,0,.23.11M42,38.6a.12.12,0,0,0,.05.1.29.29,0,0,0,.21.06.44.44,0,0,0,.18-.14.3.3,0,0,0,.07-.31.49.49,0,0,0-.16-.18l-.31.4s0,0,0,.07m-.44-.27.11.06a.14.14,0,0,0,.12-.06l.6-.77a.17.17,0,0,0,0-.13l-.08-.09,0,0,.49.38a.84.84,0,0,1,.21.22.29.29,0,0,1,0,.36.23.23,0,0,1-.2.1.46.46,0,0,1-.21,0v0a.62.62,0,0,1,.11.17.35.35,0,0,1-.05.33.33.33,0,0,1-.29.11.66.66,0,0,1-.39-.17l-.51-.4Z" transform="translate(-0.92 -0.9)"/><path class="cls-11" d="M44,38.62l0,0c-.06,0-.1-.08-.14-.08s-.07,0-.13.08l-.45.5a.56.56,0,0,0-.14.2.24.24,0,0,0,.08.28.31.31,0,0,0,.35.09.59.59,0,0,0,.21-.16l.42-.46a.21.21,0,0,0,.07-.14.29.29,0,0,0-.08-.14l0,0,.32.3,0,0a.36.36,0,0,0-.13-.05.16.16,0,0,0-.1.07l-.44.47a.57.57,0,0,1-.36.21.49.49,0,0,1-.39-.16.47.47,0,0,1-.06-.73l.46-.5a.22.22,0,0,0,.07-.12s0-.07-.07-.13l0,0,.51.47Z" transform="translate(-0.92 -0.9)"/><path class="cls-11" d="M44.1,40l0,.05a.54.54,0,0,0-.15.33.32.32,0,0,0,.08.25c.06.07.12.11.18.1a.25.25,0,0,0,.15-.05.17.17,0,0,0,.07-.14.38.38,0,0,0,0-.19l0-.14a1,1,0,0,1,0-.33.34.34,0,0,1,.13-.21.41.41,0,0,1,.28-.1.38.38,0,0,1,.3.16.49.49,0,0,1,.11.18l0,.11s0,0,0,0l.05,0,0,0-.34.28,0,0a.61.61,0,0,0,.11-.28.31.31,0,0,0-.08-.26.23.23,0,0,0-.14-.08.17.17,0,0,0-.14,0,.21.21,0,0,0-.08.14,1.6,1.6,0,0,0,.05.27l0,.17a.43.43,0,0,1,0,.19.42.42,0,0,1-.14.27.49.49,0,0,1-.3.09.49.49,0,0,1-.35-.2.86.86,0,0,1-.07-.1.37.37,0,0,1,0-.11l0,0a0,0,0,0,0,0,0h0s0,0,0,0h-.05l0,0L44.1,40Z" transform="translate(-0.92 -0.9)"/><path class="cls-11" d="M60.08,38.14l0,0a.4.4,0,0,0-.1.13.25.25,0,0,0,.07.14l.43.52a.67.67,0,0,0,.17.17.28.28,0,0,0,.3,0,.32.32,0,0,0,.13-.34.55.55,0,0,0-.13-.23l-.39-.48c-.05-.06-.09-.09-.13-.09a.29.29,0,0,0-.15.06l0,0,.34-.28,0,0a.4.4,0,0,0-.07.12.24.24,0,0,0,.06.11l.41.5a.54.54,0,0,1,.15.39.46.46,0,0,1-.21.35.52.52,0,0,1-.5.15.54.54,0,0,1-.23-.18l-.43-.52a.31.31,0,0,0-.12-.1.28.28,0,0,0-.13.06l0,0Z" transform="translate(-0.92 -0.9)"/><path class="cls-11" d="M61.91,38.31c.07-.05.1-.08.1-.12a.14.14,0,0,0,0-.11l-.51-.81-.16,0h-.07l0,0,.35-.23,1,.33h0l-.32-.5a.28.28,0,0,0-.11-.11.22.22,0,0,0-.16,0l0,0,.37-.24,0,0a.26.26,0,0,0-.09.1.27.27,0,0,0,0,.12l.65,1,0,0-1.34-.43h0L62,38a.19.19,0,0,0,.09.09.21.21,0,0,0,.18,0l0,0-.38.25,0,0Z" transform="translate(-0.92 -0.9)"/><path class="cls-11" d="M63.59,35.66l0,0a.26.26,0,0,0-.12.11.21.21,0,0,0,0,.15l.34.58a.52.52,0,0,0,.15.19.25.25,0,0,0,.3,0,.32.32,0,0,0,.18-.31.63.63,0,0,0-.09-.25l-.31-.53c0-.07-.07-.1-.11-.11a.26.26,0,0,0-.16,0l0,0,.39-.23,0,.05a.35.35,0,0,0-.09.1s0,.07,0,.13l.32.56a.58.58,0,0,1,.1.4.52.52,0,0,1-.27.32.46.46,0,0,1-.72-.15l-.34-.59c0-.07-.07-.1-.1-.11s-.07,0-.14,0l0,0,.59-.34Z" transform="translate(-0.92 -0.9)"/><path class="cls-11" d="M65.36,36.21c.08,0,.12-.07.13-.1a.21.21,0,0,0,0-.13l-.38-.88c0-.05,0-.08-.07-.08a.3.3,0,0,0-.15,0l0,0,.47-.2.73.71h0v-1l.47-.21,0,0c-.06,0-.1.06-.11.09s0,.08,0,.15l.35.82c0,.07.06.11.1.12a.19.19,0,0,0,.14,0l0,.05-.62.26,0,0,.12-.08s0-.07,0-.13l-.39-.91h0v1.28l-.05,0-.92-.88h0l.37.84a.19.19,0,0,0,.09.12.28.28,0,0,0,.17,0l0,0-.43.18,0,0Z" transform="translate(-0.92 -0.9)"/><path class="cls-17" d="M42.93,22.41a1.86,1.86,0,0,1,2.36-2.54,1.81,1.81,0,0,1,3-1.64,1.83,1.83,0,0,1,3.38-.59,1.79,1.79,0,0,1,3.37.6,1.82,1.82,0,0,1,3.06,1.65,1.8,1.8,0,0,1,2.38,2.49,1.82,1.82,0,0,1,1.44,3.16A1.86,1.86,0,0,1,62.2,29a1.86,1.86,0,0,1-.8,3.39,1.9,1.9,0,0,1-2,2.9c.22,1.74-1.19,2.89-2.78,2.07a1.86,1.86,0,0,1-3.25,1.13,1.84,1.84,0,0,1-3.45-.1,1.85,1.85,0,0,1-3.27-1.11A1.85,1.85,0,0,1,44,35.1a1.83,1.83,0,0,1-1.88-2.84A1.83,1.83,0,0,1,41.33,29a1.86,1.86,0,0,1,.21-3.43,1.84,1.84,0,0,1,1.39-3.11Z" transform="translate(-0.92 -0.9)"/><path class="cls-2" d="M59.28,52.17H44.4v5.77H59.28Z" transform="translate(-0.92 -0.9)"/><path class="cls-18" d="M45.57,57.93v11h1.16v-11Zm2.32,0v11h1.17v-11Zm2.28,0v11h1.16v-11Zm2.38,0v11h1.16v-11Zm2.22,0v11h1.17v-11ZM57,58V69h1.16V58Z" transform="translate(-0.92 -0.9)"/><path class="cls-19" d="M59.25,52.18l0,15.65c0,.66-.25,1.1-1.05,1.1-.54,0-5.57,0-5.57,0-.66,0-.46.29-.73.61-.18-.32-.09-.61-.73-.61H45.61A1.06,1.06,0,0,1,44.37,68c0-.52,0-15.82,0-15.82Z" transform="translate(-0.92 -0.9)"/><path class="cls-20" d="M50.36,98.68A48.22,48.22,0,1,0,2.15,50.47,48.22,48.22,0,0,0,50.36,98.68Z" transform="translate(-0.92 -0.9)"/><path class="cls-21" d="M48.34,5.54v.17c.35,0,.49,0,.84.48l0,3.84c0,.93-.2,1.06-.86,1.1v.16l2,0v-.16c-.63,0-.81-.23-.8-1.12l0-3.39h0l3.76,4.8h.15l.05-4.56c0-1,.29-1,.84-1.1V5.61l-2,0v.16c.59,0,.83.13.82,1.12l0,2.9h0L49.82,5.56Zm-1.28.14-4.58.57,0,.16c.55,0,.77,0,.85.68l.47,3.83c.09.66-.1.76-.65.87l0,.16,4.65-.58.21-1.5-.24,0c-.27.92-.67,1.23-1.75,1.36-1.28.16-1.28.15-1.33-.2l-.26-2.14,1.33-.15c.71-.08.86,0,1.05.71l.2,0-.25-2-.2,0c0,.62-.08.84-.85.93l-1.32.17-.24-1.91c0-.3.07-.31.25-.33l1.16-.15c1-.12,1.2,0,1.42.74l.22,0Zm8.21,0L55,7.17l.21,0c.32-.91.58-1,1.53-.9l.46.07-.63,4.3c-.09.63-.15.83-.94.75l0,.16,2.51.37,0-.17c-.71-.13-.79-.31-.71-.89l.65-4.39.46.07c.94.14,1.16.33,1.2,1.3l.21,0,.16-1.47Zm-13.76.64-1.66.47-.65,4.74L36.07,7.9l-1.65.47,0,.16c.62-.14.82-.13,1,.52l1,3.39c.26.91.12,1.08-.5,1.3l0,.16,2-.55,0-.16c-.62.14-.84,0-1.09-.85L35.86,9h0l3.37,4,.12,0,.78-5.35h0l1.07,3.75c.19.69.12.84-.52,1.06l0,.16,2.34-.66,0-.16c-.55.12-.76.1-.94-.55L41,7.47c-.18-.66,0-.76.52-1ZM65,7.82A2.81,2.81,0,0,0,62.41,9.9a2.84,2.84,0,1,0,5.37,1.84A2.8,2.8,0,0,0,66.07,8,2.88,2.88,0,0,0,65,7.82Zm.28.37a1.67,1.67,0,0,1,.67.08c.84.29,1.52,1.27.88,3.14s-1.71,2.25-2.62,1.94-1.5-1.33-.88-3.14C63.83,8.81,64.59,8.26,65.3,8.19ZM33.52,8.8l-4.45,2,.57,1.36.19-.09c-.22-.94-.08-1.19.79-1.58l.43-.2,1.81,3.95c.26.58.32.77-.38,1.13l.07.15,2.3-1.05-.06-.15c-.68.28-.84.17-1.09-.36l-1.85-4,.43-.19c.87-.4,1.15-.36,1.72.43l.19-.09Zm36.06.61-.07.15c.47.28.63.42.33,1L68.17,14c-.32.64-.47.71-1.07.45l-.07.15,2.18,1.08.07-.14c-.54-.3-.65-.47-.36-1.06l.84-1.69,1.13.56c.57.3.72.47.48,1.17l.18.09.9-1.81-.18-.08c-.37.54-.59.63-1.22.31l-1.13-.56.86-1.73c.11-.23.18-.23.38-.14l1,.53c.87.43,1,.65.78,1.4l.2.1.52-1.13ZM27.82,12.1a2.94,2.94,0,0,0-1.7.5l-2,1.25.08.14c.55-.27.71-.27,1,.28l2,3.21c.34.56.4.73-.17,1.13l.08.15,2.06-1.26L29,17.36c-.61.34-.77.24-1.07-.26l-.9-1.46.41-.27,3.16,1.21,1.19-.73-.09-.14a1,1,0,0,1-.85,0l-2.67-.95a1.59,1.59,0,0,0,.58-2.06A1.26,1.26,0,0,0,27.82,12.1Zm-.9.57a1,1,0,0,1,1.06.56c.65,1.06-.46,1.75-1.07,2.14L25.8,13.55c-.14-.22-.1-.31.29-.55A2.37,2.37,0,0,1,26.92,12.67ZM77,13.85a1.36,1.36,0,0,0-1,.61c-.51.7-.28,1.33.1,2.17.6,1.35.54,1.67.25,2.07a1,1,0,0,1-1.41.18,2.07,2.07,0,0,1-.55-2.29l-.16-.12-.86,1.65.15.11a.28.28,0,0,1,.39-.08c.21.16.38.65.92,1a1.65,1.65,0,0,0,2.4-.2c1-1.45-1.21-3.28-.45-4.34A.82.82,0,0,1,78,14.5a1.73,1.73,0,0,1,.43,2.15l.18.13.93-1.61-.15-.11a.29.29,0,0,1-.42.06c-.18-.12-.38-.64-.81-.94A1.64,1.64,0,0,0,77,13.85ZM21,16.14l-.14.11,1.32,4.44A5.58,5.58,0,0,1,22.48,22a.53.53,0,0,1-.22.43l.11.13,1.33-1.09-.11-.13c-.14.12-.45.38-.69.09a1,1,0,0,1-.15-.29l-.34-1,1.75-1.45.81.42a1.92,1.92,0,0,1,.48.32c.2.24,0,.43-.26.64l.1.12L27,18.79l-.1-.13c-.32.22-.47.23-1.09-.09Zm59.73.13-1,1.05.16.14c.78-.57,1.06-.53,1.77.11l.34.32L79,21.09c-.44.47-.59.6-1.2.09l-.11.12L79.6,23l.11-.12c-.52-.51-.48-.71-.09-1.14l3-3.27.34.32c.7.64.78.92.26,1.75l.16.14,1-1.12Zm-59.19,1,2.3,1.2L22.3,19.77Zm-2.62,1.56a2.72,2.72,0,0,0-1.73.93l-1.59,1.64.12.12c.48-.41.62-.41,1.06,0l2.7,2.62c.45.44.59.57.12,1.13l.12.12,1.69-1.74-.11-.12c-.48.47-.68.48-1.13,0L19,22.51c.16-.14.28-.25.43-.4a2.51,2.51,0,0,0,.91-1.67,1.52,1.52,0,0,0-.47-1.2A1.26,1.26,0,0,0,18.93,18.85Zm-.41.71a1.21,1.21,0,0,1,.74.37,1.27,1.27,0,0,1-.09,2,4.27,4.27,0,0,1-.38.36l-1.62-1.58c-.2-.19-.14-.27,0-.46a2.15,2.15,0,0,1,1.08-.66Zm67.92,2.23L82,23.19a5.85,5.85,0,0,1-1.35.33.56.56,0,0,1-.43-.22l-.13.11,1.12,1.31.13-.11c-.12-.14-.39-.45-.11-.68a.82.82,0,0,1,.29-.17l1-.36,1.49,1.73-.4.81a2.53,2.53,0,0,1-.31.49c-.25.2-.44,0-.65-.25l-.12.1L84,28l.12-.11c-.22-.31-.23-.46.07-1.09l2.33-4.85Zm-71.63.57L12,26l.13.1c.37-.41.54-.54,1.08-.13l3.06,2.34c.53.41.47.62.16,1.08l.13.1,2.85-3.73-.93-1.2-.14.2A1.69,1.69,0,0,1,18.1,27c-.79,1-.8,1-1.08.8l-1.71-1.31.83-1.05c.44-.56.62-.59,1.23-.25l.12-.16-1.6-1.23-.12.16c.43.45.55.65.08,1.26L15,26.27,13.5,25.1c-.23-.18-.17-.26-.06-.4l.71-.93c.59-.77.84-.87,1.53-.5l.13-.17Zm70.6.13-1.15,2.32L83,23.28Zm2.87,1.64L87,24.92l.12.17c.89-.37,1.15-.27,1.69.52l.27.38-3.6,2.44c-.53.36-.71.45-1.18-.18l-.14.09,1.43,2.1.13-.09c-.38-.62-.3-.8.18-1.13l3.67-2.49.27.38c.53.8.54,1.08-.15,1.77l.12.17L91,28.18Zm-76,3.73a3.44,3.44,0,0,0-2.56,2l-1.16,2,.14.08c.38-.56.5-.6,1.06-.28l3.35,1.91c.53.3.59.46.3,1l.14.08,1.22-2.14c1.32-2.31.18-3.75-.83-4.32a3.09,3.09,0,0,0-1.22-.41A2.17,2.17,0,0,0,12.29,27.86Zm-.35.86a2.7,2.7,0,0,1,1.55.39,2.37,2.37,0,0,1,.87,3.59c-.21.36-.31.42-.57.27L10,30.79c-.15-.09-.3-.17-.1-.52a2.69,2.69,0,0,1,1.52-1.44A2.31,2.31,0,0,1,11.94,28.72Zm79.53.18-.15.08c.21.51.26.71-.35,1l-3.44,1.75c-.59.3-.75.16-1-.32l-.15.08,2.13,4.17L90,35.37l-.12-.21C88.9,35.21,88.47,35,88,34c-.59-1.15-.58-1.15-.26-1.32l1.91-1,.6,1.2c.31.65.26.82-.31,1.23l.09.17,1.8-.91-.09-.18c-.59.2-.82.21-1.17-.47l-.61-1.19,1.72-.88c.26-.13.31,0,.39.12l.53,1c.44.86.42,1.13-.21,1.59l.1.2L93.56,33ZM8.13,42.29,7.66,43.8l-1.54,0,1.25,1-.54,1.6,1.45-.92,1.37.89L9.11,44.7l1.1-1-1.58,0Zm84.62,0-.46,1.51-1.55,0,1.26,1-.54,1.6,1.44-.92,1.37.89-.54-1.68,1.1-1-1.58,0ZM12,52.92l-.17,0c0,.66-.05.79-.69.86l-2.69.28a2,2,0,0,0-2,2.38,2,2,0,0,0,2.56,2l2.25-.24c.91-.1,1.05,0,1.19.69l.17,0-.22-2-.16,0c0,.61-.1.83-1,.93l-2.33.25A2.22,2.22,0,0,1,7.68,58a1.57,1.57,0,0,1-.83-1.34c-.16-1.5,1-1.63,1.59-1.69l2.77-.29c.61-.07.73,0,.85.7l.17,0Zm83.35,3c-.09.38-.2.48-.87.66l-5.22,1.34,0,.17,3.92,2.47a5.91,5.91,0,0,1,1.12.82.6.6,0,0,1,.12.47l.16,0,.28-1.69-.17,0c0,.18-.09.58-.45.52a.9.9,0,0,1-.32-.12L92.92,60l.37-2.25.88-.22a2.15,2.15,0,0,1,.56-.07c.32,0,.28.33.23.65l.17,0L95.48,56Zm-2.4,1.9-.32,2-2.2-1.37ZM12.63,59l-.16,0c.09.34.08.48-.24.94l-3.7,1c-.91.25-1.08.11-1.29-.52l-.16,0,.53,2,.16,0c-.14-.62,0-.84.86-1.08l3.27-.88h0L8.31,65.42l0,.15,4.41-1.2c1-.26,1.08,0,1.29.51l.16,0-.54-2-.16,0c.12.58.11.83-.85,1.09l-2.8.76v0L13,60.44ZM88.57,61.4l-.06.17a.38.38,0,0,1,.15.47,7.07,7.07,0,0,0-.74,1.36,2.89,2.89,0,0,0,1.94,3.74A2.77,2.77,0,0,0,93.6,65.3a2.93,2.93,0,0,0-.32-2.58l-.2.1A2.75,2.75,0,0,1,93.31,65c-.34,1-1.38,1.79-3.13,1.22a2.7,2.7,0,0,1-1.81-1.34,2,2,0,0,1-.1-1.4,1.9,1.9,0,0,1,2.12-1.32l.06-.19-1.88-.53ZM14.37,65l-.15.06c.23.68.18.83-.41,1.07l-3.58,1.44c-.57.23-.75.19-1-.49L9,67.15l1,2.39.15-.06c-.22-.6-.22-.83.41-1.08L14.14,67c.64-.26.78-.09,1,.49l.15-.06Zm72.56,1.54L85.86,68.9,86,69c.33-.65.48-.71,1.06-.45l3.52,1.59c.56.25.65.41.36,1.09l.15.07,1.06-2.35L92,68.85c-.28.58-.44.73-1.06.45l-3.51-1.58c-.64-.29-.6-.51-.37-1.1l-.14-.07ZM15.41,67.71l-1.33.65.1.18c.92-.27,1.18-.14,1.63.7l.21.41-3.83,2c-.57.3-.76.37-1.16-.32l-.14.08,1.18,2.24.15-.08c-.32-.65-.23-.82.3-1.1l3.92-2.07.22.41c.44.85.42,1.13-.34,1.74l.1.19L17.7,72l-2.29-4.33Zm70.45,2.78a2.46,2.46,0,0,0-1.62,1.33L83,73.89l.14.08c.36-.5.5-.57,1-.24l3.23,1.92c.56.33.7.45.38,1.08l.14.09,1.23-2.07-.14-.09c-.39.58-.57.57-1.07.28l-1.48-.88.24-.42,3.35-.42.72-1.2-.15-.09a1,1,0,0,1-.73.45l-2.8.42a1.6,1.6,0,0,0-.46-2.1A1.37,1.37,0,0,0,85.86,70.49Zm-.36.83a1.21,1.21,0,0,1,.67.18c1.07.64.42,1.77.06,2.4l-1.84-1.09c-.22-.13-.23-.23,0-.62A1.57,1.57,0,0,1,85.5,71.32Zm-67.69.92-.13.09c.28.47.36.67-.2,1.07l-3.14,2.24c-.54.39-.72.28-1.07-.16l-.13.1,2.72,3.81,1.42-.53-.14-.2a1.67,1.67,0,0,1-2-.89c-.75-1-.75-1-.46-1.26l1.76-1.25.76,1.09c.41.6.39.77-.12,1.26l.12.16,1.64-1.17-.12-.16c-.56.28-.78.33-1.22-.3l-.78-1.08,1.57-1.13c.24-.17.3-.08.4.06l.68,1c.56.78.58,1,0,1.6l.13.18,1-.74-2.68-3.75Zm64.8,2.15L79.73,78l.13.1c.38-.4.55-.53,1.08-.1l3,2.41c.52.41.46.62.14,1.07l.13.11,2.93-3.67-.9-1.22-.15.19a1.7,1.7,0,0,1-.3,2.2c-.81,1-.82,1-1.1.78L83,78.52l.85-1c.46-.55.63-.58,1.24-.23l.13-.15-1.58-1.26-.12.15c.42.46.53.66,0,1.26l-.84,1-1.5-1.2c-.24-.19-.17-.27-.06-.41l.73-.92c.61-.75.86-.84,1.54-.46l.14-.17-1-.75ZM20.84,76.51l-.12.12c.43.51.43.64,0,1.09l-2.78,2.67c-.44.42-.61.44-1.09,0l-.12.11,1.71,1.78c1.84,1.92,3.54,1.23,4.37.43,1.4-1.35,1.13-3-.31-4.5ZM21.71,78c.08,0,.18,0,.33.19A2.66,2.66,0,0,1,23,80.08a2.52,2.52,0,0,1-.86,2,2.37,2.37,0,0,1-3.69-.19c-.29-.3-.31-.42-.1-.62l3.18-3.06A.37.37,0,0,1,21.71,78Zm58,.16-1.28,1.15,1.51,4.55L75.46,82l-1.27,1.15.11.12c.5-.4.68-.47,1.13,0l2.36,2.62c.63.7.58.92.12,1.39l.11.12L79.54,86l-.11-.12c-.49.4-.76.38-1.35-.28l-2.32-2.58h0l4.78,2.08.09-.09L79,79.9h0l2.61,2.89c.48.53.48.7,0,1.18l.12.13,1.8-1.63-.11-.12c-.44.34-.64.42-1.08-.08L79.74,79.4c-.46-.51-.34-.69,0-1.09l-.11-.12ZM27.54,83.11a1.37,1.37,0,0,0-1,.63c-.49.7-.25,1.33.14,2.17.62,1.34.57,1.66.28,2.07a1,1,0,0,1-1.4.19,2,2,0,0,1-.58-2.27l-.17-.12-.84,1.66.16.11a.27.27,0,0,1,.39-.08c.21.15.39.63.93,1a1.66,1.66,0,0,0,2.4-.24c1-1.46-1.26-3.26-.52-4.33a.81.81,0,0,1,1.18-.16A1.75,1.75,0,0,1,29,85.9l.17.12.9-1.63-.15-.1a.29.29,0,0,1-.41.07c-.18-.13-.4-.64-.82-.93A1.71,1.71,0,0,0,27.54,83.11Zm44,1.5-.14.09.72,4.58a6.44,6.44,0,0,1,.12,1.38.6.6,0,0,1-.28.4l.09.14,1.46-.92-.09-.14c-.15.1-.5.32-.69,0a.93.93,0,0,1-.12-.32l-.2-1.07,1.93-1.21.74.52a2,2,0,0,1,.43.38c.17.27-.07.43-.34.6l.09.14L77.1,88,77,87.88c-.34.18-.49.16-1.06-.23Zm-40.67.49-.72,1.28.18.1c.61-.75.89-.79,1.74-.35l.42.22-2,3.85c-.3.57-.41.73-1.13.4l-.08.15,2.25,1.17.08-.15c-.64-.36-.65-.55-.38-1.08l2-3.93.42.21c.84.45,1,.7.71,1.63l.18.1.64-1.34Zm41.06.72L74,87.32l-1.7,1.06Zm-4.68,1.31-4.3,1.67L63,89c.53-.16.74-.19,1,.45l1.36,3.51c.26.66.21.82-.38,1.09l.06.15,2.26-.88-.06-.16c-.58.2-.78.17-1-.44l-.68-1.76,1.17-.46c.61-.22.84-.21,1.19.43l.19-.07-.73-1.88-.19.08c.16.63.07.85-.59,1.11l-1.17.46-.7-1.8c-.1-.24-.06-.29.15-.37l1.1-.43c.9-.35,1.16-.31,1.56.37l.2-.08Zm-29.7,1L34.35,91.5a5.78,5.78,0,0,1-1,.94.58.58,0,0,1-.48,0l-.05.16,1.61.59.06-.15c-.17-.07-.56-.21-.43-.55a1,1,0,0,1,.18-.29l.72-.81,2.14.78.05.9a2.16,2.16,0,0,1,0,.57c-.11.31-.38.22-.68.11l-.06.15,2.08.76.06-.15c-.35-.16-.43-.29-.48-1l-.33-5.38Zm2.24.94-.38,1.43.2,0c.4-.88.67-1,1.6-.77l.46.1-1,4.23c-.15.63-.22.82-1,.67l0,.16,2.47.57,0-.16c-.7-.19-.76-.37-.63-1l1-4.32.46.11c.93.21,1.13.42,1.09,1.39l.2,0,.28-1.45ZM37,89.22l.13,2.59-1.89-.69Zm23.41.16a3.12,3.12,0,0,0-.52.08,2.8,2.8,0,1,0,.52-.08Zm-.12.34c.79,0,1.69.55,2.08,2.23.44,1.86-.25,2.82-1.19,3s-2-.33-2.41-2.19.33-2.83,1.19-3A1.86,1.86,0,0,1,60.25,89.72Zm-15.5.48,0,.16c.54.1.75.17.68.85l-.36,3.84c-.06.67-.26.73-.82.71l0,.16,4.67.44.53-1.42-.24,0a1.68,1.68,0,0,1-2,1c-1.29-.12-1.29-.13-1.26-.49l.2-2.14,1.33.14c.72.08.84.21.88.91l.2,0,.18-2h-.2c-.15.6-.25.8-1,.73l-1.34-.13L46.32,91c0-.3.14-.29.32-.27l1.16.11c1,.09,1.17.25,1.23,1l.22,0,.09-1.24Zm9,.22h-.18c0,.1,0,.3-.3.31A5.85,5.85,0,0,0,52,90.47,1.47,1.47,0,0,0,50.52,92c0,.86.59,1.22,1.41,1.65,1.3.71,1.45,1,1.46,1.49a1,1,0,0,1-1,1c-1.17,0-1.65-1.07-1.83-1.48h-.2l.32,1.83h.19a.28.28,0,0,1,.26-.3,7.61,7.61,0,0,0,1.36.25,1.66,1.66,0,0,0,1.78-1.63c-.06-1.78-3-1.86-3-3.16a.81.81,0,0,1,.85-.83,1.75,1.75,0,0,1,1.67,1.43H54l-.25-1.84Z" transform="translate(-0.92 -0.9)"/></svg>