<svg id="Layer_1" data-name="Layer 1" xmlns="http://www.w3.org/2000/svg" xmlns:xlink="http://www.w3.org/1999/xlink" viewBox="0 0 120.4 120.4"><defs><style>.cls-1{fill:#fff;stroke:#000;}.cls-2{fill:url(#linear-gradient);}.cls-3{fill:url(#linear-gradient-2);}.cls-4{fill:url(#linear-gradient-3);}.cls-5{fill:url(#linear-gradient-4);}.cls-6{fill:url(#linear-gradient-5);}.cls-7{fill:url(#linear-gradient-6);}.cls-8{fill:url(#linear-gradient-7);}.cls-9{fill:url(#linear-gradient-8);}.cls-10{fill:url(#linear-gradient-9);}</style><linearGradient id="linear-gradient" x1="37.17" y1="76.24" x2="86.5" y2="76.24" gradientTransform="matrix(1, 0, 0, -1, 0, 119.89)" gradientUnits="userSpaceOnUse"><stop offset="0.32" stop-color="#dedede"/><stop offset="0.44" stop-color="#dadada"/><stop offset="0.55" stop-color="#cfcfcf"/><stop offset="0.67" stop-color="#bababa"/><stop offset="0.79" stop-color="#9f9f9f"/><stop offset="0.91" stop-color="#7c7c7c"/><stop offset="1" stop-color="#5d5d5d"/></linearGradient><linearGradient id="linear-gradient-2" x1="86.83" y1="74.39" x2="36.5" y2="74.39" gradientTransform="matrix(1, 0, 0, -1, 0, 119.89)" gradientUnits="userSpaceOnUse"><stop offset="0" stop-color="#5d5d5d"/><stop offset="1" stop-color="#222"/></linearGradient><linearGradient id="linear-gradient-3" x1="42.12" y1="75.79" x2="102.77" y2="75.79" gradientTransform="matrix(1, 0, 0, -1, 0, 119.89)" gradientUnits="userSpaceOnUse"><stop offset="0" stop-color="#a8a8a8"/><stop offset="1" stop-color="#606060"/></linearGradient><linearGradient id="linear-gradient-4" x1="-428.48" y1="529.42" x2="-379.14" y2="529.42" gradientTransform="matrix(-0.5, -0.87, -0.87, 0.5, 301.6, -547.42)" xlink:href="#linear-gradient"/><linearGradient id="linear-gradient-5" x1="-378.81" y1="527.59" x2="-429.14" y2="527.59" gradientTransform="matrix(-0.5, -0.87, -0.87, 0.5, 301.6, -547.42)" xlink:href="#linear-gradient-2"/><linearGradient id="linear-gradient-6" x1="-423.53" y1="529" x2="-362.87" y2="529" gradientTransform="matrix(-0.5, -0.87, -0.87, 0.5, 301.6, -547.42)" xlink:href="#linear-gradient-3"/><linearGradient id="linear-gradient-7" x1="196.8" y1="706.06" x2="246.13" y2="706.06" gradientTransform="matrix(-0.5, 0.87, 0.87, 0.5, -427.09, -474.97)" xlink:href="#linear-gradient"/><linearGradient id="linear-gradient-8" x1="246.47" y1="704.28" x2="196.14" y2="704.28" gradientTransform="matrix(-0.5, 0.87, 0.87, 0.5, -427.09, -474.97)" xlink:href="#linear-gradient-2"/><linearGradient id="linear-gradient-9" x1="201.75" y1="705.71" x2="262.41" y2="705.71" gradientTransform="matrix(-0.5, 0.87, 0.87, 0.5, -427.09, -474.97)" xlink:href="#linear-gradient-3"/></defs><g id="Layer_2" data-name="Layer 2"><circle class="cls-1" cx="60.2" cy="60.2" r="59.7"/><path d="M12.2,71.5l.4,1.2-3.3,1a4.28,4.28,0,0,1-1,.3,1,1,0,0,0-.5.6,1.35,1.35,0,0,0,0,.9,1,1,0,0,0,.5.7,1.42,1.42,0,0,0,.6.2,3.63,3.63,0,0,0,1.1-.3l3.4-1,.4,1.2-3.2,1c-.7.2-1.3.3-1.6.4a1.41,1.41,0,0,1-.9-.1,1.34,1.34,0,0,1-.7-.6,2.81,2.81,0,0,1-.5-1.1,4.19,4.19,0,0,1-.2-1.4,3.18,3.18,0,0,1,.3-.9c.1-.3.4-.4.6-.6a5.71,5.71,0,0,1,1.5-.6Z" transform="translate(0 0)"/><path d="M8.2,80.3l5.9-2.6.5,1.2L11.7,83l3.9-1.7.5,1.1L10.3,85l-.5-1.2,2.8-4.1L8.8,81.4Z" transform="translate(0 0)"/><path d="M11.3,86.9l5.6-3.2.6,1.1L12,88Z" transform="translate(0 0)"/><path d="M13.8,91l4.4-3-1.1-1.6.9-.6L20.9,90l-.9.6-1-1.5-4.4,3Z" transform="translate(0 0)"/><path d="M16.6,95l4.9-4.2,3.1,3.6-.8.6-2.3-2.6-1.1.9,2.1,2.4-.8.7L19.6,94l-1.3,1.2,2.4,2.7-.8.7Z" transform="translate(0 0)"/><path d="M25.5,95.2l1.8,1.6a5.06,5.06,0,0,1,.8.9,2,2,0,0,1,.3,1.1,5,5,0,0,1-.2,1.2,7.7,7.7,0,0,1-.9,1.3,4.36,4.36,0,0,1-1.1.9,3.26,3.26,0,0,1-1.3.4,3.55,3.55,0,0,1-1-.2,2.61,2.61,0,0,1-1-.7l-1.8-1.6Zm.2,1.7-2.8,3.2.7.6a3.81,3.81,0,0,1,.6.5.66.66,0,0,0,.6.1,2.54,2.54,0,0,0,.7-.2,3.24,3.24,0,0,0,.9-.8c.3-.4.6-.7.7-.9s.2-.5.1-.7-.1-.4-.2-.6a5.72,5.72,0,0,0-.8-.8Z" transform="translate(0 0)"/><path d="M30.3,104.7l1.1.5a1.23,1.23,0,0,0-.1,1,1.54,1.54,0,0,0,.7.7,2.3,2.3,0,0,0,.9.3.82.82,0,0,0,.6-.4.6.6,0,0,0,.1-.4.91.91,0,0,0-.3-.5,7.51,7.51,0,0,1-.7-.8,3.05,3.05,0,0,1-.9-1.3,1.4,1.4,0,0,1,.2-1.4,1.34,1.34,0,0,1,.7-.6,1.64,1.64,0,0,1,1-.1,3.08,3.08,0,0,1,1.2.5,2.85,2.85,0,0,1,1.3,1.4,1.63,1.63,0,0,1-.2,1.5l-1.1-.6a2.49,2.49,0,0,0,.1-.8c0-.2-.3-.4-.6-.6a1.61,1.61,0,0,0-.9-.3.52.52,0,0,0-.4.2.3.3,0,0,0,0,.4,4.05,4.05,0,0,0,.8,1,8.18,8.18,0,0,1,1,1.1,1.61,1.61,0,0,1,.3.9,1.93,1.93,0,0,1-.3,1,1.78,1.78,0,0,1-.8.7,2,2,0,0,1-1.1.2,4.28,4.28,0,0,1-1.3-.5,2.67,2.67,0,0,1-1.3-1.5A1.8,1.8,0,0,1,30.3,104.7Z" transform="translate(0 0)"/><path d="M36.7,110.7l2.2-4.9-1.7-.8.4-1,4.7,2.1-.4,1-1.7-.8L38,111.2Z" transform="translate(0 0)"/><path d="M46.1,114.1l-1.3-.4-.1-1.6-2.5-.8-1,1.2-1.3-.4,4.4-5.4,1.3.4ZM44.6,111l-.1-2.5-1.6,2Z" transform="translate(0 0)"/><path d="M48.3,114.6l1.1-5.2-1.9-.4.2-1.1,5,1-.2,1.1-1.9-.4-1.1,5.2Z" transform="translate(0 0)"/><path d="M53.1,115.4l.5-6.4,4.8.4-.1,1.1-3.5-.3-.1,1.4,3.2.3-.1,1.1-3.2-.3-.1,1.7,3.6.3-.1,1.1Z" transform="translate(0 0)"/><path d="M59.5,113.8l1.3-.2a1.93,1.93,0,0,0,.5.9,1.49,1.49,0,0,0,1,.3,1.22,1.22,0,0,0,.9-.3.86.86,0,0,0,.3-.6c0-.2-.1-.3-.1-.4a2.19,2.19,0,0,0-.5-.3c-.2,0-.5-.1-1.1-.2a2.62,2.62,0,0,1-1.5-.6,1.61,1.61,0,0,1-.6-1.3,2.92,2.92,0,0,1,.2-.9c.1-.3.4-.5.8-.7a2.5,2.5,0,0,1,1.3-.3,2.43,2.43,0,0,1,1.8.5,1.75,1.75,0,0,1,.7,1.4l-1.3.1c-.1-.3-.2-.6-.4-.7a1.88,1.88,0,0,0-.8-.2,1.22,1.22,0,0,0-.9.3.5.5,0,0,0,0,.8,4,4,0,0,0,1.2.4,8.4,8.4,0,0,1,1.4.4,1.41,1.41,0,0,1,.7.6,1.82,1.82,0,0,1,0,2,3,3,0,0,1-.8.8,2.9,2.9,0,0,1-1.4.3,2.85,2.85,0,0,1-1.9-.5A2.45,2.45,0,0,1,59.5,113.8Z" transform="translate(0 0)"/><path d="M69,112a5,5,0,0,1-.1-1.7,3,3,0,0,1,.4-1,2.7,2.7,0,0,1,.7-.8,5.17,5.17,0,0,1,1.3-.6,3.26,3.26,0,0,1,2.4.3,3.54,3.54,0,0,1,1.4,2.2,3.73,3.73,0,0,1-.3,2.6,3,3,0,0,1-2,1.4,3.26,3.26,0,0,1-2.4-.3A3,3,0,0,1,69,112Zm1.3-.3a2.75,2.75,0,0,0,.9,1.5,1.74,1.74,0,0,0,1.4.3,1.55,1.55,0,0,0,1.1-.8,2.59,2.59,0,0,0,.1-1.8,2.68,2.68,0,0,0-.8-1.5,1.4,1.4,0,0,0-1.4-.2,1.55,1.55,0,0,0-1.1.8A1.86,1.86,0,0,0,70.3,111.7Z" transform="translate(0 0)"/><path d="M77.6,113.1l-2.2-6,4.1-1.5.4,1L77,107.7l.5,1.4,2.5-.9.4,1-2.5.9,1,2.6Z" transform="translate(0 0)"/><path d="M91.1,106.6l-1.2.7-1.2-1-2.2,1.3.3,1.5-1.2.7L84.5,103l1.2-.7Zm-3.3-1-2-1.6.5,2.5Z" transform="translate(0 0)"/><path d="M92.3,105.7l-4-5,1.5-1.2,3.6,2.7L91.7,98l1.5-1.2,4,5-.9.8-3.2-4,2.2,4.8-1,.8L90.1,101l3.2,4Z" transform="translate(0 0)"/><path d="M98.7,100.4l-4.6-4.5,3.3-3.4.8.8-2.4,2.5,1,1L99,94.5l.8.8-2.2,2.3,1.3,1.2,2.5-2.6.8.8Z" transform="translate(0 0)"/><path d="M103.4,95.4l-5.2-3.8,1.6-2.2a5.82,5.82,0,0,1,1-1.1,1,1,0,0,1,.9-.2,2.11,2.11,0,0,1,1,.4,1.64,1.64,0,0,1,.7,1.1,1.9,1.9,0,0,1-.3,1.4,3.09,3.09,0,0,1,.8-.2h1.3l1.5.1-.9,1.2-1.7-.1h-1.2a.52.52,0,0,0-.4.2,1.08,1.08,0,0,0-.4.5l-.2.2,2.2,1.6Zm-2.3-3.3.6-.8c.4-.5.6-.8.6-1s0-.3,0-.5-.2-.3-.3-.4-.3-.2-.5-.2-.3.1-.5.2a6,6,0,0,0-.6.7l-.6.8Z" transform="translate(0 0)"/><path d="M107.5,89.4,102,86.1l.7-1.1,5.5,3.3Z" transform="translate(0 0)"/><path d="M108.9,81.8l.9-1a2.65,2.65,0,0,1,1,1.5,3,3,0,0,1-.3,1.8,2.53,2.53,0,0,1-1.7,1.5,4.09,4.09,0,0,1-4.4-2.1,3.34,3.34,0,0,1,.1-2.4,2.32,2.32,0,0,1,1.5-1.4,3.08,3.08,0,0,1,1.4-.1l-.3,1.3a1.41,1.41,0,0,0-.9.1,1.06,1.06,0,0,0-.6.7,1.48,1.48,0,0,0,0,1.3,2.45,2.45,0,0,0,1.3,1.1,2.6,2.6,0,0,0,1.8.4,1.59,1.59,0,0,0,1-.8,1.41,1.41,0,0,0,.1-.9A4.3,4.3,0,0,0,108.9,81.8Z" transform="translate(0 0)"/><path d="M114.1,74.4l-.4,1.3-1.6.1-.8,2.4,1.2,1-.4,1.3-5.3-4.4.4-1.3Zm-3.2,1.5-2.5.1,2,1.6Z" transform="translate(0 0)"/><path d="M4.7,59.9l.1-2.4A3.73,3.73,0,0,1,5,56.3a1.46,1.46,0,0,1,.6-.9,3.88,3.88,0,0,1,1.1-.6,3.55,3.55,0,0,1,1.5-.1,3.19,3.19,0,0,1,1.4.3,3,3,0,0,1,1.1.7,1.93,1.93,0,0,1,.5.9,4.12,4.12,0,0,1,.1,1.2l-.1,2.4Zm1.1-1.2,4.3.2V57.1a.76.76,0,0,0-.2-.5,1.54,1.54,0,0,0-.6-.4c-.3-.1-.7-.1-1.2-.2a4.12,4.12,0,0,0-1.2.1,1.63,1.63,0,0,0-.6.3A1.14,1.14,0,0,0,6,57a2.81,2.81,0,0,0-.1,1.1Z" transform="translate(0 0)"/><path d="M11.5,53.9,5.2,52.8,6,48.1l1.1.2-.6,3.4,1.4.3.6-3.2,1,.2-.6,3.2,1.7.3.6-3.5,1.1.2Z" transform="translate(0 0)"/><path d="M12.6,48.2,6.4,46.3l.6-2a12.43,12.43,0,0,1,.5-1.5,1.6,1.6,0,0,1,.9-.7,2.85,2.85,0,0,1,1.3,0,1.93,1.93,0,0,1,.9.5,1.27,1.27,0,0,1,.4.7,2,2,0,0,1,.1.7,3.92,3.92,0,0,1-.3,1.3l-.2.8L13,47ZM7.8,45.4l1.8.5.2-.7a8.38,8.38,0,0,0,.2-1c0-.2-.1-.3-.2-.5s-.3-.2-.4-.3a.64.64,0,0,0-.6,0,.78.78,0,0,0-.4.4,2.19,2.19,0,0,0-.3.9Z" transform="translate(0 0)"/><path d="M16.4,37.9l-.6,1.3-1.6-.1-1,2.4,1.1,1.1-.5,1.3L8.9,39l.5-1.3Zm-3.3,1.2L10.5,39l1.9,1.7Z" transform="translate(0 0)"/><path d="M16.7,37.5l-5.5-3.3,1.4-2.4a8.94,8.94,0,0,1,.9-1.2,1.4,1.4,0,0,1,.9-.3,1.69,1.69,0,0,1,1,.3,1.59,1.59,0,0,1,.8,1,2.29,2.29,0,0,1-.1,1.4,1.6,1.6,0,0,1,.8-.3,4.51,4.51,0,0,1,1.3-.1h1.5l-.8,1.3-1.7.1c-.6,0-1,.1-1.2.1a.52.52,0,0,0-.4.2c-.1.1-.2.3-.4.5L15,35l2.3,1.4Zm-2.6-3.1.5-.8a4.17,4.17,0,0,0,.5-1v-.5c-.1-.1-.2-.3-.3-.4a1.09,1.09,0,0,0-.5-.1c-.2,0-.3.1-.5.3s-.2.4-.5.8l-.5.9Z" transform="translate(0 0)"/><path d="M20.8,30.9l-4.3-3.3-1.2,1.5-.9-.7,3.1-4.1.9.7-1.2,1.5,4.3,3.3Z" transform="translate(0 0)"/><path d="M23.2,27.9l-4.6-4.5L20,22l3.9,2.3-2.3-3.9L23,19l4.6,4.5-.9.9-3.6-3.6,2.7,4.5-.9.9-4.5-2.7L24,27Z" transform="translate(0 0)"/><path d="M28.4,22.8l-3.9-5.1,3.8-2.9.7.9-2.8,2.1.9,1.1,2.6-2,.7.9-2.6,2,1.1,1.4L31.8,19l.7.9Z" transform="translate(0 0)"/><path d="M33.1,19.2l-3.3-5.6,1.1-.6,4.5,2.4-2.2-3.7,1-.6,3.3,5.6-1.1.7L32,15l2.1,3.6Z" transform="translate(0 0)"/><path d="M39.9,15.5l-2.2-4.9-1.7.8-.4-1,4.7-2.1.4,1-1.7.8L41.2,15Z" transform="translate(0 0)"/><path d="M44.7,10.2a3.34,3.34,0,0,1-.1-1.7,3,3,0,0,1,.4-1,2.7,2.7,0,0,1,.7-.8A2.62,2.62,0,0,1,47,6.1a3.26,3.26,0,0,1,2.4.3,4.36,4.36,0,0,1,1.3,2.3,3.75,3.75,0,0,1-.2,2.6,3,3,0,0,1-2,1.4,3.26,3.26,0,0,1-2.4-.3A3.41,3.41,0,0,1,44.7,10.2Zm1.2-.3a2.75,2.75,0,0,0,.9,1.5,1.4,1.4,0,0,0,1.4.2,1.55,1.55,0,0,0,1.1-.8A2.59,2.59,0,0,0,49.4,9a2.75,2.75,0,0,0-.9-1.5,1.7,1.7,0,0,0-1.4-.2,1.55,1.55,0,0,0-1.1.8A3.35,3.35,0,0,0,45.9,9.9Z" transform="translate(0 0)"/><path d="M52.3,11.7l-.8-6.4,4.4-.5L56,5.9l-3,.4.2,1.5,2.7-.3L56,8.6l-2.7.3.3,2.7Z" transform="translate(0 0)"/><path d="M61.4,11.2l.2-5.3-1.9-.1V4.7l5.1.2V6l-1.9-.1-.2,5.3Z" transform="translate(0 0)"/><path d="M65.3,11.4l1-6.4,2.7.4a3.94,3.94,0,0,1,1.5.4,1.34,1.34,0,0,1,.6.7,1.73,1.73,0,0,1,.1,1,1.68,1.68,0,0,1-.6,1.1,2,2,0,0,1-1.4.4,1.7,1.7,0,0,1,.6.6,9.05,9.05,0,0,1,.6,1.1l.6,1.4L69.4,12l-.7-1.5c-.3-.5-.4-.9-.5-1s-.2-.3-.3-.4a6.37,6.37,0,0,0-.7-.2h-.3l-.4,2.7Zm1.8-3.5,1,.1a6.82,6.82,0,0,0,1.2.1.52.52,0,0,0,.4-.2.76.76,0,0,0,.2-.5.75.75,0,0,0-.1-.5c-.1-.1-.2-.3-.4-.3s-.4-.1-.9-.2l-1-.2Z" transform="translate(0 0)"/><path d="M77.1,14l-1.4-.4L75.6,12l-2.5-.7-.9,1.3-1.3-.4,4.2-5.5,1.3.4Zm-1.6-3.1-.2-2.5-1.5,2Z" transform="translate(0 0)"/><path d="M77.5,14.3l2.6-5.9,1.2.5.7,5L83.7,10l1.1.5-2.6,5.9L81,15.8l-.7-4.9-1.7,3.8Z" transform="translate(0 0)"/><path d="M84.1,14.9l1.1.5a1.23,1.23,0,0,0-.1,1,1.54,1.54,0,0,0,.7.7,2.3,2.3,0,0,0,.9.3.82.82,0,0,0,.6-.4.6.6,0,0,0,.1-.4.91.91,0,0,0-.3-.5,7.51,7.51,0,0,1-.7-.8,3.05,3.05,0,0,1-.9-1.3,1.4,1.4,0,0,1,.2-1.4,1.34,1.34,0,0,1,.7-.6,1.64,1.64,0,0,1,1-.1,3.08,3.08,0,0,1,1.2.5,2.85,2.85,0,0,1,1.3,1.4,1.63,1.63,0,0,1-.2,1.5l-1.1-.6a2.49,2.49,0,0,0,.1-.8,1.7,1.7,0,0,0-.6-.6,1.61,1.61,0,0,0-.9-.3.52.52,0,0,0-.4.2.3.3,0,0,0,0,.4,4.05,4.05,0,0,0,.8,1,8.18,8.18,0,0,1,1,1.1,1.61,1.61,0,0,1,.3.9,1.93,1.93,0,0,1-.3,1,1.78,1.78,0,0,1-.8.7,2,2,0,0,1-1.1.2,2.66,2.66,0,0,1-1.3-.5,2.85,2.85,0,0,1-1.3-1.4C83.7,16.2,83.8,15.6,84.1,14.9Z" transform="translate(0 0)"/><path d="M88.2,19.9l3.9-5.1,1.7,1.3c.6.5,1,.8,1.2,1a2,2,0,0,1,.3,1.1,2.08,2.08,0,0,1-.5,1.2,2.7,2.7,0,0,1-.8.7,1.34,1.34,0,0,1-.8.2,1.45,1.45,0,0,1-.7-.2,3.32,3.32,0,0,1-1.1-.8l-.7-.5-1.5,1.9Zm4.3-3.4-1.1,1.4.6.4a2.06,2.06,0,0,0,.9.5c.2,0,.3.1.5,0a1.38,1.38,0,0,0,.4-.3,1.42,1.42,0,0,0,.2-.6.76.76,0,0,0-.2-.5,6,6,0,0,0-.7-.6Z" transform="translate(0 0)"/><path d="M94.9,21.1a4.06,4.06,0,0,1,1.4-1,3.55,3.55,0,0,1,1-.2,3,3,0,0,1,1,.2,4.18,4.18,0,0,1,1.2.8,3,3,0,0,1,1,2.2,3.33,3.33,0,0,1-1.1,2.3,3.33,3.33,0,0,1-2.3,1.1,2.84,2.84,0,0,1-2.2-1,3,3,0,0,1-1-2.2A2.78,2.78,0,0,1,94.9,21.1Zm1,.9a2.24,2.24,0,0,0-.8,1.5,1.71,1.71,0,0,0,1.8,1.8,2.24,2.24,0,0,0,1.5-.8,2.24,2.24,0,0,0,.8-1.5,1.66,1.66,0,0,0-.5-1.3,1.38,1.38,0,0,0-1.3-.5A2.24,2.24,0,0,0,95.9,22Z" transform="translate(0 0)"/><path d="M97.6,28.4l5.1-3.9,1.7,2.2a5.05,5.05,0,0,1,.8,1.3,1.7,1.7,0,0,1,0,1,1.56,1.56,0,0,1-.6.8,1.61,1.61,0,0,1-2.4-.3v.9a4.15,4.15,0,0,1-.4,1.2l-.5,1.4-.9-1.2.5-1.6a4.55,4.55,0,0,0,.3-1.1v-.5c0-.2-.2-.3-.3-.6l-.2-.2-2.1,1.6Zm3.7-1.2.6.8c.4.5.6.8.8.9a.6.6,0,0,0,.4.1c.2,0,.3-.1.5-.2a.55.55,0,0,0,.3-.5.75.75,0,0,0-.1-.5c-.1-.1-.2-.3-.6-.8l-.6-.8Z" transform="translate(0 0)"/><path d="M102.1,34.8l4.6-2.7-1-1.6.9-.6,2.6,4.4-.9.6-1-1.6L102.7,36Z" transform="translate(0 0)"/><path d="M106.1,42.8l-.6-1.3,1.1-1.1-1.1-2.3-1.6.1-.6-1.3,6.9-.4.6,1.3Zm1.3-3.2,1.8-1.8-2.5.2Z" transform="translate(0 0)"/><path d="M106.5,44.1l5.1-1.7-.6-1.8,1-.3,1.6,4.9-1,.3-.6-1.8-5.1,1.7Z" transform="translate(0 0)"/><path d="M107.6,47.7l6.3-1.5.3,1.3L107.9,49Z" transform="translate(0 0)"/><path d="M111.3,49.3a4.84,4.84,0,0,1,1.7,0,2.35,2.35,0,0,1,1,.5,4.62,4.62,0,0,1,.7.7,5,5,0,0,1,.5,1.3,3.31,3.31,0,0,1-.5,2.4,3.08,3.08,0,0,1-2.3,1.2,3,3,0,0,1-2.5-.5,2.84,2.84,0,0,1-1.2-2.1,3.31,3.31,0,0,1,.5-2.4A2.59,2.59,0,0,1,111.3,49.3Zm.2,1.3a3.38,3.38,0,0,0-1.6.7,2.12,2.12,0,0,0-.4,1.4,1.39,1.39,0,0,0,.7,1.2,1.92,1.92,0,0,0,1.7.2,3.38,3.38,0,0,0,1.6-.7,1.65,1.65,0,0,0,.3-1.4,1.85,1.85,0,0,0-.7-1.2A2.25,2.25,0,0,0,111.5,50.6Z" transform="translate(0 0)"/><path d="M109.1,56.8l6.4-.1V58l-4.3,2.7,4.3-.1v1.2l-6.4.1V60.6l4.2-2.7-4.2.1Z" transform="translate(0 0)"/><path class="cls-2" d="M101.6,43.3h0a44.91,44.91,0,0,0-67-20,26.91,26.91,0,0,1,8.1-1.2c17.5,0,26.8,10.6,26.8,25.9a30.28,30.28,0,0,1-.2,3.1h0a27.28,27.28,0,0,0-.3,4.1c0,8.7,8,16.7,17.6,16.7C98.3,71.9,107.3,56,101.6,43.3Z" transform="translate(0 0)"/><path class="cls-3" d="M89.7,63l-9-28.8L51.5,19l-9.4,1.8-7.4,2.6a26.91,26.91,0,0,1,8.1-1.2c17.5,0,26.8,10.6,26.8,25.9a30.28,30.28,0,0,1-.2,3.1h0a27.28,27.28,0,0,0-.3,4.1c0,8.7,8,16.7,17.6,16.7v-.6Z" transform="translate(0 0)"/><path class="cls-4" d="M45,20.3c16.3.8,26,10.9,26,27.3l-.2,3.3a25.61,25.61,0,0,0-.3,3.9c0,8.4,7.7,16,16.1,16,4.1,0,8.8-2.9,11.9-7.5a19.28,19.28,0,0,0,2-19.2C93.8,27.6,78.3,17.4,60.2,17.4A41.48,41.48,0,0,0,45,20.3Z" transform="translate(0 0)"/><path class="cls-5" d="M24.8,32.7h0A44.8,44.8,0,0,0,41,100.6a29.32,29.32,0,0,1-5.1-6.4c-8.8-15.2-4.2-28.5,9-36.1.9-.5,1.9-1,2.8-1.4h0a31.4,31.4,0,0,0,3.7-1.8c7.5-4.3,10.5-15.2,5.6-23.6C51.3,21.3,33,21.4,24.8,32.7Z" transform="translate(0 0)"/><path class="cls-6" d="M47.9,33.2,27.5,55.4l1.4,32.8,6.2,7.3,5.9,5.1a29.32,29.32,0,0,1-5.1-6.4c-8.8-15.2-4.2-28.5,9-36.1.9-.5,1.9-1,2.8-1.4h0a31.4,31.4,0,0,0,3.7-1.8c7.5-4.3,10.5-15.2,5.6-23.6l-.5.3Z" transform="translate(0 0)"/><path class="cls-7" d="M33.2,93.3c-7.4-14.6-3.6-28,10.6-36.2l3-1.5a37.78,37.78,0,0,0,3.5-1.7c7.2-4.2,10-14.7,5.8-22-2.1-3.6-6.9-6.1-12.4-6.5-7.2-.5-13.6,2.3-17.6,7.9-10.9,14.1-12,32.6-3,48.3A41.84,41.84,0,0,0,33.2,93.3Z" transform="translate(0 0)"/><path class="cls-8" d="M54,104.5h0a44.91,44.91,0,0,0,44.9-22,44.2,44.2,0,0,0,5.8-26,28.64,28.64,0,0,1-3,7.6C93,79.3,79.2,82,66,74.3a23.26,23.26,0,0,1-2.6-1.7h0A40.47,40.47,0,0,0,60,70.3c-7.5-4.3-18.4-1.4-23.2,6.9C30.9,87.3,40.2,103.1,54,104.5Z" transform="translate(0 0)"/><path class="cls-9" d="M42.9,84.3l29.4,6.6,27.8-17.6,3.2-9,1.5-7.7a28.64,28.64,0,0,1-3,7.6C93,79.3,79.2,82,66,74.3a23.26,23.26,0,0,1-2.6-1.7h0A40.47,40.47,0,0,0,60,70.3c-7.5-4.3-18.4-1.4-23.2,6.9l.5.3Z" transform="translate(0 0)"/><path class="cls-10" d="M102.3,67c-8.9,13.7-22.4,17.1-36.6,8.9l-2.8-1.8c-1.1-.8-2.1-1.5-3.2-2.2-7.2-4.2-17.7-1.3-21.9,6-2.1,3.6-1.8,9,.5,14a19.29,19.29,0,0,0,15.6,11.3c17.6,2.4,34.2-5.9,43.3-21.6A43.11,43.11,0,0,0,102.3,67Z" transform="translate(0 0)"/></g></svg>