<svg id="Layer_1" data-name="Layer 1" xmlns="http://www.w3.org/2000/svg" viewBox="0 0 540 540"><defs><style>.cls-1{fill:#424242;}.cls-2{fill:#b7b7b7;}.cls-3{fill:#cecece;}.cls-4,.cls-5,.cls-6,.cls-9{fill:none;stroke-miterlimit:10;}.cls-4,.cls-6,.cls-9{stroke:#cecece;}.cls-4{stroke-width:9.14px;}.cls-5{stroke:#000;stroke-width:1.68px;}.cls-6{stroke-width:2.5px;}.cls-7{fill:#666;}.cls-8{fill:#fff;}.cls-9{stroke-width:6.72px;}</style></defs><path class="cls-1" d="M272,542l13.89-.35,13.7-1,13.54-1.7,13.3-2.4,13-3,12.8-3.64,12.54-4.25,12.3-4.8,11.94-5.4,11.65-6,11.3-6.5,10.94-7,10.6-7.55,10.19-8,9.8-8.49,9.4-8.95,8.94-9.4,8.45-9.79,8.05-10.2L495.84,423l7.05-11,6.5-11.3,6-11.64,5.4-11.95,4.84-12.24,4.25-12.55,3.65-12.84,3-13.05,2.4-13.29,1.7-13.5,1-13.74L542,272C542,122.94,421.08,2,272,2S2,122.94,2,272,122.85,542,272,542Z" transform="translate(-1.99 -2.03)"/><path class="cls-2" d="M272.28,464.65l10-.25,9.79-.75,9.65-1.25,9.5-1.7,9.34-2.15,9.15-2.6,8.95-3,8.79-3.5,8.55-3.85,8.3-4.25,8.09-4.65,7.8-5,7.6-5.39,7.25-5.75,7-6.05,6.7-6.4,6.4-6.7,6.1-7,5.69-7.3,5.4-7.55,5-7.84,4.65-8.05,4.25-8.35,3.9-8.55,3.44-8.74,3-8.95,2.6-9.15,2.2-9.34,1.7-9.5,1.2-9.65.75-9.79.25-9.95c0-106.56-86.37-192.93-192.93-192.93S79.35,165.16,79.35,271.72s86.41,192.93,192.93,192.93Z" transform="translate(-1.99 -2.03)"/><path class="cls-3" d="M349.25,431.46l-.1-3.7-.3-3.59-.5-3.6-.65-3.5-.9-3.45-1-3.4-1.2-3.3-1.4-3.25-1.5-3.15-1.7-3.1-1.85-3-2-2.89-2.15-2.8-2.25-2.7-2.45-2.6-2.5-2.5-2.7-2.35-2.75-2.25-2.9-2.1-3-2-3.1-1.85-3.24-1.75-3.3-1.54-3.4-1.45L299,364.39l-3.6-1.1-3.6-1-3.7-.8-3.79-.6-3.85-.45-3.9-.25-3.9-.05c-46.23.25-78.57,31.79-77.72,75.87l154.34-4.6Z" transform="translate(-1.99 -2.03)"/><path class="cls-3" d="M278.58,75.45,268,76v35.28l10-2.8.05,0v-2.55l.05-.45v-2.14l.05-1.2V99.44l.05-1.4v-1.5l0-1.5.05-3.1.05-3V87.34l.05-1.45v-1.4l.05-1.4v-1.3l0-1.2v-2.1l.05-.45V75.45Zm-60.43,8.94-14.54,5v.1l0,.1v.2l.05.25,0,.25.1.3,0,.35.1.4.1.45.1.5.1.5.1.55.15.55.1.65.15.6.3,1.35.3,1.45.3,1.55.35,1.6.35,1.65.35,1.64.75,3.45.75,3.45.35,1.7.35,1.65.3,1.6.34,1.55.3,1.45.31,1.35.14.6.1.65.16.55.09.55.1.5.11.5.1.4.09.4.05.4,0,.3.1.25.06.25v.15l0,.15v.1h0l10.09-2.8-3.35-39.19Zm117,2.25-5.6,35.24L339.61,123l7.3-32.49h-.15l-.06-.05-.09,0h-.1l-.1,0-.15,0-.15,0-.15-.05-.15,0-.15,0-.2,0-.2-.1-.2,0-.45-.15-.45-.15-.45-.15-.55-.15-.5-.2-.55-.2-1.1-.35-1.1-.35-.5-.2-.55-.15-.5-.2-.5-.15-.45-.15-.45-.15-.2,0-.15,0-.2-.1-.2-.05-.15,0-.15,0-.15,0-.1,0h-.1l-.1-.05-.1,0h-.1l-.05,0ZM153.22,117.43l-13.44,11.2.05.05,0,.1.05.15.1.2.15.2.15.25.15.3.15.3.2.35.2.4.25.39.25.45.25.45.25.51.3.49.6,1.05.65,1.15.65,1.2.7,1.3.75,1.3.75,1.35,1.55,2.75,1.5,2.75.75,1.35.74,1.3.7,1.25.65,1.25.65,1.15.6,1,.3.5.25.5.25.45.25.45.25.4.2.35.2.35.15.35.15.25.15.25.15.25.1.15.05.15,0,.1.05.1,9.85-2.65-12.75-37.94Zm243.52,2.8-15.15,34.69,1.85,2.35h.1l0-.05h.3l.1-.05h.1l.15-.06h.15l.15,0h.15l.2,0h.2l.35-.1.4,0,.45-.1.45-.05.5-.1.45-.05,1-.2.95-.15.5-.1.45-.05.45-.1.45-.05.4-.1.4,0h.2l.15-.05.15-.05h.15l.15,0h.3l.1-.05h.1l.1,0h.25l12.28-27.42-9.49-7.84ZM105.59,170.61l-7.8,11.75,0,.1.06,0,.1.15.14.15.1.2.2.2.2.25.2.25.26.3.24.35.25.35.3.35.3.4.3.4.35.45.7.89.8,1,.8,1.05.85,1.1.85,1.1.9,1.15,1.85,2.35,1.8,2.35.9,1.15.9,1.15.85,1.05.8,1,.75,1,.75.9.3.45.35.4.3.4.3.35.25.35.25.35.25.3.2.25.2.25.15.25.15.15.15.15,0,.15.1.1,0,.05,6.14-7.85-17.94-29.09Zm334.23.55-21.29,33.59,5.65,8.4.05-.1,0-.11.1-.14.15-.15.15-.25.2-.25.2-.3.25-.3.25-.4.3-.35.3-.45.3-.45.35-.45.35-.5.4-.5.8-1.1.85-1.2.9-1.25.95-1.3.95-1.35,1-1.4,2-2.8,2.05-2.85,1-1.35.95-1.35.95-1.3.9-1.25.85-1.2.8-1.1.35-.55.4-.44.3-.5.35-.45.3-.4.3-.4.25-.35.2-.35.25-.25.15-.3.2-.2.1-.2.1-.15.1-.1.05,0v-.05l-6.15-11.75ZM81.55,234.44h0l-2.8,11.2,30.79,27.93,4.45-7.24,0-.1-.15-.1-.15-.15-.2-.2-.25-.25-.25-.25-.3-.3-.35-.35-.4-.4-.4-.4-.45-.45-.5-.45-.5-.5-.55-.55-.55-.55-1.19-1.15-1.25-1.25-1.35-1.3-1.4-1.4-1.45-1.4-1.5-1.5-3-3-3-3-1.45-1.45-1.45-1.39-1.4-1.41-1.35-1.29-1.3-1.25-1.15-1.2-.6-.55-.5-.5-.5-.5-.5-.5-.45-.4-.4-.45-.4-.35-.35-.35-.3-.3-.3-.3-.25-.2-.2-.2-.15-.15-.1-.15-.05-.05Zm382.91,1.1,0,.05-.1.1-.1.1-.15.15-.15.15-.2.2-.2.25-.25.25L463,237l-.3.3-.3.3-.35.35-.35.35-.35.35-.4.4-.8.85-.85.85-.95,1-.95,1-1,1-1,1.05-2.1,2.1-2.05,2.1-1,1.05-1,1-1,1-.9.95-.85.85-.85.85-.35.4-.4.35-.3.35-.35.35-.3.3-.3.3-.25.25-.25.25-.2.25-.2.15-.15.2-.15.15-.1.1-.1.05,0,.05v.05l4.9,6.55,19-18-1.65-11.19ZM79.9,298.21l1.65,11.25,66.08,43.63-2.85-10h0V343l-.15-.1-.25-.15-.3-.25-.4-.25-.5-.35-.55-.35-.6-.45-.7-.5-.8-.5-.8-.6-.9-.6-1-.65-1-.7-1.05-.75-1.1-.75-2.4-1.65-2.54-1.75-2.65-1.85-2.8-1.95-2.9-2-3-2.05-6-4.19-6-4.15-3-2-2.89-2-2.8-2L95,308.61l-2.55-1.75-2.35-1.65-1.15-.75-1.05-.75-1-.7-1-.65-.85-.6-.85-.6-.8-.5-.7-.5-.6-.45-.55-.35L81,299l-.4-.24-.3-.26-.24-.14-.11-.11,0-.05ZM465,301l-.1.1-.25.15-.5.35-.6.45-.8.55-1,.65-1.1.75-1.3.9-1.4.95-1.55,1.1-1.7,1.15-1.8,1.25-1.9,1.3-2,1.4-2.15,1.5-2.25,1.55-4.79,3.3L434.63,322l-5.4,3.7-5.65,3.9-5.85,4-6,4.15-12.2,8.4-12.25,8.39-5.94,4.15-5.85,4-5.65,3.9-5.45,3.75-5.1,3.5-4.79,3.29-2.25,1.55-2.15,1.5-2.05,1.4-1.95,1.3-1.8,1.25-1.7,1.15-1.55,1.1-1.4.95-1.25.9-1.15.75-.95.65-.8.6-.65.4-.45.35-.3.15-.1.1h0l1.15,3.35,126.51-80.62L465,301Zm-142.35,18.1L314,335.6l-1.8-2.65v.15l0,0v.05l.05.1v.05l.05.1v.1l.05.1v.15l.05.1,0,.15.05.1.05.3.1.3.1.35.1.35.1.35.1.35.2.7.2.75.1.35.1.35.1.35.1.3.1.3.05.3.05.15.05.1V340l.05.1,0,.1v.1l.05.1v.1l.05.05v.15l.05.05v.1l11.94-21.69Zm-71.48,3.75v.24l.05.21,0,.24.05.26,0,.35.05.35.1.4.05.44.1.5.1.55.1.55.1.6.1.6.15.65.25,1.4.25,1.5.25,1.55.3,1.65.3,1.7.3,1.75.65,3.55.6,3.55.3,1.75.3,1.7.3,1.65.3,1.55.25,1.49.25,1.4.1.65.15.6.1.6.1.6,0,.5.1.5.1.45,0,.4.1.35.05.35.05.3v.2l0,.2.05.15v.1l4.5-.55-5.6-34.73-5.6-2.8ZM240.7,346.1l-2.8,4.34v.1l0,.06.05.1.05.09,0,.1.05.16.1.14.1.15.05.2.1.2.1.2.1.2.15.25.09.2.26.5.25.55.29.6.3.6.31.6.3.65.64,1.25.65,1.3.3.65.3.6.3.6.3.6.25.55.25.5.15.2.1.25.1.2.1.2.1.2.1.2.05.15.1.15.05.15,0,.1.05.1,0,.1.05.05v.05l.05.05v.15l2.5-.7L240.7,346.1Zm85.47,7v.05l-.05.05-.1.11,0,.09-.1.15-.15.16-.1.14-.15.21-.15.19-.2.21-.15.24-.2.25-.25.3-.2.25-.25.3-.45.65-.55.7-.55.7-.6.75-.6.75-.6.8-1.25,1.65-1.25,1.6-.6.8-.6.8-.6.7-.55.75-.55.65-.45.65-.25.3-.2.3-.25.25-.2.25-.15.25-.2.25-.15.2-.15.15-.1.2-.15.15-.1.1-.05.1-.1.1-.05.05v.05h0l2.8,1.7L326.47,358l-.3-4.9Zm122.61.55,0,.05-.25.1-.35.2-.55.25-.65.3-.8.4-.9.4-1.05.5-1.15.55-1.3.6-1.35.65-1.5.7-1.6.75-1.7.8-1.75.85-1.85.9-4,1.85-4.19,2-4.45,2.1-4.65,2.2-4.8,2.25-4.9,2.35L395,379.13l-10,4.75L380,386.23l-4.8,2.25-4.65,2.2-4.45,2.1-4.19,2-4,1.85-1.85.9-1.75.85-1.7.8-1.55.75-1.5.7-1.4.65-1.25.6-1.15.55-1.05.5-.95.4-.8.4-.65.3-.5.25-.4.2-.2.1-.1.05h0l.69,2.25,103-43.69,3.9-9.55ZM98.9,359.79v0l0,.05,0,.05,0,.1v0l0,.1.1.1,0,.1,0,.1,0,.1.1.1,0,.15.1.15.1.15.2.3.15.3.25.35.2.4.2.35.25.4.45.75.5.8.25.4.2.35.2.4.25.35.15.3.2.3.1.15.1.15.05.15.1.1,0,.1,0,.1.05.1.1.1,0,.1V368l0,.1.05.05,0,.05,98.81,37.23,1.25-4L98.9,359.79Zm131.85,3.95-2.95,3.2,3.35,4.35,2.65-1.55v-.05l-.05-.05v-.05l-.05,0v-.05l0-.05-.05-.1,0,0v-.1l-.05-.1-.05,0,0-.1-.05-.1-.15-.25-.1-.25-.1-.25-.15-.25-.15-.25-.15-.3-.25-.55-.3-.55-.15-.3-.15-.25-.1-.25-.15-.25-.1-.25-.1-.2-.05-.1,0-.1-.05-.1,0-.1-.05-.1-.05-.05,0-.1V364l-.05-.05v-.05l0-.05v0h-.05v-.05Zm-47.28,5.6-2.85,3.35,28.44,19.59,2.25-3.5h-.05l0,0-.1-.05-.15-.1-.15-.15-.2-.1-.25-.2-.25-.2-.3-.2-.35-.2-.35-.25-.4-.3-.4-.25-.45-.35-.45-.3-.5-.35-1-.7-1.1-.75-1.15-.8-1.2-.85-1.25-.85-1.25-.9-2.6-1.84-2.6-1.8-1.25-.9-1.25-.85-1.2-.85-1.14-.8-1.1-.75-1-.7-.5-.35-.45-.35-.45-.3-.4-.25-.4-.3-.35-.25-.35-.2-.3-.25-.25-.15-.25-.2-.2-.15-.15-.1-.15-.1-.1-.05-.05-.05ZM217,371.59l-5,1.65,7.25,6.74,2.39-1.54-.05-.05,0-.05v0l-.05-.06-.05-.1,0-.05-.05-.09,0-.1-.11-.11,0-.1-.05-.09-.1-.1-.05-.11-.2-.24-.15-.3-.2-.26-.2-.29-.2-.35-.24-.3-.4-.65-.45-.6-.21-.35-.19-.3-.2-.3-.2-.3-.2-.25-.15-.25-.1-.1,0-.15-.1-.1,0-.1-.05-.1-.1,0-.05-.1,0-.05-.05-.1v-.05l0-.05-.05-.05v-.05Zm114.21.55-.05.05v.05l-.05.05-.05,0-.05.05-.1.1-.05.1-.1.1,0,.1-.1.1-.1.1-.1.15-.1.15-.15.1-.25.3-.25.35-.3.3-.25.35-.3.4-.3.35-.65.75-.65.75-.3.4-.3.35-.25.35-.3.35-.25.3-.25.29-.15.16-.1.14-.1.1-.1.16-.1.09,0,.1-.1.1-.05.11-.1,0-.05,0-.05.1-.05.05-.05.05h0l1.65,2,7.84-6.74-2.79-3.35ZM418,401.23l-.05,0h-.14l-.25.05-.36.1-.44.1-.55.1-.6.15-.75.15-.75.15-.9.2-.95.2-1,.2-1.1.25-1.1.25-1.25.25-1.25.25-2.65.6-2.9.6-3,.64-3.2.7-3.24.7-3.35.71-6.85,1.44-6.85,1.5-3.35.7-3.25.7-3.19.65-3,.65-2.9.65-2.65.55-1.3.25-1.2.3-1.15.25-1.05.2-1,.2-.9.25-.9.15-.8.2-.7.15-.6.1-.55.15-.45.1-.35.05-.25.05-.2.05h0l.55,2.8,66.08-11.2,6.7-7.29Zm-291.19,1h0l5.15,6.29,66.62,12.3.95-3.75h0l-.15-.05-.25,0-.35-.1-.45-.05-.55-.15-.6-.1-.7-.15-.8-.15-.85-.2-.95-.15-1-.25-1-.2-1.15-.25-1.2-.2-1.25-.3-2.65-.5-2.85-.6-3-.6-3.15-.65-3.25-.65-3.35-.7-6.79-1.4-6.75-1.35-3.35-.7-3.25-.64-3.15-.66-3-.59-2.85-.6-2.65-.55-1.24-.25-1.2-.25-1.15-.2-1-.25-1-.2-1-.2-.85-.15-.8-.15-.7-.15-.65-.15-.5-.1-.45-.1-.35-.05-.25-.05-.15,0Z" transform="translate(-1.99 -2.03)"/><path d="M128.28,194.35v-.75l-.05-.2v-.5l0-.45-.1-.5-.05-.45,0-.45,0-.45c-.4-2.8,4.65-5.45,8.55-3.85,1.55.65,2.44-3.25,5.14-4.4,2.35-.95-1-5.7,2.5-7.24,1.4-.6,3.85.74,4.15-1.25.1-.65-1.7-1.5-1.7-2.2,0-3.8-1.95-6.7-2-10.1-.15-3.75,4-3.3,7.4-3.55.8,0,1.4-.95,1.1-2,2.6-.15,6.5-1.6,8,1,1-2.75,2.8-.85,2.25-3.2-.85-3.8-.55-1.8-1-2.45-3.3-4.49.1-14.34,5.24-13.74,4.9.55,9.3,1.8,10.15,7.5,2.4-4.3,7.2-1,9.8,1.15s2.1,5.24,2.15,8.64c0,2.8,1.35-1.25,2.6-1.15.15-3.85-.1-6.39,3.19-7.64,2.95-1,.65-5.9,1.45-8.15,1.3-3.65,2.4-5.55,6.35-7.55,3-1.55,5.3.85.5-.55,5.35,1.6,1.9-.5,4.15-4.15,2.4-3.84,7.65-3,12.34-3.3-.3,1.1.7.6,1.55.9.7.25,1.9,5.55,2.65,5.55-.3,8.55-2.45,6.4,3.75,6,1.65-.1,3.6-1.5,3.05-2.1-2.25-2.4-2.4-5.1-1.85-8,.55-2.69,2.7-3.14,5.3-3.84,3.15-.85-1.5-4.25.3-6.1,2.7-2.8,4-6.35,6.75-8.85,1.25-1.15,3.49-2.35,5.24-1.15,4.3,3,5.15,8.5,8.55,11.45,4.1,3.65,6-4.35,10.7-5.95,2.2-.75,4.2-1.6,5.55.45,4.14-4.55,9.89-3,15.49-2s.95,7.2,1.9,11.4c.7,3.14,4.3-1.7,6.25,2.24,2.9-1.79,3.85-4.94,6.69-6.34,1.95-.95,4.25,1.85,5.25,1.45,4.1-1.75,5.05-8.75,9.4-10,7-1.8,10.85,6.35,12.1,12.75.54-.75,1.49-1.7,2-.95,3.2,4.74,5.45,3,10.25,3.54,1.2.1,2.25,1.9,3.35,3,3.05-6.24,12.19-3.75,14.84-.3,4,5.25,2.35,12.25-2.2,12.65,1.4,1.55.85,2.6,2,4.45a2.11,2.11,0,0,1,2.25-1.15c3,.55,4,3.65,6.7,4.5.8-6.4,9.6-9,12.35-4.85,2,3,4.64,9.79.2,14-.1.1,1,1.45,1.95.8.74-.55,1.79-1.5,2-.9.5,1.6,2.75-.45,3.4.7,3.85-3.15,7.45-3.55,10.9-.25,3.2,3.05,6.45,11,.55,14,.75.75,1.9,1.4,2.05,2.25.6,3.54-2.25,7,2.45,7.54.7.05,1.4-1.65,2.25-1.75,4.59-.55,9.79.55,10.89,5.45.75,3.5-3.2,5.2-2,8.9-2.3-.25-3.95.95-5.59,2.25a1.39,1.39,0,0,1,.29.3Zm281.45,0,.2.15.2.2.25.15.2.2.2.2.2.2.2.2.2.25.15.2.2.25.15.2.2.25.15.2.15.25.1.25.1.25.1.25.1.25.05.25.05.25.05.25v.65l-.05.1v.15l-.05.15-.05.1,0,.15-.05.1-.05.15-.05.15-.1.1-.05.15-.1.15-.1.1-.1.15-.1.1-.1.15-.15.15-.1.1c4.79,2.09,13.14,1.25,10.94,8.49-.5,1.5,2.85,3.35,2.9,5.1.2,6.6,5.25,4.7,8.35,8.95,1.65,2.25.45,4.6-.15,6.79-1.4,5,4.3,12.1-.8,16.6,4.4,2.25.45,9.14,3.35,9.14,3.1,0,7.79,1.7,9.54,3.65,2.15,2.45.2,8.2-1.4,10-3.5,4-.55,7.85-4,11.6a10.88,10.88,0,0,1-2.29,1.8H103.89a21.06,21.06,0,0,1,4.75-9c1.85-1.85-2-7.1,7.39-9.8,2.15-.6,2.55-1.55,1.85-2.85-1.45-2.55-6.19-2.5-6.19-7.19,0,1.8.54-.15.94-.5.5-.5-3.54-1.3-5.44-2.5-6.35-4-7-8-5.25-12.05a10.06,10.06,0,0,1,7.45-5.95c3-.65,4.29.85,6.69,1.3,1.15.15.85-1.5,1.5-3.24,1.15-3,5.1,1,7.45-1.25-2.25-2.25-5-4.15-6.45-6.85-1.55-3-.4-4,2.25-6-3.15-2.05-5.3-7-3.25-10.4,1.65-2.74,2.5-6.14,4.5-7.39,2.2-1.3,5.45-.8,6-4.1a7.71,7.71,0,0,0,.15-1.85ZM438.12,284l-.25.2-.3.15-.25.15-.3.15-.25.15-.25.1-.2.15-.25.1-.25.1-.2.1-.45.25-.4.2-.45.2-.2.15-.15.1-.2.15-.2.15-.2.15-.2.2-.2.15-.15.2-.2.25-.2.2-.2.25-.2.29-.2.25-.15.35-.2.3-.2.35c6.15,2.7,6.8,13.6,3.8,18.1-2.5,3.65.5.6-.2,7.25-.55,4.94-5.3,8.49-10.35,3.79-1.75,5-2.8,12-8.55,13.8-2.55.8-6,1.8-8.79-.65-1.4,2.05-5.5,3.1-4.95,4.15,2.5,4.65-.2,7.64-3.15,10.09-2.1,1.7-5.8-1.65-7.15-.35-3.65,3.6-7.74,3.55-6.34,9.35.6,2.25,1.54,5.35.05,7.95-1.25,2.25-.05,6.49-2.1,5.54-2.7-1.14-7.05,1.6-8.75.15s-3.45-.89-4.55-2.74c-2.5,1-1.45-.55-1.15.55a20.12,20.12,0,0,1-7-1.5c-2.49-1.05-3.34-2.2-3.24-5.2a1.34,1.34,0,0,0-2-1.05c-.9.5-2.1,1.5-2,2.1.65,5.55-4.3,6.7-6,9.64-2.35,4.05-6.35,8.2-11.15,8.05-4.59-.1-4.59-3.9-6.94-7.35-.4-.6-2.7-3.34-2.8-3.64-3.05-9.55-5.1-15.1.5-22.75.85.2,3.8-3.59,2.55-5.19-3.15-4.1,2.15-8.65,5.34-12.5.75-.9.75-3.3,0-4-7.44-6.8-20-5.05-22.59,4.4-2.25,8.3,4.15,18.54,1.25,26.54-4.6,12.85-14.14,22.29-19.54,35-1.95,4.65,1.1,9.54,5.45,11.89,3.4,1.85,8.3,1.1,10.59,4,6.6,8.2,16.75,8.6,23.55,15.75,1.64,1.79,2.64,5.09,5,5.94,11.7,4.15,22.75,11.95,35.69,10.45-3.2,5.8-9.55,7.3-14.79,9.5-12.4,5.24-24.09,11-37.74,14.29-30.54,7.3-58.83,8.7-89.56,2.5-22.6-4.6-42.49-13.1-61.68-24.09.4-.35.75-1,1.1-.95,4.14.2,8.54.25,12.14-.8,11.15-3.35,21.74-9,32.09-13.1,8.15-3.24,11.6-14.84,15.49-24.19,1.25-3.05,4-5.39,6.8-7.64,11.55-9.4,19-22.35,25.54-35.49,2.75-5.5,3.75-13.15.6-19.54-6.05-12.45-19.49-17.5-32.19-21.45-1,6.2,2.9,11.65,2.7,17.95-.05,1.3,3.5,1.45,3.8,3.4.7,4.84,1.3,11.24-4.25,13.39,1.85,1.1,1.35,3.15.85,4.35a30.22,30.22,0,0,1-20.64,17.39c-2.7.65-6,8.15-11.55,8.05-2.69-.05-6.64-3.6-7.34-6.15-1.05-4,2.1-7.49-2.75-7.39-3.5.1-8.3-1-11.05,2.89a11.9,11.9,0,0,0,1,1c-3.25,1.45-4.3,6.15-7.85,6.35s-6.64-2.75-9.74-4.6c-1.4-.8,1.1-4.84-1.55-5.94a41.2,41.2,0,0,0-9.85-3.15c-2.35-.4-6.1-2.4-6.3-5-.34-4.6-2.74-6.45-4.74-10.2-.8-1.45.4-4.2-.6-5.15-3.75-3.74-5-7.64-3.95-12.59.2-.9,1.3-1.5,2.05-2.25-2.15-2-2.3-4.4-4.75-6.1-3.55,5.4-13.65,6.7-16.54,2.05-2.75-4.25-4.7-11.94,3.39-13.89-3.49-1.95-1.55-4.7-3.89-7.7-6.3-7.9-.25-9.9-3.2-14.44-.6-.85-3.5,1.49-4.1,1.94-2,1.65-6.75,1.1-7.65-.15a7.9,7.9,0,0,1-1.2-6.14Z" transform="translate(-1.99 -2.03)"/><path class="cls-4" d="M271.88,535.13l13.54-.35,13.4-1L312,532.08l13-2.35,12.74-2.9,12.5-3.55,12.24-4.15,11.95-4.75L386,509.14l11.35-5.8,11-6.35,10.7-6.85,10.3-7.34,9.94-7.85,9.6-8.25,9.15-8.75,8.69-9.14,8.3-9.55,7.8-9.94L490.24,419l6.85-10.65,6.35-11,5.8-11.35,5.29-11.69,4.7-11.95L523.38,350l3.55-12.49,3-12.75,2.3-12.94,1.7-13.2,1-13.34.35-13.6c0-145.39-117.91-263.35-263.35-263.35S8.52,126.33,8.52,271.72s117.91,263.4,263.36,263.4Z" transform="translate(-1.99 -2.03)"/><path class="cls-3" d="M271.58,388.73l-.5,0-.45.05-.4.05-.4.05-.4.05-.4.1-.35.1-.35.1-.3.1-.3.15-.3.15-.3.15-.24.2-.26.2-.24.2-.21.25-.24.25-.2.25-.2.3-.2.3-.2.35-.15.35-.2.35-.15.4-.2.4-.15.45-.15.5-.15.5-.2.5-.15.55-.15.55c-1,3.5,16.59,3.8,16.34,1.3,0,0-.6-9.5-7.75-9.25Zm-8.79,10.7-.05.05-.05,0-.1.05-.1.05-.15.05-.1.1-.15.1-.2.1-.15.1-.15.15-.2.1-.2.2-.2.15-.2.15-.2.2-.2.2-.2.25-.15.25-.2.25-.2.25-.15.3-.2.25-.15.35-.15.3-.1.35-.15.35-.05.2-.05.2-.05.2,0,.2v.2l-.05.2-.05.2v.2c-.6,6.79,3.55,11.34,13.44,11.34s12.4-5.45,12.4-10.3a7,7,0,0,0-3.8-6.49,27.43,27.43,0,0,1-8.4,1.05,22.51,22.51,0,0,1-9.24-1.9Zm39,15.19c-1.16.1-2.48,1.1-3.9,3.7,0,0-11.74-7.95-13.89,2.95,0,0-9.45-2.5-8.55,9.7,0,0,15.5-17.25,38-7.8v-.1l-.05-.05v-.4l-.05-.1v-.25l-.05-.15V422l-.05-.1,0-.3-.05-.3-.1-.35-.1-.3-.1-.3-.1-.35-.15-.3-.1-.15,0-.15-.1-.1-.1-.15-.1-.15-.1-.1-.1-.15-.1-.1-.1-.1-.15-.1-.1-.1-.15-.05-.15,0-.15-.1-.15-.05h-.15l-.15-.05h-.55l-.15.05-.2.05-.25.05-.2.1-.2.1-.25.1-.2.1-.25.15-.25.15-.25.2-.3.2-.1.1-.15.15-.15.1-.15.15-.15.1-.15.15s-1.94-5.65-4.9-5.4Zm-60.14,2.3c-2.89.17-4.68,3.95-4.68,3.95l-.16-.15-.19-.1-.21-.1-.19-.1-.15-.05-.2-.1-.15,0-.2-.05-.15-.05h-.15l-.2-.05h-.3l-.2.05h-.15l-.15.05-.2.05-.15.1-.15.05-.2.1-.15.15-.2.1-.2.15-.15.15-.2.2-.2.2-.2.2-.1.1-.1.15-.15.1-.1.15-.1.1-.1.15-.1.15-.15.15-.1.15-.1.15,2.1,1.25c14.69-10.5,33.58,5.9,33.58,5.9-3.34-14.7-10.49-8.45-10.49-8.45-2.95-9.2-10.1-2.05-10.1-2.05-1.7-2.11-3.24-2.78-4.56-2.7Zm27.45,1.4s-2.09,15.3,2.75,24.39h0l.4.7.45.7.45.65.45.65.5.55.45.55.55.55.5.45.55.45.55.4.55.4.55.35.6.35.6.3.6.25.6.25.6.2.6.2.65.15.6.15,1.25.25,1.3.15,1.25.05h1.25l1.25-.05,1.25-.15,1.2-.15,1.15-.2,1.15-.25,1.1-.25,1-.25.95-.3.95-.3.85-.3.75-.3.7-.25.3-.15.3-.1.25-.15.25-.1.2-.1.2-.05.15-.1.15-.05.1-.05.1-.05h.05v-.05l-1.65-2.5c-35.73,15.35-27.74-26.89-27.74-26.89Zm31.69,4.45-1.5.05-1.6.1-1.6.15-1.65.3-1.65.35-1.69.4-1.7.55-1.7.65-1.75.8-.9.4-.85.45-.85.5-.9.55-.85.55-.85.55-.9.65-.85.65-.85.7-.85.75-.85.8-.85.79s13.89,3.35,13.05-4.19c0,0,9.24,6.29,9.64-.45,0,0,5.7,4.65,9.05-1.25,0,0,14.49,2.1,8.2-2.1h-.05l-.1-.05-.1-.05-.15-.05-.15-.05-.45-.2-.5-.15-.65-.25-.75-.2-.85-.25-.9-.25-1-.25-1.1-.2-1.15-.2-1.25-.2-1.3-.15-1.4-.1-1.4-.1Zm-57.28.7-.9,0-.9.05-.8.15-.75.1-.65.2-.65.15-.54.2-.45.2-.45.2-.35.2-.35.15-.25.15-.15.15-.15.1-.1.05c5,7.6,7.44,1.8,7.44,1.8,2.5,6.95,10.5,3.35,10.5,3.35,1.45,6.74,9,1.5,9,1.5,1.69,3.74,5.29.5,5.29.5l-1.1-.7-1.05-.65-1-.65-1.05-.6-.95-.55-1-.55-1-.5-.89-.45-.95-.45-.85-.45-.9-.4-.85-.35-.85-.35-.8-.3-.8-.3-.75-.3-.8-.25-.75-.2-.7-.2-.7-.2-.7-.15-.65-.15-.65-.15-.65-.1-1.2-.15-1.15-.1-1.1,0Z" transform="translate(-1.99 -2.03)"/><path class="cls-5" d="M260.73,398.82s-.6,13.65,8.2,19.1m-3.55-17.45s1.05,14.5,13.19,16.4m-9.44-15.55s5,11.35,14.29,11.55m-8.6-11.75s4,6.3,10.5,7.15m-6.5-7.6a16,16,0,0,0,6.1,3.8m-2.15-3.35s2.75,9.45-7.95,15.75m4.4-16.2s-1.05,13.9-13.24,15.8m8.59-15.15s-6,11.75-15.29,11.95m9.65-12.15s-5.3,6.1-11.75,6.9m7.55-8.15a22.21,22.21,0,0,1-6.5,3.75" transform="translate(-1.99 -2.03)"/><path class="cls-6" d="M249.84,277l0,.1.1.1,0,.1.1.15.05.15.1.15.1.15.1.2.1.2.1.2.1.2.1.2.1.2.1.25.2.45.2.45.2.5.25.45.1.2.1.25.1.2.1.2.1.2.1.2.1.15.05.2.1.15.1.15c3.6,5.59,4,6.89,4.25,8.59.05.25.74.6.95.95a52.64,52.64,0,0,0,10.79,13.6,35.51,35.51,0,0,1,2.2,4.05c1.35,3.39.55,4.24,1.65,7.84.8,2.65,3.7,3.95,5.45,6.1,2.8,3.6,4.95,6.75,6.1,11.2,1.54-1,1.19-3.35,2.94-4.2-1.24-1.05-2-4.35-2.74-5.35-3.3-4.85-7.65-5.6-8.85-11.15-1.2-5.74-.45-7.49-2.5-11.14-1.7-3-6.3-5.35-8.5-8.15a14.82,14.82,0,0,1-2.5-4.15,53.58,53.58,0,0,0-5.69-11.09c-1.95-3-4.1-5.7-5.35-9.05m132.3,7.15h-.8l-.25.05-.2.05-.25.05-.2.1-.2.1-.2.05-.15.1-.2.15-.15.1-.2.15-.15.1-.15.15-.15.15-.35.3-.3.35-.3.35-.35.35-.15.15-.2.15-.2.2-.2.15-.2.2-.2.15-.25.15-.25.2c-5.7,3.7-14.65,15-20.34,19-9.15,6.3-15.15,2.65-25,3.4-7.1.55-10.1,1.7-18.75,8.7-.65.55-3.2,3.44-2.6,4.24a25.48,25.48,0,0,0,1.45,2.25c1.05-.85,1.1-.5,2-1.4,4.75-4.75,8.6-6.14,14.6-8.09,6.8-2.2,15.14,1.4,25.69-2.25,8.25-2.9,16.29-14,22.44-20.15,6.45-6.44,17.59-9.44,24.74-3.39M257.79,209.79v.5l-.05.05v.15l-.05.1v0l-.05.05v.1l-.05.05,0,0v.05l-.05.05v0l-.1.1-.05.1-.1.1v0l-.05.05-.05.05-.05,0c-.35.45.1,1.4-.2,2a20.29,20.29,0,0,0-1.45,3.45,18.79,18.79,0,0,0,1.9,15.29c1.79,2.95,5.69,4.1,8,6.9m24.44-43.08-.25.05-.25.1-.3.05-.3.1-.35.1-.35.1-.35.1-.4.15-.4.15-.45.15-.45.1-.39.2-.95.3-.9.35-1,.35-.9.35-.4.15-.45.2-.4.15-.4.2-.4.15-.35.15-.35.2-.35.15-.3.15-.25.15-.25.15-.2.1a8.81,8.81,0,0,1-3.55,1.64c-2.55.4-4.35,2.45-6.05,4-4.95,4.4-8.85,10.55-8.85,17.3a20.7,20.7,0,0,0,2.9,10.79c1.6,2.5,2.75,5.2,4.8,7.3m5.9-90.31-.1.45-.1.5-.1.45-.05.45v.49l-.05.45v.45l.05.45v.45l.05.45.05.45.1.4.05.45.1.45.2.9.25.85.25.9.25.85.3.85.25.9.3.85.25.9.25.9c1.15,4.45,4.5,7.35,7.15,11.25a21.42,21.42,0,0,0,3.79,4.15,48.75,48.75,0,0,1,5.95,6.14,58.46,58.46,0,0,1,7.45,10.55c1,2.05,2.4,4.1,2.35,6.6m-.85-14.7.1.25.1.3.15.25.1.25.25.55.3.5.3.5.3.5.3.45.3.5.35.5.3.45.3.5.3.5.25.5.3.5.1.25.1.25.15.25.1.3a24.7,24.7,0,0,1,1.2,3.7c.2,1.5,1.4,2.7,2,4.15a26.57,26.57,0,0,1,2.24,9.69c.25,10.15,0,21.89-8.84,28.74-6.95,5.4-13.25,10.7-17.85,17.9.85-2.05-.1-4.25.55-6.25a17.68,17.68,0,0,1,1.7-4.15c2.55-3.65,5.7-6.15,9.25-8.7s7.65-5.05,8.25-9.44m-116-13.05,1.05.45,1,.4,1,.35.95.35.95.3,1,.3.95.25,1,.2.95.2.95.15,1,.15,1,.1,1,0h.5l.55.05h1.65l.6-.05c6.05-.2,11.34-1.6,16.34-1.15M178,211l.2.05.2,0,.25.05h.2l.4.05.25,0h.2l.2.05.2,0h.1l.1.05.15.05h.1l.1,0,.1.05.1,0,.1.05.1.05.1,0,.1.05.1,0c11.29,7.25,23.79,7.4,36.53,5.6a16.62,16.62,0,0,1,8.4,1.1m-1.05-14.89c8.3,5.9,13.24,8.49,15.94,16.79m-45.33-36.93.95.25.95.3,1,.3.85.39.85.45.85.45.8.5.8.55.75.55.75.65.75.6.7.65.7.7.65.7,1.34,1.5,1.25,1.5,1.3,1.55,1.25,1.6,1.25,1.6,1.25,1.55,1.3,1.5,1.3,1.5.7.7.7.7c4.65,4.5,10.85,7,15.25,11.59,1.2,1.3.4-.6,1.3,1.25M185,265l2.25,1,2.25.84,2.3.8,2.3.75,4.6,1.45,2.3.7,2.3.75,2.25.75,2.25.8,2.24.9,2.25,1,2.15,1,1.1.55,1.1.6,1.05.65,1,.65,1.05.7,1.05.75a106.62,106.62,0,0,1,18.39,16.74c2.35,2.8,3.15,5.45,6.2,10.6M185,270.07l.8.2.85.2.9.25.89.25,1.85.55,2,.6,2,.65,2,.65,2,.7,2,.75,2.05.8,2,.8,1.95.8,1.9.85,1.85.8.85.45.9.4.8.45.85.4.75.45.74.4c12.45,7,19.95,17.64,23.8,23m68.77,57.63-.1.15-.15.1-.15.15-.1.15-.15.1-.15.15-.1.15-.15.15-.1.15-.15.15-.05.1-.05.05-.05.1,0,.1-.05.05-.05.1-.05,0v.1l-.05.05,0,.1v.1l-.05.05c-.25.85-1.55,2.35-1.9,3.1.15-.3.25-.15.25-.3-1.6,3.4-1.3,1.35-3.15,5.1-2.3,4.69-6.49,9.64-7.34,12.69-1.2,4.35-3,10.5.25,14.1,3.59,3.89,8.64,5.09,13.44,7.44a16.74,16.74,0,0,1,3.35,2.6c3.25,2.7,7.75,4.6,14.44,9.35,4.2,2.95,8,5.5,11.35,9.19a16.08,16.08,0,0,0,3.55,3.35,13.34,13.34,0,0,0,4.55,1.8c.2,0,.05.25,0,.25a29,29,0,0,1,6.09,1.75,10.49,10.49,0,0,0,3.55.15m-49.38-84h.1l.05,0,.1.05h0l.1.05.05.05.05.05.1,0,.05.05.05.1.05.05,0,0,.1.05.05.1.05.05,0,.1.05.05.05.1.05,0,.05.1,0,.15.1.15.05.15.1.15.05.2V353l.05.1c.5,1.75-.35,3.3-1.5,4.55-.6.6-1.2,1.4-2.25,1.3-.65-.05-1.1-.55-1.65-.8m4.2-43.48-.1.45-.1.5-.05.45-.05.45-.05.45v1.65l.05.35.05.4.05.35,0,.4.05.35.15.7.2.69.15.65.2.65.2.65.15.65.15.65.15.65.05.35,0,.3c.15,1,.65,2.85.9,3.75a52.76,52.76,0,0,0,3.1,9.1c1.35,3.1,2.15,6.1,1.6,9.39a36.89,36.89,0,0,1-2.45,9,15.4,15.4,0,0,1-4.9,5.7c-2.15,1.65-5.4.35-7.35-1.45m4.05,2.65-.1.25-.15.3-.1.25-.1.25-.15.25-.1.25-.1.2-.1.2-.2.45-.25.4-.2.35-.15.35-.2.3-.2.3-.15.25-.2.3-.15.25-.15.2-.2.2-.15.25-.15.2-.15.15-.3.4-.3.35-.3.4-.15.15-.15.2-.15.25-.15.2-.15.25-.15.25-.15.25-.2.3c-7.44,13.09-13.59,25.34-2.84,30.78,9.69,5,17.79,8.05,30,17.4,6.55,3.45,8.8,10.59,15.65,13.69,1.55.7,8.3,1.4,9.8,1.45M301.27,317.1l.15.9.1.85.25,1.65.25,1.6.2,1.55.25,1.45.25,1.5.3,1.45.3,1.4.3,1.4.35,1.45.35,1.45.4,1.45.45,1.5.5,1.5.3.8.25.8.3.8.3.85a17.84,17.84,0,0,1,.75,10.94v-.85M234.5,312.06l.6-.2.6-.15.6-.15.55-.1.6-.1.55-.1h.55l.55-.05h.55l.5.05h.55l.5.05.49.1.5,0,.45.1.5.1.45.15.45.1.45.15.45.15.85.3.8.3.75.3.4.15.35.15.35.15.3.1.35.15.3.1c15.5,5.54,22.94,11.29,27.79,28,1.75,5.89-.95,14.09-2.85,18.89-2,5.15-6.15,11.54-10,16.34-5.85,7.15-12.1,13.15-18,19.59A66.39,66.39,0,0,0,236.6,412c-1.75,3.55-5.45,6.55-7.15,10.1M214.3,307l.4-.15.35-.15.35-.15.35-.1.35-.1.35-.1.4-.05.35,0,.35-.05h1.5l.4.05.35,0,.4.1c6.35,1.4,11.45,4.95,17.45,6.5,8.84,2.25,16.79,6.69,24.19,12.39,9.49,7.3,13.79,20.89,8.74,32-5.44,11.95-11.29,21.29-21,30.34-3.1,2.9-7.95,7.75-10.59,10.8-3.25,3.64-4.5,8.69-7,13.39a13.6,13.6,0,0,0-1.25,2.85c-1.85,8.85-9.65,13.74-17.15,15.89m150.6-206-.6.2-.55.2-.55.2-.55.25-.55.2-.55.25-.55.3-.25.1-.25.15-.25.15-.25.15-.2.2-.25.15-.2.2-.25.15-.2.2-.2.2-.15.2-.2.2-.15.25-.15.2-.15.25-.15.25-.1.25-.15.3a31.94,31.94,0,0,1-2.8,5.69c-1.3,2.15-2.59,4-3.89,6.1-1,1.7-1.9,3.6-3,5.1a50,50,0,0,1-6.25,6.35c-.05.05-2.65,5.8-2.65,5.65-2.2,11.34-1,22.19-6.95,32-.5.8-2.75,1.35-4.9,1.2,1.1-1,1.05-1.15,1.15-1.35.5-.95.35-1.9.75-2.75,3.75-6.94,4.7-14,4.4-21.54" transform="translate(-1.99 -2.03)"/><path class="cls-7" d="M244.88,107.5c-2.5.16-4.09,6.33-4.09,6.33-6.29-1.7-2.5,8.79-2.5,8.79h-.35l-.35-.05h-.85l-.3.05-.25,0-.2,0-.25,0-.2,0-.15.06-.2.09-.15.1-.14.1-.16.11-.1.09-.14.15-.11.1,0,.15-.1.15-.05.15-.09.15-.06.15v.15l0,.15-.05.2v1l.05.35.11.4.09.35.05.3.15.35.11.35.09.3.15.25,0,.15.05.15.06.1,0,.1.05.15,0,.1.05.1,0,0,.05.1.05,0v.05l0,0v.05l.05.05c2.5-3.8,7.15-2.1,7.15-2.1-.85-2.5,1.65-13.44,1.65-13.44h2.1c-1.65.85-.4,12.64-.4,12.64,1.7-2.15,5.45-.45,5.45-.45a6.54,6.54,0,0,1,5.9-6.29,24.54,24.54,0,0,0-7.6-2.1l-.8-5.9c-1.45-3.55-2.78-4.71-3.91-4.63Zm36,3a4.14,4.14,0,0,0-2.72.82s-5.45.8-7.55,3.75c0,0-5.05-3.75-9.25,6.29,0,0-5,1.25-6.29,5.5h.15l.1,0,.1,0,.15,0,.1,0,.15.05.15.1.15.1.2.1.15.1.15.15.15.15.2.2.15.15.15.2,0,.15.05.1.1.1.05.15,0,.1.05.15.05.15.05.15.05.15,0,.15.05.15V130l.05.2v.15l.05.2v1l-.05.25v.2l-.05.25-.05.25,0,.25-.05.25-.05.25-.1.3s8.39-16,20.59-17.64l2.1,1.25s-27.74,11.74-18,39.88l2.5,5.9s5.45-8,2.5-10.1,8.85-13.39,0-14.24c0,0,16-3.35,8.85-12.65,0,0,11.74-5,10.5-13,0,0-2.84-2.36-5.68-2.47Zm38.13.62c-2.25.14-3.92,3.1-3.92,3.1-2.89,0-2.89,4.65-2.89,4.65l.15.15.15.2.1.19.15.16.1.2.1.2.1.2.1.2.1.19.1.21.1.4.15.45.05.4.1.44v.4l.05.4v.85l-.05.4,0,.4-.05.4-.05.35-.1.4,0,.35-.1.3-.1.35,0,.3-.1.25-.1.25-.1.25-.05.2-.05.2-.05,0,0,.1v.05l-.05.05v.1h-.05v0c4.19,3.4-4.2,10.1-4.2,10.1,4.2,2.95,0,7.55,0,7.55,4.2-4.6,7.54.85,7.54.85,5.45-15.55,2.55-31.49,2.55-31.49h1.65c5,10.94-1.25,33.18-1.25,33.18,1.7,1.25,6.3,5.85,6.3,5.85,4.6-5.85-1.25-7.94-1.25-7.94,6.3-8,3-17.25,3-17.25,4.2-2.9-1.3-8.4-1.3-8.4C323.45,113.1,321,111,319,111.13Zm-15.2,7.07c-3.94.15-8.46,10.32-8.46,10.32-2.05-7.55-12.14-1.25-12.14-1.25,4.6,6.3-6.75,12.6-6.75,12.6,3.35,2.1-1.25,8.8-1.25,8.8l.25,1,.25,1,.25.94.3,1,.25.89.3.85.3.85.3.8.3.8.3.75.3.75.3.65.25.7.3.6.3.6.3.6.25.5.25.5.25.5.25.4.25.45.2.35.2.35.2.3.15.25.15.25.15.2.1.15.1.15.05.05.05.05v0c.85-29.84,19.34-41.19,19.34-41.19h2.1c-21.44,23.95-17.24,50.84-17.24,50.84,13-13.45,7.14-19.75,7.14-19.75C314.27,144.92,303,139,303,139c10.9-5.45,5.85-11.75,5.85-11.75,3.4-8.39-2.9-8-2.9-8a2.56,2.56,0,0,0-2.09-1.08Zm49.74,6.87a39.87,39.87,0,0,1-4.82.1c-3.4-.45-4.65,4.6-4.65,4.6-7.54-9.64-13,2.1-13,2.1l-.1,0-.1.05-.05.05-.1.1-.05.1,0,.1-.05.15-.05.15-.05.15-.05.2v.2l0,.2v1.45l0,.55.05.6.05.6.1.65.1.65.1.65.1.65.1.65.1.65.15.65.1.65.1.6.15.55.1.55.1.5.05.25,0,.25.05.2.05.2.05.2.05.2,0,.15v.15l.05.15.05.1v.2l.05,0v.1c10.1-12.6,18.89-17.65,18.89-17.65l2.1,1.25c-6.7,2.95-23.94,29-23.94,29a17.33,17.33,0,0,0,3.8,6.75c25.19-11.35,12.59-18.94,12.59-18.94,14.45-3.8,8-9.25,8-9.25,5-1.25,5-7.55,3.35-10.45a3.68,3.68,0,0,0-3.58-1.8Zm-138.38.07c-2.34,0-5.18.54-5.89,3.38,0,0-2.54,3.35-1.25,6.3,0,0-10.94-6.3-8,12.6,0,0-8.85,4.59.85,18.09v-.35L201,165v-.45l0-.3.05-.3v-.35l.05-.35,0-.45.1-.85.15-1,.15-1.1.2-1.15.2-1.25.2-1.35.3-1.4.3-1.4.3-1.5.35-1.5.4-1.55.45-1.55.45-1.54.5-1.55.55-1.6.6-1.5.59-1.55.7-1.45.71-1.45.74-1.35.8-1.35.9-1.25.9-1.15,1-1.1,1-1,.5-.45.55-.45,2.95-.85s-23.09,35.69-4.2,58.83c0,0,2.1-8.39-.85-14.29,0,0,6.3-5.05,2.5-15.55,0,0,9.25-4.9,2.95-14.29l-.85-1.25s8-7.55,1.3-15.55a15.87,15.87,0,0,0-3.36-.43Zm36.44,3.41a25.5,25.5,0,0,0-7.49,2.07s-6.3-3.75-10.9,7.15c0,0-10.49.4-8.84,12.59,0,0,16.79-15.54,23.94-18s2.55,1.25,2.55,1.25h0l-.05.05-.1,0-.15.1-.2.1-.2.15-.25.2-.3.15-.3.25-.35.2-.8.55-.9.65-1,.75-1.1.8-1.15,1-1.25.95-1.25,1.1-1.35,1.15L238.84,143l-1.4,1.3-1.4,1.4-1.35,1.44-1.4,1.5-1.39,1.6-1.31,1.65-1.34,1.7-1.25,1.8-1.15,1.85-1.15,1.85-1,1.95-.95,2-.85,2.05-.7,2.1-.6,2.15-.5,2.2-.15,1.1-.15,1.09-.1,1.15,0,1.15s26.89-16,12.59-19.79c0,0,22.7-5.85,11.75-12.14,0,0,15.26-15.87,6.64-15.52Zm-85.16,12.12c-3.8,2.55,2.1,14.29,2.1,14.29-8.4,6.75,3.75,7.15,3.75,7.15-5.85,4.2,0,4.2,1.7,4.2,1.27,0,6.71,5.15,9.19,7.57-8.64-9-15.49-27.32-15.49-27.32s.65-2.44.85-2.09l.85,1.55.8,1.5.85,1.44.8,1.45.8,1.35.8,1.35.75,1.25.75,1.25.75,1.2.75,1.2.7,1.1.7,1.1.7,1,.7,1.05.7.95.65,1,.64.95.61.85.64.85.6.8.6.8.6.75,1.1,1.4,1.1,1.25,1,1.19,1,1.06.9.95.9.9.8.74.75.7.7.6.65.5.6.45.55.4.5.3.4.25.4.25.3.15.25.1.25.1.1.05.1,0h.05c-8.33-22.71-10.72-20-11.23-18.85,2.13-5.91-3.47-5.54-3.47-5.54,5.85-2.9,2.5-8.8,2.5-8.8-1.7-4.19-8,1.25-8,1.25-.85-7.54-10.05-8-10.05-8Zm16.74,33.21c.43.45.87.88,1.3,1.27C184.51,175.15,184,174.6,183.21,173.88Zm192.24-30.66-.15.05-.15,0-.15.05-.15,0-.15.05-.15.1-.1.05-.15.1-.15.1-.1.1-.15.15-.1.1-.25.25-.25.3-.25.25-.2.35-.2.3-.2.35-.2.34-.2.31-.15.35-.2.35-.15.35-.1.35-.15.29-.1.3-.15.3-.1.25-.05.25,0,.15-.05.1-.05.1v.1l-.05.1v0l-.05.1v0l0,.05v3.95l3.75-4.2,1.25,1.25-2.9,5c2.5.85,1.25,8,1.25,8l6.29-5.85H377.3l1.24-4.2c1.7-6.35.85-10.54-2.49-10.94h-.6Zm-14,4.24-.2,0H361l-.25.05-.2.11-.25.1-.25.09-.2.15-.25.2-.25.2-.25.2-.25.25-.25.3-.15.15-.15.15-.1.15-.15.2-.1.2-.15.2-.15.2-.1.2-.15.2-.15.25-.1.2-.15.25-.15.25-.15.25s-2.05,2.15,0,7.15c0,0-12.14-5-9.19,10.1,0,0,8.39,6.29,9.64,7.59,0,0,3.35-15.14,3-20.64h1.65s1.7,19.35-4.6,35.74c0,0,16-14.7,8-20.59,0,0,11.35-12.6,1.3-12.6l.4-4.6v-.1l-.05-.05v-.1l-.05-.1-.05-.1,0-.15-.05-.1-.05-.15-.05-.15-.05-.2-.1-.15-.05-.2-.1-.2-.1-.2-.1-.2-.1-.2-.2-.45-.25-.45-.25-.45-.25-.4-.3-.45-.15-.2-.15-.2-.15-.2-.2-.2-.15-.15-.15-.19-.2-.16-.2-.14-.15-.1-.2-.16-.2-.1-.2-.09-.2-.11-.2-.05-.2-.05h-.25l-.2,0Zm-50.18,1.1c-.73.08-1.41.62-2,1.8,0,0-2.55,2.5,0,8.4,0,0-4.2-.85-2.1,6.3,0,0-12.19-1.7-3.35,11.79a29,29,0,0,0,4.2,5.45s-10.94,4.2,8.8,19.69v-.15l.05-.14v-1.55l.05-.75v-6.85l-.05-1.45-.05-1.5-.05-1.6-.1-1.6-.1-1.7-.1-1.7-.15-1.75-.15-1.8-.45-3.59-.2-1.8-.3-1.8-.3-1.8-.35-1.75-.35-1.8-.4-1.7-.45-1.7-.5-1.6-.55-1.6-.55-1.55h1.7s13.6,21.29,5.45,56.28c0,0,17.24-28.14,6.3-25.59,0,0,13.44-24.39-1.65-15.14,0,0,5.44-19.75-2.95-13,0,0-5.41-13.16-9.35-12.75ZM155.62,158.64a2.36,2.36,0,0,0-2.19,1.37s-9.25,0-3.35,8c0,0-3,5.9,7.15,3,0,0,.84.4.84,0l-7.14-5.05,1.25-1.7,0,0,.1.05,0,.1.15.1.15.15.15.15.2.15.25.15.25.2.25.2.3.2.35.2.35.25.35.2.4.25.45.2.45.25.45.2.49.25.56.2.54.2.55.2.6.2.6.15.65.2.65.15.7.1.7.15.75.1.75.05.75,0s-1.25-8.8-4.6-6.7c0,0-2.58-3.8-4.95-3.92Zm228.44.38c-5.27-.15-6.76,11.49-6.76,11.49-10.1-10.5-8.4,15.14-8.4,15.14l-.15-.1-.2-.1-.3-.15-.35-.15-.3-.1-.25-.1-.25,0h-.25l-.25-.05h-.25l-.2.05-.2,0-.15.05-.2.1-.15.1-.15.1-.1.15-.15.15-.1.15-.1.2-.05.15-.1.2-.05.25-.1.2-.05.25v.25l-.05.25-.05.25v1.95l.05.55.1.6.05.6.1.55.1.55.1.5.05.25.05.25.05.25.05.25,0,.2.05.2.05.2.05.15.05.2,0,.15v.1l.05.15.05.1v.15l.05,0v.05l2.95,3.35c7.1-24.39,23.49-37.39,23.49-37.39l1.7,1.65c-10.69,4.8-19.74,29.84-21,32.39s2.1,10.89,2.1,10.89c12.14-5.45,6.7-12.59,6.7-12.59,16-3.8,7.59-13.45,7.59-13.45,14.25-.85,6.7-12.59,6.7-12.59,4.65-13.85-8.4-7.55-8.4-7.55a5.72,5.72,0,0,0-3.33-1.44Zm-126.78,1.2a32.48,32.48,0,0,0-6.39,1.09c-14.69,2.05-22.29,32.74-22.29,32.74l-1.25.85-.15-1,0-1-.05-1V190l.1-.95.1-1,.15-.9.15-.95.15-.9.25-.85.2-.85.25-.85.25-.8.25-.8.3-.75.25-.75.3-.65.3-.65.25-.65.25-.55.3-.55.25-.5.2-.45.25-.4.2-.4.15-.3.15-.24.15-.21v-.1l.05,0,0,0v0c-14.62,9.17-6.7,12.56-6.7,12.56-5.44,5,.85,13,.85,13,4.2,6.29,5.9-8,5.9-8,4.2,7.6,9.65-11.75,9.65-11.75,5,12.2,9.69-8.79,9.69-8.79,4.6,13.84,7.95-9.65,6.7-10.5a2.26,2.26,0,0,0-1.16-.24Zm-24.93,13.72.05,0h-.05Zm104.41-6.27a2.84,2.84,0,0,0-3.14,2.84s-1.65,5.9,2.1,5.9c0,0-8.8,9.24,0,14.24,0,0-5.45,4.25,1.7,8,0,0,6.3-5.45,1.7-26.44l1.65.4.05,0v.05l.05.1v.1l.05.1.05.15,0,.15.1.15.05.19.15.46.2.5.15.59.2.61.2.7.2.74.25.8.2.8.2.9.2.9.15.95.2,1,.15,1,.09,1,.16,1,.05,1.05.05,1v2.1l-.05,1-.16,1.05-.14,1-.21,1-.24,1-.3,1-.4,1-.45.9s13-7.55,7.59-12.55c0,0,6.7-8-10.94-17.24a6.26,6.26,0,0,0-1.91-.34ZM166.22,171.2c-1.36,0-3.54.87-3.54,6.05,0,0-9.64-7.54-10.89,3.8,0,0-8.85-3-7.6,5.45,0,0-11.8,4.5-2.1,10.5,0,0,5.9,1.25,8.85-2.55,0,0,6.3,7.54,14.24-4.6,0,0,8,5.9,13.9.8a52.6,52.6,0,0,1,6.7-5.4v-.05h-1.65l-.7.05h-1.7l-1,.05-1.1,0-1.15.05-1.3,0-1.35.1-1.4.1-1.5.1-1.55.15-1.55.15-1.65.2-1.7.2-1.7.25L163,187l-1.75.25-1.79.35-1.8.35-1.85.35-1.8.4-1.8.45-1.8.5-1.8.55-1.75.55-1.75.6-1.7.65V189s20.14-7.15,29.79-6.3c0,0-.4-10.94-5.9-11.34a3.48,3.48,0,0,0-1.06-.16Zm103.19.55c-5.6.18-12.21,10.1-12.21,10.1,9.25-2.5,18.89,1.7,18.89,1.7l-1.68,1.36-.22-.06-1.4-.35-1.4-.25-1.3-.2-1.29-.15-1.25-.05-1.2,0-1.15,0-1.15.1-1.05.15-1.05.2-1,.25-.95.3-.95.35-.9.35-.85.45-.8.45-.8.5-.75.55-.75.55-.7.6-.65.6-.6.7-.6.65-.6.7-.55.7-.5.75-.5.75-.9,1.6-.8,1.55-.7,1.65-.6,1.65-.55,1.6-.45,1.64-.4,1.55-.35,1.5-.25,1.45-.25,1.4-.15,1.25,0,.6-.1.55,0,.55v.45l-.05.5,0,.4v.35l-.05.35V215h0c1.65-7.55,4.19-8.4,4.19-8.4,20.6-11.74,13.45-15.14,13.45-15.14,12.6,6.3,12.2-1.25,12.2-1.25,9.19,7.55,8.79.85,8.79.85,10.1-.45,1.65-5.45,1.65-5.45,1.3-8.4-10.89-6.3-10.89-6.3a4.57,4.57,0,0,0,1.25-3.79c-1.37-2.84-3.12-3.87-5-3.81Zm141.2,9.46a12,12,0,0,0-3.92,1.09c-1.25,1.25-8.39-.85-11.74.8l-.15.1-.15.1-.1,0-.15.1-.1.1-.15.1-.1.15-.05.1-.1.1-.1.1-.05.15-.1.1,0,.15-.05.1-.05.15v.1l-.05.15-.05.15v.15l0,.1v.85l0,.3.05.3.05.25.05.3.05.25.1.25.1.25.05.25.1.2.1.25.05.15.1.2.05.1.05,0v.1l.05.05,0,.05v0l.05.05v0l.05.05v.05l.05,0c.4-2.55,10.1-5,10.1-5l1.64,1.25c-5.84.45-15.54,14.3-15.54,14.3,9.25-2.1,15.54-2.95,15.54-2.95.4-5.05,3.35-7.15,3.35-7.15,4.73-7.53,3.2-9.11,1-9Zm-220.17,5.61c-1.46.08-3.14,1.17-5.07,3.83,0,0-5.05,7.6-1.25,12.2s10,10.49,12.6,11.79,2.9-.85,5.85-.85h.8l.15.05h1.2l.55,0h.65l.65.05h.65l.75.05h1.49l.8,0h6.35l.75,0,.7-.05h.65l.6-.05.6-.1.5,0,.25-.05.25-.05h.2l.2,0,.15-.05.2,0,.1-.05.15-.1s-5-8.8-13.45-7.55c0,0,3.7-14.39-10.49-6.69,0,0-2.32-12.57-7.53-12.28Zm-56.92,3.71a3.6,3.6,0,0,0-2,.57c-6.39,3.75,21.19,17.49,17.2,14.19.45-1.74-3.35-3.44-4.55-4.14-7.1-4.15-8.45-8.25-11.15-9.85h.1l.1-.05h.55l.05.05h.1l.05,0h.1l0,.05.05,0h.1l.05.05,0,.05.05,0,.1.05.05,0,.15.1.1.1.15.1.1.15.1,0,.05.05,0,.05.1,0c1,.6,1.5-.25,1.05-.5a5.87,5.87,0,0,0-2.92-1.32Zm32.19,2.82c-1.24,0-2.62.69-3.88,3.2,0,0-12.59,3.4-5.05,17.64,0,0-7.54,7.55.85,17.64a88.3,88.3,0,0,1,5,14.5l-.05-.25-.05-.25-.1-.35-.1-.35-.05-.4-.1-.5-.1-.45-.1-.55-.25-1.2-.2-1.3-.25-1.45-.25-1.6-.2-1.65-.2-1.8-.2-1.85-.15-1.95-.15-2-.05-2.05-.05-2v-2.15l.1-2.1.15-2.15.2-2.15.3-2.15.35-2,.5-2.1.55-2,.7-2,.75-1.85.45-.95.45-.84.5-.91.55-.79.55-.85.6-.75.65-.8.65-.7.7-.7.75-.65s-1.66-2.31-3.72-2.4Zm6.22,4.05-.6.59-.6.61-.55.59-.55.7-.5.66-.45.74-.5.75-.4.75-.8,1.6-.65,1.7-.6,1.8-.55,1.85-.4,1.85-.35,1.95-.3,2-.25,1.95-.15,2-.15,2-.05,1.95v3.84l.05,1.85.1,1.85.1,1.75.15,1.65.1,1.55.15,1.5.2,1.35.15,1.25.15,1.15,0,.5.1.45,0,.45.05.4,0,.35.05.3.05.25,0,.2v.2l.05.1v.1c14.3-17.6,5.9-19.29,5.9-19.29,10.95-5.9,1.7-14.3,1.7-14.3,5.85-12.6-.85-13.45-.85-13.45Zm181.76.44c-2.08,0-4.82,1.78-8.32,7.1-.2.35-1.25.45-1.25.45s-7.15-10.94-14.3,7.15h0l.05,0,.15-.1.2-.15.3-.2.35-.25.45-.25.55-.35.6-.35.7-.35.75-.4.85-.4.9-.4,1-.4,1.1-.4,1.15-.4,1.2-.4,1.3-.35,1.4-.35,1.45-.3,1.5-.3,1.6-.2L349,206l1.74-.15,1.75-.05h1.9l1.95.05,2,.1,2.05.25,2.15.3,2.2.35,1.1.25,1.15.25,1.15.25,1.2.3s-2.95-7.94-10.1-3.75c0,0-1.59-6.32-5.57-6.3Zm-221.51,2.34c-1.3,0-2.89.8-4.79,3.11l0,.05,0,.1.05.15.1.2.15.2.1.25.21.25.14.3.2.35.45.75.5.9.6,1,.6,1.1.7,1.15.8,1.25.8,1.35.85,1.4.95,1.45.95,1.5,1,1.5,1.05,1.6,1.05,1.6,1.15,1.6,1.15,1.6,2.35,3.25,1.2,1.6,1.25,1.54,1.25,1.55,1.25,1.45,1.25,1.45,1.3,1.4,1.25,1.3,1.3,1.25,1.24,1.15,1.3,1.1s-.4-18.79-5.89-10.9c0,0,3.35-21.89-5.05-15.14,0,0,.35-19.14-7.55-7.55,0,0-1.4-8-5.31-8.16Zm273.52,1c-3.52-.13-9.5,3.31-9.5,3.31-3.75-8-10.5,7.15-10.5,7.15,20.6-5.05,30.24,1.25,30.24,1.25l-.4,2.1-.65-.4-.7-.4-.7-.35-.7-.35-.75-.3-.7-.25-1.55-.45-1.55-.35-1.59-.25-1.65-.2-1.7-.05-1.65-.05-1.7.1-1.7.1-1.7.2-1.7.25-1.65.3-1.65.3-1.6.35-1.55.4-1.5.4-1.5.45-1.4.4-1.3.45-1.24.4-1.2.45-1.05.4-1,.35-.85.35-.4.15-.35.15-.35.15-.3.15-.25.1-.25.1-.2.1-.15.05-.15.1h-.1l-.05,0h0c19.74,10.1,19.74.85,19.74.85a28.26,28.26,0,0,0,18,.85c-2.5,6.75,11,2.95,11,2.95,4.2-.45-6.35-12.2-6.35-12.2,5.05-6.3-9.2-5.45-9.2-5.45.73-3-.44-4.09-2.29-4.16Zm-108.84.11c-2.91.11-6.48,4.85-6.48,4.85-4.64-10.89-15.54,4.65-15.54,4.65-16,0-4.2,17.65-4.2,17.65l-.6,0-.5.09-.5.1-.45.16-.4.14-.35.16-.35.19-.3.21-.25.19-.25.26-.2.24-.15.25-.15.31-.1.24,0,.3-.1.3v.65l.05.35V233l.1.35.1.35.1.4.15.35.1.4.2.35.15.4.2.4.2.35.25.4.45.8.5.75.55.8.55.75.6.7.55.7.55.7.55.65.3.3.25.25.25.3.25.25.25.25.2.25.25.2.2.25.15.15.2.2.15.15.15.15.1.1.1.1.05.1.1.05,0,0,.4-2.55c-6.3-7.15,0-15.54,0-15.54,1.7-15.95,24.79-22.7,24.79-22.7-.66-2.75-1.84-3.65-3.17-3.6Zm-173.67,1.95c-7.84,9.45,3.35,13.45,3.35,13.45-9.25,1.65,5,17.64,5,17.64,7-4.93,14,1.86,16.09,4.24l-.25-.29-1-1.15-1-1.2-1-1.25-1-1.35-1-1.35-1.06-1.45-1.09-1.44-2.1-2.95-2.1-3-2-3-1-1.5-1-1.45-.95-1.4-.9-1.4-.85-1.3-.85-1.3-.75-1.25-.75-1.15-.65-1.05-.65-1-.55-.9-.5-.8-.4-.7-.2-.3-.2-.3-.15-.25-.1-.25-.15-.15-.1-.15,0-.15-.05-.1,0-.05Zm24.49,35.33.7.81S148.09,239.08,147.68,238.62ZM300.88,207l-.9.25-.9.25-.95.3-.85.35-.9.4-.9.4-.85.45-.84.45-.86.5-.84.5-.8.55-.8.55-.75.5L289,213l-.7.55-.7.55-.65.55-.65.55-.6.5-.6.5-.5.45-.5.5-.45.4-.45.4-.35.35-.35.35-.3.3-.2.2-.1.15-.1,0-.1.1-.05,0-.05.05v0h0v.05h0l-3,6.7c5.05.45,8-5,8-5,0-8.4,7.54-5.45,7.54-5.45,2.55,3.35,8.4-.4,8.4-.4L300.88,207ZM354,209.09l-1.45,0-1.34.05-1.35.1-1.35.1-2.55.35-2.4.4-2.3.5-2.2.6-2.05.65-1.9.75-1.85.75-1.7.8L330,215l-1.45.85-1.35.9-1.25.85-1.15.85-1,.85-.94.8-.8.75-.75.7-.6.65-.55.6-.4.5-.35.4-.2.3-.15.2-.05,0c23.54-1.25,16-5,16-5,19.29,7.6,18.05-.4,18.05-.4,15.09,4.2,12.59-2.1,12.59-2.1,13.45.8,8-5.05,8-5.05l-1.85-.45-1.75-.4-1.75-.35-1.7-.35-1.7-.25-1.65-.25-1.6-.15-1.6-.15-1.55-.1-1.5-.1-1.5,0Zm-52.11,9.58c-1.51-.09-3.12,1.82-3.12,1.82-9.64-5.85-12.19,5.9-12.19,5.9-7.55.45-7.15,8.84-7.15,8.84,4.6-8,20.59-10.54,20.59-10.54v2.55l-.75,0-.7.05-.75.1-.7.1-.64.1-.71.15-.65.15-.64.2-1.25.35-1.2.45-1.15.5-1.05.5-1,.55-1,.6-1,.65-.85.64-.85.65-.8.71-.75.69-.7.65-.6.7-.6.7-.6.65-.5.65-.45.65-.4.6-.4.55-.35.55-.3.45-.25.45-.2.4-.15.3-.15.25-.05.15-.05.05,0,.1v.05h0c19.74,4.2,22.69-9.25,22.69-9.25,3.35-5.84,2-14.24,2-14.24a1.45,1.45,0,0,0-.63-.17Zm-69.14,1c-5.26-.21-9.6,7.18-9.6,7.18-9.25-10.1-10.9,10.89-10.9,10.89-8.39,1.7,1.65,16.8,1.65,16.8,1.7-37.79,29.44-25.2,29.44-25.2l-1.2-.2-1.1-.15-1.09-.15-1.06-.05h-1l-1,.05-.95,0-.9.15-.9.15-.85.2-.8.25-.8.3-.75.3-.7.35-.7.4-.65.4-.65.45-.6.45-.6.5-.55.55-.55.55-.5.55-.45.6-.45.6-.45.6-.4.65-.75,1.3-.65,1.3-.6,1.4-.55,1.35-.45,1.4-.35,1.4-.35,1.35-.25,1.3-.2,1.25-.2,1.25-.15,1.1-.1,1.05v.5l-.05.45-.05.45v.75l0,.35v1.34c13.45-5,7.55-10,7.55-10,19.34-1.7,9.24-9.25,9.24-9.25,15.15,1.7,16.8-4.2,16.8-4.2,1.7-9.24-13.39-8.39-13.39-8.39-2.14-3.31-4.34-4.55-6.4-4.63Zm130.45,2.16c-2.34-.32.65,8.37.65,8.37-14.7,4.59,5.9,16.34,5.9,16.34-11.35.45,4.6,12.2,4.6,12.2l.15-.36.09-.4.1-.44.06-.45.05-.46V255l-.05-1.15-.16-1.25-.19-1.3-.26-1.35-.3-1.45-.34-1.45-.35-1.45-.4-1.5-.45-1.55-.5-1.5-.95-3.05-.5-1.45-.5-1.5-.55-1.4-.5-1.35-.45-1.3-.5-1.24-.45-1.15-.45-1.1-.35-1-.2-.45-.2-.4-.15-.4-.15-.4-.15-.35-.1-.3-.15-.25-.1-.25-.05-.2-.1-.2-.05-.15,0-.1-.05-.05h0a4.2,4.2,0,0,0-1.9-1.22Zm3.6.37h0c0,.16.14.36.39.58l-.09-.13-.1-.15-.1-.15-.05-.1v-.05Zm.39.58v0l.3.5.35.6.4.7.45.85.55.95.55,1.05.55,1.15.6,1.25.65,1.35.65,1.44.65,1.5.64,1.6.6,1.7.65,1.75.6,1.8.55,1.85.55,1.95.5,2,.45,2.05.35,2,.35,2.15.25,2.15.2,2.2.1,2.2v2.24l-.1,2.25-.15,2.25-.3,2.3-.4,2.3s11.75-14.29,6.7-18.09c-.46-.34-.77-.56-1.09-.78.56-2.86,2.07-13.07-4.81-13.07,0,0,3.4-16.79-3.35-12.14,0,0-6.36-2.58-8-4.07Zm36.76.3c-5.61.16-11.51,5.82-11.51,5.82-1.7-3.35-4.65-2.5-4.65-2.5-12.2,4.65-.4,15.94-.4,15.94-5,7.15,3.35,10.5,3.35,10.5,2.95-4.6,10.1-24.34,10.1-24.34h2.5c.44,10.09-16.4,39.88-16.4,39.88l1.3,5.05c0-1.7,2.9-8.8,2.9-8.8,10.94-8.84,7.6-10.94,7.6-10.94,8.39-7.15,1.7-9.25,1.7-9.25l6.69-5.45c7.55-6.3,1.65-8.39,1.65-8.39l0-.35v-3.35l.05-.15v-1l.05-.15v-.45l.05-.05v-.23a6.87,6.87,0,0,0-5-1.84Zm5,1.84.25.23v0h-.05v-.2h-.05v-.1h-.05v0l0,0v.1H409v0ZM335.32,226l-9.25,4.2-.05.05,0,.14-.1.25-.15.36-.2.44-.25.55-.2.65-.3.7-.25.8-.25.85-.3,1-.3,1-.25,1.1-.25,1.15-.25,1.25-.2,1.3-.15,1.35-.15,1.4-.1,1.45-.1,1.5V249l0,1.6.1,1.65.2,1.7.2,1.7.35,1.75.4,1.75L324,261l.55,1.85.7,1.85.75,1.85.9,1.85a1.46,1.46,0,0,0,1.25.85s14.3-28.14,3.8-25.64c0,0,18.89-15.09,3.35-17.59Zm89.85.29c-6.07-.47-13.83,13.95-13.83,13.95-6.29-2.1-5.44,11.35-5.44,11.35-4.2,1.25-3.4,13.44,2.1,8.84s15.09-19.34,15.09-19.34l1.7.85c-7.6,24.79-32.79,33.59-31.49,33.59h1.3l.15,0H396l.4-.05h.95l.45-.05h.5l.95-.05h.5l.45-.05h.9l.45,0h.8l.35-.05h.9l.1-.05h.55c5.45-13.45,15.14-9.65,15.14-9.65,0-2.15,3.75-5.9,3.75-5.9,5.05-5.44.45-6.74.45-6.74s6.25-5.45,7.55-9.65-2.1-13.84-2.1-13.84c-1.11-2.06-2.42-3-3.82-3.06Zm-215.48.91c-12.66-.13-7.92,10.09-7.92,10.09-1.3-.4-3.8,3.4-3.8,3.4-7.15,13.85,15.54,20.59,15.54,20.59-15.14-16.39-5-26-5-26l-.15-.3-.15-.3-.1-.3-.15-.25-.1-.25,0-.3-.1-.25,0-.25-.05-.2,0-.25-.05-.25v-.2l-.05-.2v-.65l.05-.2v-.15l.05-.2,0-.15.05-.2,0-.15.05-.14.05-.16.1-.14,0-.15.1-.16,0-.14.2-.26.2-.24.2-.2.2-.2.2-.2.25-.15.2-.16.2-.14.2-.1.2-.1.2-.1.15-.05.15-.1h0l.05-.05h.1l.05,0H211c-.44,0-.87-.05-1.27-.05Zm-14.06.31c-4.17-.09-16.44,1.67-28.75,22.83v.1l.05,0v.1l0,.1.05.1.05.15,0,.1.05.15,0,.2.1.15,0,.2.1.15.05.2.1.2.2.45.25.4.2.4.3.45.25.4.15.15.15.2.2.2.15.15.15.15.2.15.15.1.2.15.2.1.2.1.2,0,.2.05.2,0h.65l.25,0,.2-.1.25-.1.25-.1.25-.15.25-.2.25-.2.25-.25.25-.25.3-.3.1-.15.15-.2.15-.15.1-.2.15-.2.15-.2.15-.2.15-.25.1-.2.15-.25.15-.25.15-.3.15-.25.15-.3.15-.25.15-.35.15-.3.15-.3.15-.35.15-.35.15-.35.15-.35.15-.4.2-.4s12.59,3.4,8.39-13.4c0,0,5.85-6.74,10.9-6.74a8.24,8.24,0,0,0-1.49-.14Zm120.05,2.21c-4.44,0-3.05,16.42-3.05,16.42-10.1,4.6,8,13.45,8,13.45l-.46-.95-.4-.95-.34-1-.31-1.05-.25-1-.19-1.05-.21-1.1-.1-1.15-.09-1.1-.1-1.1-.06-1.15v-2.2l.06-1.1.05-1,0-1.05.09-1.05.1-1,.11-.95.15-.9.09-.85.1-.8.16-.75.09-.7.15-.65.11-.55.09-.5.05-.2v-.2l.05-.15.05-.15V233l.05-.11v-.1l0-.05v0c-1.73-2.12-3.06-3-4.09-3Zm-118.16.88Zm0,0c-3.78,0-6.7,5-6.7,5,3.35,4.2-2.5,13.85-2.5,13.85l-2.95,1.25c2.5,4.4,13.85,7.6,13.85,7.6-14.7-14.75-.85-21.85-.85-21.85l-.15-.1-.15-.15-.1-.1-.15-.1-.1-.1-.15-.1-.1-.1-.1-.15-.1-.1-.05-.1-.1-.15-.05-.1,0-.1-.1-.15,0-.1-.05-.15v-.1l0-.1-.05-.15v-.1l-.05-.15v-.1l0-.25v-.25l0-.25V233l.05-.25.05-.2,0-.25.05-.2,0-.2.05-.2.1-.15.05-.2.1-.15.05-.09,0-.16.05-.05v0l0-.05v-.05l.05,0,.05-.05v0Zm-74.68,3c-1.79-.07-3.54.92-4.69,4.1,0,0-13-4-12.8,3.35l.1,0,.1.05.15,0,.25.1.25.1.25.15.35.1.35.15.4.2.45.2.5.2,1,.4,1.15.5,1.3.55,1.4.55,1.5.6,1.6.6,1.65.65,1.75.7,1.8.65,1.8.7,1.89.7,1.9.65,3.9,1.35,3.85,1.3,1.9.6,1.9.55,1.85.55,1.8.45,1.75.45,1.65.4,1.6.3,1.55.25,1.4.2,1.34.1s.8-10.05-5.89-10.05c0,0-5.9-12.6-16-8.4,0,0-3.61-4-7-4.1Zm131.76,4.68a7.52,7.52,0,0,0-2,.27s-2.5,5.85-10.89,5v0h.6l.3.05h.4l.4,0,.49.1.5,0,.6.15.6.1.65.2.7.2.7.2.75.25.75.3.8.35.75.35.8.45.8.45.85.55.8.55.8.6.75.7.8.75.75.8.35.4.4.45.35.45.35.5.35.5.35.5.3.5.35.55.3.6.3.55.3.6.25.65c5.9,13.39-8.4-16-28.54-6.75,0,0,5.05,2.5-5,8.4,0,0,18.89,4.72,17-1,1.21,2.86,7.28,15.91,14,6.92,0,0,18.49,5.05,11.75-7.54,0,0,10.09-10.95-15.1-13.5,0,0,3.21-5.13-.5-5.27Zm100.87,1.12-1.25,2.9v0l-.05.05v.1l-.05.05-.05.1v.1l-.05.1,0,.1-.05.1-.05.15-.05.15-.05.15-.1.3-.1.35-.1.4-.15.4-.1.45-.05.45-.1.5-.05.45,0,.5-.05.5v1l.05.5.1.5.05.25.05.25.05.25.1.25.1.25.1.25.1.25.1.2.15.25.15.25.15.2.15.2.2.2.2.25.2.15.2.2.25.2.25.15.25.2.24.15.31.15.3.15,3.39.85s-6.29,6.94,6.3,13c0,0-6.3,5.05,3.35,9.25,0,0,2.1-16.8-14.29-38.19Zm-250.31,3.35c-4.2,6.7,10.49,10.05,10.49,10.05-5.89,7.59,11.75,6.74,11.75,6.74-2.5,10.9,19.34-.85,19.34-.85l-1.55-.35-1.5-.35-1.44-.4-1.4-.35-1.4-.35-1.35-.4-1.35-.34-1.25-.35-2.5-.75-2.35-.7-2.25-.7-2.1-.7-2-.7-1.9-.7-1.75-.65-1.6-.65-1.55-.65-1.44-.6-1.31-.6-1.24-.6-1.1-.55-1-.55-1-.5-.85-.45-.75-.45-.7-.4-.6-.4-.55-.35-.45-.35-.4-.25-.3-.25-.3-.2-.15-.15-.15-.1-.1-.1Zm57.48,3.75v.1l.05.1A1.46,1.46,0,0,1,162.64,246.53Zm186.13,5.9-4.65,1.7c-5.85,4.6,4.2,9.64,4.2,9.64-7.55,4.6,7.15,10.9,7.15,10.9-5,1.7,4.19,9.7,4.19,9.7l.1-1.05.05-1,.05-1,.05-1v-1.9l-.05-.9-.05-.95-.15-1.75-.2-1.7-.29-1.6-.31-1.55-.4-1.5-.39-1.4-.45-1.35-.5-1.25-.51-1.2-.49-1.15-.55-1.05L355,260l-.6-.9-.55-.9-.55-.8-.55-.74-.55-.7-.5-.65-.5-.55-.45-.5-.45-.45-.4-.35-.35-.35-.25-.25-.25-.2-.2-.15-.1-.05v0Zm-52.19,4c-2.76,0-4.86,1.4-4.54,5.65,0,0-16.4-1.25-12.2,9.65,0,0-13.39,6.35-4.6,13.5,0,0-2.5,8.34,6.75,3.74,0,0,10.5,4.6,12.6-6.69,0,0,9.64,2.94,12.14-5.9,0,0,.45,5.9,17.24-3.8h0l-.05-.05-.1,0-.1-.05-.15-.1-.2-.1-.25-.1-.25-.15-.6-.25-.75-.35-.85-.35-.95-.35-1.1-.4-1.15-.35-1.25-.35-1.35-.3-1.45-.25-1.5-.25-1.55-.15-1.65-.1H307l-1.75.1-1.74.2-1.85.3-1.85.45-1,.25-.95.3-.95.35-1,.35-.95.4-.95.5-1,.45-1,.55-1,.6-.95.65-1,.65-.95.75-1,.75-.95.85-1,.9-.95.9-1,1-.95,1.05-.95,1.09-.95,1.15-.95,1.25-1,1.31-.4-2.1s13-26.44,39-17.25c0,0-6.15-14.54-9.65-6.3,0,0-6.4-3.61-11-3.55Zm134.35,3.06c-5,.18-10.34,10.19-10.34,10.19-9.25-4.65-12.2,5.85-12.2,5.85,16.4.85,23.55-5.45,23.55-5.45l7.54-1.7c-16.39,15.15-38.23,10.95-38.23,10.95s21.84,14.69,21.44,5.45c0,0,18.44-.85,14.24-7.15H437v-.05h0l.05-.05.05,0,.05-.05.1-.1.1-.1.15-.15.15-.15.2-.2.15-.2.2-.2.25-.2.2-.25.2-.25.25-.3.25-.25.25-.3.2-.3.25-.3.25-.35.2-.3.25-.35.2-.35.25-.35.2-.35.15-.35.2-.35.15-.35.15-.35.15-.35.1-.35.1-.35,1.65-2.15.45-3.35c-.85-5.44-9.65-2.1-9.65-2.1-1.2-1.92-2.56-2.64-3.95-2.59Zm-305.81,5.24a6.91,6.91,0,0,0-2.53.75c-12.19,1-12.19,11.35-12.19,11.35-7.8,7.74-3.35,11.29-3.35,11.29,3,2.35,7.15-3.55,7.15-3.55a9.42,9.42,0,0,0,11.94-1.7c5.25,0,5.25-4.39,5.25-4.39.4-5.45,13.64-10.5,12.4-10.5a2.48,2.48,0,0,0-1.9.85c-9.85,3.55-1.9-1.9-1.9-1.9l-5.45.6c-10.9,1.5-26,18.74-26,18.74l.35-.8.4-.79.35-.75.4-.75.75-1.4.8-1.3.8-1.3.8-1.15.8-1.1.8-1.05.8-1,.8-.9.8-.8.8-.8.79-.75.75-.65.75-.6.7-.55.7-.5.7-.5.65-.4.6-.35.6-.35.55-.25.5-.25.45-.25.45-.15.35-.15.35-.15.25-.1.25-.05.15-.05h.1v-.05h0a2.25,2.25,0,0,0-2.47-1.55Zm100.53,2.06c-.41,0-2.05,3.29-2.05,3.29l1.5-.52c.59-1.95.73-2.77.55-2.77Zm-.55,2.77c-.2.63-.38,1.25-.7,2.17-3.34,10.1,14.3,12.2,14.3,12.2-4.6,5.49,10.5,16.79,10.5,16.79-7.15-7.95-5.85-16.34-5.85-16.34l2.05-.45c.45,10.49,13.89,23.14,13.89,23.14a39.28,39.28,0,0,0-10.94-23.14l.05-.55,0-.5.05-.5v-1l-.05-.45v-.45l0-.4-.05-.4,0-.4-.1-.4,0-.35-.1-.35-.1-.35-.1-.3-.15-.35-.1-.25-.15-.3-.15-.3-.15-.25-.15-.25-.15-.2-.15-.25-.2-.2-.15-.2-.2-.2-.15-.15-.2-.2-.35-.3-.4-.3-.4-.2-.35-.2-.4-.2-.35-.15-.4-.1-.35-.15-.3-.05-.35,0-.25-.05-.3-.05h-.2l-.2-.05h-.4c-4.6.45-8.8-5.45-8.8-5.45l-6.9,2.43Zm-65-2.17a7.49,7.49,0,0,0-2.91,1.19C143.78,271.72,124,298.41,124,298.41c-2.1.65-.65-1.9-.65-1.9h0v-.05h0v0l.05-.1,0-.05.1-.1,0-.1.05-.1.1-.1.1-.1.05-.15.1-.1.1-.15.1-.15.25-.3.25-.35.25-.35.25-.35.25-.35.3-.4.55-.8.6-.75.25-.4.3-.4.25-.35.25-.35.25-.3.2-.35.1-.1.1-.15.1-.15.1-.1.1-.15.05-.1.1-.1.05-.1,0,0,.05-.1,0-.05.05-.05v0h.05v-.05a1.53,1.53,0,0,0,.25-1.85c-.8-1.35-4.85,1.65-4.85,1.65-5.9,1.7-4.45,10.5-4.45,10.5,1.9,7.15,8.65-.2,8.65-.2,4.2,4,7.75-2.75,7.75-2.75,14.94.65,10.49-10.7,10.49-10.7,13.45-.85,9.9-11.54,9.9-11.54,5.05,1.45,4-4.2,4-4.2.15-1.28-.38-1.66-1.09-1.64Zm184.52,6.19c-2.85,2.35-7.94,14.29-5.1,13.49,4.2-1.25,4.2-3.89,6.15-4.24l.15-.05H346l.1-.06.15,0,.15-.05.15-.05.2-.05.15,0,.15-.05.15-.1.2-.05.15-.1.3-.15.35-.15.15-.1.15-.1.15-.1.15-.1.15-.1.15-.1.15-.1.15-.15.1-.1.1-.1.15-.1.1-.15.05-.1.1-.1.05-.15.1-.1c.35-.75-1.85-3.8-5.5-6.55Zm-18.59,1.55a54.12,54.12,0,0,1-24.79,11.35h0l-.05,0-.1.05-.1.05-.1.05-.15.1-.2.06-.2.09-.2.1-.2.15-.25.1-.25.15-.25.15-.3.15-.3.2-.6.35-.7.4-.7.4-.7.45-.75.45-.75.5-.8.5-.75.5-.75.55-.75.55-.7.55-.7.6-.65.55-.6.6-.55.55-.25.3-.25.3-.2.3-.2.3-.2.25-.2.3-.15.25-.09.3-.11.3-.1.25-.05.25-.05.3v.5l.05.25.05.25.1.25.11.25s8-2.55,8.79,7.55c0,0,4.65-6.3,4.65-11.35,0,0,5.45,5.45,8.8-4.2,0,0,16,.85,10.94-7.94,0,0,6.3-4.2,6.3-9.25Zm-155.84,3.15S144.44,302,142.54,307.06H141s2.35-5.7,6.3-8.2c0,0-5.25.8-5.85.8h-.6l-.15,0H140l-.3.05h-.3l-.3.05-.35.05-.35.05-.35.1-.3.05-.35.1-.35.1-.3.1-.3.15-.15.05-.15.1-.15,0-.15.1-.1.1-.15.1-.1.1-.15.1-.1.1-.1.1,0,.1-.1.1-.1.15,0,.1-.05.15,0,.15-.05.15v.15l-.05.15v.3l.05.2v.15l.05.2,1.9.4s-3.35,2.75-.65,5.5c0,0,7.4,3.95,13.44-.85,0,0,2.28-3.33.44-4.56,2.16,1,9.56,4.11,10.11.36a7.49,7.49,0,0,0-1.1-5.25s7.35-3.8,6.75-10.75c0,0,6.1-9.44,4.6-10Zm19.14,4.65-.4.05-.35,0-.35.05-.25.15-.15.15-.15.2-.05.25v.3l.1.3.1.4.25.45.3.45.35.49.25.3.2.31.25.29.3.3.3.35.35.35s-1.7,5.9,7.55,4.2c0,0-8.4,8.4,24.34,3.4v0l-.1-.05-.2-.05-.2-.1-.3-.15-.3-.15-.4-.2-.45-.2-.5-.25-.5-.25-.6-.25-.6-.3-.65-.3-.7-.35-.75-.35-.75-.3-.75-.4-.85-.35-.8-.4-.85-.35-1.8-.8-1.8-.8-1.85-.8-1.9-.8-1.85-.75-1.84-.7-1.8-.69-.9-.35-.85-.3-.85-.31-.85-.24-.75-.25-.8-.26-.75-.19-.7-.2-.65-.15-.65-.15-.6-.1-.55-.05-.5,0-.45-.05Zm-8.2.15v.05h0v.05l-.05.1-.1.1-.05.1-.2.35-.2.4-.25.44-.3.56-.3.59-.3.7-.35.8-.4.8-.35.9-.35.95-.35,1-.35,1.1-.35,1.1-.34,1.15-.31,1.25-.25,1.25-.24,1.3-.21,1.35-.19,1.35-.11,1.4-.1,1.45v1.45l0,1.5.11,1.5.19,1.5.26,1.55.29,1.54.45,1.55.5,1.6s5.85-1.69,3.35-6.74c0,0,12.6,0,1.7-10.9,0,0,5-3.35.8-9.25l-1.65-5.89Zm172.14,2.55v.05l-.05.05-.1,0-.05.05-.1.1-.1.11-.15.09-.1.1-.15.15-.15.11-.4.29-.35.3-.45.35-.5.35-.5.4-.6.4-.6.4-.6.4-.65.4-.7.4-.7.4-.75.4-.75.4-.8.35-.75.3-.85.35-.8.25-.85.25-.8.2-.85.2-.85.1-.85.1h-.85l-.85,0h-.4l-.45-.05-.4-.1-.4-.1c-8.84-2.1,21,15.55,18.45-1.25,0,0,9.24-.4.85-6.29Zm56.78,1.24c6.7,10.5,7.55,7.15,7.55,7.15,1.24,8.8,7.14,8.4,7.14,8.4-2.55,15.94,4.2,14.29,4.2,14.29,4.2.8,2.1-6.29,2.1-6.29l-.5-1.65-.6-1.55-.6-1.45-.65-1.45L428,303l-.75-1.3-.8-1.2-.8-1.2-.85-1.1-.85-1.05-.9-1-.85-.9-.9-.9-.9-.8-.9-.8-.85-.7-.84-.65-.85-.6-.8-.6-.8-.5-.75-.45-.7-.45-.7-.35-.6-.35-.55-.3-.5-.25-.45-.2-.4-.15-.3-.15-.2-.05-.05,0-.1,0Zm-22.13.92c-.17,0-.23.09-.16.34.85,2.94,2.54,10.09,2.54,10.09,0,12.2,3.75,38.64,3.75,38.64s1.9,5.1-1.65-.4l-.25-.45-.25-.4-.5-1-.45-1-.4-1.1-.44-1.2-.35-1.3-.4-1.3-.31-1.4-.35-1.4-.29-1.5-.3-1.45-.25-1.5-.45-3.05-.25-1.5-.15-1.49-.2-1.46-.15-1.39-.15-1.4-.15-1.35-.1-1.25-.1-1.25-.1-1.1-.1-1.1-.05-.95-.05-.45,0-.4v-.4l-.05-.35v-.65l-.05-.25v-.75l-.05-.1v-.1S383.6,286,382,289.42a12.92,12.92,0,0,1-4.65,5c-5.45,9.25,2.5,11.75,2.5,11.75-9.9,21.79,2.55,18.49,2.55,18.49-4.2,10.1,3.35,18.89,3.35,18.89,4.64,2.55,4.19-6.29,4.19-6.29a19.38,19.38,0,0,0,3.8,5.49c5.85,5.8,5.45-10.49,5.45-10.49,8-3.4-.85-15.55-.85-15.55,8.85-.84-3.75-16.39-3.75-16.39s1.65,0,1.25-3.35c-.39-3-6.64-9-7.83-9.18ZM407,289c-2.75-.15-4,3.75-4,3.75,16.79,16.35,14.24,31.89,14.24,31.89l-1.24,1.7-.15-1.85-.3-1.8-.3-1.75-.4-1.7-.45-1.65-.5-1.65-.55-1.6-.6-1.5-.65-1.49-.65-1.45-.65-1.4-.7-1.35-.7-1.25-.75-1.25-.75-1.2-.7-1.1-.75-1.05-.7-1-.7-.95-.7-.9-.65-.8-.6-.75-.6-.7-.55-.65-.5-.55-.45-.45-.4-.45-.35-.3-.25-.3-.2-.2-.05-.05-.05-.05-.05,0h0c5.85,30.69,7.1,22.29,7.1,22.29-2.5,12.15,4.2,7.1,4.2,7.1-.8,6.3,4.65,6.3,4.65,6.3,5.84-.8,4.19-20.14,4.19-20.14,2.5-9.25-7.14-10.5-7.14-10.5a7.56,7.56,0,0,0-1.7-6.7c-1.54-1.77-2.83-2.44-3.91-2.5Zm15.25.8,10.5,14.7.85-1.25c.85-5.05-2.5-3.35-2.5-3.35l1.25-3.4-.05-.3-.1-.35-.05-.35-.1-.3-.1-.3-.15-.3-.1-.25-.15-.3-.15-.25-.15-.25-.15-.25-.15-.2-.15-.25-.2-.2-.15-.2-.2-.15-.2-.2-.2-.15-.2-.2-.2-.15-.4-.3-.45-.25-.45-.2-.45-.2-.4-.2-.45-.15-.45-.1-.45-.1-.4-.1-.45-.05-.4,0-.35-.05-.35-.05h-1.75Zm-249.46,5.05h0Zm0,0-5.89,9.24c-8.4,10.9.85,10.05.85,10.05-1.7,8.39,5.89,3.34,5.89,3.34l-.3-.79-.3-.8-.2-.9-.2-.85-.2-.9-.15-.95-.1-.9-.1-1-.1-.95-.05-.95,0-.95v-3.7l0-.85.05-.85.05-.85,0-.8.05-.75.1-.7.05-.7.1-.6,0-.6.05-.5.1-.5.05-.4v-.15l0-.2v-.1l.05-.15V295l.05,0v0Zm-47.88,9.84-1.9,1.7a2.12,2.12,0,0,0,1.9,2.5c2.3.44-.85,4-.85,4-6.5,3.8-.65,11.35-.65,11.35,8.85,1.45,11.8-5.45,11.8-5.45.6-1.7,2.7.4,2.7.4,1.9-1.7,1.9-6.1,1.9-6.1-7.55-.39-6.3-3.34-6.3-3.34-3.35,1.5-8.2,10.09-8.2,10.09L124,319c-.65-2.1,3.35-6.95,3.35-6.95,4.4-5,.85-4.19.85-4.19l-.15-.1-.15-.1-.35-.3-.3-.25-.3-.25-.3-.3-.1-.1-.15-.15-.15-.1-.1-.15L126,306l-.1-.15-.15-.1-.1-.1-.1-.15-.1-.1-.1-.1-.1-.05-.05-.1-.1-.1,0-.05,0,0-.05-.05,0-.05,0-.05v-.05Zm81.87,3.2-.2,0h-.15l-.15.05-.15.05h-.2l-.15.1-.15,0-.3.1-.35.15-.25.15-.3.2-.3.15-.25.15-.1.1-.1.1-.15.05-.1.1-.1.05-.05.1-.1.05,0,0-.1.05,0,.05-.05.05,0,.05h-.05v0s0-.4-1.3,2.55a8.75,8.75,0,0,0-.2,5.84,7,7,0,0,0-7.14,1.3c-4.85,4.2,4.19,10.25,4.19,10.25,3.15-9.65,11.35-16.8,11.35-16.8v-1l-.05-.16v-.4l0-.14v-.21l-.05-.29-.05-.3-.1-.3,0-.25-.1-.25-.1-.25,0-.2-.15-.2-.1-.15-.1-.2-.1-.15-.15-.1-.1-.1-.15-.15-.15-.05-.15-.1-.15-.05-.15-.05-.15-.05h-.15l-.15,0h-.45Zm-47.43,1.2v.05h-.1l0,0-.05.05,0,.05-.1.1-.1,0-.2.2-.25.25-.25.3-.3.3-.35.35-.3.4-.35.45-.35.5-.35.49-.35.56-.3.59-.3.66-.3.64-.25.7-.2.75-.2.75-.15.85,0,.4-.05.45-.05.4v1.35l.05.5.05.45,0,.5.1.5.1.5.1.5.15.55.15.5.2.55.2.55.2.55.25.55.25.55.3.6.3.55.35.6s9.25-4.2,5.05-9.25c0,0,3.35-1.7-2.5-10.94Zm56.31,1.39a2.85,2.85,0,0,0-1.48.76c-25,32.28-25.24,53.33-25.24,53.33,3.8.6,4.65-5.9,4.65-5.9,6.29.2,8.79-9.85,8.79-9.85,8.6,4.2,8.85-9.89,8.85-9.89l-.35-.2-.25-.25-.25-.3-.25-.3-.2-.3-.2-.3-.15-.4-.15-.35-.1-.4-.1-.4-.05-.45,0-.45v-.45l-.05-.45.05-.5V333l.1-1,.2-1.1.2-1.1.25-1.1.35-1.15.3-1.15.4-1.15.4-1.15.45-1.1.45-1.15.45-1.05.45-1.05.45-1,.45-.95.4-.9.4-.85.2-.4.2-.35.2-.35.15-.34.15-.31.15-.3.15-.25.15-.25.1-.25.1-.14.1-.21,0-.1.05-.14.05-.05,0-.05h0c0-1.58-.48-2-1-2Zm4.17,2.41c-6.3,6.29-6.75,19.34-6.75,19.34,5.05,20.54-6.7,21.39-6.7,21.39-5.9,5.05.85,21.44.85,21.44,7.1,0,6.7-9.24,6.7-9.24,5.5-2.1,3-16.4,3-16.4,12.19-5.05,3.35-21,3.35-21l.35-.1.25-.15.3-.15.25-.15.25-.15.25-.15.2-.15.2-.15.2-.2.2-.15.15-.2.15-.2.15-.2.1-.2.15-.2.1-.2.1-.2.09-.2,0-.25.11-.2.05-.2,0-.25.05-.2v-.2l0-.45.05-.45v-.45l-.05-.45,0-.4-.05-.45-.1-.4-.11-.4-.1-.35-.09-.35-.1-.35-.11-.3-.09-.3-.05-.1,0-.15-.05-.1-.05-.1,0-.1-.06-.1-.05-.1v-.05l0,0v-.05l-.05-.05V318l-2.95-5Zm-74.38,1.25c-5,.25-4.6,8-4.6,8-.65,1.45,4.85,5.45,4.85,5.45-1.25.2-2.75,4.2-2.75,4.2,0,2.55.2,5.25,3.35,6.1,0,0-2.7,5.25,2.75,7.14a6.15,6.15,0,0,0,5.45-5.24s-1.9-2.75-3.35-1.25v-.05l.05-.05v-.05l0-.1v-.1l.05-.1.05-.15,0-.15.05-.15,0-.15.05-.2.05-.2.1-.2,0-.2.05-.25.1-.25.05-.25.15-.5.15-.55.15-.55.15-.6.1-.6.15-.6.1-.65.1-.6.1-.6,0-.55v-1.9l0-.25-.05-.25-.05-.2,0-.2-.05-.2-.1-.2-.1-.15-.1-.15-.1-.15-.1-.15-.15-.1-.15-.1-.15-.1-.2-.05-.15-.05-.2-.05h-.45l-.25.05h0l-.6.2c3.15-10.1-4.65-12-4.65-12Zm200.7,2.09h-2l.05.05h0l.2.15.35.3.5.35.55.45.75.55.8.6.9.75,1,.85,1.1.9,1.15,1,1.25,1.1,1.3,1.2,1.4,1.25,1.4,1.35,1.45,1.45,1.5,1.5,1.5,1.6,1.55,1.7,1.6,1.75,1.55,1.8,1.59,2,1.55,1.95,1.55,2,1.55,2.1,1.5,2.2,1.5,2.25,1.45,2.35,1.4,2.35,1.35,2.45,1.25,2.5,1.25,2.6s2.65-1.35-1.3-8c0,0,6.75-8.4-3.75-12.15,0,0,2.9-16-14.29-15.54,0,0,3.56-9.48-16.48-9.7ZM177,318.15l-.05.1,0,.2-.05.3-.1.5-.15.55-.15.7-.15.85-.2.9-.15,1.05-.25,1.15-.2,1.2-.2,1.35-.2,1.45-.25,1.5-.2,1.6-.2,1.7-.2,1.75-.2,1.85-.15,1.95-.15,1.95-.15,2-.1,2.1-.1,2.15-.05,2.2v4.55l.05,2.35,0,2.4.15,2.4.15,2.45.25,2.45.25,2.5-1.05-.61s-2.75-5.69-2.5-9.89c0,0,1.65-20.79-6.94-13.65a4.06,4.06,0,0,1,3.34,5.25s-.85,6.1-3.34,8.6c0,0-3.35,5,4.19,5,0,0,1.7,10.74,7.15,10.94a7.22,7.22,0,0,0,3.8-6.09s10-3.55,3.75-17.25c0,0,9.44,0,5.45-5,0,0-9-13.64-7.55-19.74,0,0,2.55-2.35-3.55-7.8Zm52.88,1.05c.45,8.85-3.75,10.5-3.75,10.5,3.75,13.84-5,21.44-5,21.44,2.95,9.25-4.59,17.65-4.59,17.65,8.79,0,6.69-8.85,6.69-8.85,10.1,6.74,9.25-12.6,9.25-12.6,12.59.4-1.7-15.94-1.7-15.94h.5l.2,0,.2-.05.2-.05.15-.05.15-.1.15-.1.1-.15.15-.1.1-.15.05-.2.1-.15.05-.2,0-.2.05-.2v-.2l0-.25v-.7l0-.25V328l-.05-.3-.1-.55-.1-.55-.15-.55-.15-.6-.2-.6-.15-.55-.2-.55-.2-.6-.25-.5-.2-.55-.2-.5-.1-.2-.1-.25-.05-.2-.1-.2-.1-.2-.1-.2-.05-.15-.1-.15-.05-.15,0-.15-.1-.15-.05-.1v-.1l-.05,0,0-.05v-.05l-.05-.05Zm111.76,4.65v.2l-.05.15v.45l-.05.3v.3l-.05.35v.45l0,.9-.1,1.05-.05,1.2-.1,1.3-.1,1.4-.1,1.55-.1,1.65-.1,1.7-.05,1.79-.1,1.9-.1,1.9-.1,2-.05,2.05-.1,2.1-.05,2.1-.15,4.3-.05,4.35v6.34l.05,2.1v2l.1,2,0,1.9.15,1.85s7.15-6.3,4.6-9.65c0,0,10.94-1.69,2.1-14.29,0,0,10.49-4.6-2.5-14.7,0,0,7.54-2.49-2.95-13Zm6.7.8c6.34,10.1,2.55,13.05,2.55,13.05,8.39,10,2.09,15.54,2.09,15.54,1.25,7.15,10.9,1.65,10.9,1.65-3.75,10.95,9.7,8,9.7,8,4.59,6.29,7.09,1.69,7.09,1.69l-.25-.49-.3-.5-.3-.5-.35-.55-.75-1.2-.89-1.25-1-1.35-1-1.45-1.1-1.5-1.2-1.55-1.25-1.55L370.9,351l-1.3-1.65-1.4-1.7-2.8-3.35L362.6,341l-1.4-1.65-1.35-1.55-1.35-1.55-1.3-1.5-1.2-1.4L354.8,332l-1.1-1.3-1.05-1.15-.95-1.05-.39-.5-.45-.45-.35-.45-.35-.4-.36-.4-.29-.3-.25-.3-.25-.25-.2-.25-.2-.2-.1-.15-.1-.1-.05-.05-.05-.05Zm-10.1,4.65v.05l0,0h-.05v.05l-.1.1-.05.05,0,.1-.1.05-.05.1-.1.1-.1.15-.1.1-.1.1-.1.15-.25.25-.25.3-.25.35-.25.3L336,332l-.25.35-.25.4-.25.35-.25.4-.25.4-.2.4-.2.4-.15.35-.2.4-.05.2,0,.2-.05.15-.05.2-.05.2v.15l-.05.2v.45l.05.2v.15l.05.15.05.1.1.15.05.15.1.1.1.1.1.15.15.09,1.7,2.1s-13.05,11.75-6.35,14.25c0,0-3.75,12.59,2.95,10.55,0,0-2.1,9.19,4.2,8.39,0,0-2.5-27.74,1.3-44.53Zm-178.88,5.05s-4.2,12.59-.85,18.44l-3.35-5.05v.05H155l0,0h-.05l-.1.05h-.05l-.1.05,0,.05-.1.05-.1,0-.1.05-.25.1-.2.1-.25.15-.25.15-.25.2-.25.15-.25.2-.2.25-.1.1-.1.1-.1.15-.1.1-.1.15,0,.1-.1.15,0,.15-.05.15,0,.15-.05.15V351l-.05.15v.3l.05.2v.15l.05.2,0,.15.05.2.1.15.1.2.1.2.1.2.15.2.15.2.15.2.2.25.2.2.25.2.25.25.25.2.3.25.3.25s.85,8.4,6.7,4.2c0,0-5-15.15,2.54-25.19Zm42.43,24.54h0l-.05.05h0l-.05.05-.1.05-.05,0h-.1l-.1.05-.05.05-.1.1-.15,0-.1.05-.1.1-.15.05-.25.15-.25.2-.25.2-.3.2-.25.25-.25.25-.25.25-.25.25-.1.15-.15.1-.1.15-.1.15L198,362l-.1.15-.1.15-.05.15,0,.2-.05.15,0,.15-.05.15v.7l.05.15v.2l.1.15,0,.2.1.15,0,.2.15.15.1.2.15.2.15.15.2.2.2.2.2.15.25.2.25.2.3.2s-3.15,9.84,2.5,8.79c0,0,.65,3.8,2.95,3.15,0,0,.65-2.3-2.3-3.55,0,0,1.45-3.8-2.1-8.19,0,0,3.55-5.65.85-8Z" transform="translate(-1.99 -2.03)"/><path class="cls-8" d="M285.68,23.21l-.9.05-.86.1-.89.2-.85.2-.8.3-.85.35-.8.35-.75.45-.75.45-.75.55-.7.55-.7.6-.7.65-.6.7-.65.7-.6.7-.55.8-.5.75-.5.85-.5.8-.45.85-.4.9-.35.85-.35.9-.3.9-.25.9-.25.9-.2.9-.15.9-.1.9-.1.9c-.6,11.09,5,21.19,15.7,21.74,9.74.55,17.44-10.35,18-19.84.58-11.15-5-21.2-15.65-21.8h-.94Zm-40.09.65-.1.05-.1.1-.1,0-.1.05-.1.1-.1.05-.15,0-.1.1-.15.05-.15.05-.15,0-.15.05-.15.1-.15.05-.15,0-.15.05-.35.1-.35.1-.35.1-.4.1-.4.1-.4.05-.4.1-.4,0-17.59,2.9a12.15,12.15,0,0,1-5.4.05L217,40.86l1.85.15c1.35-5.6,3.35-10.55,9.7-11.6l5.84,35.39-3,1,.3,1.8,13.09-2.15-.3-1.8-3.2,0-5.8-35.39c6.35-1.05,9.8,3,12.85,7.9l1.75-.75-4.45-11.55Zm40.89,1.65.5,0,.54.05.51.1.45.15L289,26l.45.2.45.2.4.25.4.3.4.3.35.35.35.4.35.4.3.45.3.5.3.55.25.55.25.65.25.65.2.7.15.75.2.8.1.85.15.85.1.95.05,1,.1,1v3.4l-.05,1.25,0,1.25c-.7,13.09-5.45,18.29-10.34,18-5.7-.35-9-5.05-8.25-19.09.75-13,5.45-18.25,10.35-18Zm24.29.75-.35,1.8,3,1.1-7.3,34.64L303,63.6h-.05v.2l-.05.05V64l-.05.1v.15l-.05.1v.15l0,.15v.1l-.05.1V65l-.05,0v.15l-.05,0v.15l12.95,2.75.4-1.8-3-1.1,3.64-17.34,3.3.7c3.7.8,4.3,3.64,4,7.59l1.8.4,2.95-14.14-1.75-.4c-1.2,3.15-2.95,5.55-6.6,4.75l-3.3-.7,3.25-15.55a11.58,11.58,0,0,1,3,.15c7.65,1.65,9.5,5.85,11.65,12.75l2.2-.05-.55-12.65a12.06,12.06,0,0,1-5.4-.25l-20.29-4.25ZM209.91,31l-10.7,3.6.55,1.75c2.85-.55,4.5-.45,5.55,2.6l7.14,21.29h-.1L185.66,39.11l-9.94,3.4.6,1.7A5.28,5.28,0,0,1,182.67,48l8.09,23.94a5.21,5.21,0,0,1-2.85,6.75l.55,1.74,11.6-3.89-.6-1.75c-2.6.6-5.15-.1-6.15-3l-8-23.84h.1L216.25,72l2.55-.85L207.91,38.76a4.56,4.56,0,0,1,2.6-6l-.6-1.75Zm149.19,7.7-.75,1.7,2.7,1.7L346.76,74.45l-3.05-.85L343,75.3l20.14,8.84.35.2.4.15.35.2.35.15.35.2.35.2.3.2.15.1.15,0,.15.1.15.1.15.1.1.1.15.1.1.1.1,0,.15.1.1.1.1.1.1.1.1.1.05.05.1.1.1.1.05.1,7.85-10.64-1.8-1.3c-5.65,5.1-10.45,7-18,3.7a8.48,8.48,0,0,1-2.5-1.6l7.39-16.7,2.1.9c3.6,1.6,4.15,3.85,3.15,8.4l1.7.75,5.9-13.4-1.65-.75c-2.7,3.85-4.75,4.9-8.35,3.35l-2.1-.95,6.15-14a7.5,7.5,0,0,1,2.85.75c7.7,3.4,9.3,7.14,9.4,14.39l2.15.45L384,48.76a13,13,0,0,1-5.19-1.35L359.1,38.66ZM164.88,46.81a12.49,12.49,0,0,1-4.3,3.29l-19,10.2.85,1.6,3-1L162.18,92l-2.55,1.9.85,1.6,19.39-10.4.35-.2.4-.2.35-.15.35-.15.35-.2.35-.1.35-.15.15,0,.2-.1.15,0,.15-.05.15,0,.15,0,.15,0h.15l.15,0,.15-.05h.15l.15,0h.25l.1,0h.35l-3.55-12.74-2.1.6c.5,7.64-.9,12.59-8.2,16.54a8.43,8.43,0,0,1-2.8.95l-8.59-16.09,2-1.1c3.49-1.85,5.59-.9,8.54,2.7l1.6-.9-6.9-12.9-1.6.9c1.35,4.45,1,6.75-2.54,8.6l-2,1.1-7.2-13.5a8,8,0,0,1,2.3-1.8c7.45-3.94,11.34-2.89,17.14,1.45l1.65-1.4-7.8-9ZM394,54.65l-1,1.55,0,0,.05,0,.05.05h.05v0h.05l0,.05.05,0,.1.1.1.1.1,0,.1.1.1.1.1.1.25.2.2.2.1.1.1.1.1.1.1,0,.1.1.1.1h0l.05,0v.05h.05l.05,0,.05.05,0,0h.05v0h.05L376.09,88l-2.89-1.35-1,1.55,12.89,8.4c11,7.09,21,.65,26-7s6.8-19.44-4.15-26.59L394,54.65Zm7.2,7.45a13.47,13.47,0,0,1,3.84,1.95c5.5,3.55,7.65,9.2-.29,21.44s-14.05,12.55-19.55,9l-.3-.2-.3-.2-.25-.2-.15-.1-.15-.1-.1-.1-.15-.1-.1,0-.15-.1-.1-.1-.1-.1-.1,0-.1-.1-.1-.1-.1-.1-.1-.05-.1-.1-.1,0-.1-.1,0,0-.1-.1-.05,0-.1-.1-.05,0-.05-.1-.1-.05,0,0-.05-.1-.05,0,19.3-29.69ZM132.08,66.15,124,72.6l7.05,22.49-20.29-12-8.1,6.5,1.15,1.4,2.75-1.6,18,24.29c2.5,3.3,1.55,4.8,0,7.15l.05,0,0,.05v0h0v0h0v0l0,0,.05.05,0,0,0,0,0,.1,0,.05.1.15.1.1,0,.1.05,0,0,0,0,.05,0,.1,0,0,.05,0,0,.05v0h0v0l9.2-7.35-1.1-1.4c-2.55,1.75-4.8,1.6-6.85-1.2L110.79,90.89l.1-.1,24.19,14.34,1.15-.94L127.93,77,128,77l20.5,24.3-2.2,2.3,1.15,1.45,10.44-8.35-1.15-1.4-2.7,1.6-23-27,2.2-2.3-1.15-1.45Zm296,11.4-1.2,1.34,2,2.45-18.14,19.8c-6,6.49-3.55,12.64,2.8,18.44,7.89,7.25,14.39,4.4,19.09-.75l14-15.24c2.09-2.3,4.69-1.9,6.84-.3l1.25-1.35-9-8.3L444.47,95c1.8,2.05,2.39,4.6.3,6.9l-15,16.34c-4.1,4.5-9.49,4.1-13.44.5a9.3,9.3,0,0,1-.45-12.89L434,86l2.6,1.8v0h.05v-.05h.05v0h0v0h.05v0l.05,0,.05-.05.05,0,0,0,.05,0,.05,0,.15-.15.1-.1.05-.1.05,0,0,0,.05,0,.05-.05.05,0,.05,0,0,0v0h.05v-.05h.05l-9.8-8.94ZM94.54,96.69l-.05.1,0,.1V97l0,.1,0,.15,0,.1-.05.15,0,.1-.11.15,0,.15L94,98l-.1.15,0,.15-.1.15-.11.15-.1.1-.19.3-.21.3-.19.35-.25.3-.26.3-.24.3-.25.35-.3.3-11.8,13.34A12.23,12.23,0,0,1,75.7,118l7.4,9.9,1.55-1.05c-2.5-5.2-4.1-10.3.15-15.15l26.9,23.8L110,138.18l1.4,1.2,8.75-9.95-1.35-1.2-2.4,2.05L89.46,106.54c4.25-4.85,9.49-3.85,14.94-2.05l.85-1.65L94.56,96.69Zm362.59,15.9a27.21,27.21,0,0,0-15.86,6c-8.5,6.8-11.8,17-5.4,25l.4.5.45.5.45.45.45.4.5.4.45.4.55.3.5.35.5.3.55.25.55.25.6.25.55.2.6.15.55.2.6.1.6.1.65.1.6.05.6,0,.65.05h.6l.65-.05.65,0,.6-.05.65-.1.65-.1.65-.15.6-.15.65-.2.64-.2.61-.2-.66-1.9c-4.19,1.4-9.34.75-12.19-2.85-5.45-6.85,1-16.24,7.95-21.84,5.29-4.2,13.44-7,17.84-1.55,3.35,4.25,1.2,10.65-1.05,15.74l1.75,1.35,7.95-9.89a14.21,14.21,0,0,1-3.55-2.5,15.56,15.56,0,0,1-1.55-3,16.54,16.54,0,0,0-2.15-3.65,13.81,13.81,0,0,0-11.38-5.09ZM74.05,130.26c-5.06,0-9.11,4.7-12.14,9.46L54,152l1.55,1h0v-.06l0-.05.05-.05,0,0v-.05h.05l0,0v-.05l.1-.1.1-.11,0-.1.1-.09.1-.1.1-.11.2-.24.2-.21.1-.09.05-.1.1-.11.1-.09.1-.1.05-.1,0,0,0-.06.05-.05v0h0v-.05l.05,0h0v-.05h0v0l29.79,19.14-1.3,2.9,1.5,1,7.15-11.15-1.5-1-2.1,2.4-14.7-9.45,2.15-3.3,22.14,2.05L106,145l-1.55-1-2.1,2.4-20.14-1.75c1.8-4.1,1.4-9.9-2.8-12.6a10,10,0,0,0-5.4-1.75Zm-3.63,6.29a8.75,8.75,0,0,1,4.48,1.52c4.6,3,5.5,6.85,1.45,13.14l0,0v.05h0v.05l0,0v.05l0,0v.05l-.05.05-.1.1,0,.1,0,.1-.05.1,0,.1-.15.2-.15.2,0,.1,0,.1-.05.1,0,.05,0,.1,0,.1h0v.05l-.05,0,0,.05v0l0,.05v.05h0l-13.69-8.79c.6-1.15,1.2-2.4,1.8-3.3,1.79-2.79,4.3-4.79,7.36-4.72Zm415.74,7.92-2.2,2.89-30.34,6.4c-3.2.7-4.9.25-7.35-2v0h-.1v.05h-.1v.05H446l0,0h-.05l-.1.05-.05,0,0,.05-.1.05-.15,0-.15.1-.05.05-.1.05-.05,0h-.05l-.1.05-.05,0h-.05v.05h-.1v.05h-.1v0l5.65,9.8,1.6-.9c-.45-1.95-1.2-3.9.55-4.9a8.54,8.54,0,0,1,2.4-.9l5.55-1.2,6.74,11.8L460,174.25l-2.15-2.34-1.6.9L463,184.65l1.6-.9-.94-3.1L490.31,151l-4.15-6.5ZM482,150l.05.1-.05,0-.05.05,0,0-.05.1-.1.1-.15.1-.1.15-.15.15-.15.2-.2.2-.15.2-.2.2-.2.2-.25.25-.2.25-.5.55-.5.55-.55.6-.55.6-.6.65-.6.7-1.25,1.35-1.2,1.3-.6.7-.6.65-.55.6-.55.6-.5.55-.5.55-.25.25-.2.25-.2.2-.2.2-.2.2-.15.2-.15.2-.15.15-.1.15-.15.1-.1.1-.05.1-.1.05v0l0,.05-6-10.45L482,150Zm18.84,20.05L488.66,172l.2,1.89c5.74.15,11,1.11,13.34,7.15L468.71,193.9l-1.6-2.8-1.7.65,4.75,12.39,1.7-.65-.65-3.1,33.44-12.84c2.35,6-.95,10.2-5.1,14.19l1.05,1.55,10.45-6.69-.1,0-.1-.1-.05,0-.1-.1-.1-.1-.1-.1-.05-.1-.1-.15-.1-.1-.1-.1,0-.15-.1-.1-.1-.15-.1-.15-.05-.15-.1-.15-.1-.15-.1-.15-.15-.3-.15-.35-.2-.35-.15-.4-.15-.35-.15-.4-.15-.4h0L502,175.31a13,13,0,0,1-1.1-5.25Zm-456.68,1.8-2.65,7.24,3.64.05,23.3,20.4c2.45,2.19,3.15,3.79,2.8,7.09v.05h.1v.05h.1l.05,0h0l0,.05h.1l.05,0,.1.05h0l.15.1.2.05,0,0h.1l0,.05.05.05h.09l.06,0h.1v.05h.1v0h0L77.4,197l-1.7-.7c-1.25,1.5-2.39,3.25-4.24,2.45a7.7,7.7,0,0,1-2.15-1.35L65,193.65l5.4-12.45,10.64,1-.6,3.15,1.65.75,5.4-12.54-1.65-.7L84,175.4l-39.78-3.55ZM48.46,179h.2l.1.05h.5l.25,0h.2l.25.05h.3l.25,0h.3l.35.05.35.05.7,0,.75.1.8.05.85.1.85.05.9.1,1.8.15,1.85.2.9.1.85.05.85.1.8.05.75.1.7.05.35,0h.3l.35.05.25,0h.3l.25.05h.4l.2.05h.3l.15,0h.2L63.16,192,48.41,179.1l.05-.1Zm-4.59,14.15c-5.78.07-9.56,6.15-11.4,12.79l-3.95,14.3,1.75.5v-.05h.05v-.1l.05-.05v0l.05-.05v-.05l0,0v-.05l.05-.1.05-.1.05-.15.05-.1,0-.15.05-.15.15-.25L31,219l.05-.15.05-.15.1-.1.05-.15.05-.1.05-.1v-.1l.05-.05v0l0-.05v-.1h.05v-.1h0l34.14,9.45-.4,3.14,1.8.5,3.5-12.79-1.75-.5-1.25,3L52,216.29l.7-2.6c2.35-8.4,2.8-17.69-6.25-20.19a9.26,9.26,0,0,0-2.59-.35ZM42,200.44a11.75,11.75,0,0,1,2.77.45c6.2,1.7,7.7,6.7,6.2,12.15l0,.15-.05.2-.1.2-.05.15,0,.2-.1.2,0,.15-.1.2-.1.15,0,.15-.1.2-.1.15v.05l0,.1-.05.05,0,.1-.05.05v0l0,.05,0,0-16.29-4.5a15.46,15.46,0,0,1,.5-3.9c1.3-4.79,4.22-6.94,8-6.8Zm470.3,4.7-1.75.45.3,3.15-34.33,8.65-1.2-2.9h-.15v0H475l-.05.05h-.1l-.05,0h-.15l-.2.05-.15.05h-.1l0,0h-.1l-.05.05h-.15l-.05,0h-.2v.05l3.25,12.84,1.75-.45-.3-3.19,34.28-8.65,1.25,2.95,1.75-.45-3.25-12.85ZM499.6,227.73l-.9.05-.9.1c-11.05,1.35-19.94,8.65-18.64,19.25,1.2,9.69,13.29,15.39,22.74,14.19,11.1-1.35,20-8.65,18.64-19.24l-.1-.9-.25-.9-.25-.85-.3-.8-.4-.8-.4-.8-.5-.75-.5-.7-.55-.7-.65-.65-.6-.65-.7-.6-.7-.55-.75-.55-.79-.5-.8-.5-.85-.45-.85-.4-.85-.4-.9-.35-.9-.3-.9-.3-.9-.24-.95-.21-.95-.19-.9-.1-1-.11-.95-.1H499.6Zm-462.18,3L25.57,232a12.47,12.47,0,0,1,.25,5.35l-2.5,21.44,1.8.25.8-3.1L61.11,260l.1,3.15,1.85.25,2.5-21.89,0-.4.1-.4.05-.4,0-.4.1-.4,0-.35.1-.35.1-.35,0-.15.05-.2,0-.15,0-.15,0-.15,0-.15.05-.1,0-.15,0-.15,0-.1,0-.15.1-.1,0-.1,0-.1,0-.1.1-.1L54.56,232l-.7,2.05c6.55,3.95,9.8,7.95,8.85,16.2a8,8,0,0,1-.75,2.8L43.76,251l.25-2.25c.45-3.95,2.45-5.15,7.1-5.5l.25-1.85-14.54-1.65-.2,1.8c4.39,1.45,6,3.05,5.59,7L42,250.78,26.77,249a8.5,8.5,0,0,1-.15-2.95c1-8.35,4.1-11,11-13.25l-.2-2.15ZM505.31,235c8.44.2,12.49,3.38,13,7.32l.05.55,0,.5,0,.5v.5l-.1.5-.1.5-.1.45-.2.45-.2.45-.25.45-.25.45-.35.4-.35.4-.4.4-.4.4-.5.35-.5.35-.6.35-.6.35-.65.35-.7.3-.75.3-.8.3-.85.25-.9.25-1,.25-1,.25-1,.2-1.14.25-1.15.19-1.2.16-1.3.2c-13,1.54-18.95-2.15-19.55-7-.7-5.7,3.35-9.8,17.3-11.5a46,46,0,0,1,6.56-.37Zm-329.8,16.82,0,0v.05l-.1,0-.1.1,0,0-.1.05-.1.1,0,.05-.06,0h0v.05l-.05,0-.05.05,0,.05v0h-.05v.05l0,0v.15c0,.4.6.75.95,1.15v-2.2Zm306.64,12.39-.5,12.2,1.8.1c.4-2.65,2-4.8,5.1-4.65l25.09,1.1v.15l-33.58,20-.16,2.7,34.09,1.5a4.61,4.61,0,0,1,4.7,4.6l1.85.1.5-11.3-1.85-.1c-.5,2.85-1.2,4.35-4.4,4.25l-22.44-1.05v-.1l29.34-17.29.45-10.45-1.85-.1a5.22,5.22,0,0,1-5.8,4.6l-25.19-1.1a5.3,5.3,0,0,1-5.3-5.1l-1.85-.1ZM44.59,266.45c-.59,0-1.16,0-1.73,0-9,.4-19.74,5.8-19.19,18.84l.7,15.35,1.8-.05v-.05h0v-.45l.06-.15v-.35l.05-.15v-.15l.05-.3v-.45l.05-.15v-.35l0-.15v-.35l.05-.05v-.1h0l35.33-1.5.65,3.1,1.8-.05-.65-15.4c-.56-12.24-10.34-16.92-19.06-17.13Zm187,2.12,0,.05.1.1,0,0,.05.1.1.1.05,0,.1.1v.05l0,.05h.05v0l.05.05h0v.05l.05.05h0v.05h.1l0,0h.1v.05h.05c.35,0,.75-.6,1.1-1ZM45.82,274c12.44,0,15.75,4.57,16,10.7v.4l.06.3v1l-.06.15v.85l-.05.1v.4l0,.1v.25l0,.1v.2l-.05.05v.2l0,.1v.05l-35.44,1.55a13.87,13.87,0,0,1-.6-4.2c-.3-6.54,3-11.59,17.64-12.24q1.36-.06,2.61-.06Zm7.59,50.59-2.95,9.25H40.61v.05l8,5.89-3.1,9.4,0,.05,7.85-5.8,7.84,5.8.05-.05-3-9.4,7.94-5.89v-.05H56.36l-2.85-9.25Zm437.59,0-2.95,9.25H478.2v.05l8,5.89-3.1,9.4,0,.05,7.85-5.8,7.85,5.8.1-.05-3.1-9.4,7.94-5.89v-.05H494l-2.9-9.25ZM82.6,375.08l-1.1.65.85,2-15.44,9.45c-5.1,3.1-4.65,7.54-1.65,12.49,3.79,6.2,8.49,5.55,12.54,3.1l12-7.3c1.77-1.08,3.35-.36,4.5,1a3.5,3.5,0,0,1-1.15,4.6L79.65,411.67a3.46,3.46,0,0,1-4.9-.35l-1,.8,5.1,6.5,1-.76c-1-1.54-1-3.34.55-4.59l13.4-10.45,0,.05-8.45,25,1.1,1.45,18.19-14.19a3.12,3.12,0,0,1,4.45.3l1-.75-4.75-6.05-1,.75c1,1.7,1.3,2.8-.45,4.1l-12,9.34,0-.05,7.49-21.74-4.29-5.46L91,388.88l-1,.65c.8,1.6.7,3.4-1.1,4.49l-12.8,7.85a6.07,6.07,0,0,1-8.8-2.25,6.2,6.2,0,0,1,2.1-8.39l15.45-9.5,1.4,1.65h0v-.05h0l0-.05h.05l0,0,0-.05h0l0-.05h.05l.1-.05.1-.1h.05l0-.05h0v-.05h0l0-.05h.05v-.05h.1v0h0l-4.65-7.65Zm379,.15-2.3,4.7,2.45.25,14.35,15.29a4.73,4.73,0,0,1,1.4,4.95l.05.05h.05l.05,0h0l.05.05h.05l.05.05h.05l0,.05.1.05.1,0,0,.05h.05l.05.05h.05v.05h.1V401h.05l.05,0h.05l3.65-6.7-1.05-.6c-.95.95-1.85,2-3,1.4a6.83,6.83,0,0,1-1.4-1.05l-2.65-2.79,4.45-8,7.14,1.35-.64,2.1,1.09.6,4.45-8.1-1.1-.55-1.4,1.6-26.54-5Zm2.4,5.1h.2l.1.05h.1l.15.05h.15l.15.05.15,0h.2l.2.05.2.05.2.05.2.05.5,0,.5.1.55.1.55.15.6.1.55.1,1.25.25,1.2.25.6.1.55.1.6.15.5.1.55.1.45.05.2.05.25,0,.2.05.2.05H476l.2.05.15.05h.1l.15,0h.1l.1.05H477L473.06,390l-9.1-9.6.05-.05Zm-10.09,7.75a7.92,7.92,0,0,1-.95,2.8,10,10,0,0,1-1.6,1.55,9.54,9.54,0,0,0-1.9,2.09c-4.15,6,.4,13.65,5.9,17.45,6,4.2,13.24,4.35,17.19-1.35l.25-.35.25-.35.2-.4.15-.4.15-.35.15-.4.15-.4.1-.4.1-.4.05-.4.05-.4,0-.4.05-.45v-.4l-.05-.4v-.4l0-.45-.05-.4-.1-.4-.1-.4-.1-.4-.1-.4-.15-.45-.15-.4-.2-.35-.15-.4-.2-.4-.2-.4-.25-.4-.25-.35-.2-.35-.3-.4-1.1.8c1.7,2.45,2.3,5.9.55,8.45-3.4,4.9-10.75,2.5-15.69-.9-3.75-2.65-7.15-7.4-4.45-11.24,2.1-3,6.64-2.85,10.39-2.4l.55-1.4-8-3.2Zm-11.6,17.19-5.65,7,.95.8,1.55-1.45,18.54,15.09-1,1.85v.05h.05v.05h0v.05h.05v0h0l.05.05H457v.05l0,.05.1.05.1.1h0l.05.05v.05h.06l.05.05.05,0h0v.05h.05v.05h.05l5.64-6.95-.95-.8-1.6,1.45-18.54-15.09,1.1-1.85-.95-.8ZM111.24,415.62l-.9.85,1.2,1.75L94,434.46l-1.7-1.35v.05h-.05v0h0v.05l0,.05h0l0,.05v.05H92l0,0-.1.1,0,.05-.05.05,0,0,0,.05h0v.05h0v.05h-.05v.05h0v0h0l6.1,6.6.9-.85-1.2-1.8,17.55-16.25,1.69,1.35.91-.8-6.1-6.59Zm324.68,1.88c-3.07-.13-6.05,2.27-8.45,4.81l-6.8,7.1.9.85.05-.05.05,0h.05v-.05h0l.05-.05.05-.05.05-.05.1,0,.05-.05.1-.05.05-.1.2-.1.15-.15.05,0,.1-.05,0-.05.1-.05.05-.05.05,0,0-.05h.05v-.05h.05V429h.05l.05-.05h0l17.29,16.55-1.24,1.74.89.85,6.15-6.49-.85-.85-1.7,1.35-8.54-8.2,1.85-1.9,14.44,4.2,4.5-4.75-.9-.85L453.51,432l-13.15-3.75c1.7-2.55,2.15-6.4-.24-8.74a6.41,6.41,0,0,0-4.2-2Zm-3.49,3.7a5.27,5.27,0,0,1,3.84,1.71c2.7,2.55,2.8,5.25-.7,8.9v.05h-.05l0,.05-.05,0V432h-.05l-.05.05-.05.05,0,.05-.05,0-.05.05-.05.05-.1.15-.1.1-.05.05-.05.05,0,0-.05.05-.05.05-.05.05v.05h-.05l0,0-.05.05v.05h-.05l-7.95-7.6a24,24,0,0,1,1.6-1.95,6.48,6.48,0,0,1,4.41-2.31Zm-313,2.61-6.79,4.8.7,1.1c3.55-1.6,7-2.6,10.19.35L107,447.85l-1.75-1.25-.85,1,6.6,6,.8-.9-1.3-1.65L127,433.26c3.2,2.95,2.45,6.5,1.15,10.15l1.1.6,4.3-7.15h-.05l-.1-.05h0l-.1-.05h0l-.1-.05-.1,0,0-.05-.1-.05-.1-.05-.1-.05-.1,0-.05-.05-.1-.05-.1-.05-.1-.1-.2-.1-.2-.15-.2-.15-.2-.2-.2-.15-.25-.2-.2-.15-.2-.2h0l-8.85-8.2a9.57,9.57,0,0,1-2.24-2.85Zm297.85,7.8a9.56,9.56,0,0,1-2.35,2.8l-11.15,9.4.8.95,1.8-1.15,15.45,18.29-1.4,1.6.8.95,11.34-9.6.2-.2.25-.2.2-.15.25-.15.2-.15.2-.15.2-.15.1-.05.1-.1.1-.05.1-.05.1-.05.1,0,.1-.05.1-.05.1-.05,0-.05h.1l.1,0,.1-.05h.05l.1-.05h0l.1-.05h.05l-4.15-7.89-1.3.7c1.45,4.94,1.2,8.44-3.05,12a5.16,5.16,0,0,1-1.74,1.05l-7.95-9.45,1.15-1c2.05-1.69,3.6-1.4,6,.55l1-.8-6.4-7.49-1,.75c1.55,2.8,1.6,4.35-.45,6l-1.15,1L410,440.56a6.25,6.25,0,0,1,1.3-1.5c4.35-3.64,7.1-3.49,11.55-1.44l.85-1.15-6.4-4.85Zm-282.55,7.05-.75,1,1.5,1.5-14.4,19.09-1.9-1-.7.95,11.85,8.95.2.2.25.15.2.2.2.15.2.2.2.15.15.2.1.05.1.1,0,.1.1.05,0,.1.1.1.05.05.1.1.05.1,0,.05.05.1.05.05,0,.1.05.05,0,.1.05,0v.05l.05.1,6.8-5.8-.95-1.1c-4.55,2.45-8,3-12.45-.4a4.67,4.67,0,0,1-1.4-1.4l7.45-9.85,1.25.91c2.1,1.59,2.15,3.19.75,6l1,.75,5.95-7.89-1-.75c-2.34,2.09-3.84,2.49-5.94.84l-1.25-.89,6.25-8.25A5.78,5.78,0,0,1,141,445c4.5,3.4,5,6.1,3.95,10.89l1.3.6,3.3-7.29a9.1,9.1,0,0,1-3.2-1.7l-11.64-8.79Zm267.15,6.75-5.8,3.85,3.45,15.54-12.95-9.25-5.89,3.9.7,1.05,1.95-.95L394.08,477c1.5,2.35.75,3.3-.4,4.8v.05h.05v.1h0V482l.05,0,.05,0v.05h.05v.05l.1.11.05.09v.05l.05.05.05.05v0h.05v.06l0,.05v.05h.05v0h0l6.65-4.34-.65-1.05c-1.85,1.05-3.35.8-4.55-1.2l-9.7-15.4.05-.05,15.45,11.05.85-.55-4-18.74.05-.05L410.88,470l-1.6,1.45.7,1,7.49-5-.65-1-1.95.9-13.94-19.49,1.65-1.45-.7-1Zm-249.81,6.35-.6,1,.05.06,0,.05h.05v0h0V453h.05l.05,0,0,.05.1,0,.05.11.1.05.05.05.15.14.15.1.1.06,0,0,.1.09.05.05.05,0,.1.05,0,.05.05.05H153v.06h0v.05h0L140.77,474.7l-2-.85-.65,1,8.9,5.35c7.6,4.54,14.24-.05,17.39-5.3s4.1-13.3-3.5-17.85l-8.89-5.34Zm5.1,4.79a11.52,11.52,0,0,1,2.59,1.25c3.8,2.25,5.4,6.05.3,14.5s-9.14,8.79-12.94,6.54l-.2-.14-.2-.1-.2-.15-.2-.1-.15-.1-.1-.1,0,0-.1-.05-.1-.05,0-.05-.1-.05,0,0-.05-.05-.1-.05-.05-.1,0,0-.1-.05-.05-.05-.05-.05,0-.05-.05,0,0-.05H145l-.05-.05v-.05l0-.05-.05,0,12.34-20.55ZM371,464l-4.54,2.6,1.9,1.6,3.24,20.69a4.64,4.64,0,0,1-1.64,4.9v0H370v.05l.05.05V494l0,.05v0l.05.05v.05l.05.05.05.1,0,.1v.05l.06.05v0l.05.05v.05h0v.1h.05v.1l6.85-3.45-.55-1.1c-1.35.2-2.65.65-3.3-.55a5.77,5.77,0,0,1-.5-1.65l-.65-3.8,8.2-4.14,5.15,5.09-1.7,1.4.55,1.1,8.2-4.2-.55-1-2.1.5L371,464Zm-.9,5.55.05.05.05,0,.1.05.06.1.05.05.09.1.1.1.1.15.15.1.1.15.15.1.15.15.15.15.15.2.35.3.35.4.4.4.4.4.4.4.45.45.85.85.9.9.4.4.4.45.4.4.4.4.35.35.35.35.15.15.15.15.15.15.15.15.15.1.1.15.1.1.1.1.1.1.1.05.05.1,0,.05.05,0,.05.05-7.25,3.69-2.09-13,0-.05Zm-184.83.26a7.08,7.08,0,0,0-6.55,4.29c-4.2,9.89,10.1,12.49,7.3,19.19a4.87,4.87,0,0,1-6.3,2.45c-4-1.7-5.3-6.25-5.45-10.4l-1.45-.4-1.8,8.15a8.17,8.17,0,0,1,2.5.35c1.2.5,2.7,2.5,5.35,3.6,4.3,1.85,9.1.25,10.9-4.1,4.15-9.8-10.55-12.1-7.6-19.09.9-2.2,3.15-3,5.7-1.9,3.5,1.45,4,5.95,4.15,9.15h.15v0h.3l.05.05h.2l.1.05h.3l.05.05h.25l1.79-7.94a5.11,5.11,0,0,1-2.79-.3,6.65,6.65,0,0,1-1.8-1.2,7.94,7.94,0,0,0-2.3-1.4,7.81,7.81,0,0,0-3.05-.64Zm165.24,3.34a8.08,8.08,0,0,1-3.2,1.7L334,479.4l.4,1.2,2.1-.4,7.8,22.59-1.9,1v.1h.05V504l.05,0v.1l0,.05v.05l.05.1.05.1v.1l.05.05v.1l.05.05v.1l0,.05V505h0l8.45-2.95-.4-1.15-2.1.4-3.9-11.35,2.15-.7c2.4-.85,3.8.6,5,3l1.15-.4-3.2-9.2-1.15.35c.4,2.25.25,4.25-2.2,5.05l-2.15.75L341,478.65a8.52,8.52,0,0,1,1.75-.95c5-1.7,7.55.1,11.15,3.35l1.29-.8-4.69-7.1Zm-151,2-4.05,7.29,1.1.65c2.5-2.94,5.2-5.34,9.35-4.09l-7.2,23.19-2.1-.35-.4,1.2,8.55,2.65.4-1.2-1.95-.95,7.19-23.09c4.15,1.24,5,4.74,5.4,8.64l1.25,0,.8-8.29h-.15l-.05,0h-.75l-.15,0h-.3l-.1-.05h-.25l-.25-.05-.25-.05-.25-.1-.25-.06-.3-.05-.25-.09-.3-.05h0l-11.49-3.6a8.85,8.85,0,0,1-3.25-1.6ZM324,481.65a10.91,10.91,0,0,0-2.55.29l-.6.16-.6.19-.55.26-.5.29-.55.3-.45.35-.5.35-.45.4-.4.45-.4.45-.4.5-.35.5-.35.5-.3.55-.3.55-.25.6-.25.55-.2.6-.2.65-.15.6-.15.65-.15.6-.1.65,0,.65-.05.65-.05.6v1.3l.05.6.1.6.1.65.1.55h0c1.75,7.35,7.3,12.79,14.3,11.14,6.45-1.5,9.35-10,7.9-16.29s-5.92-11.4-11.7-11.44Zm-99.26,1.19.45,2.45-10.35,18.15a4.65,4.65,0,0,1-4.35,2.8v.15h-.05v.19l0,.05v.21l-.05.14v.11l0,.05v.19h-.05v.1l7.5,1.6.25-1.25c-1.2-.59-2.5-1.15-2.2-2.44a4.2,4.2,0,0,1,.6-1.6l1.9-3.35,8.95,1.85.8,7.2-2.15.05-.25,1.19,9,1.85.25-1.2-2-.85-3-26.84-5.15-.8Zm98.06.45h.7l.3,0,.35.05.3.1.3.1.35.1.3.15.3.2.3.2.3.25.3.25.25.3.3.35.25.35.3.4.25.4.25.45.25.5.25.5.25.55.25.6.25.6.25.65.2.7.2.75.25.75.2.8.2.85c2,8.65-.05,12.9-3.3,13.65-3.75.9-6.8-1.5-8.95-10.8-2-8.6,0-12.85,3.25-13.65l.35-.05.35-.05.35,0Zm-84,1.9-2.6,7.95,1.2.45c1.9-3.4,4.1-6.3,8.45-5.8l-2.7,24.09-2.15.05-.15,1.25,8.9,1,.15-1.25-2.1-.55,2.7-24.09c4.35.5,5.85,3.8,6.94,7.5l1.25-.15-.8-8.35,0,0h-.1l0,.05h-.11l-.05.05h-.1l-.1.05h-.2l-.1.05h-.4l-.14,0h-1.1l-.25,0h-.3l-.3-.05h-.25l-12-1.35a8.46,8.46,0,0,1-3.5-.95Zm59.18.95a5.06,5.06,0,0,1-2.55,1.05,6.33,6.33,0,0,1-2.15-.25,9.26,9.26,0,0,0-2.75-.15,7.22,7.22,0,0,0-6.74,7.7c.95,10.75,14.79,6.35,15.39,13.6a4.79,4.79,0,0,1-4.45,5.09c-4.3.4-7.6-3-9.65-6.64l-1.4.35,2.15,8a9.39,9.39,0,0,1,2.4-.9c1.35-.1,3.55,1,6.4.7,4.65-.4,8.15-4.05,7.75-8.74-.95-10.6-15-5.7-15.7-13.3-.15-2.4,1.4-4.1,4.2-4.35,3.75-.35,6.3,3.4,7.95,6.15H299v-.05h.15l0-.05h.05l.05-.05h.1l0,0,.15-.05.1-.05h.15l.05-.05h0l.05-.05h.1v0h.15l-2.15-7.9Zm-72.32,1.3h.05v.05l.05.1v.4l0,.15v.3l.05.2v.2l0,.2v.2l.05.25.05.45,0,.55,0,.55.06.55.05.6.05.6.15,1.2.14,1.25.06.6,0,.6.05.55.05.55.09.5.05.5v.2l.05.25v.4l.06.15v.35l0,.15v.3l.05.1v.15l-8-1.7,6.5-11.45Zm53,.2a8.46,8.46,0,0,1-3.6.5l-14.6-.1v1.25l2.1.35-.15,23.89-2.15.3v1.25l14.9.1h.55l.25.05h.3l.25,0h.25l.25.05h.25l.1,0h.1l.1,0h.15l.1.05h.1l.1,0h.05l.1.05h.1l.1,0h.05l.1,0,.05.05h.1l.05,0,2-8.7-1.45-.29c-2.14,4.64-4.59,7.14-10.14,7.14a6.72,6.72,0,0,1-2-.35l.1-12.34h1.55c2.65.05,3.6,1.3,4.2,4.35l1.25.05.05-9.9h-1.25c-.6,3.05-1.6,4.3-4.25,4.3l-1.55-.05.1-10.3a5.36,5.36,0,0,1,1.95-.35c5.7.05,7.7,2,9.7,6.4l1.4-.25-1.7-7.85Z" transform="translate(-1.99 -2.03)"/><path class="cls-9" d="M272.43,467.7l10.14-.25,9.95-.75,9.85-1.25L312,463.7l9.5-2.2,9.29-2.6,9.15-3.09,8.9-3.55,8.69-3.9L366,444l8.2-4.75,7.95-5.1,7.74-5.45,7.4-5.84,7.1-6.15,6.84-6.5,6.5-6.85,6.15-7.09,5.85-7.45,5.5-7.7,5.09-7.94,4.7-8.25,4.35-8.45,3.95-8.69,3.5-8.9,3.1-9.15,2.65-9.29,2.2-9.5,1.7-9.7,1.24-9.79.75-10,.25-10.1A196.27,196.27,0,0,0,272.43,75.05C164,75.05,76.1,162.91,76.1,271.37S164,467.7,272.43,467.7Z" transform="translate(-1.99 -2.03)"/></svg>