<svg width="320" height="320" viewBox="0 0 320 320" fill="none" xmlns="http://www.w3.org/2000/svg">
<path d="M160 317.991C247.256 317.991 317.991 247.256 317.991 160C317.991 72.7438 247.256 2.00879 160 2.00879C72.7439 2.00879 2.00891 72.7438 2.00891 160C2.00891 247.256 72.7439 317.991 160 317.991Z" fill="white"/>
<path fill-rule="evenodd" clip-rule="evenodd" d="M44.9156 105.911L40.2489 117.582L37.8844 116.613L41.4933 107.609L37.2889 105.893L33.9644 114.204L31.7156 113.28L35.04 104.969L30.1778 102.978L26.4622 112.284L24.0444 111.298L28.8267 99.3333L44.9156 105.911V105.911ZM39.2444 120.702L38.56 123.724L24.0711 128.729L36.7378 131.68L36.1067 134.444L19.1822 130.489L19.8667 127.484L34.3644 122.435L21.6978 119.484L22.32 116.747L39.2444 120.702V120.702ZM36.0356 137.28L35.7067 140.418L21.4667 143.351L34.8 149.209L34.48 152.311L17.8311 144.435L18.1333 141.52L36.0356 137.28ZM34.8978 155.813L34.8 158.747L17.44 158.133L17.5378 155.2L34.8978 155.813ZM33.3956 166.702L28.0711 167.075L28.3556 171.253C28.4444 172.462 28.7111 173.333 29.1733 173.822C29.6267 174.329 30.3378 174.542 31.28 174.471C32.2044 174.409 32.8622 174.107 33.2356 173.555C33.6178 173.004 33.7689 172.124 33.68 170.933L33.3956 166.702ZM35.6267 163.662L36.16 171.209C36.1689 171.44 36.1867 171.707 36.1867 171.973C36.1867 172.062 36.1778 172.115 36.1867 172.133C36.2933 173.689 35.9467 174.924 35.1556 175.858C34.3644 176.8 33.2178 177.315 31.7156 177.422C30.7378 177.493 29.8756 177.333 29.1556 176.951C28.4178 176.56 27.8844 175.982 27.52 175.209C27.3333 175.929 27.0133 176.48 26.5511 176.818C26.08 177.164 25.2978 177.404 24.1956 177.547L21.7156 177.867H21.6978C20.6222 177.991 19.9822 178.275 19.7689 178.738L19.2622 178.773L19.04 175.511C19.2622 175.369 19.52 175.253 19.8311 175.164C20.1333 175.075 20.6222 174.987 21.2978 174.907L23.36 174.684C24.4711 174.533 25.1911 174.24 25.5378 173.813C25.8844 173.378 26.0178 172.667 25.9467 171.698L25.9111 171.138L25.6444 167.289L18.5156 167.795L18.3022 164.889L35.6267 163.662V163.662ZM36.9333 188.364C36.5511 186.693 35.6889 185.529 34.3378 184.853C32.9778 184.187 31.2889 184.089 29.2444 184.56C27.2089 185.04 25.7333 185.867 24.8089 187.075C23.8844 188.275 23.6178 189.715 24 191.378C24.3733 193.04 25.2444 194.195 26.5956 194.871C27.9467 195.547 29.6444 195.644 31.68 195.164C33.7156 194.693 35.1911 193.858 36.1244 192.649C37.04 191.458 37.3156 190.027 36.9333 188.364ZM39.3689 187.795C39.9467 190.329 39.6089 192.515 38.3644 194.355C37.1022 196.187 35.0933 197.431 32.3289 198.071C29.5644 198.711 27.2178 198.498 25.2978 197.404C23.3689 196.302 22.1156 194.489 21.5378 191.955C20.96 189.404 21.2978 187.218 22.5422 185.378C23.7956 183.555 25.8044 182.311 28.5778 181.662C31.3511 181.022 33.6978 181.235 35.6178 182.329C37.5378 183.431 38.7911 185.244 39.3689 187.795V187.795ZM42.8356 198.693L43.9911 201.573L34.9689 214.062L47.0222 209.155L48.0711 211.778L31.9644 218.347L30.8267 215.493L39.8311 202.951L27.7778 207.875L26.7467 205.28L42.8356 198.693ZM49.4933 215.138L51.6533 218.773L41.8933 229.627L55.9822 226.071L58.1422 229.707L43.2533 238.747L41.84 236.373L54.1422 228.889L39.6267 232.631L38.1689 230.187L48.2844 219.031L35.9822 226.507L34.6044 224.187L49.4933 215.138ZM61.2711 233.52L68.7644 243.582L66.7289 245.129L60.9511 237.369L57.3244 240.133L62.6578 247.289L60.72 248.773L55.3778 241.6L51.1911 244.8L57.1644 252.809L55.0844 254.4L47.3956 244.098L61.2711 233.52ZM70.88 245.449L73.1556 247.529L70.4711 262.755L79.1733 252.987L81.2533 254.88L69.6267 267.929L67.3689 265.875L70.0178 250.613L61.3156 260.373L59.2533 258.498L70.88 245.449ZM83.6089 257.102L94.5867 265.155L93.0933 267.235L88.7822 264.071L80.0711 276.195L77.7511 274.48L86.4533 262.364L82.1156 259.182L83.6089 257.102V257.102ZM100.996 272.542L94.8978 277.724L99.3244 280.418L100.996 272.542ZM101.12 269.164L103.902 270.862L100.427 289.227L97.7778 287.618L98.7556 282.924L92.9689 279.404L89.3511 282.515L86.7556 280.942L101.12 269.164V269.164ZM111.467 274.382L114.151 275.484L108.631 289.298L116.587 292.533L115.6 295.004L104.969 290.667L111.467 274.382V274.382ZM138.24 285.52L137.476 291.013L141.191 291.547C142.356 291.715 143.209 291.618 143.76 291.262C144.32 290.907 144.667 290.249 144.791 289.271C144.924 288.329 144.773 287.591 144.347 287.075C143.92 286.56 143.182 286.222 142.124 286.08L138.24 285.52V285.52ZM135.724 282.613L142.276 283.538C143.333 283.689 144.116 283.84 144.604 284.018C145.102 284.195 145.538 284.418 145.902 284.702C146.631 285.244 147.138 285.938 147.431 286.782C147.724 287.644 147.804 288.631 147.644 289.742C147.511 290.667 147.236 291.467 146.8 292.151C146.356 292.835 145.787 293.369 145.093 293.76C144.604 294.018 144.062 294.187 143.458 294.24C142.853 294.302 142.036 294.258 141.013 294.107L137.111 293.547L136.16 300.4L133.307 299.991L135.724 282.613V282.613ZM154.791 287.084V292.48H158.933C160.142 292.48 161.013 292.275 161.538 291.84C162.062 291.413 162.32 290.72 162.32 289.76C162.32 288.827 162.071 288.142 161.556 287.724C161.04 287.307 160.187 287.093 158.996 287.093H154.791V287.084V287.084ZM151.956 284.613H159.44C159.671 284.613 159.92 284.622 160.196 284.64C160.284 284.64 160.338 284.649 160.356 284.649C161.884 284.649 163.093 285.084 163.947 285.947C164.827 286.809 165.244 288 165.244 289.52C165.244 290.507 165.04 291.36 164.604 292.062C164.169 292.773 163.556 293.28 162.764 293.591C163.476 293.822 163.982 294.187 164.293 294.684C164.596 295.182 164.791 295.982 164.844 297.111L165.004 299.618V299.644C165.049 300.738 165.289 301.404 165.724 301.653V302.169H162.489C162.356 301.938 162.267 301.653 162.196 301.342C162.124 301.04 162.08 300.533 162.044 299.849L161.947 297.76C161.884 296.631 161.653 295.875 161.253 295.511C160.844 295.129 160.16 294.951 159.191 294.951H154.818V302.178H151.956V284.613ZM177.147 285.529C175.476 285.769 174.249 286.533 173.467 287.84C172.684 289.147 172.444 290.835 172.729 292.933C173.022 295.013 173.716 296.578 174.827 297.618C175.929 298.649 177.307 299.049 178.996 298.809C180.658 298.578 181.876 297.813 182.658 296.498C183.431 295.2 183.68 293.502 183.396 291.422C183.102 289.324 182.409 287.76 181.307 286.729C180.213 285.68 178.827 285.289 177.147 285.529V285.529ZM176.791 283.022C179.351 282.658 181.467 283.191 183.182 284.604C184.871 286.035 185.92 288.16 186.32 291.013C186.711 293.849 186.284 296.195 185.04 298.035C183.796 299.875 181.893 300.978 179.342 301.342C176.782 301.698 174.649 301.173 172.942 299.751C171.253 298.329 170.196 296.204 169.804 293.351C169.404 290.507 169.831 288.16 171.076 286.32C172.338 284.489 174.231 283.378 176.791 283.022V283.022ZM186.684 282.142L199.662 278.133L200.409 280.595L195.316 282.169L199.644 296.498L196.889 297.351L192.56 283.022L187.431 284.613L186.684 282.142V282.142ZM203.076 276.898L214.631 272.187L215.573 274.578L206.667 278.213L208.356 282.462L216.578 279.111L217.493 281.387L209.271 284.747L211.244 289.671L220.444 285.911L221.422 288.347L209.582 293.182L203.076 276.898V276.898ZM233.04 268.107L230.596 269.591C229.92 268.764 229.111 268.311 228.151 268.213C227.2 268.107 226.187 268.382 225.12 269.031C223.698 269.893 222.889 271.049 222.693 272.498C222.507 273.938 222.924 275.555 223.991 277.333C225.058 279.12 226.284 280.293 227.689 280.853C229.084 281.404 230.471 281.262 231.849 280.427C232.942 279.769 233.644 278.889 233.964 277.804C234.293 276.72 234.178 275.627 233.627 274.507L236.044 273.031C236.996 274.764 237.2 276.551 236.64 278.364C236.08 280.169 234.907 281.635 233.084 282.747C230.96 284.035 228.862 284.347 226.809 283.671C224.747 283.004 222.978 281.44 221.511 278.978C220.036 276.489 219.493 274.16 219.902 272.009C220.311 269.867 221.627 268.115 223.831 266.773C225.627 265.689 227.333 265.262 228.969 265.502C230.596 265.733 231.956 266.604 233.04 268.107V268.107ZM232.658 262.382L243.502 254.124L245.031 256.178L240.773 259.422L249.689 271.387L247.396 273.138L238.471 261.164L234.196 264.427L232.658 262.382ZM246.169 251.227L248.32 249.262L259.947 262.302L257.796 264.275L246.169 251.227ZM257.796 241.964C256.711 243.271 256.311 244.675 256.596 246.169C256.871 247.662 257.813 249.093 259.413 250.444C261.013 251.795 262.56 252.489 264.071 252.515C265.582 252.533 266.871 251.902 267.964 250.578C269.04 249.28 269.44 247.884 269.164 246.382C268.871 244.88 267.938 243.458 266.338 242.107C264.738 240.755 263.191 240.071 261.689 240.044C260.178 240.018 258.88 240.658 257.796 241.964ZM255.876 240.338C257.538 238.338 259.458 237.298 261.662 237.2C263.867 237.111 266.053 237.982 268.222 239.831C270.4 241.68 271.636 243.707 271.929 245.911C272.222 248.124 271.547 250.231 269.893 252.222C268.222 254.231 266.293 255.28 264.089 255.369C261.893 255.467 259.707 254.578 257.529 252.738C255.342 250.889 254.107 248.853 253.822 246.649C253.52 244.453 254.204 242.338 255.876 240.338V240.338ZM263.884 231.973L265.467 229.315L280.773 229.075L269.636 222.311L271.076 219.893L285.964 228.933L284.391 231.573L269.058 231.849L280.196 238.622L278.773 241.031L263.884 231.973V231.973ZM281.351 197.084L287.636 202.044L289.316 197.102L281.351 197.084ZM278.062 197.671L279.12 194.551L297.618 194.169L296.613 197.12L291.867 197.138L289.662 203.591L293.413 206.524L292.436 209.413L278.062 197.671V197.671ZM289.591 172.507L289.093 175.36C288.044 175.395 287.156 175.751 286.453 176.418C285.76 177.084 285.298 178 285.102 179.164C284.8 180.889 285.129 182.338 286.107 183.493C287.067 184.64 288.578 185.404 290.649 185.769C292.667 186.133 294.338 185.947 295.662 185.182C296.987 184.427 297.804 183.218 298.098 181.555C298.338 180.133 298.107 178.907 297.396 177.884C296.676 176.844 295.6 176.178 294.151 175.849L293.333 180.578L290.978 180.151L292.267 172.782L301.502 174.427L301.164 176.329L298.924 176.427C299.671 177.227 300.187 178.107 300.462 179.102C300.756 180.107 300.791 181.173 300.596 182.329C300.169 184.72 299.013 186.498 297.102 187.689C295.182 188.88 292.88 189.235 290.204 188.755C287.458 188.258 285.404 187.12 284.036 185.342C282.676 183.555 282.196 181.422 282.631 178.915C282.996 176.835 283.796 175.227 285.022 174.107C286.24 172.969 287.76 172.435 289.591 172.507V172.507ZM284.756 167.404L285.191 154.818L287.733 154.907L287.404 164.622L291.938 164.791L292.24 155.831L294.667 155.92L294.364 164.871L299.609 165.058L299.956 155.022L302.56 155.12L302.107 168.018L284.756 167.404V167.404ZM284.587 151.547L284.267 148.462L296.338 138.96L283.413 140.338L283.129 137.52L300.4 135.689L300.711 138.755L288.64 148.302L301.564 146.933L301.858 149.715L284.587 151.547ZM284.427 117.031L285.067 119.84C284.08 120.24 283.396 120.871 283.004 121.76C282.613 122.649 282.551 123.707 282.836 124.915C283.209 126.551 284.044 127.689 285.342 128.338C286.64 128.969 288.284 129.049 290.284 128.578C292.311 128.115 293.796 127.289 294.738 126.115C295.68 124.942 295.991 123.573 295.627 121.982C295.342 120.729 294.738 119.787 293.822 119.138C292.898 118.498 291.831 118.258 290.613 118.453L289.982 115.671C291.902 115.289 293.636 115.644 295.173 116.738C296.711 117.822 297.716 119.422 298.204 121.52C298.764 123.947 298.4 126.062 297.138 127.831C295.867 129.618 293.858 130.827 291.084 131.467C288.284 132.124 285.929 131.92 284.036 130.862C282.133 129.813 280.898 128.009 280.32 125.475C279.849 123.413 279.982 121.635 280.711 120.142C281.431 118.631 282.676 117.6 284.427 117.031V117.031ZM278.96 117.875L277.618 114.507L283.36 107.547L274.498 106.693L273.244 103.555L285.227 105.173L291.591 102.569L292.676 105.298L286.436 107.84L278.96 117.875V117.875Z" fill="black"/>
<path d="M45.8489 89.1288C48.4999 89.1288 50.6489 86.9599 50.6489 84.2844C50.6489 81.6089 48.4999 79.4399 45.8489 79.4399C43.1979 79.4399 41.0489 81.6089 41.0489 84.2844C41.0489 86.9599 43.1979 89.1288 45.8489 89.1288Z" fill="black"/>
<path d="M271.787 89.1022C274.433 89.1022 276.578 86.9333 276.578 84.2578C276.578 81.5823 274.433 79.4133 271.787 79.4133C269.141 79.4133 266.996 81.5823 266.996 84.2578C266.996 86.9333 269.141 89.1022 271.787 89.1022Z" fill="black"/>
<path fill-rule="evenodd" clip-rule="evenodd" d="M108.071 128.436C106.836 150.969 133.076 181.12 160.124 181.12C187.173 181.12 214.72 147.484 212.178 128.436H108.071V128.436Z" fill="#B1B1B1"/>
<path fill-rule="evenodd" clip-rule="evenodd" d="M108.133 134.053C111.013 160.462 133.262 181.12 160.133 181.12C187.262 181.12 209.662 160.08 212.213 133.324H212C211.218 140.044 205.529 145.289 198.684 145.289C192.604 145.289 187.458 141.164 185.822 135.556C184.178 141.164 179.031 145.289 172.96 145.289C166.889 145.289 161.733 141.164 160.098 135.556C158.453 141.164 153.307 145.289 147.227 145.289C141.058 145.289 135.831 141.031 134.284 135.28C132.738 141.031 127.52 145.289 121.342 145.289C114.738 145.289 109.227 140.418 108.133 134.053V134.053Z" fill="black"/>
<path fill-rule="evenodd" clip-rule="evenodd" d="M165.298 128.533H212.098C212.098 99.4133 188.684 75.6533 159.991 75.6533C131.289 75.6533 107.884 99.4133 107.884 128.533H157.467C151.609 126.818 147.307 121.324 147.307 114.871C147.307 107.031 153.627 100.631 161.387 100.631C169.138 100.631 175.467 107.031 175.467 114.871C175.467 121.324 171.164 126.809 165.298 128.533V128.533Z" fill="black"/>
<path d="M159.236 226.524H154.693V230.071H159.236V226.524Z" fill="#00CC33"/>
<path fill-rule="evenodd" clip-rule="evenodd" d="M58.2489 61.3334L60.32 59.2978L67.7867 67.1112C68.8267 68.1956 69.8222 68.7823 70.7733 68.8445C71.7333 68.9156 72.6933 68.4711 73.6622 67.5289C74.64 66.5867 75.1111 65.6178 75.0756 64.6489C75.04 63.6711 74.5067 62.64 73.4756 61.5645L66.0089 53.7423L68.0889 51.7245L75.6711 59.6623C77.1911 61.2534 77.9378 62.8978 77.9111 64.6045C77.8845 66.3023 77.0756 67.92 75.5022 69.4578C73.8845 71.0311 72.2667 71.8045 70.6311 71.7778C68.9956 71.7511 67.3956 70.9067 65.8311 69.2712L58.2489 61.3334ZM74.6845 46.6223L77.1911 44.8534L91.2 50.8978L83.7867 40.1778L86.0622 38.56L95.9822 52.8711L93.5022 54.6223L79.44 48.6223L86.8622 59.3334L84.6045 60.9334L74.6845 46.6223ZM93.1378 34.6134L95.7156 33.2889L103.564 48.8623L100.987 50.1867L93.1378 34.6134V34.6134ZM101.04 30.5334L113.653 25.6445L114.56 28.0356L109.6 29.9645L114.889 43.8756L112.213 44.9156L106.933 30.9956L101.947 32.9334L101.04 30.5334V30.5334ZM118.791 23.7956L130.702 20.3378L131.404 22.8L122.204 25.4667L123.449 29.8489L131.938 27.3956L132.604 29.7511L124.124 32.2045L125.564 37.28L135.058 34.5245L135.778 37.04L123.556 40.5867L118.791 23.7956V23.7956ZM141.636 21.2623L143.129 33.5912L146.64 33.1556C148.338 32.9512 149.529 32.2756 150.213 31.1467C150.889 30.0178 151.102 28.3645 150.836 26.2134C150.596 24.2489 150.009 22.8 149.076 21.8934C148.151 20.9689 146.898 20.6045 145.342 20.8L141.636 21.2623ZM138.533 19.1556L145.156 18.3289C147.671 18.0178 149.653 18.5067 151.084 19.7867C152.516 21.0667 153.413 23.1467 153.76 26.0089C154.098 28.8089 153.671 31.0489 152.471 32.7289C151.271 34.4089 149.369 35.4134 146.773 35.7334L140.622 36.4978L138.533 19.1556ZM177.902 23.9467L175.173 23.7245C175.2 22.7289 174.898 21.9289 174.267 21.3067C173.644 20.6934 172.764 20.3378 171.636 20.2312C170.702 20.1512 169.92 20.3023 169.28 20.6934C168.64 21.0845 168.311 21.6089 168.249 22.2578C168.196 22.9156 168.409 23.4934 168.889 23.9467C169.378 24.4178 170.436 24.9423 172.062 25.52C174.533 26.4 176.133 27.2445 176.844 28.0712C177.547 28.8978 177.84 29.9823 177.733 31.3334C177.591 32.9778 176.871 34.24 175.573 35.1289C174.276 36.0178 172.613 36.3734 170.587 36.1956C168.453 36.0089 166.827 35.3334 165.733 34.1867C164.631 33.04 164.124 31.4845 164.204 29.5289L166.987 29.7778C166.969 30.9067 167.307 31.8134 168.018 32.5156C168.72 33.2 169.724 33.6089 171.022 33.7245C172.009 33.8134 172.836 33.6445 173.502 33.2089C174.169 32.7823 174.533 32.2311 174.596 31.5289C174.622 31.2534 174.56 30.9334 174.409 30.5689C174.258 30.2045 174.071 29.8845 173.822 29.6089C173.404 29.1467 172.436 28.6667 170.907 28.1334C170.578 28.0178 170.338 27.9378 170.16 27.8845C168.284 27.2 166.978 26.4267 166.258 25.5645C165.529 24.7023 165.227 23.5823 165.342 22.2223C165.467 20.7823 166.151 19.6534 167.387 18.8445C168.64 18.0356 170.222 17.7156 172.151 17.8934C174.036 18.0623 175.484 18.6934 176.516 19.7867C177.547 20.88 178.036 22.2578 177.902 23.9467ZM184.56 19.7423L197.716 22.8178L197.147 25.3156L191.982 24.1067L188.658 38.6312L185.867 37.9823L189.182 23.4578L183.982 22.24L184.56 19.7423ZM207.6 29.4134L202.516 35.5556L207.316 37.4134L207.6 29.4134V29.4134ZM207.147 26.08L210.169 27.2623L209.902 45.8756L207.031 44.7645L207.191 39.9823L200.916 37.5467L197.902 41.2178L195.093 40.1334L207.147 26.08ZM218.898 30.9689L230.933 37.1645L229.778 39.4489L225.049 37.0223L218.356 50.3023L215.804 48.9956L222.498 35.7067L217.742 33.2623L218.898 30.9689V30.9689ZM236.32 40.72L246.48 47.9111L245.022 50.0089L237.182 44.4623L234.596 48.2045L241.822 53.3156L240.436 55.3245L233.209 50.2045L230.213 54.5334L238.302 60.2667L236.809 62.4L226.4 55.0311L236.32 40.72V40.72ZM257.982 65.2356L256.009 63.3245C256.64 62.5689 256.916 61.7511 256.809 60.8711C256.711 59.9911 256.249 59.1645 255.44 58.3645C254.764 57.7067 254.062 57.3245 253.324 57.2267C252.596 57.1289 252 57.3067 251.556 57.7778C251.093 58.2578 250.916 58.8356 250.996 59.5023C251.084 60.1778 251.573 61.2534 252.48 62.7378C253.867 64.9956 254.569 66.6667 254.613 67.76C254.649 68.8445 254.204 69.8845 253.271 70.8623C252.142 72.0534 250.8 72.5689 249.236 72.4445C247.671 72.3023 246.151 71.52 244.693 70.0978C243.147 68.5867 242.302 67.04 242.169 65.4578C242.036 63.8756 242.604 62.3378 243.884 60.8623L245.893 62.8267C245.173 63.6978 244.871 64.6223 244.987 65.6089C245.111 66.5956 245.636 67.5556 246.578 68.4623C247.289 69.1556 248.036 69.5467 248.818 69.6445C249.609 69.7423 250.24 69.5378 250.729 69.0311C250.916 68.8356 251.067 68.5423 251.182 68.16C251.307 67.7867 251.351 67.4134 251.324 67.04C251.289 66.4267 250.836 65.4134 249.982 64.0445C249.796 63.7423 249.662 63.52 249.564 63.3689C248.533 61.6445 247.991 60.2223 247.964 59.0845C247.929 57.9467 248.382 56.8889 249.333 55.9023C250.329 54.8623 251.564 54.4178 253.031 54.5867C254.507 54.7556 255.938 55.5112 257.333 56.88C258.684 58.1956 259.422 59.6267 259.547 61.1289C259.662 62.6311 259.147 64 257.982 65.2356V65.2356Z" fill="black"/>
<path fill-rule="evenodd" clip-rule="evenodd" d="M251.467 150.578C251.867 150.605 250.871 150.542 251.449 150.765C250.773 169.707 239.227 189.209 227.227 201.689C224.347 205.191 221.289 208.293 218.889 210.907C218.844 211.458 218.516 210.507 219.084 210.916C230.827 212.062 245.52 211.369 256.907 217.085C252.702 224.729 241.6 228.24 233.689 231.965C211.724 241.022 187.724 240.178 165.316 234.462C165.316 234.462 163.182 233.582 163.004 233.2L162.942 241.671C160.738 241.716 158.72 241.769 157.129 241.662C155.947 241.396 157.058 234.836 156.347 233.689L154.676 234.498C124.649 241.556 87.1378 236.516 65.12 217.929C63.8222 216.551 62.8889 215.751 62.5511 214.809C62.5778 214.436 62.5511 214.809 62.7644 214.631C74.32 210.409 89.2711 209.005 101.129 208.676C101.324 208.693 101.476 209.44 101.502 209.067C84.5866 191.92 74.6222 173.218 69.7866 150.231L70.0266 149.689C93.4133 153.253 113.947 162.525 128.782 178.062C141.04 190.658 150.596 209.529 155.707 226.267C158.969 230.72 156.107 228.871 155.991 227.76C156.107 221.138 155.787 194.391 155.716 187.573C157.911 187.725 161.351 187.387 162.729 187.671L162.907 226.56C163.476 226.969 162.258 227.253 162.88 226.933C165.689 221.769 169.671 209.325 173.467 204.222C182.142 185.627 199.191 170.169 218.596 160.382C227.591 155.831 240.284 152.427 251.467 150.578V150.578ZM241.653 160.889C235.28 180.925 223.627 194.16 205.964 207.182C197.751 212.178 189.609 216.249 179.778 218.916C179.378 218.889 179.396 218.702 179.013 218.489C180.018 210.631 185.227 203.058 188.96 196.302C195.218 188.045 202.871 179.893 211.982 173.671C220.64 168.16 230.009 163.618 241.671 160.702C242 161.645 240.702 160.276 241.653 160.889V160.889ZM79.9822 158.498C101.947 164.916 120.222 179.938 131.822 198.391C134.8 203.929 137.644 211.12 139.956 217.529C139.947 217.716 139.609 216.773 139.369 217.316C128.8 216.622 119.378 208.809 111.324 204.045C95.9111 190.871 84.6044 176.311 79.7778 158.48C79.8133 158.116 79.3778 158.453 79.9822 158.498Z" fill="black"/>
<path d="M160 0C204.169 0 244.169 17.92 273.129 46.8622C302.08 75.8222 320 115.822 320 160C320 204.178 302.08 244.178 273.129 273.138C244.169 302.08 204.169 320 160 320C115.84 320 75.84 302.08 46.8711 273.138C17.9111 244.178 0 204.178 0 160C0 115.822 17.92 75.8222 46.8711 46.8622C75.84 17.9111 115.84 0 160 0ZM270.338 49.7067C242.098 21.4756 203.084 4.00889 160 4.00889C116.916 4.00889 77.8933 21.4756 49.6622 49.7067C21.4311 77.9289 3.96444 116.924 3.96444 160C3.96444 203.076 21.4311 242.071 49.6622 270.302C77.9022 298.533 116.907 316 160 316C203.093 316 242.098 298.533 270.338 270.302C298.569 242.071 316.044 203.076 316.044 160C316.044 116.924 298.569 77.9289 270.338 49.7067V49.7067Z" fill="black"/>
</svg>
