<svg width="421" height="421" viewBox="0 0 421 421" fill="none" xmlns="http://www.w3.org/2000/svg">
<path opacity="0.99" d="M210.544 420.692C326.526 420.692 420.547 326.671 420.547 210.69C420.547 94.7088 326.526 0.6875 210.544 0.6875C94.5633 0.6875 0.541992 94.7088 0.541992 210.69C0.541992 326.671 94.5633 420.692 210.544 420.692Z" fill="black"/>
<path d="M282.487 72.051L278.426 70.0206L274.315 68.0896L270.11 66.2579L265.847 64.5745L261.491 62.9898L257.135 61.5541L252.679 60.2171L248.171 59.0291L243.664 57.9887L239.063 57.0484L234.405 56.2564L229.703 55.612L225.002 55.1173L220.243 54.7703L215.447 54.5226L210.595 54.4736C124.195 54.4736 54.333 124.436 54.333 210.685C54.333 216.911 54.6974 223.052 55.4061 229.089C64.5105 306.633 130.437 366.897 210.595 366.897C296.844 366.897 366.763 296.885 366.763 210.686C366.763 160.578 343.194 115.919 306.456 87.3496" stroke="white" stroke-width="0.945936" stroke-miterlimit="10.433" stroke-linecap="square"/>
<path d="M215.203 8.57422L211.442 12.3867H219.016L215.203 8.57422V8.57422ZM202.33 8.72266L198.815 12.7832L206.289 12.2383L202.33 8.72264V8.72266ZM226.988 9.26758L222.928 12.7832L230.504 13.1797L226.988 9.26756V9.26758ZM190.693 9.51564L187.326 13.7227L194.902 12.7832L190.693 9.51559V9.51564ZM238.673 10.6054L234.465 13.8731L241.891 14.666L238.673 10.6055V10.6054ZM179.057 11L175.938 15.3574L183.414 13.9707L179.057 11V11ZM250.162 12.4863L245.853 15.6054L253.281 16.8437L250.162 12.4863V12.4863ZM167.571 13.1797L164.7 17.6348L172.028 15.9024L167.571 13.1797ZM261.551 15.209L257.094 18.0313L264.373 19.6661L261.551 15.2091V15.209ZM156.18 16.0019L153.604 20.6055L160.783 18.4766L156.18 16.0019V16.0019ZM272.781 18.5762L268.177 21.0528L275.355 23.1817L272.781 18.5762ZM144.94 19.418L142.614 24.2696L149.791 21.6954L144.94 19.4181L144.94 19.418ZM207.325 19.666L204.651 25.7559L205.593 26.2012C207.078 23.3295 210.05 20.9041 213.466 21.0527C215.744 21.0527 215.347 23.0816 215.198 24.8145L214.802 38.9256C214.654 42.6887 214.108 43.4822 210.989 43.4822V44.5701L221.436 44.869V43.7792H221.188L220.891 43.7284H220.645L220.397 43.6795H220.198L219.952 43.6307L219.753 43.5799L219.604 43.5311L219.407 43.4315L219.259 43.3827L219.11 43.2831L218.962 43.2342L218.862 43.1346L218.714 43.035L218.614 42.8866L218.515 42.7889L218.466 42.6405L218.366 42.492L218.317 42.3436L218.269 42.1444L218.218 41.9959L218.169 41.7986L218.12 41.5994L218.069 41.3533V41.1053V40.8572L218.021 40.6092V40.3123V40.0154V39.7185V39.3709V39.2224L218.069 39.0252L218.614 24.9631C218.614 23.1806 218.317 21.1505 220.644 21.1505C224.011 21.4476 226.882 24.0235 228.22 26.9944L229.011 26.5979L226.882 20.3595L207.325 19.6662L207.325 19.666ZM189.897 21.1504L180.292 22.7853L180.389 23.8751C183.113 23.3304 183.807 24.2697 184.352 27.9337L186.53 40.9568C187.024 44.7198 186.777 45.6603 184.053 46.0564L184.202 47.1462L201.532 44.3239L202.77 37.8376L201.78 37.5407C200.195 41.7493 198.66 43.4822 194.204 44.3239C190.985 44.8686 190.293 44.0252 189.897 41.0544L187.569 27.3903C187.024 23.7264 187.321 22.636 190.143 22.2399L189.897 21.1501L189.897 21.1504ZM236.093 21.1524L235.796 22.2403C238.519 22.785 238.767 23.7269 237.975 27.3908L235.399 40.4119C234.706 44.1748 234.062 44.8688 231.487 44.324L231.19 45.5603L240.698 47.2947L240.944 46.2049C238.369 45.6603 237.974 44.7184 238.766 41.0545L240.005 34.9647L250.304 36.9959L249.065 43.0857C248.421 46.7496 247.728 47.5902 245.153 46.9959L244.856 48.0858L254.462 50.0174L254.61 48.9276C251.887 48.3829 251.64 47.3936 252.333 43.7791L254.907 30.756C255.7 27.1415 256.245 26.3012 258.968 26.8458L259.216 25.6563L249.759 23.8751L249.462 24.963C252.037 25.5076 252.333 26.4494 251.64 30.1134L250.55 35.51L240.253 33.4806L241.341 28.0841C242.034 24.4201 242.727 23.6274 245.302 24.172L245.55 23.0822L236.093 21.1524H236.093ZM283.876 22.5373L278.974 24.6662L286.153 27.2424L283.876 22.5373V22.5373ZM133.955 23.6273L132.074 28.4808L138.857 25.5101L133.955 23.6273ZM163.76 25.9066L160.938 27.5414L159.848 47.0005C159.848 49.4269 159.699 52.4467 156.877 53.2389L157.125 54.3287L165.543 52.0494L165.246 50.9615C163.909 51.2089 162.028 51.4559 161.582 49.8717C161.335 48.9308 161.582 46.0585 161.731 45.1177V43.7818L170.147 41.4537L172.574 44.9693C172.822 45.5633 173.514 46.5034 173.662 46.9986C174.207 48.6329 172.029 48.9307 170.94 49.3268L171.188 50.4166L180.842 47.692L180.397 46.604C179.605 46.7526 178.813 46.7521 178.119 46.356C176.882 45.5638 175.544 42.9889 174.752 41.8501L163.762 25.9069H163.76L163.76 25.9066ZM294.721 27.1449L289.672 29.0258L296.604 31.9965L294.721 27.1449V27.1449ZM123.26 28.3324L121.627 33.3324L128.31 29.9652L123.26 28.3324V28.3324ZM162.524 30.1156L169.307 39.8208L162.028 41.8501L162.524 30.116V30.1156ZM305.125 32.2933L300.125 34.0277L306.76 37.395L305.125 32.2933V32.2933ZM112.864 33.6292L111.477 38.7289L117.963 34.9671L112.864 33.6292V33.6292ZM142.124 33.6312L125.735 40.4145L126.129 41.4536C128.556 40.4138 129.349 41.0587 130.834 44.4751L135.885 56.7542C137.371 60.319 137.222 61.2097 134.795 62.2992L135.192 63.2406L151.977 56.3577L151.877 49.4261H150.887C149.402 54.5753 149.302 56.0593 144.153 58.2874C141.281 59.4761 140.49 59.0813 139.549 56.6058L136.43 49.3265L137.766 48.93C140.192 47.6922 142.915 46.7527 144.549 50.8128L145.489 50.4163L141.676 41.4534L140.885 41.7502C141.974 45.2658 140.192 46.6024 137.369 47.8401L136.032 48.385L133.557 42.5432C132.369 39.4238 132.369 38.9275 135.489 37.5411C140.093 35.6596 141.578 36.3036 145.885 38.9278L146.43 38.086L142.123 33.6309L142.124 33.6312ZM287.625 37.7524C285.459 37.7641 283.516 38.9589 282.392 41.2055L282.293 41.3539L282.244 41.5024L282.195 41.6508L282.096 41.7993L282.047 41.9965L281.996 42.145L281.947 42.2934L281.898 42.4419L281.848 42.7407L281.748 43.0864L281.699 43.3833L281.65 43.7309V44.0278L281.6 44.3735V44.7212V45.0181V45.3638L281.551 45.6607V46.354V46.356L279.967 46.5045C276.947 46.7519 274.421 47.9883 271.945 50.4147C266.152 56.2076 273.034 58.2876 276.4 59.8718C278.578 60.961 280.757 61.2091 283.184 61.1101C283.876 62.6948 284.421 63.9332 286.055 64.7253C288.184 65.7158 290.759 65.4179 292.938 64.6257L292.789 63.7839C291.452 63.9324 289.968 64.1797 288.631 63.5358C287.542 62.9911 286.55 61.5053 286.303 60.317C288.631 59.178 290.662 57.445 292.395 55.8111C294.177 54.1769 294.72 53.6337 297.147 54.7232L297.543 53.7817L289.819 50.018L289.276 50.811C290.909 51.6527 292.147 52.5441 291.157 54.3266C290.117 56.5051 288.186 58.0888 286.057 59.1783C285.066 55.4152 284.967 51.4551 284.67 47.3952C287.542 47.3952 291.997 47.5933 293.483 44.7213C294.721 42.2951 292.94 39.5704 290.662 38.4811C289.641 37.986 288.61 37.7473 287.625 37.7526L287.625 37.7524ZM315.271 38.0864L310.172 39.5727L316.658 43.2368L315.271 38.0864ZM288.527 39.0102C288.949 39.0148 289.387 39.1142 289.82 39.3246L289.968 39.4243L290.166 39.5239L290.265 39.6215L290.414 39.7211L290.562 39.8207L290.662 39.9692L290.759 40.0669L290.859 40.2153L290.959 40.3657L291.056 40.5141L291.156 40.6606L291.205 40.809L291.255 40.9575L291.304 41.1059L291.355 41.2544L291.404 41.4028L291.453 41.6001V41.7485V41.8989L291.503 42.0962V42.2446V42.3931L291.453 42.5903V42.7388L291.404 42.938V43.0864L291.355 43.2349L291.304 43.4321L291.255 43.5806L291.205 43.731L291.107 43.8794L291.058 44.0279H291.056C289.818 46.3551 286.996 46.5046 284.669 46.356C284.571 44.722 284.819 42.5426 285.611 41.0571C286.13 39.8317 287.262 38.9963 288.527 39.0102L288.527 39.0102ZM102.705 39.5707L101.616 44.7212L107.954 40.6607L102.706 39.5708L102.705 39.5707ZM325.167 44.5728L319.919 45.6626L326.257 49.7231L325.167 44.5727L325.167 44.5728ZM304.47 45.3658C304.47 45.3658 304.744 45.9658 305.011 47.0416C305.278 48.1174 305.536 49.6681 305.503 51.5689C305.497 51.8857 305.483 52.2137 305.46 52.5494C305.414 53.2207 305.33 53.9287 305.199 54.6685C305.133 55.0384 305.055 55.416 304.964 55.8013C304.873 56.1866 304.769 56.5796 304.65 56.979C304.53 57.3785 304.395 57.7833 304.245 58.1958C304.095 58.6084 303.931 59.0272 303.747 59.4517C303.381 60.3006 302.946 61.1736 302.431 62.0631C301.658 63.3973 300.707 64.771 299.54 66.1705C299.152 66.637 298.738 67.1073 298.3 67.5787C295.674 70.4073 292.142 73.3145 287.421 76.1745C286.634 76.6511 285.814 77.1246 284.96 77.5983C283.753 78.5501 282.534 79.4948 281.302 80.4323C280.07 81.3698 278.826 82.3003 277.571 83.2233C276.317 84.1471 275.052 85.0652 273.778 85.9753C272.505 86.8854 271.221 87.788 269.931 88.6844C267.349 90.4772 264.739 92.2437 262.108 93.9832C256.847 97.4637 251.509 100.84 246.186 104.12C238.202 109.04 230.251 113.742 222.641 118.249C220.104 119.752 217.606 121.233 215.156 122.693C212.707 124.153 210.305 125.592 207.965 127.011C205.625 128.43 203.346 129.83 201.139 131.211C197.827 133.281 194.677 135.307 191.728 137.295C190.746 137.957 189.784 138.613 188.848 139.267C183.224 143.188 178.453 146.952 174.841 150.581C174.371 151.107 173.849 151.672 173.293 152.279C171.345 154.405 168.98 157.064 166.955 160.49C166.665 160.979 166.384 161.484 166.111 162.005C164.472 165.134 163.163 168.852 162.662 173.308L156.572 195.095V195.144V195.195V195.293V195.392V195.492L156.523 195.789L156.474 196.185L156.423 196.631L156.326 197.125L156.226 197.621L156.078 198.215L155.878 198.859L155.632 199.504L155.384 200.195L155.037 200.888L154.691 201.582L154.246 202.275L153.75 203.017L153.205 203.711L152.562 204.404L152.214 204.75L151.869 205.047L151.472 205.394L151.076 205.691L150.679 205.988L150.234 206.285L149.789 206.582L149.294 206.879L148.798 207.127L148.253 207.375L147.708 207.621L147.164 207.82L146.57 208.066L145.927 208.265L145.283 208.414L144.638 208.562L143.896 208.711L143.203 208.81L142.46 208.908L141.667 209.008L140.876 209.058L140.035 209.107H139.144H138.253L137.359 209.058L136.371 209.008L135.38 208.908L134.39 208.76C128.869 208.054 122.992 207.427 117.408 207.232C115.313 207.159 113.261 207.147 111.283 207.215C109.964 207.26 108.677 207.339 107.435 207.461C106.193 207.582 104.996 207.744 103.851 207.953C103.279 208.057 102.719 208.174 102.175 208.303C101.631 208.431 101.101 208.571 100.587 208.724C100.074 208.878 99.5753 209.046 99.0951 209.226C98.6146 209.407 98.1534 209.602 97.7084 209.81C96.3742 210.436 95.2054 211.191 94.2377 212.096C93.9151 212.397 93.6145 212.715 93.3373 213.051C93.0605 213.386 92.8059 213.737 92.5775 214.107C92.349 214.478 92.1458 214.867 91.9681 215.273C91.7905 215.68 91.6393 216.105 91.515 216.549C91.1422 217.882 91.0143 219.391 91.1673 221.09C91.3204 222.789 91.7538 224.681 92.5014 226.783C92.6205 226.471 92.7574 226.173 92.9115 225.891C93.0656 225.608 93.2377 225.341 93.4252 225.088C93.6127 224.835 93.8171 224.596 94.0365 224.371C94.256 224.146 94.4898 223.935 94.7397 223.736C94.9896 223.538 95.254 223.352 95.5326 223.18C96.0904 222.834 96.7059 222.539 97.3706 222.289C98.0351 222.039 98.7504 221.837 99.5093 221.674C99.889 221.592 100.279 221.521 100.681 221.459C101.082 221.397 101.494 221.346 101.916 221.303C103.179 221.174 104.529 221.127 105.945 221.147C112.555 221.238 120.61 222.77 128.056 224.168C130.184 224.568 132.261 224.958 134.242 225.299C143.191 225.299 147.016 225.521 151.732 224.317C152.518 224.116 153.33 223.876 154.193 223.588C155.056 223.3 155.972 222.964 156.968 222.574C158.593 221.491 160.027 220.361 161.3 219.186C161.618 218.892 161.926 218.596 162.224 218.297C162.522 217.998 162.812 217.695 163.091 217.391C163.371 217.086 163.639 216.778 163.9 216.469C165.727 214.301 167.121 212.007 168.226 209.609C169.173 207.554 169.907 205.423 170.523 203.228C170.728 202.497 170.919 201.757 171.101 201.012C171.647 198.776 172.105 196.482 172.566 194.142C172.873 192.583 173.18 191.004 173.517 189.408C174.023 187.014 174.596 184.582 175.324 182.129C176.294 178.858 177.545 175.547 179.293 172.226C180.166 170.566 181.162 168.903 182.312 167.242C182.887 166.412 183.499 165.581 184.154 164.752C184.808 163.923 185.505 163.096 186.246 162.269C187.727 160.616 189.385 158.968 191.252 157.33C192.185 156.511 193.169 155.694 194.209 154.88C195.768 153.66 197.453 152.445 199.271 151.24C199.877 150.838 200.499 150.438 201.137 150.039C204.93 147.247 208.764 144.521 212.633 141.847C216.501 139.173 220.406 136.549 224.342 133.956C226.309 132.66 228.285 131.372 230.268 130.089C232.25 128.807 234.241 127.53 236.238 126.257C240.232 123.711 244.252 121.18 248.297 118.646C260.431 111.042 272.776 103.411 285.218 95.2767C287.291 93.9208 289.368 92.5513 291.446 91.1653C293.525 89.7793 295.605 88.3788 297.688 86.9583C298.801 86.0237 299.849 85.1056 300.839 84.2063C301.828 83.307 302.758 82.4258 303.63 81.5617C304.502 80.6977 305.318 79.8521 306.079 79.0226C308.361 76.5336 310.155 74.1993 311.534 72.0148C311.994 71.2866 312.407 70.5753 312.778 69.88C315.005 65.7086 315.685 62.1266 315.433 59.0929C315.391 58.5872 315.323 58.0976 315.232 57.6222C315.14 57.1467 315.026 56.685 314.892 56.2393C314.757 55.7937 314.601 55.3626 314.429 54.9463C314.085 54.1139 313.671 53.3413 313.21 52.624C312.98 52.2654 312.738 51.9212 312.487 51.5908C311.735 50.5996 310.903 49.7338 310.067 48.9892C309.789 48.741 309.512 48.5057 309.235 48.2841C308.407 47.6194 307.601 47.0739 306.896 46.6415C306.425 46.3533 305.999 46.1156 305.64 45.9266C304.921 45.5487 304.472 45.3661 304.472 45.3661H304.47L304.47 45.3658ZM92.9484 46.0572L92.255 51.356L98.1964 46.899L92.9484 46.0572H92.9484ZM117.158 46.2076L108.89 51.0592L109.433 52.149C111.761 50.6639 112.553 51.2072 114.435 54.4752L117.306 59.1784L108.345 64.6257L105.523 59.8718C103.641 56.7527 103.494 55.6636 105.771 54.3268L105.226 53.3854L97.007 58.2878L97.55 59.3269C99.8274 57.8418 100.621 58.387 102.7 61.655L109.433 72.9931C111.364 76.2612 111.464 77.2029 109.187 78.54L109.732 79.4795L117.951 74.6278L117.454 73.538C115.127 75.0234 114.336 74.4791 112.306 71.2607L109.187 65.9638L118.099 60.5653L121.367 65.8154C123.248 69.0832 123.397 70.0234 121.07 71.3603L121.615 72.3505L129.933 67.2997L129.339 66.3603C127.061 67.8459 126.12 67.2994 124.189 64.0809L117.455 52.6938C115.375 49.6239 115.376 48.4837 117.703 47.1469L117.158 46.2074L117.158 46.2076ZM280.579 47.3638C280.863 47.3534 281.151 47.3641 281.442 47.395C281.541 51.7523 281.987 55.9599 282.928 60.0201C281.542 60.4162 280.057 60.0199 278.719 59.4752L278.423 59.3268L278.126 59.1295L277.878 58.9811L277.581 58.733L277.333 58.5338L277.087 58.3365L276.887 58.0885L276.69 57.8404L276.491 57.5435L276.294 57.2974L276.096 56.9986L275.948 56.7017L275.798 56.4048L275.7 56.108L275.551 55.8111L275.452 55.5142L275.403 55.2173L275.303 54.8696L275.255 54.5728L275.204 54.2271L275.155 53.8794V53.5825V53.2368V52.9399L275.204 52.5923L275.255 52.2466L275.303 51.9497L275.403 51.6528L275.501 51.3051L275.6 51.0082L275.749 50.7114L275.897 50.4145C276.807 48.5083 278.589 47.4361 280.579 47.3637L280.579 47.3638ZM334.524 51.4556L329.374 52.2974L335.315 56.7545L334.524 51.4556H334.524ZM83.5823 53.1392L83.1877 58.5358L88.8812 53.6334L83.5823 53.1393L83.5823 53.1392ZM343.584 59.0807L338.286 59.4772L343.981 64.3288L343.584 59.0808V59.0807ZM74.6222 60.8131L74.5226 66.11L80.0675 60.9616L74.6222 60.8131L74.6222 60.8131ZM332.734 65.7135L332.09 66.5065C334.119 68.2888 333.823 69.3282 331.396 72.0514L322.584 82.0535C320.008 84.9256 319.067 85.1733 317.185 83.4402L316.344 84.2332L323.523 90.62L324.316 89.7782C322.336 88.0451 322.582 87.1053 325.058 84.2332L329.217 79.6277L337.09 86.6589L332.881 91.2625C330.454 94.1346 329.514 94.3823 327.484 92.6492L326.791 93.4422L333.969 99.9285L334.762 99.1355C332.732 97.2541 332.88 96.3162 335.455 93.4441L344.268 83.5905C346.693 80.7184 347.636 80.3224 349.666 82.2038L350.508 81.4108L343.18 74.8756L342.486 75.8658C344.516 77.5988 344.268 78.5392 341.693 81.2623L338.031 85.4675L330.16 78.4401L333.824 74.3796C336.299 71.5073 337.338 71.26 339.269 72.9929L340.062 72.0515L332.734 65.7135V65.7135ZM352.093 67.0533L346.845 67.2018L352.242 72.3502L352.094 67.0533L352.093 67.0533ZM71.5512 68.6862L66.2542 68.9322L66.4027 74.2311L71.5511 68.6861L71.5512 68.6862ZM83.4323 71.2604V71.2624L70.4612 83.5905L71.2522 84.3815C73.2826 82.5988 74.2224 82.8967 76.7971 85.6198L85.8597 95.2254C88.5835 97.8995 88.7313 98.8393 86.85 100.77L87.641 101.563L95.0687 94.532L94.2758 93.741L94.0297 93.9383L93.8305 94.0867L93.6332 94.284L93.434 94.4344L93.2367 94.5321L93.0394 94.6805L92.8402 94.7801L92.6918 94.8797L92.4945 94.9774L92.3461 95.0282L92.1468 95.077L91.9984 95.1258L91.8499 95.1766H91.6527H91.5042L91.3558 95.1258H91.2074L91.0081 95.077L90.8597 94.9774L90.7113 94.9285L90.514 94.8289L90.3656 94.7313L90.1663 94.6317L89.9973 94.4827L89.8483 94.3347L89.6493 94.1857L89.4523 93.9867L89.2543 93.7897L89.0063 93.5917L88.8093 93.3927L88.5613 93.1446L88.3623 92.8986L83.8563 88.1446L84.9463 87.2016C86.729 85.3202 89.0068 83.4403 91.9776 86.559L92.6709 85.8657L85.8877 78.8344L85.2431 79.4789C87.6688 82.3511 86.4306 84.2319 84.1533 86.4106L83.2139 87.352L79.1533 83.2915C76.8263 80.8651 76.1328 79.7762 78.3115 77.7465C82.1239 74.0824 84.0053 74.0815 88.9076 74.8735L89.1557 73.9321L83.4603 71.2602L83.4323 71.2604ZM354.964 75.3209L360.115 80.8658L360.213 75.4205L354.965 75.3209L354.964 75.3209ZM63.5221 76.9537L58.2741 77.4498L58.7702 82.7467L63.5222 76.9537L63.5221 76.9537ZM362.535 83.987L367.288 89.78L367.831 84.53L362.534 83.987L362.535 83.987ZM56.0921 85.7175L50.7932 86.5612L51.635 91.8093L56.0921 85.7174V85.7175ZM357.384 89.1355L356.443 89.7781C357.929 91.8085 357.384 92.7498 354.414 94.9285L345.203 101.563C340.994 104.682 340.748 109.039 343.867 113.198C347.383 118.1 351.294 118.646 356.146 115.13L364.562 108.892C367.682 106.713 368.623 106.565 370.257 108.743L371.197 108.05L366.593 101.86L365.652 102.505L365.8 102.702L365.9 102.899L365.998 103.05L366.097 103.247L366.197 103.396L366.295 103.544L366.345 103.741L366.394 103.89L366.443 104.04V104.189L366.494 104.337V104.485V104.634L366.443 104.732L366.394 104.88V105.03L366.295 105.179L366.246 105.327L366.146 105.476L366.048 105.624L365.949 105.773L365.8 105.921L365.652 106.069L365.503 106.218L365.355 106.415L365.156 106.564L364.959 106.712L364.761 106.911L364.513 107.109L364.265 107.257L364.017 107.456L363.869 107.554L363.771 107.653L356.294 113.099C352.532 115.773 348.718 117.803 345.45 113.198C342.38 108.891 345.054 105.771 348.718 103.196L356.443 97.6514C359.414 95.4734 360.353 95.2257 362.136 97.503L362.929 96.8096L357.384 89.1357L357.384 89.1355ZM369.567 93.0476L374.022 99.1375L374.864 93.8386L369.567 93.0476V93.0476ZM296.732 93.7371L296.73 93.7391L294.798 103.196C261.921 144.737 189.188 147.463 185.427 210.787L186.912 212.965C190.576 218.263 181.762 225.986 179.584 229.651C174.83 234.206 174.981 237.475 184.982 239.504C184.982 241.683 184.734 244.258 183.793 245.991C183.941 247.477 186.367 249.506 186.367 249.506C187.456 250.744 185.426 251.685 185.822 253.171C186.218 255.349 188.645 254.657 190.576 258.469C184.981 282.583 220.482 258.072 226.721 279.314C224.394 295.554 203.55 294.367 194.34 307.736C187.012 324.818 198.252 330.363 198.252 330.511L199.539 331.056L200.826 331.552L202.065 331.997L203.303 332.394L204.539 332.74L205.778 333.085L207.016 333.333L208.203 333.533L209.393 333.681L210.58 333.779L211.77 333.829H212.908H214.047L215.184 333.73L216.274 333.581L217.366 333.433L218.455 333.234L219.494 332.937L220.534 332.64L221.575 332.294L222.614 331.898L223.602 331.452L224.545 330.956L225.536 330.462L226.426 329.866L227.368 329.273L228.258 328.63L229.149 327.937L229.991 327.243L230.834 326.45L231.625 325.659L232.418 324.818H232.416C224.94 322.887 218.603 325.907 211.424 315.212C207.463 292.188 232.664 296.793 245.538 285.009C254.747 256.687 211.918 271.591 210.037 261.441C210.037 260.748 207.759 259.163 209.096 255.103C208.403 252.626 209.393 251.142 206.125 249.013C205.333 245.893 206.373 246.833 206.522 245.991C205.581 243.317 203.697 245.991 203.697 243.169C202.856 240.346 204.242 239.109 203.004 236.931C201.667 235.594 195.973 235.195 196.518 232.868C200.826 225.292 203.848 219.203 203.551 221.085C203.947 219.352 203.947 218.66 203.551 216.778C202.214 211.876 199.491 206.777 205.828 199.844C213.156 165.729 256.382 158.996 277.87 137.16C289.258 127.95 304.459 123.64 306.192 106.854C304.162 101.953 303.072 95.0703 296.735 93.7333L296.732 93.7371ZM49.06 94.9285L43.9096 96.0164L44.9994 101.165L49.0599 94.9285H49.06ZM64.6361 96.1945C61.5725 96.2688 58.6271 97.5312 56.5228 100.378C52.4626 106.023 55.1846 113.101 60.433 116.716L60.9291 117.064L61.4232 117.41L61.9682 117.707L62.4643 118.003L63.0092 118.251L63.5541 118.499L64.099 118.748L64.642 118.945L65.2377 119.093L65.7826 119.242L66.3276 119.39L66.9213 119.49L67.4662 119.539L68.06 119.589L68.6049 119.638H69.1987L69.7436 119.589L70.2885 119.539L70.8823 119.441L71.4272 119.292L71.9721 119.144L72.4682 118.994L73.0131 118.748L73.5073 118.548L74.0034 118.251L74.4975 117.955L74.9936 117.609L75.4389 117.212L75.8842 116.816L76.3296 116.371L76.726 115.874L77.1225 115.38H77.1205C81.3291 109.686 78.8536 102.952 73.4564 99.1402C70.8817 97.234 67.6996 96.1206 64.636 96.1949L64.6361 96.1945ZM62.2279 98.6633C65.2915 98.6793 68.7426 100.501 71.0327 102.111C74.6474 104.685 79.6972 109.983 76.2807 114.687L76.1323 114.935L75.9838 115.132L75.8354 115.281L75.6362 115.48L75.4877 115.628L75.2905 115.825L75.0932 115.925L74.894 116.073L74.6967 116.222L74.5483 116.322L74.3002 116.419L74.103 116.519L73.7065 116.667L73.2612 116.816L72.8139 116.915L72.3686 116.964L71.9233 117.013H71.4291H70.9818L70.4877 116.964L69.9916 116.865L69.4975 116.767L69.0014 116.667L68.5561 116.519L68.0619 116.37L67.5658 116.222L67.1205 116.023L66.6244 115.825L66.1791 115.628L65.7338 115.429L65.2885 115.183L64.8432 114.935L64.4467 114.736L64.0502 114.489L63.6537 114.241L63.308 113.993L62.9603 113.745L62.6146 113.499C59.099 111.073 54.2477 105.625 57.4662 101.02C58.6917 99.2935 60.3898 98.6531 62.2279 98.6627L62.2279 98.6633ZM376.09 102.507L380.297 108.744L381.387 103.595L376.09 102.507H376.09ZM42.7178 104.437L37.5673 105.773L38.954 110.923L42.7178 104.437ZM382.08 112.41L385.844 118.896L387.231 113.746L382.08 112.41ZM36.7677 114.289L31.7189 116.07L33.5001 121.072L36.7677 114.289ZM376.23 116.32L375.141 116.714C376.379 119.289 375.687 119.983 372.32 121.617L360.238 127.162C356.871 128.795 355.932 128.649 354.693 126.222L353.752 126.617L357.019 133.797L358.109 133.4C356.871 130.974 357.565 130.133 360.932 128.5L375.983 121.619V121.767L359.2 138.65L359.743 139.74L383.411 138.107V138.256L368.509 145.187C365.142 146.673 364.2 146.67 362.962 144.096L362.022 144.64L366.083 153.404L367.173 153.008L367.075 152.81L366.975 152.562L366.876 152.365L366.778 152.166L366.727 151.969L366.678 151.82L366.628 151.623L366.579 151.474V151.275V151.127V150.978L366.628 150.83V150.682L366.678 150.533L366.727 150.433L366.827 150.285L366.876 150.137L366.975 150.037L367.124 149.889L367.223 149.74L367.372 149.642L367.569 149.494L367.717 149.394L367.917 149.246L368.114 149.098L368.311 148.998L368.559 148.849L368.807 148.701L368.956 148.652L369.104 148.601L369.253 148.504L369.401 148.453L369.549 148.353L369.698 148.305L369.846 148.205L369.995 148.156L382.075 142.613C385.442 140.979 386.384 141.126 387.622 143.553L388.552 143.163L385.433 136.379L364.44 137.864L379.195 122.962L376.224 116.327L376.222 116.325L376.23 116.32ZM387.475 122.558L390.84 129.193L392.623 124.191L387.475 122.558V122.558ZM31.4717 124.587L26.5693 126.468L28.6005 131.47L31.4717 124.588V124.587ZM41.3721 129.587L33.8975 147.611L38.7979 152.214L39.4425 151.523C37.3134 149.096 35.9271 145.431 37.3135 142.312C38.2543 140.133 39.8874 141.373 41.4718 142.066L54.4929 147.462C58.0083 148.948 58.7014 149.642 57.4636 152.464L58.5534 153.007L62.4655 143.402L61.5241 142.859L61.4265 143.156L61.3269 143.402L61.1784 143.65L61.0788 143.849L60.9792 144.046L60.8308 144.243L60.7331 144.392L60.6335 144.54L60.485 144.691L60.3366 144.839L60.237 144.937L60.0885 145.036L59.9401 145.136L59.7917 145.185L59.6432 145.234L59.4948 145.284L59.3463 145.333H59.1979H58.9987H58.8014L58.6041 145.284H58.4049L58.2077 145.234L58.0084 145.185L57.7623 145.085L57.5143 145.036L57.2662 144.937L57.0182 144.839L56.7213 144.74L56.4733 144.591L56.1764 144.492L55.8307 144.343L42.8576 138.945C41.2237 138.252 39.1942 137.855 39.9865 135.826C41.3729 132.706 44.8884 130.974 48.1564 130.677V129.884L41.3712 129.587L41.3721 129.587ZM290.924 131.222L290.918 131.226L290.924 131.232C290.924 131.232 290.924 131.222 290.924 131.222ZM290.924 131.232C290.925 131.246 291.016 132.206 290.848 133.822C290.615 136.059 289.886 139.535 287.739 143.428C287.543 143.782 287.335 144.138 287.115 144.498C286.896 144.858 286.665 145.221 286.42 145.586C286.175 145.951 285.917 146.319 285.645 146.688C285.373 147.056 285.088 147.429 284.787 147.801C284.487 148.172 284.172 148.545 283.842 148.918C283.512 149.291 283.168 149.664 282.807 150.037C282.085 150.783 281.3 151.527 280.445 152.266C279.591 153.004 278.666 153.736 277.668 154.457C277.169 154.818 276.65 155.177 276.113 155.531C275.039 156.241 273.887 156.937 272.652 157.615C270.183 158.971 267.753 160.367 265.383 161.776C264.198 162.48 263.028 163.188 261.875 163.895C249.192 171.676 238.61 179.436 233.461 182.639C232.993 182.93 232.569 183.184 232.193 183.397C231.817 183.609 231.489 183.781 231.211 183.908C230.771 184.106 230.26 184.418 229.701 184.824C229.422 185.028 229.131 185.255 228.832 185.502C227.933 186.243 226.955 187.167 225.984 188.203C225.66 188.549 225.337 188.906 225.017 189.274C224.379 190.007 223.755 190.78 223.172 191.567C222.588 192.354 222.045 193.155 221.566 193.951C220.608 195.544 219.909 197.11 219.668 198.473C219.607 198.814 219.574 199.143 219.574 199.455C219.574 199.455 219.336 200.276 218.994 201.541C218.823 202.174 218.628 202.918 218.422 203.727C217.701 206.558 216.869 210.18 216.646 212.586C216.615 212.93 216.594 213.249 216.59 213.538C216.58 214.114 216.628 214.568 216.752 214.852C217.309 216.399 217.905 218.083 217.814 219.696C217.769 220.502 217.552 221.292 217.072 222.038C216.976 222.187 216.869 222.334 216.752 222.479L211.951 227.579C211.951 227.579 210.693 228.177 210.535 229.413C210.519 229.536 210.515 229.667 210.523 229.803C210.566 230.485 210.945 231.327 211.951 232.333C211.951 232.333 212.25 232.332 212.715 232.354C213.411 232.387 214.477 232.467 215.451 232.671C216.263 232.84 217.011 233.094 217.431 233.475C217.516 233.551 217.587 233.633 217.642 233.719C217.766 233.905 217.846 234.108 217.896 234.325C218.149 235.41 217.652 236.852 218.074 238.313C218.158 238.606 218.28 238.899 218.451 239.19C218.537 239.336 218.634 239.481 218.746 239.626C218.858 239.77 218.984 239.913 219.127 240.055C219.411 240.328 219.549 240.542 219.601 240.739C219.628 240.837 219.632 240.931 219.625 241.026C219.618 241.121 219.597 241.217 219.572 241.319C219.547 241.421 219.518 241.529 219.492 241.649C219.44 241.889 219.404 242.173 219.445 242.546C219.466 242.732 219.504 242.939 219.572 243.175C219.671 243.645 219.722 243.999 219.783 244.3C219.814 244.45 219.846 244.587 219.89 244.719C219.978 244.985 220.108 245.233 220.342 245.526C220.692 245.966 221.276 246.511 222.297 247.384C223.002 247.953 223.409 248.379 223.619 248.729C223.671 248.817 223.713 248.9 223.742 248.979C223.8 249.137 223.813 249.278 223.797 249.413C223.789 249.48 223.772 249.547 223.75 249.612C223.615 250.002 223.256 250.363 223 250.917C222.915 251.101 222.84 251.308 222.791 251.544C222.729 251.785 222.632 252.09 222.531 252.444C222.43 252.798 222.325 253.201 222.246 253.634C222.167 254.066 222.115 254.531 222.119 255.009C222.121 255.247 222.137 255.488 222.172 255.731C222.206 255.975 222.26 256.22 222.334 256.464C222.482 256.951 222.718 257.434 223.072 257.897C223.249 258.129 223.455 258.356 223.695 258.575C223.935 258.794 224.207 259.007 224.517 259.21C224.828 259.412 225.176 259.604 225.564 259.786C226.341 260.149 227.281 260.466 228.416 260.72C228.983 260.846 229.599 260.957 230.268 261.05C230.945 261.133 231.618 261.195 232.285 261.239C234.285 261.37 236.23 261.333 238.086 261.192C238.705 261.145 239.313 261.088 239.91 261.02C242.897 260.682 245.603 260.114 247.867 259.614C250.132 259.114 251.954 258.682 253.176 258.616C253.42 258.603 253.641 258.605 253.836 258.624C254.861 258.742 255.831 258.862 256.75 258.987C257.669 259.112 258.538 259.242 259.358 259.374C261.819 259.771 263.855 260.201 265.563 260.665C266.701 260.974 267.693 261.298 268.569 261.638C269.007 261.807 269.416 261.98 269.799 262.157C270.182 262.334 270.538 262.516 270.873 262.7C271.544 263.07 272.127 263.455 272.651 263.855C273.174 264.254 273.638 264.668 274.073 265.099C274.29 265.314 274.5 265.534 274.705 265.757C275.117 266.203 275.512 266.665 275.92 267.142C276.926 268.317 279.88 270.223 283.838 271.814C284.63 272.132 285.462 272.436 286.327 272.72C288.055 273.289 289.915 273.776 291.844 274.11C292.327 274.194 292.814 274.269 293.303 274.333C294.284 274.46 295.276 274.544 296.276 274.579C298.276 274.649 300.302 274.519 302.292 274.12C303.287 273.921 304.272 273.655 305.241 273.314C306.695 272.801 308.113 272.119 309.467 271.239C310.37 270.653 311.245 269.977 312.085 269.206C312.924 268.435 313.73 267.568 314.491 266.597C316.014 264.666 317.292 263.062 318.37 261.735C319.448 260.408 320.324 259.359 321.03 258.532C321.619 257.842 322.029 257.387 322.405 256.98L322.161 257.04L321.764 257.188L321.27 257.337L320.774 257.485L320.229 257.634L319.636 257.782L319.042 257.931L318.397 258.079L317.706 258.228L317.012 258.376L316.319 258.524L315.577 258.673L314.833 258.821L314.091 258.921L313.3 259.021L312.557 259.12L311.764 259.169L310.973 259.218H310.18H309.389L308.596 259.169L307.805 259.12L307.063 259.021L306.27 258.872L305.528 258.724L304.786 258.524L304.092 258.278L303.399 257.979L302.706 257.683C300.539 256.531 298.595 255.534 296.844 254.669C293.343 252.938 290.616 251.735 288.434 250.884C286.252 250.032 284.615 249.531 283.297 249.206C281.979 248.88 280.98 248.727 280.069 248.575C279.613 248.499 279.181 248.424 278.741 248.325C278.264 248.207 277.738 248.095 277.155 247.999C274.533 247.564 270.777 247.431 265.38 248.393C264.78 248.5 264.161 248.622 263.52 248.757C262.879 248.892 262.218 249.041 261.534 249.206C259.483 249.702 257.236 250.34 254.776 251.147C253.956 251.41 253.189 251.634 252.471 251.823C251.036 252.202 249.796 252.442 248.729 252.573C248.195 252.638 247.705 252.676 247.253 252.69C245.897 252.734 244.893 252.566 244.151 252.29C243.904 252.198 243.685 252.094 243.493 251.981C243.3 251.869 243.134 251.749 242.989 251.624C241.975 250.751 242.051 249.663 242.051 249.663C242.051 249.329 242.095 248.754 242.124 248.083C242.174 246.909 242.178 245.434 241.827 244.409C241.777 244.263 241.72 244.127 241.655 244.001C241.524 243.749 241.359 243.543 241.155 243.399C241.053 243.328 240.942 243.271 240.819 243.233C240.696 243.195 240.562 243.175 240.417 243.175C240.163 243.166 239.932 243.146 239.723 243.116C239.514 243.086 239.327 243.047 239.159 242.999C238.99 242.951 238.841 242.894 238.71 242.831C238.446 242.706 238.253 242.554 238.114 242.386C237.906 242.133 237.819 241.845 237.805 241.559C237.787 241.179 237.895 240.805 238.008 240.524C238.121 240.243 238.239 240.057 238.239 240.057L237.991 239.364C237.601 239.296 237.286 239.194 237.036 239.069C236.911 239.007 236.802 238.939 236.708 238.866C236.518 238.719 236.386 238.552 236.297 238.376C235.81 237.409 236.653 236.145 236.653 236.145C236.61 235.848 236.561 235.579 236.51 235.333C236.46 235.086 236.406 234.862 236.348 234.661C236.233 234.259 236.104 233.942 235.961 233.692C235.819 233.441 235.664 233.257 235.497 233.118C235.161 232.839 234.775 232.743 234.346 232.669C234.132 232.632 233.908 232.6 233.672 232.553C233.437 232.507 233.191 232.446 232.936 232.35C232.681 232.254 232.419 232.124 232.147 231.938C231.881 231.771 231.636 231.585 231.416 231.385C230.54 230.586 230.058 229.55 230.114 228.46C230.128 228.187 230.175 227.912 230.258 227.635C230.425 227.083 230.735 226.529 231.206 225.997C231.527 225.641 231.818 225.289 232.081 224.944C232.344 224.599 232.578 224.258 232.788 223.924C233.206 223.258 233.522 222.618 233.756 222.008C234.108 221.095 234.276 220.251 234.331 219.503C234.457 217.755 233.964 216.515 233.739 216.049C233.674 215.916 233.631 215.846 233.631 215.846C233.074 212.999 233.322 210.287 234.213 207.69C234.436 207.041 234.7 206.4 235.001 205.764C235.151 205.446 235.31 205.129 235.479 204.815C235.648 204.501 235.827 204.189 236.014 203.877C236.762 202.633 237.653 201.414 238.663 200.217C241.19 197.226 244.475 194.377 248.208 191.625C249.701 190.525 251.265 189.44 252.881 188.368C253.69 187.832 254.511 187.3 255.342 186.77C258.669 184.65 262.163 182.575 265.664 180.524C269.166 178.472 272.677 176.444 276.036 174.416C277.715 173.402 279.356 172.389 280.94 171.373C282.524 170.357 284.048 169.338 285.497 168.313C286.221 167.8 286.927 167.285 287.61 166.77C289.658 165.223 291.509 163.662 293.096 162.074C293.625 161.547 294.12 161.021 294.581 160.5C295.041 159.978 295.468 159.46 295.864 158.945C296.259 158.43 296.62 157.919 296.954 157.412C297.287 156.905 297.591 156.4 297.866 155.9C298.14 155.401 298.385 154.907 298.604 154.416C298.823 153.925 299.017 153.438 299.184 152.957C299.351 152.476 299.493 152 299.612 151.529C299.731 151.058 299.827 150.591 299.901 150.131C300.048 149.21 300.107 148.312 300.094 147.437C300.087 147.001 300.064 146.57 300.022 146.146C299.98 145.722 299.921 145.305 299.848 144.894C299.775 144.484 299.688 144.08 299.586 143.683C299.485 143.287 299.369 142.897 299.243 142.515C298.863 141.371 298.38 140.294 297.836 139.295C297.655 138.961 297.467 138.636 297.274 138.32C296.889 137.689 296.484 137.092 296.073 136.535C295.25 135.42 294.403 134.458 293.639 133.672C292.875 132.885 292.195 132.274 291.705 131.859C291.22 131.448 290.929 131.236 290.924 131.232L290.924 131.232ZM392.375 133.006L395.346 139.889L397.228 134.887L392.375 133.006V133.006ZM26.862 135.035L21.9616 137.312L24.2878 142.164L26.862 135.035ZM396.535 143.701L399.109 150.73L401.287 145.978L396.535 143.701L396.535 143.701ZM22.802 145.828L18.0481 148.402L20.6223 153.008L22.802 145.828ZM400.045 154.643L402.225 161.822L404.699 157.07L400.045 154.643V154.643ZM368.256 156.674L367.166 156.971L369.443 165.338L370.533 165.09C370.137 163.703 369.89 161.971 371.623 161.426C372.564 161.277 375.287 161.525 376.377 161.525L377.713 161.674L380.041 169.943L376.377 172.369C375.981 172.765 375.039 173.31 374.445 173.607C372.712 174.003 372.564 171.824 372.168 170.734L371.078 171.031L373.652 180.637L374.742 180.389C374.594 179.547 374.594 178.756 375.138 177.914C375.832 176.824 378.258 175.24 379.496 174.399L395.586 163.606L393.953 160.733L374.445 159.793C372.019 159.645 369.048 159.496 368.256 156.674L368.256 156.674ZM19.433 156.82L14.8274 159.643L17.6498 164.1L19.433 156.82ZM30.7691 157.07L29.185 164.793L30.2749 164.941C30.7699 162.367 31.859 162.07 35.5229 162.912L47.851 165.486L27.1558 174.547L25.9175 180.241L27.1558 180.489C27.651 177.814 28.5908 177.518 32.3043 178.36L45.2774 181.033C48.9413 181.875 49.7343 182.371 49.1895 185.094L50.2793 185.391L51.9121 177.666L50.7246 177.369C50.1305 180.093 49.1888 180.24 45.5742 179.547L31.0681 176.428L54.2402 166.278L54.4863 165.19L35.8202 161.278C32.1562 160.585 31.3146 159.942 31.8593 157.368L30.7695 157.071L30.7691 157.07ZM379.342 161.674L391.373 162.367L381.371 169.15L379.342 161.674L379.342 161.674ZM402.91 165.734L404.693 173.063L407.516 168.606L402.912 165.734H402.91ZM16.5569 168.061L12.2503 171.031L15.3206 175.338L16.5569 168.061ZM405.19 176.973L406.577 184.449L409.547 180.092L405.19 176.973V176.973ZM14.3769 179.299L10.3164 182.666L13.584 186.727L14.377 179.299H14.3769ZM397.76 181.33C398.008 184.004 397.215 184.549 393.551 184.994L380.281 186.282C376.518 186.578 375.677 186.182 375.429 183.459L374.191 183.608L375.033 191.432L376.068 191.332C375.855 188.609 376.813 188.208 380.429 187.817L395.185 186.281L376.074 202.968L376.223 204.057L395.186 202.274C398.85 201.878 399.79 202.276 400.037 204.999L401.127 204.85L400.434 197.026L399.395 197.175C399.642 199.849 398.701 200.394 395.037 200.641L382.312 201.88L399.492 187.124L398.947 181.331H397.76L397.76 181.33ZM376.069 191.332C376.072 191.369 376.069 191.395 376.073 191.432V191.332H376.069ZM406.823 188.362L407.616 195.938L411.032 191.729L406.823 188.362H406.823ZM30.7701 189.996L24.8286 192.125L23.9868 209.753L25.2251 209.901C25.3736 207.178 26.1665 206.781 29.9791 206.879L43.2492 207.424C47.0616 207.721 47.8528 208.118 47.7043 210.792L48.7941 210.94L49.6359 192.819L43.3976 189.997L42.9522 190.788C47.0616 194.303 48.3991 195.393 48.1515 200.938C48.0028 204.057 47.3084 204.355 44.5851 204.156L36.7627 203.76L36.9111 202.424C36.7625 199.701 37.1582 196.879 41.4659 197.176V196.186L31.7119 195.69V196.582C35.4254 197.028 35.9204 199.206 35.6728 202.424V203.76L29.2861 203.514C26.0182 203.366 25.5229 203.118 25.622 199.701C25.9191 194.7 27.1564 193.661 31.1669 190.938L30.7704 189.996L30.7701 189.996ZM13.0449 190.639L8.98629 194.301L12.6504 198.213L13.0449 190.639H13.0449ZM407.818 199.848L408.215 207.276L411.73 203.366L407.818 199.848V199.848ZM12.2549 202.125L8.44238 205.938L12.2549 209.75V202.125ZM408.068 211.336V218.813L411.732 215.149L408.068 211.336ZM12.1049 213.665L8.58928 217.721L12.5014 221.239L12.1049 213.665H12.1049ZM48.6442 216.782L47.6051 216.881V217.178V217.375L47.6539 217.624V217.823L47.6051 218.02V218.217V218.417L47.5543 218.565L47.5055 218.713L47.4567 218.862L47.4059 219.01L47.357 219.159L47.2574 219.258L47.1598 219.407L47.0602 219.504L46.9606 219.604L46.8121 219.704L46.7125 219.803L46.5641 219.852L46.4156 219.952L46.2184 220L46.0211 220.1L45.8219 220.149L45.6246 220.198L45.3766 220.248L45.1793 220.297L44.8804 220.346L44.6344 220.397L44.3375 220.446L44.0386 220.494L43.7418 220.545H43.5445H43.3961L30.0759 222.032C26.4614 222.477 25.5214 222.031 25.2243 219.358L23.986 219.455L24.8278 226.786L45.277 232.083L26.4628 241.54L27.2538 248.868L28.3437 248.717C28.0961 245.994 28.8886 245.449 32.7011 245.053L45.8262 243.533C49.6389 243.137 50.4301 243.533 50.8262 246.256L51.916 246.108L51.125 238.234L49.8867 238.383C50.1343 241.106 49.3418 241.651 45.6777 242.047L29.1895 243.83V243.682L50.4317 232.987L50.2833 231.75L27.4081 225.809V225.661L43.6482 223.926C47.4609 223.48 48.4007 223.926 48.6483 226.6L49.7381 226.5L48.6483 216.746L48.6442 216.782ZM382.067 221.485L375.284 223.122C375.68 223.667 376.076 224.606 375.977 225.299C375.829 226.636 374.592 228.42 374.344 230.45C373.799 234.658 376.226 238.272 380.583 238.817C385.831 239.51 387.465 235.303 389.346 231.243C390.287 229.114 391.92 226.09 394.891 226.536C397.367 226.783 399.1 228.963 398.704 231.538C398.308 234.904 395.04 237.084 392.217 238.272L392.614 239.362L398.704 237.878C398.308 237.482 398.307 236.785 398.307 236.141C398.456 235.448 398.556 235.202 398.952 234.36C399.397 233.419 399.645 232.873 399.794 231.784C400.338 227.575 398.158 224.358 393.95 223.813C384.889 222.724 387.068 236.934 379.345 235.993C376.522 235.597 375.135 233.025 375.432 230.45C375.828 226.935 379.492 224.36 382.464 222.577L382.067 221.485L382.067 221.485ZM407.618 222.872L407.222 230.299L411.183 226.784L407.618 222.872H407.618ZM12.6449 225.149L9.22689 229.358L13.4359 232.626L12.6449 225.149H12.6449ZM82.0225 229.059C79.9835 229.073 78.1948 229.257 76.6259 229.575C75.5797 229.787 74.6301 230.057 73.7704 230.376C71.6206 231.173 70.0255 232.269 68.8427 233.487C68.6061 233.73 68.3852 233.979 68.1805 234.231C67.9759 234.483 67.7871 234.737 67.6122 234.995C67.4372 235.252 67.2753 235.512 67.1278 235.772C65.0624 239.412 65.5751 243.175 65.5751 243.175C65.9078 243.011 66.2461 242.859 66.5907 242.716C67.2799 242.43 67.9932 242.183 68.7274 241.975C69.4616 241.767 70.2174 241.598 70.993 241.464C71.3809 241.397 71.7733 241.337 72.1707 241.288C72.9658 241.189 73.7807 241.126 74.6122 241.095C76.2747 241.032 78.0056 241.102 79.7919 241.284C80.6854 241.375 81.5919 241.495 82.5107 241.641C83.4295 241.788 84.3614 241.961 85.3017 242.159C87.1839 242.554 89.1059 243.047 91.0557 243.622C93.9796 244.483 96.9618 245.527 99.9581 246.698C100.957 247.088 101.958 247.493 102.958 247.909C103.957 248.325 104.957 248.752 105.954 249.19C108.946 250.505 111.917 251.911 114.821 253.348C120.631 256.223 126.174 259.231 131.068 261.925C137.592 265.517 142.965 268.551 146.283 269.962C146.436 270.12 146.619 270.282 146.832 270.45C147.044 270.619 147.284 270.793 147.55 270.972C148.083 271.33 148.72 271.711 149.441 272.114C150.883 272.92 152.663 273.816 154.63 274.812C157.582 276.304 160.953 278.017 164.232 279.976C165.871 280.956 167.488 281.997 169.017 283.103C171.057 284.577 172.941 286.165 174.519 287.876C174.914 288.304 175.291 288.739 175.644 289.183C178.121 292.285 179.543 295.768 179.096 299.669C178.968 300.784 178.688 301.933 178.236 303.116C178.01 303.708 177.74 304.307 177.426 304.917C176.398 306.019 175.344 307.015 174.279 307.935C173.746 308.394 173.212 308.835 172.676 309.261C169.456 311.814 166.198 313.817 163.299 316.075C162.815 316.452 162.342 316.835 161.88 317.23C160.957 318.019 160.081 318.85 159.267 319.755C158.86 320.208 158.47 320.68 158.095 321.173C156.973 322.653 156.005 324.33 155.244 326.308C154.996 327.078 154.778 327.825 154.587 328.548C153.636 332.164 153.395 335.207 153.822 337.888C153.992 338.961 154.269 339.975 154.65 340.945C154.84 341.43 155.057 341.903 155.298 342.368C155.782 343.297 156.367 344.189 157.052 345.056C158.08 346.356 159.332 347.603 160.796 348.839C161.773 349.664 162.844 350.482 164.007 351.312C164.66 351.575 165.32 351.809 165.982 352.015C167.306 352.426 168.645 352.724 169.992 352.917C172.011 353.207 174.047 353.26 176.062 353.103C177.406 352.999 178.74 352.802 180.056 352.519C180.715 352.377 181.368 352.214 182.017 352.031C183.961 351.481 185.853 350.747 187.66 349.857C188.865 349.263 190.032 348.599 191.152 347.874C191.712 347.512 192.26 347.132 192.795 346.74C193.33 346.347 193.852 345.939 194.359 345.519C193.802 345.414 193.143 345.314 192.406 345.197C191.67 345.079 190.859 344.946 190 344.771C189.57 344.683 189.129 344.584 188.68 344.474C187.781 344.253 186.849 343.981 185.912 343.634C185.443 343.461 184.973 343.27 184.506 343.056C183.104 342.415 181.722 341.582 180.457 340.478C180.035 340.11 179.629 339.712 179.236 339.281C177.863 337.772 176.692 335.862 175.873 333.425C175.756 333.077 175.647 332.719 175.545 332.349C174.604 326.877 173.725 323.263 174.232 320.038C174.486 318.426 175.086 316.91 176.199 315.309C177.033 314.109 178.156 312.859 179.636 311.485C180.13 311.027 180.665 310.556 181.24 310.067C181.933 309.473 182.669 308.936 183.435 308.432C184.969 307.424 186.626 306.548 188.318 305.61C189.587 304.906 190.873 304.167 192.141 303.311C192.986 302.741 193.822 302.119 194.639 301.42C195.047 301.071 195.449 300.702 195.846 300.311C196.242 299.92 196.631 299.508 197.014 299.071C198.16 297.757 199.236 296.219 200.201 294.372C200.26 293.635 200.235 292.892 200.137 292.151C200.087 291.78 200.021 291.412 199.935 291.041C199.85 290.671 199.746 290.299 199.627 289.928C199.507 289.558 199.37 289.188 199.219 288.819C198.915 288.08 198.549 287.345 198.129 286.614C197.078 284.785 195.688 282.985 194.084 281.252C192.159 279.172 189.927 277.186 187.605 275.358C182.189 271.09 176.289 267.675 172.671 265.899L167.572 263.424L162.569 260.996L157.667 258.619L152.864 256.242L148.062 253.916L143.36 251.639L133.952 247.183L124.544 242.826L119.741 240.695L114.89 238.617L109.938 236.588L104.887 234.556L99.739 232.529L94.4401 230.599V230.597C93.4545 230.376 92.5028 230.182 91.5827 230.011C87.9028 229.33 84.7405 229.042 82.0221 229.06V229.058L82.0225 229.059ZM406.575 234.214L405.636 241.837L409.845 238.419L406.575 234.213L406.575 234.214ZM13.7319 236.686L10.7612 240.993L15.0698 243.964L13.7319 236.686ZM372.855 242.878L367.952 260.355L373.499 264.562L374.042 263.87C370.824 259.414 369.735 258.176 371.22 252.778C372.012 249.807 372.854 249.659 375.429 250.353L383.005 252.53L382.609 253.868C382.064 256.443 381.122 259.165 376.913 257.927L376.617 258.87L385.974 261.443L386.222 260.652C382.855 259.414 382.855 257.135 383.697 254.114L384.093 252.78L390.183 254.413C393.401 255.354 393.849 255.6 392.859 259.017C391.671 263.77 390.185 264.562 385.579 266.345L385.827 267.288L391.917 266.595L396.671 249.513L395.581 249.116C394.889 251.691 393.849 251.989 390.285 251.048L377.46 247.481C373.945 246.442 373.102 245.75 373.945 243.175L372.855 242.878L372.855 242.878ZM404.793 245.598L403.555 253.075L407.912 250.056L404.793 245.599V245.598ZM15.6199 248.024L12.8953 252.53L17.3524 255.204L15.6199 248.024V248.024ZM34.2841 254.413L29.1844 258.622L35.1259 277.14L41.7607 277.537L41.9111 276.595C38.6432 276.051 35.2744 274.17 34.2841 270.902C33.4919 268.773 35.6716 268.476 37.3056 267.931L50.7237 263.623C54.338 262.533 55.3278 262.681 56.2687 265.652L57.3097 265.257L54.0908 255.353L53.001 255.601L53.1006 255.898L53.1495 256.146L53.1983 256.394L53.2979 256.642V256.888L53.3467 257.087L53.3975 257.285V257.482V257.681V257.829L53.3467 257.978L53.2979 258.175L53.2491 258.324L53.1983 258.474L53.1495 258.572L53.0499 258.72L52.9522 258.869L52.8526 258.968L52.7041 259.117L52.5557 259.216L52.4073 259.314L52.2588 259.414L52.0596 259.513L51.8623 259.662L51.6651 259.761L51.417 259.859L51.2178 259.958L50.9209 260.058L50.6729 260.156L50.376 260.255L50.0791 260.404L49.7334 260.503L36.2153 264.812C34.5813 265.356 32.7984 266.346 32.1548 264.167C31.0654 260.899 32.6994 257.384 34.9771 255.107L34.2837 254.413L34.2841 254.413ZM323.736 255.729C323.69 255.744 323.623 255.781 323.533 255.849C323.324 256.007 322.925 256.409 322.4 256.977L322.553 256.938L322.9 256.839L323.197 256.79L323.443 256.69H323.445C323.445 256.69 323.76 256.149 323.82 255.876C323.833 255.821 323.835 255.778 323.822 255.751C323.81 255.724 323.783 255.715 323.737 255.729L323.736 255.729ZM402.368 256.839L400.735 264.316L405.19 261.442L402.368 256.839V256.839ZM18.195 259.165L15.6207 263.868L20.3728 266.444L18.1951 259.165H18.195ZM365.528 267.534L361.715 276.347L362.705 276.892C363.795 274.465 364.834 274.317 368.25 275.802L374.043 278.378L373.102 280.556L359.288 282.04L357.011 287.191L357.952 287.736C359.041 285.161 360.131 285.261 362.706 285.013L371.915 284.072C370.974 287.191 371.915 290.953 375.034 292.439C379.491 294.37 382.709 290.26 384.343 286.646L388.304 277.437L387.313 277.04C385.977 280.11 384.193 279.17 381.618 277.982L369.587 272.683C366.22 271.197 365.527 270.406 366.616 267.931L365.528 267.534L365.528 267.534ZM399.395 267.931L397.217 275.257L401.969 272.683L399.395 267.931H399.395ZM21.312 270.257L19.1343 275.109L23.8863 277.286L21.3121 270.257H21.312ZM59.7833 272.439L58.7931 272.933C60.1795 275.408 59.2381 276.053 57.8516 278.232L52.752 285.954C50.9695 283.231 47.4534 281.498 44.3339 283.132C39.9767 285.261 41.0676 290.411 42.9491 293.927L47.4551 302.888L48.543 302.343C47.0575 299.372 48.7905 298.68 51.2168 297.343L63.0019 291.351C66.4184 289.617 67.3586 289.618 68.5468 292.044L69.5371 291.499L65.1796 282.984L64.0898 283.529C65.3276 285.806 64.7836 286.647 61.5156 288.38L55.8222 291.253L54.7323 289.076L62.3574 277.438L59.7832 272.438L59.7833 272.439ZM375.136 278.773L381.226 281.495C383.701 282.585 384.641 283.13 383.552 285.704C382.314 288.379 379.493 290.408 376.374 289.22C372.859 287.586 372.858 283.378 374.343 280.407L375.136 278.773H375.136ZM395.734 278.923L393.16 285.952L397.914 283.675L395.736 278.923H395.734V278.923ZM25.081 281.099L23.1982 286.101L28.1005 287.982L25.081 281.099V281.099ZM48.5382 285.652C51.003 285.791 53.0922 287.824 54.0948 290.163L54.8859 291.798L48.796 294.868C46.5185 295.957 45.5789 296.502 44.1925 293.927C42.8557 291.253 42.9536 287.836 45.9737 286.202C46.8526 285.769 47.7165 285.605 48.5382 285.652H48.5382ZM391.381 289.616L388.41 296.499L393.41 294.468L391.381 289.616V289.616ZM29.5881 291.794L27.9532 296.796L32.9533 298.429L29.5881 291.794ZM71.0294 294.37L70.1876 295.015C70.5837 295.857 70.8811 296.5 70.5841 297.441C70.3362 298.679 68.5519 301.105 67.7598 302.195L56.3727 317.89L58.947 320.07L77.5131 314.226C79.9395 313.582 82.812 312.641 84.396 315.067L85.3862 314.376L80.3374 307.345L79.3959 308.038C80.2378 309.128 81.0299 310.712 79.6928 311.702C78.8519 312.197 76.127 313.039 75.0873 313.286L73.851 313.732L68.8489 306.651L71.4232 303.136C71.6706 302.591 72.3649 301.649 72.7611 301.401C74.2465 300.312 75.187 302.344 76.0287 303.136L76.8217 302.491L71.0286 294.37L71.0294 294.37ZM349.442 297.443L348.897 298.431L360.137 313.829C361.077 314.919 362.711 317.246 362.811 318.731C362.959 319.672 362.414 320.365 362.018 321.157L362.957 321.851L367.713 314.77L366.77 314.126C365.928 315.066 365.136 316.553 363.799 315.612C362.957 315.068 361.473 313.036 360.779 312.194L353.203 301.946L367.314 305.708C367.958 305.857 369.443 306.253 370.137 306.649C371.374 307.491 370.386 308.827 369.742 309.768L370.681 310.462L376.525 301.798L375.535 301.253C375.04 302.045 374.348 303.036 373.506 303.432C372.565 303.828 371.474 303.432 369.988 303.036L349.441 297.442L349.442 297.443ZM386.528 299.915L383.112 306.65L388.161 305.066L386.528 299.915ZM34.5851 302.044L33.1984 307.193L38.3976 308.579L34.5851 302.044V302.044ZM67.7594 307.89L72.2145 314.128L60.7284 317.644L67.7597 307.89H67.7594ZM380.982 310.066L377.169 316.552L382.318 315.216L380.984 310.068L380.982 310.066H380.982ZM339.935 310.611L333.597 318.038L334.536 318.73L334.684 318.533L334.833 318.384L335.032 318.187L335.181 318.038L335.329 317.939L335.477 317.79L335.577 317.691L335.726 317.591L335.874 317.542L336.022 317.443L336.171 317.394L336.319 317.345H336.468L336.616 317.294H336.765H336.913L337.061 317.345L337.21 317.394H337.358L337.558 317.494L337.706 317.542L337.903 317.642L338.052 317.74L338.251 317.839L338.448 317.988L338.645 318.136L338.894 318.285L339.091 318.433L339.339 318.632L339.438 318.73L339.587 318.83L339.686 318.929L339.835 319.029L339.935 319.126L340.083 319.275L340.081 319.277L350.231 327.793C353.053 330.219 353.5 331.159 351.717 333.189L352.559 334.031L358.897 326.554L357.956 325.763C356.174 327.941 355.233 327.645 352.411 325.218L342.191 316.688C339.319 314.212 338.922 313.273 340.704 311.243L339.864 310.598L339.935 310.611ZM40.2321 312.095L39.193 317.343L44.49 318.433L40.2321 312.095V312.095ZM374.895 319.82L370.834 326.158L375.983 324.919L374.895 319.82H374.895ZM46.5222 321.849L45.6804 327.097L50.9773 327.791L46.5222 321.849V321.849ZM93.6086 323.437L92.964 324.279L93.1125 324.476L93.2609 324.625L93.4093 324.822L93.5578 324.97L93.6574 325.169L93.757 325.318L93.8547 325.466L93.9543 325.615L94.0031 325.763L94.0539 325.96L94.1027 326.111V326.259V326.408V326.556V326.705L94.0539 326.853L94.0031 327.002L93.9543 327.15L93.9055 327.298L93.8058 327.447L93.7062 327.644L93.6086 327.793L93.4601 327.992L93.3097 328.14L93.1613 328.337L93.0129 328.537L92.8156 328.734L92.6183 328.933L92.4191 329.13L92.2218 329.378L91.9738 329.576L91.7257 329.824L87.5167 333.884L85.4874 331.705C82.1205 328.189 77.6649 325.615 73.8523 329.279C70.5847 332.348 71.674 336.458 74.3972 339.281L82.6649 347.697L83.4579 347.006C81.4281 344.975 81.8226 344.033 84.5458 341.459L94.0536 332.25C96.7278 329.526 97.6676 329.278 99.5986 331.308L100.392 330.517L93.6083 323.437L93.6086 323.437ZM328.74 326.806C326.236 326.855 323.748 327.808 321.668 329.822C318.4 332.941 318.005 337.497 319.49 341.607L320.33 341.458C319.489 338.092 319.49 334.674 322.065 332.099C326.273 328.187 332.661 331.159 336.028 334.675C339.148 337.943 342.266 343.488 338.205 347.3C335.878 349.578 331.422 349.577 328.451 349.181L328.055 349.974L333.996 352.845C334.244 352.004 334.541 351.311 335.086 350.816C335.631 350.222 336.323 349.974 336.967 349.578C337.809 349.28 338.603 348.886 339.395 348.093C341.87 345.667 342.414 342.152 341.721 339.033C341.176 335.914 339.79 333.09 337.66 330.763C335.21 328.172 331.961 326.743 328.741 326.806L328.74 326.806ZM368.262 329.128L363.805 335.218L369.053 334.427L368.262 329.128V329.128ZM79.9695 330.214C82.0148 330.261 83.9292 331.785 85.7859 333.734L86.7254 334.675L81.8249 339.279C79.7952 341.21 78.7059 342.151 76.5769 339.824C74.1506 337.397 73.4555 334.577 76.1296 331.953C77.4663 330.69 78.7422 330.186 79.9694 330.214L79.9695 330.214ZM53.2562 331.158L52.7621 336.455L58.0101 336.851L53.2562 331.158L53.2562 331.158ZM106.085 335.519L100.243 339.033L100.639 339.824C105.937 338.635 107.572 338.092 111.879 341.459C114.355 343.34 114.206 344.181 112.573 346.31L107.719 352.449L106.631 351.607C104.453 350.121 102.273 348.094 104.996 344.677L104.205 344.183L98.2152 351.76L98.9066 352.453C101.333 349.581 103.363 350.522 105.938 352.453L107.028 353.344L103.116 358.394C101.085 360.919 100.641 361.215 97.9672 359.037C94.0554 356.066 93.9067 354.433 93.9067 349.431L92.9653 349.283L91.3325 355.373L105.245 366.217L105.938 365.274C103.76 363.64 104.056 362.699 106.235 359.729L114.454 349.282C116.781 346.311 117.572 345.917 119.751 347.551L120.444 346.709L106.085 335.52L106.085 335.519ZM361.087 338.189L356.184 343.884L361.483 343.488L361.087 338.189V338.189ZM60.4443 340.121L60.3447 345.369L65.7431 345.517L60.4443 340.121L60.4443 340.121ZM310.586 340.369L295.93 350.916L297.713 357.699L298.504 357.4C298.802 352.004 298.655 350.222 303.112 347.004C305.687 345.271 306.381 345.666 308.014 347.795L312.569 354.184L311.381 354.975C309.352 356.609 306.925 358.242 304.35 354.727L303.508 355.272L309.352 363.096L310.044 362.551C308.113 359.432 309.498 357.698 312.073 355.817L313.309 354.979L316.924 360.127C318.855 362.85 319.103 363.396 316.231 365.426C312.171 368.397 310.586 367.998 305.833 366.612L305.438 367.453L310.835 370.819L325.194 360.423L324.55 359.434C322.371 361.118 321.431 360.524 319.253 357.553L311.382 346.858C309.203 343.788 309.103 342.798 311.282 341.214L310.589 340.372L310.587 340.37L310.586 340.369ZM353.368 346.705L348.219 352.152L353.516 352.004L353.368 346.705L353.368 346.705ZM68.2954 348.485L68.4434 353.785L73.8404 353.635L68.2954 348.485V348.485ZM129.931 354.668C125.799 354.707 122.066 356.873 119.591 361.36C117.709 364.727 117.164 368.539 118.798 372.055C120.581 375.571 123.006 377.056 125.433 378.541L133.554 382.998L134.097 382.057C131.819 380.72 131.821 379.631 133.554 376.363L140.089 364.875C141.971 361.608 142.762 361.113 145.089 362.301L145.634 361.36L137.612 356.854C135.032 355.387 132.41 354.645 129.931 354.668L129.931 354.668ZM345.223 354.823L339.775 359.973L345.074 360.121L345.223 354.825V354.823L345.223 354.823ZM287.39 355.668C287.241 356.361 286.695 357.152 286.052 357.547C284.814 358.24 282.785 358.239 280.904 359.18C277.24 361.21 275.605 365.272 277.634 369.084C280.061 373.788 284.566 372.847 288.874 372.055C291.3 371.51 294.717 371.114 296.054 373.639C297.292 375.966 296.449 378.542 294.171 379.78C291.151 381.364 287.537 379.878 284.814 378.393L284.12 379.233H284.122L288.876 383.393C289.025 382.848 289.568 382.305 290.113 382.057C290.756 381.81 291.055 381.811 291.847 381.663C292.936 381.366 293.629 381.366 294.57 380.821C298.234 378.791 299.57 375.176 297.689 371.364C293.332 363.393 283.082 373.393 279.269 366.51C278.03 363.936 279.269 361.361 281.546 360.124C284.666 358.391 288.874 359.876 291.993 361.213L292.687 360.422L287.39 355.668L287.39 355.668ZM132.319 356.272C133.632 356.31 135.035 356.706 136.52 357.547L136.766 357.696L136.965 357.795L137.163 357.944L137.362 358.043L137.51 358.192L137.659 358.289L137.807 358.438L137.905 358.537L138.055 358.686L138.153 358.834L138.204 358.934L138.302 359.082L138.352 359.231L138.401 359.379L138.45 359.528V359.676V359.825V360.024V360.172L138.401 360.37V360.569L138.352 360.766L138.253 360.963L138.204 361.162L138.104 361.411L138.005 361.608L137.905 361.856L137.807 362.102L137.659 362.401L137.511 362.647L137.362 362.944L137.214 363.243L130.579 375.175C128.846 378.244 128.102 378.689 125.577 377.204C119.437 373.936 120.032 368.539 123.003 363.241C125.231 359.268 128.378 356.158 132.319 356.272L132.319 356.272ZM76.5584 356.455V356.457L77.1053 361.754L82.3534 361.358L76.5584 356.455H76.5584ZM336.551 362.448L330.857 367.301L336.154 367.696L336.551 362.448V362.448ZM85.3685 364.032L86.013 369.329L91.31 368.538L85.3685 364.032L85.3685 364.032ZM327.49 369.479L321.5 373.936L326.797 374.727L327.49 369.479L327.49 369.479ZM94.4286 370.965L95.5184 376.213L100.766 375.174L94.4285 370.965L94.4286 370.965ZM173.747 371.905L173.499 372.993C175.925 373.538 176.224 374.627 175.382 378.143L173.105 389.383C172.015 394.533 174.838 397.899 179.839 398.989C185.682 400.177 189.047 397.898 190.284 392.055L192.464 381.807C193.108 378.144 193.801 377.301 196.525 377.846L196.673 376.756L189.048 375.172L188.948 376.211L189.146 376.262L189.345 376.36L189.542 376.411L189.741 376.46L189.939 376.559L190.087 376.608L190.235 376.708L190.384 376.756L190.483 376.856L190.632 376.956L190.732 377.053L190.829 377.202L190.88 377.301L190.978 377.401L191.029 377.549L191.077 377.698L191.128 377.846L191.177 378.043L191.226 378.192V378.391V378.588V378.788V378.985V379.233L191.177 379.481V379.727L191.128 379.975L191.077 380.272L191.029 380.569L190.978 380.866L190.88 381.165L190.829 381.51H190.831L188.948 390.471C188.007 394.927 186.521 398.988 181.075 397.751C175.777 396.661 175.778 392.601 176.769 388.145L178.798 378.934C179.442 375.27 180.136 374.48 182.859 375.024L183.107 373.934L173.747 371.905L173.747 371.905ZM234.154 373.389L231.183 374.627L227.122 393.542C226.726 396.017 226.034 398.988 223.162 399.235L223.361 400.473L232.025 399.384L231.876 398.294C230.39 398.443 228.608 398.444 228.509 396.661C228.36 395.72 229.005 393.047 229.302 391.958L229.548 390.72L238.115 389.63L239.996 393.542C240.243 394.087 240.69 395.177 240.789 395.722C240.937 397.504 238.759 397.355 237.67 397.603L237.818 398.692L247.72 397.503L247.572 396.415C246.78 396.415 245.938 396.266 245.294 395.722C244.304 394.93 243.116 392.205 242.423 390.868L234.154 373.391V373.389L234.154 373.389ZM155.774 374.727C154.289 374.727 153.2 375.964 153.2 377.45C153.2 378.935 154.289 380.026 155.774 380.026H155.923H156.022L156.171 379.975H156.319L156.419 379.926H156.567L156.715 379.876L156.813 379.827L156.913 379.778L157.061 379.727L157.161 379.678L157.26 379.579L157.358 379.53L157.458 379.481L157.557 379.382L157.655 379.282L157.755 379.233L157.854 379.134L157.954 379.034L158.003 378.936L158.051 378.837L158.151 378.688L158.2 378.589L158.251 378.491L158.299 378.343L158.348 378.243L158.399 378.095V377.995L158.448 377.846V377.747V377.598V377.45C158.448 375.965 157.259 374.727 155.774 374.727L155.774 374.727ZM261.145 374.727C260.761 374.727 260.398 374.805 260.071 374.944C259.253 375.292 258.652 376.027 258.475 376.907C258.439 377.083 258.42 377.264 258.42 377.45C258.42 377.635 258.439 377.815 258.475 377.987C258.51 378.159 258.564 378.324 258.631 378.479C258.699 378.635 258.781 378.782 258.877 378.919C258.974 379.055 259.085 379.181 259.207 379.296C259.33 379.41 259.463 379.512 259.608 379.602C259.752 379.692 259.907 379.768 260.071 379.831C260.234 379.893 260.407 379.943 260.586 379.975C260.765 380.008 260.952 380.026 261.143 380.026H261.145H261.243H261.391L261.539 379.975H261.639L261.787 379.926H261.936L262.036 379.876L262.184 379.827L262.284 379.778L262.432 379.727L262.53 379.678L262.629 379.579L262.729 379.53L262.827 379.481L262.926 379.382L263.026 379.282L263.125 379.233L263.223 379.134L263.272 379.034L263.372 378.936L263.422 378.837L263.52 378.688L263.571 378.589L263.62 378.491L263.668 378.343L263.719 378.243V378.095L263.768 377.995L263.817 377.847V377.747V377.598V377.45C263.817 375.965 262.63 374.729 261.145 374.729V374.727V374.727ZM208.312 375.717C204.103 375.816 201.135 378.542 201.283 382.751C201.382 391.811 215.195 387.603 215.344 395.476C215.344 398.297 212.919 400.079 210.344 400.079C206.829 400.178 203.708 396.959 201.678 394.235L200.59 394.78L203.164 401.269C203.709 400.872 204.5 400.327 205.194 400.327C206.531 400.327 208.412 401.268 210.59 401.169C214.799 401.169 218.067 398.149 218.067 393.841C217.919 388.543 213.612 387.455 209.254 386.118C206.927 385.425 203.709 384.335 203.709 381.364C203.709 378.938 205.59 376.907 208.165 376.907C211.531 376.759 214.107 379.781 215.889 382.306L216.831 381.909L214.503 375.968C214.107 376.364 213.463 376.661 212.77 376.661C212.077 376.661 211.829 376.513 210.987 376.216C209.898 375.968 209.402 375.72 208.313 375.72V375.718L208.312 375.717ZM317.983 376.114L311.745 380.176L317.042 381.266L317.983 376.116V376.114V376.114ZM232.422 377.301L237.422 388.145L229.847 389.087L232.422 377.302V377.301ZM104.031 377.45L105.369 382.6L110.517 381.262L104.031 377.45ZM308.222 382.055L301.736 385.868L306.884 387.206L308.222 382.055V382.055ZM113.881 383.294L115.516 388.442L120.564 386.661L113.881 383.294V383.294ZM298.072 387.452L291.289 390.87L296.437 392.503L298.072 387.452V387.452ZM124.081 388.69L126.112 393.542L130.964 391.512L124.081 388.69V388.69ZM287.622 392.206L280.739 395.177L285.591 397.208L287.622 392.206V392.206ZM134.621 393.296L136.799 398.147L141.652 395.87L134.621 393.296V393.296ZM276.922 396.415L269.891 398.989L274.645 401.266L276.922 396.415L276.922 396.415ZM145.321 397.356L147.893 402.108L152.497 399.536L145.321 397.356ZM265.982 400.079L258.804 402.208L263.408 404.682L265.982 400.079ZM156.311 400.87L159.133 405.327L163.589 402.505L156.311 400.87L156.311 400.87ZM254.892 402.901L247.564 404.682L252.019 407.505L254.892 402.901V402.901ZM167.549 403.594L170.52 407.901L174.977 404.93L167.549 403.594ZM243.652 405.227L236.175 406.565L240.533 409.536L243.652 405.227H243.652ZM178.79 405.772L182.157 409.932L186.216 406.716L178.79 405.772V405.772ZM232.117 406.811L224.64 407.802L228.898 411.02L232.117 406.811V406.811ZM190.276 407.259L193.792 411.169L197.704 407.653L190.276 407.259V407.259ZM220.728 407.802L213.151 408.198L217.212 411.714L220.728 407.803V407.801V407.802ZM201.665 408.05L205.429 411.862L209.242 408.05H201.665Z" fill="white"/>
</svg>
