<svg width="300" height="80" viewBox="0 0 300 80" xmlns="http://www.w3.org/2000/svg">
  <style>
    .logo-text {
      font-family: Arial, sans-serif;
      font-weight: bold;
      font-size: 60px;
    }
    .circuit {
      stroke: #4A90E2;
      stroke-width: 2;
      fill: none;
    }
    .dot {
      fill: #4A90E2;
    }
  </style>
  
  <!-- G -->
  <path d="M30 20 L10 20 L10 60 L30 60 L30 40 L20 40" class="logo-text" fill="#333"/>
  <circle cx="30" cy="40" r="3" class="dot"/>
  
  <!-- E -->
  <path d="M40 20 L40 60 L70 60 M40 40 L60 40" class="logo-text" fill="#333"/>
  <path d="M40 20 Q55 20 70 30" class="circuit"/>
  
  <!-- S -->
  <path d="M80 25 Q80 20 85 20 L100 20 Q110 20 110 30 L110 35 Q110 40 105 40 L85 40 Q80 40 80 45 L80 55 Q80 60 85 60 L100 60 Q110 60 110 55" class="logo-text" fill="#333"/>
  <path d="M80 40 L110 40" class="circuit"/>
  
  <!-- T -->
  <path d="M120 20 L160 20 M140 20 L140 60" class="logo-text" fill="#333"/>
  <path d="M120 20 L160 60" class="circuit"/>
  
  <!-- A -->
  <path d="M170 60 L185 20 L200 60 M175 45 L195 45" class="logo-text" fill="#333"/>
  <circle cx="185" cy="20" r="3" class="dot"/>
  
  <!-- L -->
  <path d="M210 20 L210 60 L240 60" class="logo-text" fill="#333"/>
  <path d="M210 20 Q225 40 240 60" class="circuit"/>
  
  <!-- T -->
  <path d="M250 20 L290 20 M270 20 L270 60" class="logo-text" fill="#333"/>
  <path d="M250 20 L290 60" class="circuit"/>
</svg>