<svg width="99" height="82" viewBox="0 0 99 82" fill="none" xmlns="http://www.w3.org/2000/svg">
<path d="M46.049 81.1401C68.2177 81.1401 86.189 63.1688 86.189 41.0001C86.189 18.8314 68.2177 0.860107 46.049 0.860107C23.8803 0.860107 5.909 18.8314 5.909 41.0001C5.909 63.1688 23.8803 81.1401 46.049 81.1401Z" fill="black"/>
<path d="M43.679 9.02012C43.9275 9.02012 44.129 8.81865 44.129 8.57012C44.129 8.32159 43.9275 8.12012 43.679 8.12012C43.4305 8.12012 43.229 8.32159 43.229 8.57012C43.229 8.81865 43.4305 9.02012 43.679 9.02012Z" fill="white"/>
<path d="M48.299 9.61997C48.5475 9.61997 48.749 9.4185 48.749 9.16997C48.749 8.92144 48.5475 8.71997 48.299 8.71997C48.0505 8.71997 47.849 8.92144 47.849 9.16997C47.849 9.4185 48.0505 9.61997 48.299 9.61997Z" fill="white"/>
<path d="M54.359 17.7799C54.6075 17.7799 54.809 17.5784 54.809 17.3299C54.809 17.0814 54.6075 16.8799 54.359 16.8799C54.1105 16.8799 53.909 17.0814 53.909 17.3299C53.909 17.5784 54.1105 17.7799 54.359 17.7799Z" fill="white"/>
<path d="M21.119 59.7799C21.3675 59.7799 21.569 59.5784 21.569 59.3299C21.569 59.0814 21.3675 58.8799 21.119 58.8799C20.8705 58.8799 20.669 59.0814 20.669 59.3299C20.669 59.5784 20.8705 59.7799 21.119 59.7799Z" fill="white"/>
<path d="M22.289 63.38C22.5375 63.38 22.739 63.1785 22.739 62.93C22.739 62.6814 22.5375 62.48 22.289 62.48C22.0405 62.48 21.839 62.6814 21.839 62.93C21.839 63.1785 22.0405 63.38 22.289 63.38Z" fill="white"/>
<path d="M16.709 60.207C16.8951 60.207 17.046 60.0561 17.046 59.87C17.046 59.6838 16.8951 59.533 16.709 59.533C16.5229 59.533 16.372 59.6838 16.372 59.87C16.372 60.0561 16.5229 60.207 16.709 60.207Z" fill="white"/>
<path d="M35.009 67.28C35.1957 67.28 35.347 67.1287 35.347 66.942C35.347 66.7553 35.1957 66.604 35.009 66.604C34.8223 66.604 34.671 66.7553 34.671 66.942C34.671 67.1287 34.8223 67.28 35.009 67.28Z" fill="white"/>
<path d="M63.711 61.3171C63.8971 61.3171 64.048 61.1662 64.048 60.9801C64.048 60.794 63.8971 60.6431 63.711 60.6431C63.5249 60.6431 63.374 60.794 63.374 60.9801C63.374 61.1662 63.5249 61.3171 63.711 61.3171Z" fill="white"/>
<path d="M72.052 52.258C72.2387 52.258 72.39 52.1067 72.39 51.92C72.39 51.7334 72.2387 51.582 72.052 51.582C71.8653 51.582 71.714 51.7334 71.714 51.92C71.714 52.1067 71.8653 52.258 72.052 52.258Z" fill="white"/>
<path d="M31.169 20.299C31.3551 20.299 31.506 20.1481 31.506 19.962C31.506 19.7759 31.3551 19.625 31.169 19.625C30.9828 19.625 30.832 19.7759 30.832 19.962C30.832 20.1481 30.9828 20.299 31.169 20.299Z" fill="white"/>
<path d="M40.349 13.5571C40.5351 13.5571 40.686 13.4062 40.686 13.2201C40.686 13.0339 40.5351 12.8831 40.349 12.8831C40.1629 12.8831 40.012 13.0339 40.012 13.2201C40.012 13.4062 40.1629 13.5571 40.349 13.5571Z" fill="white"/>
<path d="M39.352 12.8969C39.5381 12.8969 39.689 12.746 39.689 12.5599C39.689 12.3738 39.5381 12.2229 39.352 12.2229C39.1659 12.2229 39.015 12.3738 39.015 12.5599C39.015 12.746 39.1659 12.8969 39.352 12.8969Z" fill="white"/>
<path d="M38.452 12.237C38.6381 12.237 38.789 12.0861 38.789 11.9C38.789 11.7139 38.6381 11.563 38.452 11.563C38.2659 11.563 38.115 11.7139 38.115 11.9C38.115 12.0861 38.2659 12.237 38.452 12.237Z" fill="white"/>
<path d="M32.609 22.04C32.7951 22.04 32.946 21.8891 32.946 21.703C32.946 21.5168 32.7951 21.366 32.609 21.366C32.4229 21.366 32.272 21.5168 32.272 21.703C32.272 21.8891 32.4229 22.04 32.609 22.04Z" fill="white"/>
<path d="M46.131 4.497C46.3171 4.497 46.468 4.34612 46.468 4.16C46.468 3.97388 46.3171 3.823 46.131 3.823C45.9449 3.823 45.794 3.97388 45.794 4.16C45.794 4.34612 45.9449 4.497 46.131 4.497Z" fill="white"/>
<path d="M48.352 14.217C48.5381 14.217 48.689 14.0661 48.689 13.88C48.689 13.6938 48.5381 13.543 48.352 13.543C48.1659 13.543 48.015 13.6938 48.015 13.88C48.015 14.0661 48.1659 14.217 48.352 14.217Z" fill="white"/>
<path d="M44.849 12.319C45.0351 12.319 45.186 12.1681 45.186 11.982C45.186 11.7959 45.0351 11.645 44.849 11.645C44.6629 11.645 44.512 11.7959 44.512 11.982C44.512 12.1681 44.6629 12.319 44.849 12.319Z" fill="white"/>
<path d="M38.849 14.9001C39.0351 14.9001 39.186 14.7492 39.186 14.5631C39.186 14.377 39.0351 14.2261 38.849 14.2261C38.6629 14.2261 38.512 14.377 38.512 14.5631C38.512 14.7492 38.6629 14.9001 38.849 14.9001Z" fill="white"/>
<path d="M65.309 70.2199C65.4951 70.2199 65.646 70.069 65.646 69.8829C65.646 69.6968 65.4951 69.5459 65.309 69.5459C65.1229 69.5459 64.972 69.6968 64.972 69.8829C64.972 70.069 65.1229 70.2199 65.309 70.2199Z" fill="white"/>
<path d="M20.549 61.948C20.7357 61.948 20.887 61.7966 20.887 61.61C20.887 61.4233 20.7357 61.272 20.549 61.272C20.3623 61.272 20.211 61.4233 20.211 61.61C20.211 61.7966 20.3623 61.948 20.549 61.948Z" fill="white"/>
<path d="M44.009 66.2981C44.1957 66.2981 44.347 66.1467 44.347 65.9601C44.347 65.7734 44.1957 65.6221 44.009 65.6221C43.8223 65.6221 43.671 65.7734 43.671 65.9601C43.671 66.1467 43.8223 66.2981 44.009 66.2981Z" fill="white"/>
<path d="M27.531 61.678C27.7177 61.678 27.869 61.5266 27.869 61.34C27.869 61.1533 27.7177 61.002 27.531 61.002C27.3443 61.002 27.193 61.1533 27.193 61.34C27.193 61.5266 27.3443 61.678 27.531 61.678Z" fill="white"/>
<path d="M30.449 66.4409C30.6357 66.4409 30.787 66.2896 30.787 66.1029C30.787 65.9162 30.6357 65.7649 30.449 65.7649C30.2624 65.7649 30.111 65.9162 30.111 66.1029C30.111 66.2896 30.2624 66.4409 30.449 66.4409Z" fill="white"/>
<path d="M51.929 63.4401C52.1151 63.4401 52.266 63.2892 52.266 63.1031C52.266 62.917 52.1151 62.7661 51.929 62.7661C51.7429 62.7661 51.592 62.917 51.592 63.1031C51.592 63.2892 51.7429 63.4401 51.929 63.4401Z" fill="white"/>
<path d="M63.771 56.757C63.9571 56.757 64.108 56.6061 64.108 56.42C64.108 56.2339 63.9571 56.083 63.771 56.083C63.5849 56.083 63.434 56.2339 63.434 56.42C63.434 56.6061 63.5849 56.757 63.771 56.757Z" fill="white"/>
<path d="M72.749 60.8591C72.9351 60.8591 73.086 60.7082 73.086 60.5221C73.086 60.3359 72.9351 60.1851 72.749 60.1851C72.5629 60.1851 72.412 60.3359 72.412 60.5221C72.412 60.7082 72.5629 60.8591 72.749 60.8591Z" fill="white"/>
<path d="M75.809 62.8171C75.9951 62.8171 76.146 62.6662 76.146 62.4801C76.146 62.294 75.9951 62.1431 75.809 62.1431C75.6229 62.1431 75.472 62.294 75.472 62.4801C75.472 62.6662 75.6229 62.8171 75.809 62.8171Z" fill="white"/>
<path d="M76.312 57.477C76.4981 57.477 76.649 57.3261 76.649 57.14C76.649 56.9539 76.4981 56.803 76.312 56.803C76.1259 56.803 75.975 56.9539 75.975 57.14C75.975 57.3261 76.1259 57.477 76.312 57.477Z" fill="white"/>
<path d="M31.671 49.9169C31.8571 49.9169 32.008 49.766 32.008 49.5799C32.008 49.3938 31.8571 49.2429 31.671 49.2429C31.4849 49.2429 31.334 49.3938 31.334 49.5799C31.334 49.766 31.4849 49.9169 31.671 49.9169Z" fill="white"/>
<path d="M31.799 57.7701C32.0475 57.7701 32.249 57.5686 32.249 57.3201C32.249 57.0716 32.0475 56.8701 31.799 56.8701C31.5505 56.8701 31.349 57.0716 31.349 57.3201C31.349 57.5686 31.5505 57.7701 31.799 57.7701Z" fill="white"/>
<path d="M34.499 63.4701C34.7475 63.4701 34.949 63.2686 34.949 63.0201C34.949 62.7715 34.7475 62.5701 34.499 62.5701C34.2505 62.5701 34.049 62.7715 34.049 63.0201C34.049 63.2686 34.2505 63.4701 34.499 63.4701Z" fill="white"/>
<path d="M66.839 57.5299C67.0875 57.5299 67.289 57.3284 67.289 57.0799C67.289 56.8314 67.0875 56.6299 66.839 56.6299C66.5904 56.6299 66.389 56.8314 66.389 57.0799C66.389 57.3284 66.5904 57.5299 66.839 57.5299Z" fill="white"/>
<path d="M78.479 56.87C78.7275 56.87 78.929 56.6685 78.929 56.42C78.929 56.1714 78.7275 55.97 78.479 55.97C78.2305 55.97 78.029 56.1714 78.029 56.42C78.029 56.6685 78.2305 56.87 78.479 56.87Z" fill="white"/>
<path d="M72.719 54.41C72.9675 54.41 73.169 54.2085 73.169 53.96C73.169 53.7115 72.9675 53.51 72.719 53.51C72.4705 53.51 72.269 53.7115 72.269 53.96C72.269 54.2085 72.4705 54.41 72.719 54.41Z" fill="white"/>
<path d="M66.839 54.65C67.0875 54.65 67.289 54.4485 67.289 54.2C67.289 53.9515 67.0875 53.75 66.839 53.75C66.5904 53.75 66.389 53.9515 66.389 54.2C66.389 54.4485 66.5904 54.65 66.839 54.65Z" fill="white"/>
<path d="M54.71 8.28806L55.829 8.18106L54.712 8.11806C54.677 7.90206 54.504 7.73306 54.286 7.70506L54.179 6.59106L54.115 7.71406C53.913 7.75906 53.758 7.92806 53.733 8.13806L52.589 8.24206L53.741 8.30406C53.783 8.49706 53.939 8.64806 54.135 8.68406L54.239 9.83206L54.3 8.68606C54.507 8.65106 54.671 8.49206 54.71 8.28806Z" fill="white"/>
<path d="M35.824 20.7461L36.943 20.6391L35.826 20.5761C35.792 20.3601 35.618 20.1911 35.4 20.1631L35.293 19.0491L35.23 20.1721C35.027 20.2171 34.872 20.3861 34.847 20.5961L33.703 20.7001L34.855 20.7621C34.897 20.9551 35.053 21.1061 35.249 21.1421L35.353 22.2901L35.415 21.1441C35.622 21.1101 35.786 20.9501 35.824 20.7461Z" fill="white"/>
<path d="M77.659 53.6841L78.778 53.5771L77.661 53.5141C77.627 53.2981 77.453 53.1291 77.235 53.1011L77.128 51.9871L77.065 53.1101C76.863 53.1551 76.708 53.3241 76.683 53.5341L75.539 53.6381L76.691 53.7001C76.733 53.8931 76.889 54.0441 77.085 54.0801L77.189 55.2281L77.251 54.0821C77.456 54.0481 77.62 53.8891 77.659 53.6841Z" fill="white"/>
<path d="M32.044 70.906L33.163 70.799L32.046 70.736C32.011 70.52 31.838 70.351 31.62 70.323L31.513 69.21L31.45 70.332C31.247 70.377 31.092 70.546 31.067 70.756L29.923 70.86L31.075 70.922C31.117 71.115 31.273 71.267 31.469 71.302L31.573 72.45L31.635 71.304C31.841 71.27 32.006 71.11 32.044 70.906Z" fill="white"/>
<path d="M74.104 62.5061L75.223 62.3991L74.106 62.3361C74.072 62.1201 73.898 61.9511 73.68 61.9231L73.573 60.8091L73.51 61.9311C73.308 61.9761 73.153 62.1451 73.128 62.3551L71.984 62.4591L73.136 62.5211C73.178 62.7141 73.334 62.8651 73.53 62.9011L73.634 64.0491L73.696 62.9031C73.901 62.8701 74.066 62.7101 74.104 62.5061Z" fill="white"/>
<path d="M55.568 31.385C50.901 33.199 46.349 34.818 42.508 36.02C34.703 38.464 13.348 45.08 0.447998 53.42L1.528 53.84C9.388 49.4 14.497 48.005 19.408 46.46C24.748 44.78 42.011 40.74 49.828 38.54C52.469 37.797 55.562 36.824 58.838 35.64C58.076 34.577 57.272 33.511 56.426 32.447C56.143 32.088 55.856 31.734 55.568 31.385ZM61.27 39.244C60.14 40.007 59.193 40.616 58.53 41C54.69 43.22 35.969 56 31.71 58.94C27.451 61.88 15.63 73.04 12.15 76.28L12.03 77.599C23.25 67.519 26.77 65.033 31.23 61.64C36.75 57.44 48.169 49.67 52.05 47.18C55.76 44.8 59.106 42.611 62.109 40.608C62.06 40.526 62.011 40.444 61.962 40.361C61.736 39.99 61.505 39.618 61.27 39.244ZM78.809 20.72C73.343 23.924 64.728 27.791 56.37 31.072C56.57 31.317 56.769 31.564 56.967 31.813C57.901 32.989 58.782 34.173 59.611 35.358C66.181 32.938 73.39 29.69 79.11 25.759C76.385 28.341 67.376 35.074 61.883 38.827C62.166 39.288 62.44 39.749 62.705 40.208C71.027 34.639 76.627 30.54 79.89 27.799C84.39 24.019 94.65 15.559 98.55 4.21899C91.709 12.92 83.621 17.899 78.809 20.72Z" fill="#8C8C8C"/>
<path d="M40.884 50.939C39.999 49.825 38.775 48.333 37.856 47.176C36.627 45.629 35.49 44.066 34.448 42.505C34.108 42.59 33.769 42.675 33.43 42.76C34.688 44.723 36.085 46.683 37.607 48.599C38.719 49.999 39.73 51.126 40.248 51.827C40.353 51.969 40.561 52.283 40.842 52.701C41.166 52.481 41.493 52.259 41.823 52.035C41.504 51.688 41.189 51.323 40.884 50.939ZM47.344 56.803C46.617 56.115 44.854 54.966 43.019 53.242C42.614 53.52 42.205 53.802 41.795 54.086C42.98 55.756 44.594 57.807 45.858 58.405C47.762 59.307 48.275 57.685 47.344 56.803ZM56.967 31.813C46.475 18.607 33.658 11.352 28.132 15.743C23.84 19.153 25.602 29.119 31.518 39.588C31.824 39.483 32.127 39.38 32.427 39.278C26.456 29.078 24.822 19.599 28.87 16.382C33.957 12.34 46.24 19.623 56.428 32.446C58.537 35.1 60.391 37.764 61.961 40.361C67.973 50.311 69.818 59.309 65.664 62.982C64.393 64.106 60.509 64.547 55.421 62.257C55.35 62.346 55.464 62.587 55.553 62.646C59.945 64.412 64.152 65.085 66.276 63.398C71.38 59.342 67.459 45.019 56.967 31.813Z" fill="white"/>
<path d="M11.969 33.3799H18.689L24.329 42.9499C24.329 42.9499 24.329 36.0199 24.329 35.4799C24.329 34.6399 23.264 33.5449 22.889 33.3799C23.339 33.3799 27.269 33.3799 27.539 33.3799C27.254 33.4549 26.339 34.5649 26.339 35.4799C26.339 35.9299 26.339 45.9799 26.339 46.4599C26.339 47.1349 27.314 48.0649 27.779 48.4249H21.299L15.569 38.8099C15.569 38.8099 15.569 45.9799 15.569 46.3699C15.569 47.1199 16.304 47.8399 17.069 48.4549H12.119C12.824 48.1549 13.499 47.2099 13.559 46.4599C13.619 45.7099 13.559 36.0349 13.559 35.6149C13.559 34.6999 12.674 33.9499 11.969 33.3799Z" fill="white"/>
<path d="M73.439 48.4249H82.379C81.884 48.3049 81.329 47.7199 81.029 46.9399C80.729 46.1599 75.989 33.3799 75.989 33.3799H72.59C71.626 34.0739 70.593 34.8059 69.49 35.5769C69.487 35.6049 69.484 35.6329 69.479 35.6599C69.331 36.5599 66.671 46.1939 66.509 46.6699C66.284 47.3299 65.129 48.0649 64.664 48.4549H69.479C68.999 47.9149 68.609 47.3899 68.699 46.7899C68.789 46.1899 69.059 44.9899 69.059 44.9899H74.039C74.264 45.5899 74.432 46.1289 74.519 46.6399C74.624 47.2549 73.994 47.9449 73.439 48.4249ZM69.509 43.0699L71.189 37.5799L73.409 43.0699H69.509ZM68.752 33.9279C68.999 33.7459 69.247 33.5629 69.494 33.3799H68.189C68.319 33.4999 68.534 33.6889 68.752 33.9279Z" fill="white"/>
<path d="M34.559 46.7899C34.649 46.1899 34.919 44.9899 34.919 44.9899H39.899C40.124 45.5899 40.292 46.1289 40.379 46.6399C40.484 47.2549 39.854 47.9449 39.299 48.4249H47.17C47.334 48.3149 47.497 48.2049 47.66 48.0959C47.355 47.8259 47.074 47.4209 46.889 46.9399C46.589 46.1599 41.849 33.3799 41.849 33.3799H34.049C34.424 33.7249 35.504 34.6549 35.339 35.6599C35.192 36.5599 32.531 46.1939 32.369 46.6699C32.144 47.3299 30.989 48.0649 30.524 48.4549H35.339C34.859 47.9149 34.469 47.3899 34.559 46.7899ZM37.049 37.5799L39.269 43.0699H35.369L37.049 37.5799Z" fill="white"/>
<path d="M61.748 40.8479C60.28 41.8259 58.731 42.8469 57.099 43.9129C57.831 44.2679 58.414 44.7139 58.47 45.2899C58.574 46.3719 56.4 46.8949 54.435 46.6699C54.042 46.6249 53.656 46.5219 53.288 46.3839C52.88 46.6469 52.468 46.9119 52.05 47.1799C51.625 47.4529 51.109 47.7889 50.52 48.1769V49.7299C50.91 48.9649 51.763 48.2799 52.425 48.2449C52.71 48.2299 53.7 49.1449 57.78 48.9199C59.76 48.8109 63.585 46.6999 63.525 44.2699C63.489 42.8339 62.739 41.7139 61.748 40.8479ZM50.519 44.5999V46.1819C50.88 45.9409 51.236 45.7039 51.585 45.4729C51.036 45.0909 50.647 44.7339 50.519 44.5999ZM60.353 39.8549C59.973 39.6299 59.588 39.4329 59.219 39.2589C57.299 38.3589 55.289 38.1939 54.869 36.9789C54.573 36.1219 55.409 35.3289 57.449 35.3589C59.489 35.3889 61.379 36.6039 61.889 37.0389V33.1689C61.739 33.3189 61.081 34.0739 60.479 33.9489C59.324 33.7089 57.359 33.3959 55.109 33.4089C52.529 33.4239 50.309 35.4179 50.234 37.9389C50.129 41.4639 52.949 42.4239 54.539 42.9789C54.703 43.0359 54.89 43.0969 55.093 43.1619C56.618 42.1699 57.824 41.4059 58.53 40.9989C59.004 40.7259 59.625 40.3339 60.353 39.8549Z" fill="white"/>
</svg>
