<svg id="Layer_1" data-name="Layer 1" xmlns="http://www.w3.org/2000/svg" viewBox="0 0 360 360"><defs><style>.cls-1{fill:#929292;}.cls-2{fill:#2e2e2e;}.cls-10,.cls-3,.cls-4,.cls-6,.cls-7,.cls-8,.cls-9{fill:none;}.cls-3,.cls-4,.cls-6{stroke:#fff;}.cls-3,.cls-4{stroke-linecap:round;stroke-linejoin:round;}.cls-10,.cls-3,.cls-6,.cls-7{stroke-width:2.92px;}.cls-4{stroke-width:1.25px;}.cls-5{fill:#fff;}.cls-10,.cls-6,.cls-7,.cls-8{stroke-miterlimit:10;}.cls-7{stroke:#5d5d5d;}.cls-8{stroke:#2b2b2b;stroke-width:1.67px;}.cls-9{stroke:#2e2e2e;stroke-miterlimit:34.64;stroke-width:1.67px;}.cls-10{stroke:#565656;}</style></defs><path class="cls-1" d="M182.65,362.37l9.27-.24,9.13-.69,9-1.17,8.86-1.56,8.7-2,8.54-2.43,8.37-2.82,8.16-3.22,8-3.62,7.73-4L276,336.3l7.31-4.68,7.07-5,6.78-5.34,6.54-5.65,6.24-6,6-6.24,5.64-6.54,5.35-6.81,5-7,4.69-7.3,4.35-7.54,3.95-7.77,3.62-8,3.22-8.17,2.82-8.37,2.42-8.53,2-8.7,1.56-8.87,1.16-9,.7-9.17.23-9.25c0-99.39-80.59-180-180-180s-180,80.59-180,180a180,180,0,0,0,180,180Z" transform="translate(-2.63 -2.38)"/><path class="cls-2" d="M182.65,348.62l8.53-.24,8.44-.63,8.33-1.06,8.21-1.46,8-1.86,7.87-2.22,7.74-2.63,7.54-3,7.37-3.32,7.17-3.68,6.94-4,6.78-4.32,6.51-4.64,6.27-4.92,6.05-5.25,5.77-5.51,5.48-5.74,5.25-6.05,4.91-6.27,4.65-6.54,4.32-6.75,4-6.94,3.65-7.17,3.32-7.37,3-7.54,2.62-7.74,2.23-7.87,1.86-8.06,1.46-8.17,1.06-8.34.63-8.43.24-8.57A166.26,166.26,0,1,0,182.65,348.62Z" transform="translate(-2.63 -2.38)"/><path class="cls-1" d="M264.5,259.79l3.42,3.12.83,3.42s9.87-3.42,5.15-13.28l-6.84-9.43-.43-3.42s-5.58-5.58-5.15-6.84c0,0-2.12-7.31,9.86-16.71,0,0,2.56-3,2.56-5.18v-1.26c0,2.13,2.16-2.16,2.16-2.16v-3.42l-2.16.43.86-2.12-.43-3.46-3.85-4.28v-3.85l2.16,5.15,2.12-.44s3.86-3.42-2.12-9.86l3,2.16,1.72-2.59-1.29-4.28-.86-4.92,3-1.49v-2.16l2.59-1.69v-2.59l2.55-3.42-3-4.29-1.72,2.13,1.29,1.72-2.16.44-2.12-3.42.43-4.72,4.28-6.44,5.15-1.73,1.3-2.56-4.72-4.28.43-5.58-4.75-5.11s-6-12-4.25-8.17-.86,9.86-.86,9.86l-4.32,8.14.9,6-4.32,4.28-7.27.43-6,6.84v4.72a7.76,7.76,0,0,1-8.14,3.45s-2.25,2.89-3.18,3c0,0,4.25,2.13-.67,4.92,0,0-6.84,2.35-9.3,5.27l-3.55.64L224.42,182l2.36-7.81L224.46,171c.29.17-.07.87-.4,1.13s-.7,0-1,.1c-1,.47-2,1.53-3,.73-1.43-1.13-.83-2.95.33-4.25.17-.2.07-.66.07-1l-3.32-3.32-7.5,4.72s-2.56,8.13,0,10.72c0,0,.63,4.92-3.23,5.12,0,0-4.51-.83-4.51-7l1.29-10.93-1.92.2s1.29-5.78,9.66-6.84l4.68-.86,1.53.43-4.52-4.52-3.42,2.16h-2.59l-2.12-.43-1.3-4.72-4.28.44,2.16.43-2.16-.43-1.69,1.69-3,.43-5.57.86.43-2.12,4.71-1.3,1.3-1.72-8.57-4.29-6.44-1.29.43-2.56-2.56-.43-1.72,2.59H76.39v6a9.42,9.42,0,0,1-3.89,6.87l-.43-1.29,2.16-3.42-1.3-1.73-4.28.43-.43,6.84c-.87,5.58-6,13.72-6,13.72l-1.13,4-1,15.31,2.56,11.16s-.43,9.43,4.71,15.4c0,0,10.73,6.45,11.59,16.71h9.23l.64-.43c15.4,20.15,1,34.6,1,34.6A128.37,128.37,0,0,1,128.32,63.9l11.46,9.6s.43,21.45,9.43,25.7l11.16-.4,12.42-24.44c2.55-3.65-.43-5.15-.43-5.15-3.86-1.26-7.94-5.58-7.94-5.58l.5.14A10.45,10.45,0,0,0,161,66.85c-2.56-13.71,6.21-13.08,6.21-13.08l6.44-.4c.86-8.56,24,3,24,3,11.12,17.57,11.12,42.84,11.12,42.84l12.85-.4c7.31-2.59,6.85-25.74,6.85-25.74l10.89-8a128.38,128.38,0,0,1,29,210.73s-6.85-4.72-3.82-15.84v-.13Z" transform="translate(-2.63 -2.38)"/><path class="cls-3" d="M177.2,67.06l-.46-.4-.47-.37-.46-.36-.43-.33-.43-.34-.44-.26-.43-.27-.43-.23-.4-.23-.4-.2-.39-.2-.4-.17-.4-.13-.4-.13-.36-.1-.37-.1-.37-.07-.36-.07-.37,0-.33,0h-1l-.34,0-.33,0-.3,0-.3.06-.3.07-.56.13-.53.2-.5.2-.5.23-.43.27-.43.27-.37.26-.36.27-.33.26-.3.27-.24.26-.23.24-.2.2-.16.16-.07.1-.07.07,0,.06,0,0,0,.06,0,0h0c-2.59-13.72,6.21-13.09,6.21-13.09l6.41-.39c.86-8.57,24,3,24,3,11.16,17.57,11.16,42.84,11.16,42.84l12.85-.4c7.27-2.59,6.84-25.73,6.84-25.73l10.89-8a128.38,128.38,0,0,1,29,210.73s-6.84-4.71-3.85-15.84" transform="translate(-2.63 -2.38)"/><path class="cls-4" d="M164.55,63.64h0v0h0v0l0,0,0,0,0,0,0,0,.1.1.13.13.13.13.17.13.16.17.2.2.2.17.23.19.24.24.23.2.26.23.3.23.27.23.3.24.33.23.3.23.33.23.33.24.34.23.33.23.36.2.34.23.36.17.37.2.36.16.37.17.36.17.37.1s3,1.49.43,5.14" transform="translate(-2.63 -2.38)"/><path class="cls-5" d="M173.75,53.37l.67,1.07,1.06.86c.87,5.11,5.15,1.29,5.15,1.29,2.12,0,2.36-.43,2.36-.43h-.67l-.36,0-.37,0-.36-.07-.37-.07-.4-.06-.36-.1-.4-.1-.37-.1-.4-.13-.36-.1-.4-.14-.37-.13-.36-.13-.37-.14-.33-.13-.33-.13-.33-.13-.3-.14-.3-.13-.27-.13-.26-.1-.23-.1-.2-.1-.2-.1-.07,0-.1,0-.06,0-.07,0-.07,0,0,0-.07,0h0v0h-.07Zm23.58,3.42a108.15,108.15,0,0,1,9.43,40.72l-3,5.14-6.44-3-4.28,5.58-6-3-6,4.28-6-6.44-6.88,4.52L165.62,99l-2.56.63v0l0-.1.07-.1.07-.13.06-.14.07-.2.1-.19.1-.24.1-.26.13-.27.13-.3.14-.33.13-.33.33-.77.33-.79.4-.9.4-.93.43-1,.43-1L167,90.5l.46-1.1.5-1.13,1-2.35,1-2.36.93-2.36.44-1.13.43-1.13.43-1.09.4-1.06.36-1,.34-1,.33-.93.26-.83.24-.8.1-.37.09-.33L160,99.2s-12,24.44,1.29,45c0,0-9-27,3.42-44.37l3,6,7.7-2.75,5.15,6L187,104l5.57,3.85s3.86-5.58,6.45-6l4.28,2.56,5.58-5.15s.83-23.54-11.59-42.41Zm75.87,65.86a4.79,4.79,0,0,0,.31.76c1.69,3.88-.86,9.86-.86,9.86l-4.32,8.17.9,6-4.32,4.28-7.27.43-6,6.84v4.75a7.68,7.68,0,0,1-8.13,3.42s-2.26,2.89-3.19,3c0,0,4.25,2.13-.66,5,0,0-6.84,2.36-9.3,5.25l-3.55.63-2.36,1.26,2.36-7.8-2.24-3.07a1.16,1.16,0,0,1-.49,1c-.23.17-.69,0-1,.1-1,.47-2,1.56-3,.73-1.43-1.12-.83-3,.33-4.25.17-.2.07-.66.07-1l-3.32-3.32-7.51,4.68s-2.56,8.17,0,10.72c0,0,.63,4.92-3.22,5.15,0,0-4.52-.86-4.52-7.07l1.3-10.93-1.93.2s1.3-5.78,9.67-6.84l4.68-.86,1.53.43-4.52-4.52-3.42,2.16h-2.59l-2.13-.43-1.29-4.71-4.28.43-1.7,1.72-3,.44-5.58.83.43-2.13,4.72-1.29,1.29-1.73-8.56-4.28-6.45-1.27.43-2.59-2.55-.43-1.73,2.59H76.39v6a9.39,9.39,0,0,1-3.88,6.87l-.44-1.29L74.23,153l-1.29-1.73-4.29.43-.43,6.88c-.86,5.54-6,13.68-6,13.68l-1.13,4-1,15.31,2.55,11.16s-.43,9.43,4.72,15.41c0,0,10.73,6.44,11.59,16.73H90.5l23.58,19.26h15.84V247.7h7.31s5.58,16.71,14.14,17.14h3.85l2.13-4.28,5.15.43,4.71,5.14.43,3.86,2.13,1.29,5.58,3.85,3.85,5.12s6,3.88,8.6,1.72c0,0-1.29-4.28.83-13.28,0,0,7.31-12.85,16.31-15.84,0,0,12-2.59,13.28-.86,0,0,3-1.3,3.85-3.42l-2.13-1.73s.84-4.28,6.85-5.15l11.12.44a5.54,5.54,0,0,0,5.15,1.29s2.59-3.85,9-2.59l6.44,5.58s.86,10.29,4.28,12l5.15,4.72.83,3.42s9.86-3.43,5.15-13.29l-6.84-9.43-.44-3.45s-5.57-5.55-5.14-6.84c0,0-2.13-7.27,9.86-16.7,0,0,2.56-3,2.56-5.15v-1.3c0,2.16,2.16-2.12,2.16-2.12v-3.46l-2.16.44.86-2.13-.43-3.45-3.85-4.29v-3.85l2.16,5.15,2.12-.43s3.85-3.42-2.12-9.87l3,2.16,1.73-2.59-1.29-4.25-.87-4.95h0l3-1.49v-2.16l2.59-1.69v-2.59l2.56-3.42-3-4.29-1.73,2.16,1.3,1.69-2.16.44L275.63,162l.44-4.72,4.28-6.44,5.15-1.7,1.29-2.59-4.71-4.28.43-5.58-4.75-5.11s-4.58-9.21-4.56-8.93Zm-48.65,48.7a.18.18,0,0,0-.09-.12Z" transform="translate(-2.63 -2.38)"/><path class="cls-6" d="M214.46,138.65l0,0v.07l0,.07,0,.09,0,.14,0,.13.06.17,0,.2.06.2.13.46.17.53.13.6.2.66.17.7.2.76.2.83.2.87.2.89.2.93.19,1,.17,1,.2,1,.17,1.07.13,1,.16,1.06.1,1.09.1,1.07.1,1.06,0,1.06,0,1.06v1.07l0,1-.07,1-.1,1-.13.93-.2.89s3.85,2.59,4.32,6c0,0,3.85-1.29,5.11,3.85L224.52,182l2.36-1.26m-3.42-46.4,0,.07,0,.1.06.1.07.17.1.19.1.24.1.23.13.3.13.3.17.36.13.37.33.8.4.93.4,1,.4,1.1.43,1.2.43,1.22.47,1.33.43,1.4.43,1.43.43,1.49.4,1.53.37,1.56.36,1.59.3,1.6.27,1.62.23,1.63.16,1.63.14,1.59,0,1.63v1.56l-.1,1.56-.17,1.53-.26,1.49-.37,1.43-.2.7-.23.66-.26.67-.3.66a42.05,42.05,0,0,0,13.31-4.88M232,127.5s16,24.94,11.59,39.45m-3-47.58s16.73,22.45,13.12,37.12m-5.39-45.69s17.94,15.47,17.37,38.22M253,99.64s13.75,10.3,21.15,24.68m11.42,24.6.7,2.06.63,2,.6,2,.56,2,.5,1.95.47,2,.4,2,.39,2,.34,2,.26,2,.23,2.06.2,2.09.17,2.13.1,2.16.07,2.22,0,2.26c0,25-7.64,47.25-21.88,65.62M88.92,234.19l.7,1,.66.93.63.93.57.9.53.9.5.89.46.9.43.86.4.86.33.87.34.86.26.83.27.83.23.8.2.8.17.79.13.8.1.76.1.73.06.77,0,.73,0,.73L96,254l-.14,1.33-.16,1.3-.23,1.23-.3,1.19-.33,1.13-.37,1.06-.4,1-.43.93-.43.86-.47.8-.43.73-.43.66-.4.6-.36.5-.37.46-.3.37-.23.27-.1.13-.1.06-.07.1,0,0,0,0A128.33,128.33,0,0,1,128.47,63.9l11.46,9.6s.43,21.45,9.43,25.7l11.12-.4s-.23.53-.66,1.46M66.64,126.2l0,0h.07l.07,0,.1,0,.09,0,.14,0,.16.07.34.1.39.1.5.1.53.1.57.1.63.1.7.06.73.07.76,0h.8l.83,0,.86-.1.9-.1.9-.2.92-.2.93-.3.93-.36.5-.2.47-.23.46-.24.47-.23.5-.3.46-.3.46-.29.47-.37.46-.37.47-.36.46-.43.44-.43.46-.44.43-.49.47-.5.43-.53.4-.57.43-.6.4-.63.43-.63.4-.7.36-.69s12.42-18.43,21.42-23.15c0,0,13.72,29.12,47.59,42.84M113.8,98.81s-22.28,14.54-31.71,45.42m9-19.29v.1l0,.13v.4l0,.3v.3l0,.4.07.4,0,.43.1.5.1.53.13.53.14.6.2.63.19.63.27.7.3.69.3.73.36.73.44.77.43.79.49.8.57.83.6.83.66.87.73.86.8.86.4.43.43.44.43.43.47.46.49.43.5.44.5.43.53.46s-4.71-19.72,18-36.43m-6,37.3s-5.15-14.58,14.15-28.73m-.43,28.73s-1.3-13.29,9.43-21m5.11,21s-2.12-10.73,3.85-14.15m6.45,14.15s-1.3-9,1.29-9.87m147.4-4.28-.76.07-.76,0h-1.46l-.7,0-.73,0-.7-.06-.66-.1-.7-.14-.67-.13-1.29-.33-1.23-.37-1.23-.46-1.16-.5-1.13-.56-1.06-.6-1.06-.63-1-.7-1-.66-.9-.73-.83-.7-.79-.73-.77-.73-.7-.7-.66-.73-.6-.66-.56-.67-.5-.63-.43-.56-.4-.54-.37-.49L276,117l-.24-.36-.1-.17-.1-.13-.06-.13-.07-.1-.07-.07,0-.07v0c-.86-3.85-20.16-21.85-20.16-21.85-9.86,32.11-40.71,44.57-40.71,44.57,2.59,7.27-1.69,16.7-1.69,16.7s-3.19,7-2.09,12.55" transform="translate(-2.63 -2.38)"/><path class="cls-1" d="M190.12,21.13,190,22c2,.23,2.49,1.13,2.26,3.22l-1.36,10.76c-.8,6.31,3.48,8.77,9.3,9.53,4.88.6,10.82,0,11.58-6.07l1.47-11.59c.3-2.5,1.06-2.79,3.25-2.53l.1-.83-7.5-1-.1.83c2.49.33,3.38.93,3.08,3.32l-1.46,11.72c-.63,4.82-5.31,5.91-9.36,5.38l-.33,0-.34-.07-.33-.07-.33-.06-.3-.1-.33-.1-.3-.1-.3-.1-.26-.13-.3-.17-.27-.13-.26-.2-.27-.17-.23-.2-.23-.23-.2-.23-.2-.23-.2-.27-.17-.26-.16-.3-.17-.34-.13-.33-.1-.33-.1-.4-.1-.36-.07-.44,0-.43,0-.43V37.8l0-.27V37.3l0-.26,0-.27,0-.26,1.33-10.76c.33-2.66.63-2.86,3.48-2.53l.1-.83-10.13-1.26Zm-17.81.8c-.8,0-1.57,0-2.28.06l-9.79.74.06.86h.1l.14,0h1.29l.13,0h.14l.1,0,.13,0,.1.07.1,0,.1.07.06.07.07.06.07.07.06.1.07.1.07.13,0,.1,0,.13,0,.14,0,.16,0,.07v.1l0,.07v.2l0,.09v.1l0,.1V26l0,.1v.23l1.13,14.91c.19,2.62-.07,2.89-2.63,3.12l.07.83L173,44.31c4.48-.33,9.5-1.46,9.13-6.64-.3-3.75-4-5.08-7.17-5.48v0c2.69-.73,5.25-2.53,5-5.62-.27-3.69-4.18-4.56-7.65-4.61Zm-1.68.91c3.11,0,4.58,1,4.78,3.87s-1.19,5-4.31,5.28l-2.83.2-.59-7.9c-.1-1.2.1-1.27,1.52-1.4.51,0,1-.05,1.43-.05Zm59.29,5.58a6.05,6.05,0,0,0-6.09,4.2c-1.3,3.89,1.36,6.48,4.08,8.8s5.55,4.38,4.59,7.31c-.77,2.22-3.56,2.62-6.05,1.79-3.88-1.3-4.55-5-4.78-9.1l-.66-.2-2.49,7.47.89.3c.47-.26,1.13-.56,1.46-.43a19,19,0,0,1,2.06,1.2,20.77,20.77,0,0,0,3.29,1.56c4.65,1.52,8.6,1.09,10.29-4,1.27-3.82-1.39-6.51-4.18-8.86s-5.64-4.42-4.81-6.91c.69-2.09,3-2.49,4.88-1.9,3.58,1.2,4.71,5.75,4.61,9l.73.26,2.43-7.4-.63-.2a2.13,2.13,0,0,1-1.83.43c-.3-.1-.86-.6-1.73-1.16a11.82,11.82,0,0,0-3.38-1.76,8.91,8.91,0,0,0-2.68-.45ZM127.86,31.23l-10.13,3.65.3.8.13,0,.1,0,.14-.07.09,0,.14,0,.1,0,.1,0,.1,0,.1,0,.1,0,.1,0h.09l.1,0,.07,0h.1l.07,0h.16l.14,0h.49l.14,0,.1,0,.1.07.1.06.06.07.1.07.07.1.1.1.06.09.07.14.1.13.07.17.06.13,0,.1,0,.1.07.06,0,.1,0,.1,0,.1,0,.14,0,.1.07.1,0,.13,5.12,14c.89,2.49.73,2.83-2,3.82l.3.8,19.22-7-.53-6.77-.76.16c-.93,5.55-2.49,7.11-7.64,9-3,1.09-3.55,1-4.45-1.5l-5.1-14c-.93-2.49-.74-2.82,1.95-3.85l-.29-.77Zm43.92,1.61c3.1.06,5.26,1.34,5.52,5s-1.22,5.38-4.84,5.68h-.34l-.33,0h-1l-.16,0h-.14l-.1,0-.13,0-.13,0-.1,0-.13-.06-.1,0-.1-.06-.1-.07-.07-.07-.1-.06-.07-.1-.06-.1-.07-.1,0-.07,0,0v-.07l0-.06,0-.07v-.07l0-.06v-.07l0-.1v-.23l-.66-8.9,2.06-.13a13,13,0,0,1,1.38,0Zm77.15,2.7-.36.73.13.07.1.07.1.06.13,0,.1.06.1.07.1,0,.1.07.07,0,.1.07.1,0,.06.07.07,0,.1.07.13.1.14.06.1.1.09.1.1.1.07.1.07.1.06.1,0,.1,0,.1,0,.1v.46l0,.14,0,.16-.07.14,0,.16-.07.17-.1.16,0,.1,0,.1,0,.1-.06.1,0,.1-.06.1,0,.1-.06.1-6.58,13.42c-1.16,2.39-1.53,2.45-4.12,1.23l-.36.76,9.66,4.75.37-.77c-2.56-1.26-2.73-1.62-1.53-4l6.57-13.42c1.17-2.39,1.53-2.49,4.12-1.26l.37-.73-9.67-4.75Zm-148.3,8.64L91.4,49.69l.43.73.1-.07.13-.06.1-.07.1-.07.1-.06.1,0,.1-.06.1,0,.1-.06.07,0,.1-.06.09,0,.07,0,.1,0,.13-.07.17-.06.13,0,.14,0,.13,0h.46l.1,0,.1,0,.1.07.1.07.1.06.1.1.1.07.1.13.1.1.1.13.1.17.1.13.06.1.07.07,0,.1.07.1.07.1.06.1,0,.1.06.1,7.64,12.81c1.36,2.3,1.26,2.66-1.16,4.16l.4.69,17.6-10.49-1.8-6.58-.69.34c.1,5.61-1.13,7.43-5.85,10.26-2.72,1.62-3.32,1.56-4.65-.67L99.85,49c-1.36-2.29-1.26-2.62,1.19-4.12l-.43-.73Zm166.9.73-.5.66c.53.47,2.26,1.76,1.69,2.56l-10,13.55c-1.1,1.49-2.52,1.59-4.15.53l-.5.66,6.24,4.62.5-.67-.13-.13-.17-.1-.13-.13-.13-.1-.14-.13-.13-.14-.1-.1-.13-.13-.1-.13-.1-.13-.07-.1-.1-.14-.06-.13-.07-.13-.07-.17-.06-.13,0-.13,0-.14,0-.13v-.6l0-.16,0-.14.07-.16,0-.17.1-.13.07-.17.1-.16.1-.17.1-.17L269.55,49l.07.07,2.59,27.73,1,.73L284.6,62.11c1.46-2,2.29-1.89,4-.6l.5-.66L283,56.33l-.47.7c2,1.49,2.49,2.45,1.06,4.38L276.1,71.64l-1.9-21.82-6.67-4.91ZM77,60.9a.19.19,0,0,0-.1.05c-.1.06-.1.16-.1.5a19.06,19.06,0,0,1-.17,4c.3-.1.73.16,1.13.4L82.1,79.11c1.16,3.59,1.4,4.69,0,6.61l.56.63,5.18-4.55-.56-.63c-1.3,1.16-2.26,1.3-2.79.7a8.11,8.11,0,0,1-1-2.13l-.83-2.32,7.1-6.21,2.33,1a7.1,7.1,0,0,1,2.16,1.13c.46.56.39,1.36-1.13,2.69l.53.63,7.77-6.81-.57-.63c-1.46,1.06-2.12,1.3-3.91.47L77.69,61.11c-.43-.17-.59-.23-.7-.21Zm2,5.53,9.6,4.35-6.38,5.58L79,66.43Zm217.31,1.43-.63.56.13.13.1.14.1.13.1.13.1.1.07.13.07.1.06.1.07.1,0,.1,0,.1,0,.1v.1l0,.1v.1l0,.07v.1l0,.1,0,.1-.06.1-.07.1-.07.1,0,.06,0,.07-.07,0,0,.07-.07.06,0,0-.07.06-.07.07,0,.07-.07.06-.06.07-.07.07-.1.06-.06.07-.07.06-.1.07-.07.1-.1.07-.06.06-.1.1L283.87,82c-2,1.76-2.36,1.73-3.72.23l-.6.57,12.72,14.31L298,94.32l-.16-.76c-4.88.53-6.84.86-10.23-3l-2.16-2.39c-.73-.83-.56-1.1.33-1.89l6.61-5.85,1.2,1.33c3.05,3.45,3,5.78.59,8.33l.5.57,7.81-7-.5-.54c-2.86,2.06-5.71.37-7.77-2L293,79.88l7.18-6.41,3.38,3.78c2.19,2.49,2.13,5,1.36,9.47l.54.26,2.85-5.64-12-13.48ZM58.66,79.41,54.14,86l9.57,14.42L46.8,96.68,42.42,103l.7.5c.43-.53,1.69-2.32,2.49-1.76l13.88,9.5c1.53,1.06,1.66,2.49.66,4.15l.7.46,4.38-6.41-.66-.46c-1.16,1.66-2.59,2.56-4.42,1.33L47,101.26l0,0,20.86,4.48.3-.43h0L56.23,87.15l.07-.1,13.45,9.23c2.19,1.5,2.23,1.86.63,4.25l.7.47,6.08-8.87-.7-.46c-1.63,2.35-2,2.42-4.19.92L60,84.13c-2.19-1.5-2.22-1.86-.63-4.25l-.66-.47ZM314.6,94.35a6,6,0,0,0-3.27.9c-3.52,2.13-3.19,5.81-2.62,9.37s1.33,6.94-1.3,8.53c-2,1.2-4.38-.33-5.74-2.56-2.13-3.52-.2-6.8,2.26-10.06l-.34-.56-6.77,4.08.5.8a2.46,2.46,0,0,1,1.39.6,19,19,0,0,1,.8,2.25A16.78,16.78,0,0,0,301,111c2.52,4.18,5.81,6.44,10.43,3.65,3.42-2.06,3.15-5.85,2.59-9.43s-1.43-7,.83-8.37c1.89-1.16,3.95.1,4.91,1.73,2,3.22-.13,7.4-2.36,9.86l.4.66,6.64-4-.33-.56a2,2,0,0,1-1.66-.86,11.76,11.76,0,0,1-.53-2,13.83,13.83,0,0,0-1.46-3.52,7.32,7.32,0,0,0-5.83-3.79Zm-278,20.46-.23.63a2.19,2.19,0,0,1,.3,1.86,13.19,13.19,0,0,1-1.3,1.63,11.83,11.83,0,0,0-2,3.25c-1.43,3.49-.63,7.51,3.12,9s6.54-.89,9.07-3.48,4.78-5.22,7.6-4c2.16.86,2.36,3.72,1.36,6.11-1.52,3.82-5.31,4.25-9.39,4.18l-.27.63,7.31,3,.36-.83c-.23-.5-.5-1.19-.33-1.53a15.94,15.94,0,0,1,1.33-2,19.87,19.87,0,0,0,1.79-3.15c1.86-4.55,1.69-8.5-3.29-10.56-3.72-1.49-6.57,1-9.13,3.55s-4.78,5.35-7.2,4.35c-2.06-.86-2.26-3.22-1.57-5,1.43-3.49,6-4.28,9.34-4l.29-.69h0l-7.2-3ZM325.89,117a6.44,6.44,0,0,0-2.08.45c-3.81,1.5-4.08,5.22-4.11,8.8s.2,7.08-2.66,8.21c-2.16.86-4.28-1.07-5.25-3.49-1.52-3.79.9-6.71,3.89-9.53l-.27-.63-7.34,2.92.34.86c.53.2,1.19.5,1.32.83a19.54,19.54,0,0,1,.37,2.33,17.23,17.23,0,0,0,.93,3.55c1.79,4.55,4.68,7.31,9.66,5.31,3.72-1.49,4.09-5.24,4.12-8.86s-.27-7.17,2.19-8.14c2.06-.83,3.89.77,4.59,2.53,1.39,3.48-1.37,7.27-4,9.33l.27.73,7.24-2.89-.27-.6a2.14,2.14,0,0,1-1.49-1.13,19.72,19.72,0,0,1-.2-2.09,12,12,0,0,0-.86-3.72c-1.11-2.83-3.53-4.9-6.43-4.77ZM36.31,166.35l-2,6.24H27.71L33,176.48l-2,6.24,5.31-3.85,5.31,3.85-2-6.24,5.31-3.89H38.34l-2-6.24Zm292.26,0-2,6.24H320l5.31,3.89-2,6.24,5.31-3.85,5.31,3.85-2-6.24,5.31-3.89h-6.58l-2-6.24Zm-10.63,51.24-2.62,7.1.8.27c.86-2.36,1.65-3.09,3.91-2.26l11.89,4.39L311.53,235l-2.89,7.77.8.3c.3-.63,1.06-2.66,2-2.33l15.78,5.85c1.72.63,2.22,2,1.66,3.82l.79.3,2.69-7.31-.76-.26-.07.16-.06.17-.1.16-.07.17-.07.17-.1.16-.09.13-.07.14-.1.13-.1.13-.1.14-.1.1-.1.13-.1.1-.13.1-.1.06-.13.1-.14.07-.13.07-.13,0-.14.07-.13,0-.16,0H329l-.16,0h-.17l-.16,0-.17,0-.2,0-.17,0-.2-.06-.17-.07h0L312,239.7v-.1l26-10.19.43-1.17-18-6.64c-2.36-.86-2.49-1.66-1.73-3.72l-.8-.3Zm-292.06,0-.8.23,2.16,6.91.79-.27c-.53-1.73-.29-2.69.47-3a8.07,8.07,0,0,1,2.36,0l2.46.2,3,9.5-1.89,1.79a6.53,6.53,0,0,1-1.89,1.53c-.7.2-1.4-.24-2-2.26l-.79.26L33,243l.8-.26c-.4-1.86-.37-2.59,1.09-3.95l15.51-14.62c.47-.43.53-.5.47-.66s-.1-.17-.44-.3a18.15,18.15,0,0,1-3.58-1.93c0,.34-.43.67-.77.93L32,220.47c-3.75-.4-4.84-.7-6.07-2.86Zm8.6,4.21,10.46,1.27-7.81,7.24-2.65-8.5Zm21.81,18.6-.69.4c1.19,2.16,1.13,2.52-1.2,3.85l-12.95,7.44c-2.29,1.33-2.66,1.2-3.92-.93l-.69.43,6.44,11.26c3.35,5.84,9.63,8.07,15.6,4.65l.57-.33.5-.37.5-.37.43-.39.43-.44.4-.39.36-.47.34-.46.29-.47.3-.5.24-.49.23-.54.2-.49.2-.57.13-.53.1-.53.1-.57.06-.56,0-.56,0-.57,0-.6,0-.56-.06-.57-.1-.59L64,255l-.17-.56-.16-.57-.17-.56-.23-.53-.23-.57-.27-.53-.3-.53h0l-6.18-10.76Zm2.43,7c.49,0,1,.54,2.29,2.88,2.79,4.85.6,10.12-4.48,13S46.07,266.07,43,260.69l-.07-.14-.06-.13-.07-.13-.07-.1-.06-.13-.07-.1-.07-.14-.06-.1,0-.1-.06-.09-.1-.2-.07-.2-.1-.17-.06-.2,0-.16-.06-.14,0-.16,0-.14v-.39l0-.14,0-.1,0-.13.07-.1.06-.1.07-.13.1-.1.1-.1.13-.1.13-.1.14-.1.16-.13.17-.1.2-.1.2-.14.1,0,.1-.07h0l14.51-8.34a1.36,1.36,0,0,1,.53-.22ZM308.77,253a11.75,11.75,0,0,0-6.94,21.48l.53.33.53.3.54.27.53.2.53.2.56.16.57.17.56.1.57.06.56.07.56,0h.57l.56,0,.57-.07.56-.09.57-.1.56-.14.53-.16.53-.17.54-.23.49-.23.54-.24.49-.3.47-.29.46-.34.47-.33.43-.4.4-.4.4-.39.36-.44.37-.46.33-.47a11.86,11.86,0,0,0-3.25-16.23,11.33,11.33,0,0,0-6.05-1.86Zm-4.32,3a15.54,15.54,0,0,1,7.74,2.81c4.09,2.72,8.14,7.31,5.18,11.79s-8.8,2.59-12.88-.13l-.4-.24-.37-.26-.39-.3-.37-.3-.37-.3-.36-.3-.37-.29-.33-.34-.33-.33-.33-.37-.33-.33-.3-.36-.27-.37-.26-.36-.24-.37-.23-.4-.2-.39-.2-.37-.16-.4-.14-.4-.1-.43-.1-.4,0-.4,0-.43v-.4l0-.43.07-.43.13-.4.13-.43.17-.43.13-.2.1-.23.13-.2.14-.2h0a5.75,5.75,0,0,1,5.14-2.68ZM73.27,268.46l-.6.56c.43.53,1.92,2.13,1.23,2.82L61.81,283.53c-1.33,1.3-2.76,1.17-4.18-.16l-.6.6,5.41,5.57L63,289c-1.43-1.49-2-3.06-.4-4.62l11.49-11.09,0,0L65.6,292.83l.36.4,20.12-8.07.1.07L74.49,296.58c-1.92,1.83-2.29,1.8-4.31-.23l-.6.57,7.51,7.73.59-.56c-2-2.09-2-2.46-.1-4.32l10.73-10.36c1.93-1.86,2.29-1.82,4.32.23l.59-.59-5.51-5.72-16,6.51,7-15.84-5.38-5.54Zm214.18,5.28-7.4,7.84.63.56.06-.1.1-.1.1-.1.07-.07.1-.09.07-.07.1-.07.06-.1.07-.06.06-.07.1-.07.07-.06.07-.07.06,0,.14-.14.13-.06.1-.1.13-.07.13-.06.1,0,.1,0,.14,0H283l.14,0,.1,0,.13,0,.1,0,.13.07.14.1.09.06.14.1.16.13.07.07.07,0,.06.07.1.07.07.1.07.06.09.07.07.07.1.09.1.07,10.83,10.3c1.92,1.82,1.89,2.19,0,4.31l.6.57,7.41-7.81-.6-.59c-2,2.05-2.36,2.09-4.29.26L288,278.62c-1.93-1.83-1.9-2.19.06-4.32l-.63-.56ZM274.6,286.32l-.93.7c.07.57-.6,1.06-1.06,1.43l-12.12,9.16c-.47.37-1.16.83-1.66.64l-.93.69,2.85,6.08.7-.27c-.46-3.38,0-6.8,2.89-9,.83-.63,1.2-.33,1.79.44L276,309.3c1.59,2.13,1.53,2.49-1.06,4.49l.53.63,9.16-6.91-.5-.7-.13.1-.1.1-.13.07-.1.1-.1.06-.1.07-.1.07-.1.1-.1.06-.1,0-.1.06-.1.07-.06.07-.1,0-.07.07-.1,0-.07,0-.1,0-.06.07-.07,0-.13,0-.13.06-.14,0-.13,0h-.23l-.14,0h-.09l-.1,0-.14-.06-.1-.07-.1-.07-.1-.06-.13-.1-.1-.1-.13-.13-.1-.14-.13-.13-.14-.17-.13-.16-.07-.1-.06-.07-.07-.1-.1-.1-9.89-13.15c-.57-.73-.77-1.16.06-1.79,2.89-2.19,6.34-1.69,9.43-.33l.47-.57-5-4.45Zm-101.28,1.9c-4.48,0-7.34,3.18-7.34,7.67,0,4.21,2.46,7,6.74,7a10.26,10.26,0,0,0,3-.56l-.1.39-.1.44-.13.36-.13.4-.17.37-.2.36-.2.37-.2.36-.23.33L174,306l-.23.33-.27.33-.27.3-.29.3-.3.3-.3.26-.3.27-.33.26-.34.24-.33.26-.33.23-.37.2-.36.24-.37.19-.36.2-.37.17-.36.17-.37.16-.4.17-.36.13-.4.13-.36.1.19.6c7.61-1.86,13.55-5.71,13.55-14.44,0-4.52-2-8.9-7.07-8.9Zm36.66,0c-3.39,0-5.35,2-6.21,5.21l.63.2a4.49,4.49,0,0,1,3.72-2.52,3.35,3.35,0,0,1,3.65,3.32v.23l0,.26-.07.2,0,.24-.1.2-.1.19-.1.2-.1.2-.13.17-.17.17-.13.16-.17.17-.19.13-.17.17-.2.13-.2.1-.2.13-.23.1-.2.1-.23.1-.24.07-.23.1-.2.06-.23,0-.23.06-.23.07-.24,0-.23,0H207l-.2,0h-.43V299c3.25.9,6.9,3.36,6.9,6.94,0,2-1.16,4.75-3.48,4.75-2,0-2.56-1.26-3.06-2.52s-.89-2.49-2.52-2.49a1.89,1.89,0,0,0-1.93,1.86c0,3.58,5.12,4,7.44,4,4.22,0,7-2.36,7-7.07,0-3.12-2.79-6.05-5.85-6.74v-.07c2-.7,4.39-2.22,4.39-4.65,0-3-2.36-4.81-5.25-4.81Zm-50.41,0a11.28,11.28,0,0,1-5.88,2.39v.83h.73l.1,0h.6l.07,0h.26l.07,0h.07l.09,0h.14l.06,0,.1,0,.1,0,.07,0,.07,0,.06.06,0,0,.06.06,0,0,0,.06,0,.07,0,.07v.06l0,.07v.16l0,.1v15.71c0,1.3-.63,2-3.42,2.06v.83h10.56v-.83c-3-.07-3.59-.76-3.59-2.06v-20Zm37.82,0a2.93,2.93,0,0,1-1.66.46h-9.86L184.64,300c3.85-.19,10.59,1.27,10.59,6.18a4.53,4.53,0,0,1-4.55,4.55c-2.15,0-2.65-1.16-2.65-2.49a2.62,2.62,0,0,0-2.49-2.82,2,2,0,0,0-2,2.12c0,3.42,4.42,4,7,4,4.75,0,7.47-3,7.47-7.17,0-6.14-6-7.94-11.82-8.6l.36-3.69h9.27l1.86-3.75-.27-.13Zm-24.7.86h.3c3.25,0,3.48,4.58,3.48,6.87,0,4.69-.33,5.81-2.75,5.81-3.29,0-4.19-3.58-4.19-6.21v-.23l0-.23v-.7l0-.26v-.27l0-.26,0-.27,0-.27,0-.26.07-.27.06-.26.07-.27.07-.26.06-.27.1-.23.1-.27.13-.23.1-.2.14-.23.16-.2.14-.17.16-.16.2-.17.1-.06.1-.07.1-.07.1-.06.1,0,.13-.06.1,0,.14,0,.13,0,.13,0h.13l.14,0Zm-74,3.59-.46.66.1.1.1.07.1.06.1.07.1.07.09.06.07.07.1.06.07.07.1.07.06.06.07.07.07.07.06.06.07,0,.07.06.09.1.1.14.1.09.07.1.07.1,0,.14.07.1v.1l0,.1v.33l0,.13,0,.13-.06.14-.07.13-.07.13-.06.14-.1.16,0,.07-.06.1-.07.06,0,.1-.07.1-.06.1-.07.07-.07.1-.06.1-.07.1-8.6,12.22c-1.53,2.16-1.89,2.19-4.25.56l-.47.7,8.8,6.21.47-.7c-2.32-1.66-2.39-2-.86-4.18l8.56-12.26c1.53-2.15,1.93-2.19,4.29-.56l.46-.66-8.8-6.21Zm13.85,9.86-.37.73c.57.37,2.43,1.26,2,2.16l-7.14,15.21c-.8,1.69-2.12,2.09-3.85,1.43l-.33.73,6.67,3.15.33-.76-.13-.07-.17-.1-.16-.07-.13-.1-.14-.06-.16-.1-.14-.1-.1-.1-.13-.1-.1-.1-.13-.1-.1-.13-.1-.1-.07-.13-.1-.1-.06-.14-.07-.13,0-.13-.07-.14,0-.13,0-.13v-.13l0-.17v-.3l0-.17,0-.16,0-.17.07-.16,0-.17.1-.2.07-.2h0l7.07-15,.07,0,7.14,26.34,1.06.49,8.13-17.36c1.07-2.26,1.86-2.33,3.76-1.43l.33-.76-6.51-3.06-.37.76c2.2,1,2.79,1.86,1.8,4l-5.41,11.49-5.45-20.69-7.14-3.35Zm132.16,3.53-.1,0c-.1.07-.16.17-.23.5a18.07,18.07,0,0,1-1.33,3.85c.34,0,.73.33,1,.6l.6,14.18c.17,3.79.07,4.88-1.89,6.44l.36.77,6.48-3.26-.37-.73c-1.62.8-2.65.73-3,0a10.72,10.72,0,0,1-.36-2.35l-.17-2.46,8.9-4.45,2.06,1.56a6.28,6.28,0,0,1,1.83,1.66c.33.66,0,1.39-1.9,2.36l.37.73,9.73-4.85-.37-.73c-1.82.66-2.52.76-4.12-.5l-16.87-13c-.37-.27-.52-.38-.63-.39Zm.47,5.9,8.4,6.54-8,4L245.21,312Zm-102.78,3.12-.23.8.13.06.14,0,.13,0,.1,0,.13,0,.1,0,.1,0,.1,0,.1,0,.1,0,.1,0,.1,0,.07,0h.1l.06,0,.07,0,.16.07.14.1.1.06.1.07.1.07.1.09.06.07.07.1.07.1,0,.1,0,.1,0,.1v.13l0,.13v.14l0,.13v.17l0,.16,0,.17v.1l0,.1v.1l0,.1,0,.1,0,.1v.1l0,.13,0,.1,0,.13L140.71,334c-.67,2.55-1,2.72-3.79,2l-.2.83,10.43,2.73.2-.83c-2.76-.74-3-1.07-2.29-3.62l3.78-14.45c.67-2.56,1-2.72,3.79-2l.23-.79-10.43-2.76Zm80.4.9a19.08,19.08,0,0,0-5.68.8l-9.07,2.42.24.83.1,0,.1,0,.13,0h.1l.1,0,.07,0,.19,0,.17,0,.17,0h.16l.14,0h.39l.1,0h.1l.1,0,.1,0,.1.07.07.06.1.07.07.07.06.1.07.1.06.1.07.13.07.13,0,.07,0,.06,0,.07,0,.1,0,.07,0,.1,0,.06,0,.1v.1l0,.1,0,.1,0,.1,0,.1,0,.13,0,.1,0,.13,3.91,14.42c.67,2.55.47,2.85-1.86,3.52l.2.83,10-2.73-.23-.79c-2.75.73-3.09.56-3.75-2l-1.89-6.94,2.55-.66c1.07-.3,1.9.43,2.89,1.56l6.55,7.21,7-1.93-.24-.8c-2.09.57-2.65.14-3.15-.33l-7.28-6.84a2.2,2.2,0,0,0-1.26-.53l0-.1c2.35-.9,4.61-2.92,3.85-5.71-.71-2.6-2.67-4.22-6.14-4.35Zm-2.92,1.21c2.28,0,3.81,1.14,4.48,3.6.9,3.29-.76,5.25-4.45,6.31l-2.09.57h0l-2.59-9.53,2.12-.57a9.77,9.77,0,0,1,2.53-.38Zm-56.5,2.14c-3.18.09-6,1.93-6.5,5.45-.5,4.08,2.62,6.07,5.75,7.83s6.31,3.23,5.94,6.25c-.3,2.36-3,3.29-5.58,2.95-4.05-.49-5.48-4-6.51-8l-.66-.1-1,7.87.93.1c.39-.36,1-.79,1.36-.73a21,21,0,0,1,2.22.77,17.45,17.45,0,0,0,3.52.89c4.88.6,8.67-.59,9.33-5.94.5-4-2.65-6.08-5.81-7.87s-6.41-3.19-6.11-5.81c.3-2.19,2.53-3,4.42-2.79,3.75.46,5.74,4.68,6.31,7.94l.76.1h0l1-7.7-.69-.1a2.15,2.15,0,0,1-1.7.8,16.93,16.93,0,0,1-1.92-.83,12.14,12.14,0,0,0-3.69-1,9.05,9.05,0,0,0-1.37-.07Zm38.07.33-1.17.07c-.26.5-1.09.57-1.69.6l-15.18.86c-.59,0-1.42.07-1.72-.4l-1.16.07-1,6.64.73.13c1.49-3,3.78-5.64,7.4-5.84,1-.07,1.17.4,1.23,1.36l1,16.41c.13,2.65-.14,2.92-3.36,3.12l0,.83,11.49-.63,0-.87h-.16l-.14,0H196.1l-.1,0h-.17l-.07,0h-.16l-.13-.07-.14,0-.1,0-.13-.07-.07-.07-.1-.06-.1-.1-.06-.07-.07-.1,0-.13-.07-.1,0-.13-.07-.17,0-.13v-.17l0-.16,0-.2,0-.2v-.33l0-.14v-.23l-.93-16.4c-.07-1,0-1.43,1.06-1.5,3.62-.2,6.21,2.13,8,5l.69-.2-1.72-6.51Z" transform="translate(-2.63 -2.38)"/><path class="cls-7" d="M62.21,172.25h0v0l0,0,0-.07,0-.06.07-.07,0-.07.07-.1.06-.1.13-.23.17-.26.17-.3.2-.37.2-.36.23-.37.23-.43.23-.43.27-.47.23-.5.27-.49.26-.54.27-.53.26-.53.27-.56.5-1.13.23-.6.23-.56.23-.6.2-.57.2-.56.17-.6.17-.53.13-.56.1-.53.1-.54.43-6.87,4.28-.43,1.3,1.73-2.16,3.42.43,1.29a9.42,9.42,0,0,0,3.89-6.87v-6h99.82l1.72-2.59,2.56.43-.43,2.59,6.44,1.26,8.57,4.29-1.3,1.72-4.71,1.3-.43,2.12,5.57-.83,3-.43,1.69-1.73,2.16.44-2.16-.44,4.28-.43,1.3,4.72,2.12.43h2.59l3.42-2.16,4.52,4.52-1.53-.43-4.68.86c-8.37,1.06-9.66,6.84-9.66,6.84l1.92-.2-1.29,10.93c0,6.21,4.51,7.07,4.51,7.07,3.86-.23,3.23-5.15,3.23-5.15-2.56-2.56,0-10.72,0-10.72l7.5-4.69,3.32,3.32c0,.34.1.8-.07,1-1.16,1.3-1.76,3.12-.33,4.25,1,.83,2-.26,3-.73.3-.13.77.07,1-.1s.69-.93.4-1.09l2.32,3.18-2.36,7.81,2.36-1.27,3.55-.63c2.46-2.89,9.3-5.24,9.3-5.24,4.92-2.83.67-5,.67-5,.93-.1,3.18-3,3.18-3a7.7,7.7,0,0,0,8.14-3.42V159l6-6.84,7.27-.43,4.32-4.28-.9-6,4.32-8.17s2.56-6,.86-9.86,4.25,8.17,4.25,8.17l4.75,5.11-.43,5.58,4.72,4.28-1.3,2.59-5.15,1.7-4.28,6.44-.43,4.71,2.12,3.42,2.16-.43-1.29-1.69,1.72-2.16,3,4.28-2.55,3.42v2.59l-2.59,1.7v2.16l-3,1.49.86,4.95,1.29,4.25-1.72,2.59-3-2.16c6,6.44,2.12,9.86,2.12,9.86l-2.12.43-2.16-5.14v3.85l3.85,4.28.43,3.46-.86,2.12,2.16-.43v3.45s-2.16,4.29-2.16,2.13v1.29c0,2.13-2.56,5.15-2.56,5.15-12,9.43-9.86,16.7-9.86,16.7-.43,1.3,5.15,6.84,5.15,6.84l.43,3.46,6.84,9.43c4.72,9.86-5.15,13.28-5.15,13.28l-.83-3.42-2.22-1.89" transform="translate(-2.63 -2.38)"/><line class="cls-8" x1="245.9" y1="217.7" x2="245.9" y2="217.7"/><line class="cls-8" x1="245.8" y1="210.53" x2="245.8" y2="210.53"/><line class="cls-8" x1="245.9" y1="220.69" x2="245.9" y2="220.69"/><line class="cls-8" x1="125.92" y1="217.04" x2="125.92" y2="217.04"/><line class="cls-8" x1="118.22" y1="217.04" x2="118.22" y2="217.04"/><line class="cls-8" x1="110.48" y1="217.04" x2="110.48" y2="217.04"/><line class="cls-8" x1="134.29" y1="198.84" x2="134.29" y2="198.84"/><path class="cls-9" d="M136.92,201.21H106v24h30.88Zm-23.81,4.49h-3.42v13.71h3.42Zm7.74,0h-3.46v13.71h3.46Zm7.7,0h-3.42v13.71h3.42Zm120,0H219.17v17.36h29.36Zm-.1,2.92H228.94v4.28h19.49Zm.1,7.17H229v4.28h19.49Zm.23,1.93h11.13V199.49H240v6.21m-83-1.27-4.12-5.87-8.43,2.72-.43.17-5.52-4.62.2-.27,3.46-8.16-5.52-4.62-7.43,4.81-.44.24-6.5-3.06.13-.26,1.19-8.8-6.5-3-5.95,6.61-.3.33-7.07-1.22.07-.34-1.13-8.83L95.64,169l-4,7.94-.27.4-7.14.63-.06-.3-3.36-8.24-7.14.67-1.86,8.67-.1.43L65,181.69l-.1-.3-2.62-3.19M185.17,282.84l.66-4-7.77-4.35-.36-.23,0-7.17,8.33-3-.33-7.17L177,254.68l-.43-.14-2.19-6.84.3-.1,7.27-5.11-2.19-6.84-8.9.13h-.46l-2.73-4.22m18,25.34-6.64-4,1.09-6.65,8.8-1.22.43-.07,2.1-4.62-4.85-6.6.86-1.7m86.84-56.91-1.76-4.09-7.18.23L263,179.86l0,.33-7.21.24-.29-.37-4.95-7.37-6.88,2.09,0,8.9.1.3-6.87,2.09-.37-.3-6.31-5-6.08,3.78,1.86,7.77.17.3-6.08,3.79-.46-.17-8-3.88-4.92,5.24,4.42,7.71.23.23-4.88,5.25-.46-.1-8.7-1.66L194,215.36" transform="translate(-2.63 -2.38)"/><path class="cls-10" d="M87.18,234.85H78.94c-.86-10.29-11.58-16.74-11.58-16.74-5.15-6-4.72-15.4-4.72-15.4l-2.56-11.16,1-15.31,1.13-4" transform="translate(-2.63 -2.38)"/><path class="cls-2" d="M180.52,198.62v18.13l7.38-5.48,8.79,5.15,4.49-5.15,8.47,5.38,4.81-5.38,10.29,6.21v14.15h-93v-13h12.09V203.67h9.33V178.93h3.32v24.74l5.15-.2v-4.85l9.3-4.05c0-.1,9.56,4.05,9.56,4.05Z" transform="translate(-2.63 -2.38)"/></svg>