<svg width="66" height="66" viewBox="0 0 66 66" fill="none" xmlns="http://www.w3.org/2000/svg">
<g style="mix-blend-mode:multiply">
<path d="M32.9971 65.0049L34.6456 64.9634L36.2704 64.8388L37.8714 64.6372L39.4428 64.3525L40.9964 63.9967L42.5145 63.5638L43.9969 63.0597L45.4497 62.4904L46.8669 61.85L48.2485 61.1383L49.5886 60.3733L50.8872 59.5372L52.1443 58.6476L53.354 57.6988L54.5103 56.6907L55.6251 55.6292L56.6806 54.5203L57.6886 53.358L58.6374 52.1482L59.5328 50.8969L60.363 49.5982L61.1338 48.258L61.8395 46.8762L62.4799 45.4589L63.055 44.006L63.5591 42.5175L63.9919 40.9994L64.3477 39.4516L64.6265 37.8741L64.834 36.273L64.9526 34.6481L65 32.9995C65 15.3276 50.6677 1 32.9971 1C15.3265 1 1 15.3276 1 32.9995C1 50.6771 15.3265 65.0047 32.9971 65.0047L32.9971 65.0049Z" fill="white" stroke="white" stroke-width="0.339603" stroke-miterlimit="10.433"/>
<path d="M16.1791 39.1891L17.2818 25.5322C17.1809 20.183 15.4082 19.6731 15.4082 19.6731L22.3638 15.48C28.9638 19.2872 32.8776 14.2939 32.8776 14.2939C38.7302 19.898 43.6813 15.5867 43.6813 15.5867L50.9333 19.7264C48.6032 22.2464 48.9703 24.0912 48.9703 24.0912L49.5696 39.011L33.073 26.8722L16.1791 39.1891Z" fill="black" stroke="black" stroke-width="0.478148" stroke-miterlimit="10.433"/>
<path d="M33.0493 55.1709L33.0552 55.165L33.0671 55.1413L33.0967 55.1057L33.1382 55.0583L33.1916 54.9931L33.2509 54.9219L33.3339 54.8389L33.4228 54.744L33.5295 54.6372L33.6482 54.5246L33.7786 54.4L33.9269 54.2695L34.0929 54.1332L34.2708 53.9909L34.4665 53.8426L34.6799 53.6943L34.9112 53.5342L35.1543 53.3741L35.4211 53.214L35.6999 53.048L36.0023 52.8819L36.3224 52.7159L36.6605 52.5499L37.0222 52.3898L37.3957 52.2237L37.799 52.0636L38.214 51.9035L38.6588 51.7493L39.1213 51.601L39.6016 51.4588L40.1116 51.3165L40.6393 51.186C40.6393 51.186 44.6182 51.0496 48.1286 45.5879L32.972 34.8599L18.0764 45.4271C21.8003 50.9185 25.7971 51.0311 25.7971 51.0311C31.9167 53.1245 33.0491 55.1704 33.0491 55.1704L33.0493 55.1709Z" fill="black" stroke="black" stroke-width="0.339574" stroke-miterlimit="10.433"/>
<path d="M32.7704 16.7371L32.2663 20.1945L31.0743 19.1389L23.6029 20.7105C23.6029 20.7105 22.2034 22.7268 20.8633 20.6334L19.9678 20.8232C19.9678 20.8232 20.0688 22.3294 21.7528 23.2012L21.8006 23.2024C21.6941 23.31 21.6283 23.4585 21.6283 23.6221C21.6283 23.7635 21.6758 23.8918 21.7552 23.9927L18.5803 29.6116C18.5803 29.6116 21.5689 34.8184 25.6723 29.8844L22.6748 23.9821L22.6779 23.9779L22.6957 23.9542L22.7076 23.9304L22.7254 23.9067L22.7372 23.883L22.7491 23.8533L22.7609 23.8296L22.7667 23.8L22.7787 23.7703L22.7845 23.7466L22.7904 23.7169V23.6873L22.7963 23.6576V23.6221C22.7963 23.4682 22.7378 23.3282 22.6428 23.2224L22.7489 23.2249C22.7489 23.2249 24.0595 23.0292 24.4034 21.7422L32.0112 21.7125H32.0231L31.9104 24.3337C32.1772 25.2529 32.9244 25.164 32.9244 25.164C33.8257 25.2529 33.9207 24.3219 33.9207 24.3219L33.6064 21.7422H41.1964C41.5285 23.029 42.8569 23.3256 42.8569 23.3256L43.0019 23.3239C42.8943 23.4317 42.8273 23.5814 42.8273 23.7465C42.8273 23.9057 42.8877 24.0496 42.9855 24.1566L43.0291 24.0727L43.8354 24.0431L43.872 24.109L43.8769 24.1024L43.8947 24.0787L43.9065 24.0549L43.9243 24.0312L43.9362 24.0075L43.9481 23.9778L43.9599 23.9541L43.9659 23.9245L43.9777 23.8948L43.9836 23.8652L43.9896 23.8355V23.8058L43.9955 23.7762V23.7465C43.9955 23.5763 43.9241 23.4227 43.8097 23.3143L43.8532 23.3138C45.5432 22.4539 45.656 20.9475 45.656 20.9475L44.7665 20.7519C43.4027 22.8394 42.0269 20.8053 42.0269 20.8053L34.5669 19.1744L33.2625 20.1944L32.7999 16.826L32.7703 16.7371L32.7704 16.7371ZM42.9856 24.1566C42.9855 24.1566 42.9854 24.1566 42.9854 24.1566L39.9455 30.0207C44.0074 34.9963 47.0374 29.8132 47.0374 29.8132L43.872 24.109L43.8591 24.1261L43.8413 24.1498L43.8235 24.1676L43.7998 24.1854L43.782 24.2091L43.7582 24.2269L43.7345 24.2388L43.7108 24.2566L43.6871 24.2684L43.6634 24.2862L43.6337 24.2981L43.61 24.304L43.5803 24.3159L43.5566 24.3218L43.527 24.3277L43.4973 24.3337L43.4677 24.3396H43.438L43.4085 24.3455C43.2419 24.3455 43.0917 24.2727 42.9856 24.1566H42.9856ZM33.0722 27.1566L15.9889 39.5392L15.9948 39.7288L16.0008 39.9245L16.0126 40.1202L16.0304 40.3159L16.0541 40.5116L16.0778 40.7133L16.149 41.1104L16.232 41.5019L16.3269 41.8992L16.4455 42.2906L16.57 42.6761L16.7124 43.0557L16.8666 43.4234L17.0267 43.7911L17.2046 44.1408L17.3825 44.4788L17.5723 44.805L17.7739 45.1193L17.9755 45.4159L32.9719 34.581L48.2406 45.5882C49.3376 44.0582 49.7348 41.4904 49.7348 39.4326L33.073 27.1563L33.0722 27.1566ZM41.5046 42.0952C39.9154 42.1011 39.4942 43.2456 39.4231 44.8765L39.4053 44.8587C39.4053 44.8587 38.8302 44.9536 38.7057 44.4851C38.7057 44.4851 38.5871 44.8943 38.0534 44.8765L27.9623 44.8873C27.7633 44.6309 27.4595 44.4673 27.1187 44.4673C26.7737 44.4673 26.4678 44.6317 26.2682 44.8892L21.4735 44.8943C20.4536 45.7186 21.4795 46.3708 21.4795 46.3708H22.2919V48.7016H24.1538V46.8334H23.4126L23.4244 47.2723H23.0034V46.4007H25.6364L25.6304 47.2723H25.245L25.2272 46.8334L24.48 46.8275L24.474 48.6956L26.3478 48.7193V46.4182H26.3659C26.5614 46.6123 26.8258 46.7327 27.1187 46.7327H27.1721L27.2254 46.7268L27.2847 46.7209L27.3381 46.709L27.3915 46.6972L27.4389 46.6794L27.4923 46.6616L27.5397 46.6438L27.5872 46.6201L27.6346 46.5963L27.682 46.5667L27.7236 46.537L27.7651 46.5074L27.8066 46.4718L27.8481 46.4362L27.8683 46.416L38.1951 46.4004C38.5983 46.4182 38.7526 46.8808 38.7526 46.8808C38.8593 46.3352 39.4227 46.4004 39.4227 46.4004V46.4006L39.4345 46.5428L39.4523 46.6851L39.4701 46.8275L39.4879 46.9639L39.5116 47.1003L39.5353 47.2307L39.565 47.3612L39.6006 47.4857L39.6362 47.6103L39.6717 47.7289L39.7132 47.8477L39.7607 47.9602L39.8081 48.0668L39.8615 48.1678L39.9149 48.2686L39.9742 48.3635L40.0394 48.4585L40.1046 48.5416L40.1758 48.6244L40.2529 48.7015L40.3359 48.7729L40.4189 48.8379L40.5077 48.8972L40.6028 48.9506L40.6977 48.9981L40.7985 49.0455L40.9111 49.0811L41.0236 49.1107L41.1363 49.1345L41.2608 49.1522L41.3854 49.1641L41.5218 49.17C43.2651 49.176 43.5378 47.4563 43.5378 45.4993C43.5378 43.5423 43.1999 42.0894 41.504 42.0953V42.0952L41.5046 42.0952Z" fill="white" stroke="white" stroke-width="0.170804" stroke-miterlimit="10.433"/>
<path d="M25.6982 47.8154H26.0421V46.6946M23.2729 47.8154H23.688V47.5664L23.2729 47.8154Z" stroke="black" stroke-width="0.318754" stroke-miterlimit="10.433"/>
<path d="M28.3705 45.1548H37.6208" stroke="black" stroke-width="0.238857" stroke-miterlimit="10.433"/>
<path d="M21.5573 45.1426H25.8386M40.651 42.5276L40.5977 42.5691L40.5443 42.6106L40.4909 42.6521L40.4435 42.6996L40.3961 42.7529L40.3486 42.8004L40.3071 42.8537L40.2597 42.9131L40.2241 42.9664L40.1826 43.0316L40.1411 43.0909L40.1055 43.1562L40.0699 43.2214L40.0403 43.2926L40.0106 43.3638L39.981 43.4349L39.9513 43.5061L39.9217 43.5832L39.898 43.6603L39.8742 43.7433L39.8505 43.8204L39.8327 43.9034L39.809 43.9924L39.7912 44.0754L39.7794 44.1643L39.7616 44.2532L39.7497 44.3422L39.7379 44.4371L39.726 44.526L39.7141 44.6209L39.7082 44.7217L39.7023 44.8166C39.643 45.8544 39.7023 46.6846 39.9039 47.4259C40.1529 48.3451 40.8052 48.7483 40.8052 48.7483L40.651 42.5276ZM42.8865 43.6009C43.183 44.2236 42.7798 45.1546 42.7798 45.1546L42.8865 43.6009ZM42.8569 46.139C43.2305 46.8684 42.8569 47.9062 42.8569 47.9062V46.139ZM22.4942 46.4473V48.5288V46.4473Z" stroke="black" stroke-width="0.318756" stroke-miterlimit="10.433"/>
<path d="M22.4488 22.0547L22.4903 22.0488L22.5377 22.0369L22.5792 22.031L22.6207 22.0191L22.6623 22.0073L22.7038 22.0013L22.7809 21.9717L22.8579 21.9479L22.9291 21.9124L23.0003 21.8827L23.0655 21.8412L23.1248 21.8056L23.1841 21.7641L23.2434 21.7226L23.2967 21.6811L23.3442 21.6396L23.3916 21.5981L23.439 21.5506L23.4806 21.5091L23.5161 21.4617L23.5517 21.4202L23.5873 21.3787L23.6169 21.3371L23.6466 21.3016L23.6703 21.26L23.694 21.2245L23.7118 21.1948L23.7296 21.1652L23.7474 21.1355L23.7593 21.1118L23.7652 21.094L23.777 21.0762V21.0703L23.783 21.0644V21.0584L30.9342 19.4098L31.1833 19.6886" stroke="black" stroke-width="0.398234" stroke-miterlimit="10.433"/>
<path d="M20.2726 20.9931L20.4919 21.6157L20.4564 20.9338L20.2726 20.9931Z" stroke="black" stroke-width="0.238854" stroke-miterlimit="10.433"/>
<path d="M33.8872 20.1868L34.5751 19.5641L35.3222 19.6886" stroke="black" stroke-width="0.531223" stroke-miterlimit="10.433"/>
<path d="M32.3613 21.7725L32.302 24.1683C32.2724 24.6664 32.8298 24.7909 32.8298 24.7909" stroke="black" stroke-width="0.531265" stroke-miterlimit="10.433"/>
<path d="M42.0681 45.5819L42.0978 45.6056L42.1334 45.6293L42.163 45.653L42.1926 45.6827L42.2164 45.7064L42.246 45.7361L42.2757 45.7657L42.2994 45.8013L42.329 45.8309L42.3528 45.8665L42.3765 45.9021L42.4002 45.9377L42.4239 45.9733L42.4476 46.0148L42.4713 46.0504L42.4891 46.0919L42.5069 46.1334L42.5247 46.1749L42.5425 46.2164L42.5603 46.2638L42.5781 46.3054L42.5899 46.3528L42.6077 46.3943L42.6196 46.4418L42.6315 46.4892L42.6433 46.5426L42.6492 46.59L42.6611 46.6374L42.667 46.6908L42.673 46.7383L42.6789 46.7916V46.845C42.7263 47.6989 42.2638 48.4462 41.6411 48.5114C41.0185 48.5766 40.473 47.9361 40.4256 47.0822C40.39 46.4951 40.6035 45.9555 40.9415 45.6531L41.0008 45.5997C40.6628 45.3566 40.4256 44.8881 40.4018 44.3247C40.3603 43.4708 40.8288 42.7295 41.4573 42.6761C42.08 42.6168 42.6196 43.2692 42.6552 44.1231C42.6848 44.7161 42.4714 45.2498 42.1274 45.5463L42.0681 45.5819L42.0681 45.5819Z" fill="black"/>
<path d="M22.3043 23.7766L22.2924 29.6713L25.2929 29.6476L22.3043 23.7766L22.3043 23.7766ZM22.0018 24.0198L18.8353 29.6416H22.0077L22.0018 24.0198H22.0018ZM43.5868 24.1206L43.6106 29.7839H46.7474L43.5868 24.1206H43.5868ZM43.3259 24.1502L40.3254 29.7958H43.308L43.3258 24.1502H43.3259Z" fill="black" stroke="white" stroke-width="0.339563" stroke-miterlimit="10.433"/>
<path d="M32.9722 64.0838L34.5673 64.0423L36.1387 63.9236L37.6923 63.7279L39.2222 63.4552L40.7224 63.1053L42.193 62.6902L43.6339 62.2039L45.0452 61.6465L46.415 61.0238L47.7551 60.3418L49.0537 59.5946L50.3108 58.7881L51.5264 57.9223L52.7005 57.0031L53.8213 56.0246L54.9005 54.9987L55.9264 53.9194L56.9048 52.7926L57.8239 51.6244L58.6896 50.4087L59.4961 49.1515L60.2432 47.8469L60.9251 46.5125L61.5478 45.1368L62.1052 43.7313L62.5914 42.2903L63.0065 40.8137L63.3563 39.3133L63.6291 37.7893L63.8247 36.2355L63.9433 34.6581L63.9848 33.0629C63.9848 15.9363 50.0974 2.04785 32.9721 2.04785C15.8409 2.04785 1.95355 15.9363 1.95355 33.0629C1.95355 50.1953 15.8409 64.0837 32.9721 64.0837L32.9722 64.0838ZM32.9722 56.6055L34.1818 56.5759L35.3797 56.481L36.5538 56.3327L37.716 56.1251L38.8545 55.8642L39.9693 55.544L41.0663 55.1763L42.1337 54.7553L43.1773 54.2808L44.1913 53.7649L45.1757 53.1956L46.1304 52.5848L47.0554 51.9265L47.9449 51.2267L48.7987 50.4914L49.617 49.7086L50.3938 48.8902L51.1351 48.0363L51.8348 47.1468L52.4871 46.2276L53.1037 45.2728L53.667 44.2825L54.1889 43.2684L54.6573 42.2246L55.0784 41.1572L55.4519 40.0661L55.7662 38.9453L56.033 37.8067L56.2347 36.6503L56.3888 35.4702L56.4778 34.2723L56.5074 33.0625C56.5074 20.0634 45.9705 9.52571 32.9724 9.52571C19.9684 9.52571 9.43152 20.0634 9.43152 33.0625C9.43152 46.0616 19.9684 56.6051 32.9724 56.6051L32.9722 56.6055Z" stroke="black" stroke-width="0.445383" stroke-miterlimit="10.433"/>
<path d="M32.0649 4.20068L28.7027 4.56838L28.7798 5.58846L28.9221 5.57066C28.9815 4.90647 29.1296 4.77596 29.7878 4.7048L30.108 4.66921L30.4342 7.6521C30.4816 8.0909 30.4757 8.23331 29.936 8.31632L29.9242 8.429L31.6676 8.23922L31.6795 8.12654C31.1754 8.1621 31.0924 8.05533 31.0449 7.6521L30.7189 4.60393L31.039 4.56835C31.6913 4.49718 31.8752 4.58618 32.0709 5.22664L32.2132 5.21478L32.0649 4.20069L32.0649 4.20068ZM35.5395 4.27185L35.4505 4.27778L35.3616 4.28371L35.2667 4.3015L35.1777 4.3193L35.0889 4.33709L35 4.36674L34.911 4.39639L34.828 4.42605L34.7391 4.46756L34.656 4.50908L34.5789 4.55652L34.5019 4.6099L34.4248 4.66327L34.3477 4.72258L34.2765 4.78781L34.2113 4.85305L34.1462 4.93015L34.081 5.00725L34.0217 5.08434L33.9683 5.1733L33.9149 5.26226L33.8675 5.35715L33.826 5.45797L33.7845 5.56472L33.7489 5.67147L33.7192 5.78415L33.6955 5.90259L33.6718 6.0212L33.654 6.15167H33.6538C33.5234 7.42663 34.2645 8.28675 35.3971 8.39937C36.4823 8.51204 37.4309 7.8181 37.5614 6.54311C37.6978 5.17321 36.7965 4.38453 35.8181 4.28371L35.7292 4.27184H35.6343H35.5394L35.5395 4.27185ZM35.6851 4.49076C35.7239 4.49098 35.7624 4.49314 35.8006 4.49722L35.8539 4.50315L35.9132 4.51501L35.9666 4.52687L36.0259 4.54466L36.0793 4.56245L36.1327 4.58618L36.192 4.6099L36.2453 4.63955L36.2928 4.6692L36.3461 4.70479L36.3936 4.7463L36.4469 4.78781L36.4885 4.83526L36.5359 4.8827L36.5774 4.93608L36.6189 4.99539L36.6604 5.05469L36.696 5.11993L36.7257 5.1911L36.7612 5.26226L36.7909 5.33936L36.8146 5.42221L36.8383 5.50524L36.8561 5.5942L36.8739 5.68909L36.8858 5.78991L36.8917 5.89073L36.8976 5.99748L36.9036 6.11016L36.8976 6.22284L36.8917 6.34738L36.8799 6.47192C36.7494 7.78251 36.0852 8.25093 35.421 8.18565C34.7569 8.12041 34.2055 7.52745 34.336 6.21096C34.4694 4.93225 35.1032 4.48759 35.6851 4.49071L35.6851 4.49076ZM28.3646 4.65141L27.0066 5.01911L27.0363 5.13179C27.4395 5.0547 27.6115 5.05473 27.7953 5.71891L28.3172 7.65806H28.3053L25.3345 5.46984L24.3441 5.73671L24.3738 5.84939C24.605 5.78416 24.7059 5.78993 25.0201 6.01527L25.708 8.57135C25.88 9.19997 25.7792 9.31842 25.3463 9.46666L25.3582 9.57341L26.716 9.20572L26.7101 9.09321C26.2831 9.19399 26.123 9.09912 25.9629 8.50015L25.3522 6.24057H25.3641L28.7678 8.72547L28.8686 8.70175L28.0502 5.65358L28.0384 5.62393L28.0325 5.59428L28.0265 5.56463L28.0206 5.53497L28.0087 5.50532V5.47567L28.0028 5.45195L27.9969 5.42822L27.991 5.39857L27.985 5.37485V5.35113L27.9791 5.33333V5.30961V5.28589V5.2681L27.9732 5.25031V5.22658V5.20879V5.191L27.9791 5.17321V5.15542V5.14356L27.985 5.10797L27.991 5.08425L28.0028 5.0546L28.0087 5.03088L28.0206 5.00715L28.0325 4.98343L28.0502 4.96564L28.068 4.94192L28.0858 4.92413L28.1036 4.91227L28.1214 4.89447L28.1451 4.87668L28.1689 4.86482L28.1926 4.85296L28.2163 4.8411L28.2459 4.82331L28.2756 4.81145L28.3052 4.79958L28.3349 4.78772L28.3645 4.77586L28.4001 4.764L28.3645 4.65132L28.3646 4.65141ZM38.3976 4.70479L38.3739 4.81746C38.7297 4.93607 38.8601 5.00727 38.7416 5.4639L38.1011 7.98426C37.9761 8.45857 37.8814 8.52975 37.443 8.44089L37.4133 8.5534L39.038 8.96854L39.0676 8.86179C38.6585 8.73722 38.5636 8.6366 38.6762 8.19774L38.9965 6.92859L39.8385 7.15395L39.8801 7.16581L39.9156 7.17767L39.9571 7.18953L39.9868 7.20139L40.0224 7.20732L40.052 7.21918L40.0817 7.23104L40.1113 7.2429L40.135 7.2607L40.1588 7.27256L40.1825 7.28442L40.2062 7.30221L40.224 7.31407L40.2418 7.33186L40.2596 7.34965L40.2774 7.36745L40.2892 7.38524L40.3011 7.40896L40.313 7.42675L40.3248 7.45047L40.3307 7.48013L40.3367 7.50385L40.3426 7.5335L40.3485 7.56315V7.59281L40.3545 7.62839V7.66397V7.69956L40.3485 7.74107V7.78259L40.3426 7.8241V7.84782L40.3367 7.87154L40.4731 7.90713L40.8168 6.55492L40.6805 6.51933C40.5144 6.94631 40.3782 7.02936 39.9038 6.91075L39.0617 6.69132L39.3878 5.40458C39.4353 5.22667 39.4828 5.2148 39.625 5.25038L40.4195 5.45795C41.0659 5.61807 41.1904 5.7543 41.143 6.29398L41.2913 6.32957L41.487 5.49353L38.3975 4.70476L38.3976 4.70479ZM23.2887 5.94411L20.3829 7.24282L20.4244 7.34364C20.7861 7.21916 20.9344 7.18947 21.0767 7.65203L22.1619 10.0834C22.3991 10.4808 22.2924 10.5875 21.9543 10.7655L22.0018 10.8663L24.9608 9.5497L24.7888 8.51203L24.6404 8.5832C24.6463 9.24143 24.4448 9.52602 23.757 9.8344C22.9446 10.1961 22.9386 10.1902 22.8378 9.9708L22.2329 8.60698L23.0809 8.24521C23.5375 8.04356 23.6562 8.08491 23.9171 8.49412L24.0416 8.43482L23.4782 7.16584L23.3478 7.22515C23.4663 7.64027 23.4663 7.79434 22.9801 8.01375L22.1323 8.38737L21.5926 7.1718C21.5096 6.98797 21.5749 6.9583 21.6875 6.90493L22.4314 6.57842C23.0422 6.30563 23.2259 6.32936 23.5224 6.78006L23.6588 6.72075L23.2911 5.94384L23.2887 5.94411ZM43.5271 6.22285L43.0529 7.13022L43.1892 7.18952C43.5865 6.6558 43.7821 6.6202 44.3751 6.90485L44.6716 7.04719L43.3849 9.75733C43.1892 10.1546 43.118 10.2733 42.6081 10.0598L42.5606 10.1606L44.1439 10.9138L44.1972 10.813C43.7466 10.5817 43.7348 10.4453 43.9068 10.0776L45.2231 7.30814L45.5137 7.45048C46.1126 7.7292 46.2194 7.90107 46.0474 8.55343L46.1779 8.61274L46.581 7.6759L43.5271 6.22286L43.5271 6.22285ZM19.4524 7.64606L18.4622 8.31622L19.0611 11.5719L16.2148 9.83445L15.2305 10.4985L15.2957 10.5936C15.6752 10.3623 15.8057 10.3325 16.0725 10.7239L17.4304 12.7403C17.8514 13.3688 17.7565 13.4103 17.3829 13.7009L17.4422 13.7959L18.6164 13.0071L18.5511 12.9182C18.1776 13.1436 17.9996 13.108 17.6497 12.592L16.3097 10.6113L16.3215 10.6054L19.3931 12.4852L19.4643 12.4319L18.8179 8.75524L18.8238 8.74338L20.3299 10.979C20.6086 11.3882 20.5969 11.5068 20.2174 11.7856L20.2825 11.8805L21.676 10.9375L21.6108 10.8426C21.2787 11.0442 21.1364 11.0739 20.828 10.718L19.3338 8.51204L19.3279 8.48832L19.316 8.47053L19.3101 8.45274L19.2982 8.43495L19.2923 8.41715L19.2864 8.39936L19.2745 8.38157L19.2686 8.36378L19.2567 8.33413L19.2449 8.30447L19.2389 8.27482L19.233 8.24517L19.2271 8.22144L19.2211 8.19179V8.16807V8.14435V8.12063V8.10283L19.2271 8.07911L19.233 8.05539L19.2389 8.0376L19.2508 8.01981L19.2567 7.99608L19.2686 7.97829L19.2864 7.9605L19.2982 7.94271L19.316 7.92492L19.3338 7.90119L19.3516 7.8834L19.3694 7.86561L19.3931 7.84782L19.4109 7.8241L19.4346 7.8063L19.4643 7.78851L19.488 7.76479L19.5175 7.74107L19.4522 7.646L19.4524 7.64606ZM47.1625 7.97818L47.0973 8.07324C47.4472 8.35194 47.4827 8.44672 47.2337 8.81439L45.7632 10.9613L45.7454 10.9968L45.7217 11.0265L45.698 11.0562L45.6742 11.0858L45.6564 11.1155L45.6386 11.1392L45.6149 11.1629L45.5971 11.1866L45.5794 11.2102L45.5616 11.228L45.5378 11.2458L45.52 11.2576L45.5023 11.2697L45.4845 11.2813L45.4607 11.2932L45.443 11.2991L45.4192 11.3051L45.4014 11.311H45.3777L45.354 11.3169L45.3303 11.311H45.3066L45.2828 11.3051L45.2532 11.2991L45.2295 11.2873L45.2117 11.2813L45.1998 11.2754L45.182 11.2697L45.1642 11.2636L45.1524 11.2519L45.1346 11.2458L45.1168 11.2398L45.099 11.228L45.0812 11.2222L45.0634 11.2102L45.0456 11.1985L45.0278 11.1866L45.0101 11.1748L44.9863 11.1629L44.9211 11.2578L46.3029 12.2006L46.3681 12.1057C45.9945 11.8151 46.0123 11.6908 46.2317 11.3587L46.9313 10.3446L48.4316 11.3646L47.7734 12.3371C47.5184 12.7048 47.4235 12.7997 46.9965 12.5328L46.9315 12.6336L48.3071 13.5707L48.3723 13.4758C47.9987 13.1911 48.0165 13.0606 48.2418 12.7344L49.742 10.5343C49.9851 10.1844 50.086 10.1548 50.4833 10.3861L50.5485 10.291L49.1727 9.34819L49.1077 9.44308C49.4516 9.72177 49.4872 9.82265 49.2381 10.1844L48.5799 11.1509L47.0795 10.1191L47.7378 9.15835C47.9809 8.80842 48.0818 8.7847 48.4791 9.01008L48.5443 8.92112L47.1625 7.97812L47.1625 7.97818ZM14.7498 10.7122L12.3126 13.0664L13.0005 13.8255L13.1013 13.7188C12.7396 13.1613 12.7811 12.9655 13.2555 12.5089L13.5165 12.3132L15.5978 14.466C15.8824 14.7625 15.9654 14.8691 15.5859 15.2664L15.669 15.3495L16.926 14.1339L16.8489 14.0509C16.4753 14.3889 16.3391 14.3533 16.0603 14.0627L13.878 11.8864L14.1569 11.6312C14.6372 11.1687 14.8328 11.1332 15.3783 11.5187L15.4851 11.4238L14.7497 10.7121L14.7498 10.7122ZM51.2659 10.9494L51.1888 11.0324C51.4438 11.3111 51.5209 11.4355 51.1948 11.7854L49.3744 13.7247C49.0601 14.0627 48.9236 14.0094 48.6272 13.7662L48.5501 13.8493L50.9101 16.0613L51.7995 15.5097L51.681 15.397C51.0703 15.658 50.7322 15.5809 50.1807 15.0649C49.5284 14.4541 49.5343 14.454 49.7063 14.2702L50.7203 13.1851L51.3904 13.8254C51.7462 14.1753 51.7519 14.294 51.4792 14.6972L51.58 14.7921L52.5347 13.7722L52.428 13.6773C52.09 13.9442 51.9476 14.0095 51.5562 13.6477L50.8863 13.0131L51.7994 12.0405C51.9358 11.8922 51.9892 11.9397 52.0781 12.0286L52.6711 12.5802C53.1574 13.0368 53.2048 13.2148 52.9024 13.6654L53.0151 13.7662L53.5903 13.1257L51.2659 10.9494L51.2659 10.9494ZM11.8153 14.435C11.293 14.4155 10.8383 14.8914 10.5937 15.2072L9.58555 16.5237L9.67451 16.589C9.96507 16.2865 10.06 16.245 10.4395 16.5475L12.503 18.1248C12.835 18.3739 12.9181 18.4689 12.6453 18.8721L12.7343 18.9433L13.7483 17.6267L13.6593 17.5555C13.345 17.9232 13.2205 17.8995 12.9003 17.6563L11.9633 16.933L12.1353 16.6602L14.4718 16.6542L15.0824 15.8892L14.9936 15.818C14.8335 16.0078 14.6556 16.0552 14.448 16.0612L12.4911 16.1145C12.6335 15.8358 12.9951 15.1302 12.3547 14.6439C12.1709 14.5031 11.9893 14.4414 11.8152 14.4349L11.8153 14.435ZM54.9782 14.7209L54.1302 15.2843L54.2132 15.4029C54.8239 15.1301 55.0077 15.1954 55.3931 15.735L55.5829 15.9959L53.1339 17.7393C52.7781 17.9943 52.6536 18.0595 52.3155 17.6266L52.2266 17.6978L53.2406 19.1212L53.3355 19.056C53.0568 18.6349 53.1042 18.5103 53.4363 18.2731L55.9386 16.4941L56.1224 16.761C56.5078 17.2947 56.5138 17.4963 56.0513 17.9825L56.1343 18.1012L56.9467 17.4784L54.9781 14.7209L54.9782 14.7209ZM11.4992 14.9712C11.6369 14.9792 11.7866 15.0322 11.9452 15.1538L11.9748 15.1775L12.0045 15.2012L12.0341 15.225L12.0578 15.2487L12.0816 15.2783L12.1053 15.3021L12.129 15.3317L12.1468 15.3554L12.1646 15.3792L12.1824 15.4088L12.1942 15.4385L12.212 15.4622L12.2239 15.4918L12.2298 15.5156L12.2417 15.5452L12.2476 15.5749L12.2595 15.5986L12.2654 15.6282L12.2713 15.6816L12.2773 15.7409L12.2713 15.7943V15.8536L12.2595 15.907L12.2476 15.9663L12.2357 16.0197L12.218 16.073L12.1942 16.1323L12.1705 16.1857L12.1468 16.2391L12.1231 16.2925L12.0934 16.3399L12.0638 16.3933L12.0341 16.4467L12.0045 16.4941L11.9689 16.5416L11.9392 16.589L11.9096 16.6305L11.874 16.678L11.8444 16.7195L11.8147 16.761L11.7851 16.7964L10.617 15.9011C10.4746 15.7943 10.4746 15.7231 10.6704 15.4741C10.7815 15.3273 11.0861 14.947 11.4992 14.9712L11.4992 14.9712ZM57.35 17.858L57.2492 17.9113C57.4034 18.3087 57.3915 18.4095 57.0002 18.6111L54.6816 19.7913C54.2843 19.993 54.1597 20.0285 53.9107 19.6075L53.8099 19.6609L54.563 21.1434L54.6638 21.09C54.4682 20.6512 54.5452 20.5503 54.901 20.3665L55.9564 19.827L56.1165 20.1233L55.1203 22.2346L55.5591 23.0944L55.6599 23.041C55.5591 22.8157 55.5888 22.6438 55.6718 22.4481L56.4664 20.6571C56.6562 20.9062 57.1423 21.5348 57.8599 21.173C58.6841 20.752 58.3461 19.8091 58.103 19.3347L57.3501 17.858L57.35 17.858ZM57.499 19.1627C57.5891 19.1515 57.6525 19.2205 57.7592 19.4295C57.8719 19.649 58.2099 20.3605 57.5042 20.7223L57.4686 20.7401L57.4331 20.7578L57.3975 20.7697L57.3619 20.7816L57.3322 20.7934L57.2967 20.7994L57.2611 20.8112L57.2314 20.8172L57.2018 20.8231H57.1662H57.1366L57.1069 20.829L57.0772 20.8231H57.0476H57.0179L56.9883 20.8172L56.9646 20.8112L56.9349 20.8053L56.8816 20.7875L56.8282 20.7638L56.7807 20.7401L56.7333 20.7104L56.6859 20.6807L56.6384 20.6452L56.5969 20.6096L56.5495 20.5681L56.5139 20.5266L56.4724 20.485L56.4368 20.4376L56.3953 20.3901L56.3597 20.3427L56.33 20.2953L56.2945 20.2419L56.2648 20.1944L56.2352 20.147L56.2055 20.0936L56.1818 20.0462L56.1521 19.9987L56.1284 19.9572L56.1047 19.9099L56.081 19.8684V19.8683L57.3975 19.1983C57.436 19.179 57.4689 19.1664 57.499 19.1627L57.499 19.1627ZM7.79479 19.2042L7.74142 19.305L9.74579 21.8016C9.94742 22.0566 10.2321 22.4302 10.2854 22.5904C10.3329 22.7446 10.2973 22.8395 10.2617 22.9225L10.3566 22.9758L10.9198 21.932L10.8249 21.8786C10.7597 21.9913 10.6294 22.2344 10.404 22.1159C10.3448 22.0862 10.2795 22.0328 10.2321 21.9676L9.73986 21.3923L10.4871 20.0047L11.1096 20.0641C11.1985 20.07 11.3883 20.0996 11.4772 20.1412C11.667 20.2479 11.6018 20.4257 11.5009 20.6214L11.5958 20.6747L12.3252 19.3227L12.2244 19.2693C12.0821 19.4947 11.9872 19.5362 11.5069 19.5006L7.7948 19.2041L7.79479 19.2042ZM8.58368 19.9335L10.3685 20.1054L9.71039 21.3272L8.58367 19.9335L8.58368 19.9335ZM7.4392 21.2273C6.90986 21.2596 6.50332 21.7694 6.27685 22.4006L5.74331 23.8949L5.84988 23.9305C6.03371 23.5331 6.12862 23.4975 6.55557 23.6695L9.00457 24.5472C9.38406 24.6599 9.50863 24.7074 9.37817 25.1937L9.52643 25.1878L10.0898 23.6102H9.94153C9.7755 24.0431 9.65683 24.1084 9.22398 23.9601L8.1921 23.5924C8.27518 23.462 8.31664 23.3552 8.36408 23.2188C8.57755 22.6258 8.60719 22.2286 8.46489 21.9024C8.40561 21.7779 8.26344 21.4457 7.82461 21.2856C7.69008 21.2378 7.56131 21.2199 7.43915 21.2274L7.4392 21.2273ZM7.26897 21.8469C7.37148 21.8446 7.48517 21.8629 7.61117 21.9083C8.47102 22.2167 8.20419 22.9697 8.12709 23.1773L8.1093 23.2247L8.09744 23.2663L8.07965 23.3078L8.06186 23.3493L8.04407 23.3908L8.02628 23.4323L8.00849 23.4738L7.9907 23.5153L6.52 22.9877C6.33024 22.9224 6.35396 22.8571 6.41325 22.6851C6.4883 22.4749 6.71541 21.8596 7.26894 21.8469L7.26897 21.8469ZM59.6397 22.0329L59.533 22.0684C59.6279 22.4361 59.6397 22.5842 59.1831 22.7325L56.657 23.5746C56.2182 23.7229 56.1233 23.6102 55.981 23.2544L55.8742 23.29L56.9001 26.3618L57.9437 26.2966L57.8903 26.1364C57.2321 26.0771 56.9711 25.8519 56.728 25.1403C56.4493 24.2923 56.4552 24.2922 56.6865 24.2152L58.0979 23.7407L58.3766 24.6244C58.5308 25.0988 58.4833 25.2115 58.0504 25.4309L58.0919 25.5614L59.4144 25.1166L59.367 24.9861C58.9459 25.0632 58.7918 25.0513 58.6198 24.5413L58.3292 23.6636L59.5924 23.2425C59.7881 23.1773 59.8058 23.2484 59.8474 23.3671L60.1024 24.1381C60.3158 24.7667 60.2743 24.9446 59.794 25.1997L59.8414 25.342L60.6478 25.0573L59.6398 22.0329L59.6397 22.0329ZM5.2454 24.9861L4.58716 28.1054L4.69983 28.1292C4.80657 27.7615 4.87183 27.631 5.34029 27.7259L7.94342 28.2774C8.39409 28.3723 8.41783 28.5147 8.36446 28.8942L8.51864 28.8764L9.18858 25.7096V25.7095L8.20421 25.2765L8.17456 25.4426C8.70825 25.8281 8.82688 26.1543 8.67269 26.8896C8.48887 27.7614 8.4829 27.7613 8.23979 27.7138L6.78704 27.4351L6.98866 26.5041C7.09539 26.0179 7.19625 25.9467 7.67656 25.9763L7.70621 25.8399L6.34231 25.5552L6.31859 25.6857C6.72182 25.8399 6.85229 25.9289 6.73963 26.4508L6.54986 27.3579L5.24544 27.0853C5.04383 27.0438 5.0616 26.9667 5.08532 26.8481L5.24981 26.0515C5.39213 25.3991 5.5167 25.2686 6.05631 25.2864L6.08596 25.1443L5.24406 24.9841L5.2454 24.9861ZM57.0893 26.688L56.9766 26.7058L57.1723 27.874L57.2848 27.8562C57.267 27.7316 57.2196 27.459 57.4686 27.4116C57.5339 27.4056 57.6169 27.4056 57.6999 27.4234L58.4412 27.5776L58.6962 29.1312L58.1684 29.4693C58.0913 29.5167 57.9076 29.6294 57.8187 29.6413C57.5934 29.6828 57.5577 29.487 57.5222 29.2676L57.4095 29.2854L57.6586 30.7916L57.7711 30.7738C57.7473 30.5129 57.8007 30.4181 58.198 30.1572L61.3112 28.123L61.2934 28.0046L58.1861 27.2573C57.9015 27.1861 57.4391 27.0794 57.273 26.9667C57.1426 26.8777 57.1129 26.7769 57.0892 26.688L57.0893 26.688ZM58.8387 27.6367L60.576 28.0519L59.064 29.0067L58.8386 27.6367L58.8387 27.6367ZM6.35453 28.8845C5.09502 28.8747 4.43598 29.7754 4.36132 31.1714L4.27237 32.7903L4.39097 32.7962C4.45027 32.3395 4.5096 32.2743 4.96027 32.3277L7.62269 32.4641H7.65828H7.69979L7.72944 32.47H7.76502H7.79467L7.82432 32.4759H7.84804L7.87769 32.4819L7.90141 32.4878L7.92513 32.4937L7.94292 32.4996L7.96664 32.5115L7.98443 32.5174L8.00222 32.5293L8.01408 32.5412L8.03187 32.559L8.04373 32.5708L8.05559 32.5886L8.06745 32.6064L8.07931 32.6242L8.08524 32.6479L8.09118 32.6657L8.10304 32.6954L8.10897 32.7191L8.1149 32.7487V32.7784L8.12083 32.808V32.8436L8.12676 32.8733V32.897V32.9148V32.9326V32.9504V32.9741V32.9919L8.23943 32.9978L8.33431 31.3019C8.42919 29.4635 7.27868 28.9298 6.47818 28.8883C6.43631 28.8861 6.39515 28.8848 6.35452 28.8845L6.35453 28.8845ZM6.26627 29.5367C6.32874 29.5355 6.39146 29.5367 6.45446 29.5405C8.1978 29.6294 8.12083 31.1061 8.09716 31.4917V31.5152V31.539L8.09123 31.5627V31.5864V31.6101L8.0853 31.6279V31.6516L8.07937 31.6694L8.07344 31.6813V31.6991L8.06751 31.7169L8.06158 31.7287L8.05565 31.7406L8.04972 31.7525L8.04379 31.7643L8.03786 31.7762L8.03193 31.7821L8.02007 31.794L8.01414 31.7999L8.00227 31.8058L7.99634 31.8118L7.98448 31.8177L7.97262 31.8236L7.96076 31.8296H7.9489L7.93111 31.8355H7.91925H7.90146H7.8896H7.87181H7.85402H7.83623V31.8357L4.78829 31.6755C4.6697 31.6696 4.55701 31.6637 4.56888 31.3849C4.61038 30.6259 4.78831 30.2996 5.06108 30.0268C5.40871 29.6791 5.829 29.545 6.26629 29.5367L6.26627 29.5367ZM58.9567 30.9043L57.6876 31.106V31.2364C57.7825 31.2364 57.8893 31.2957 57.8893 31.4203C57.8952 31.6041 57.6995 31.9007 57.7054 32.3573C57.7173 33.2112 58.3044 33.6087 58.8144 33.6027C60.0418 33.579 60.1248 31.5744 61.0262 31.5566C61.3998 31.5507 61.5895 31.8532 61.5955 32.1556C61.6073 32.7842 61.0738 33.1757 60.5816 33.2884L60.5875 33.4367L61.8623 33.2825V33.1579C61.7911 33.146 61.6547 33.1223 61.6488 32.9504C61.6488 32.8021 61.8504 32.4759 61.8385 32.1142C61.8326 31.5745 61.4827 31.0348 60.8008 31.0467C60.2078 31.0585 59.9529 31.4441 59.6446 32.0015C59.1405 32.891 58.9389 32.9919 58.6008 32.9978C58.2747 33.0037 57.9307 32.7724 57.9189 32.292C57.907 31.4796 58.6779 31.1652 58.9566 31.0406V30.9042L58.9567 30.9043ZM61.6844 34.1066C61.5955 34.5514 61.5184 34.6285 61.0795 34.5751L59.2236 34.332C58.8619 34.2845 57.7056 34.1364 57.5159 35.613C57.3143 37.1548 58.429 37.2971 58.9034 37.3564L60.463 37.558L60.4867 37.564L60.5164 37.5699H60.5458L60.5696 37.5758L60.5992 37.5818H60.6229L60.6467 37.5877L60.6704 37.5936L60.6941 37.5995H60.7178L60.7593 37.6114L60.7949 37.6233L60.8364 37.6351L60.8661 37.6411L60.9017 37.6529L60.9313 37.6707L60.955 37.6826L60.9847 37.6944L61.0025 37.7122L61.0262 37.73L61.044 37.7478L61.0618 37.7656L61.0796 37.7834L61.0914 37.8071L61.1033 37.8308L61.1151 37.8546L61.1211 37.8783L61.127 37.902L61.1329 37.9317L61.1389 37.9613L61.1448 37.991L61.1507 38.0266V38.0621V38.0977V38.1333V38.1748V38.2163L61.2634 38.2341L61.4413 36.8524L61.3286 36.8406C61.2515 37.2497 61.133 37.3801 60.4926 37.2971L58.8856 37.0895C58.4053 37.0302 58.2157 36.9414 58.097 36.8465C57.8361 36.639 57.6938 36.2772 57.7531 35.8146C57.8888 34.7777 58.7122 34.884 59.098 34.9313L61.0015 35.1804C61.4225 35.2338 61.4876 35.3168 61.4639 35.7912L61.5766 35.8031L61.796 34.1188L61.6833 34.107L61.6844 34.1066ZM7.06507 34.2254L7.08879 34.3915C7.72922 34.5575 7.95464 34.8244 8.07316 35.5657C8.21551 36.4493 8.20357 36.4551 7.96049 36.4907L6.49577 36.7219L6.35938 35.8088C6.28822 35.3165 6.35941 35.2157 6.82193 35.0674L6.79821 34.931L5.42262 35.1505L5.44634 35.2869C5.87922 35.2869 6.02732 35.3223 6.11034 35.8501L6.25859 36.7635L4.94229 36.971C4.74069 37.0007 4.72881 36.9354 4.71102 36.805L4.58056 36.0104C4.47975 35.3522 4.54501 35.1801 5.0609 35.0081L5.03718 34.8599L4.1951 35.0141L4.69323 38.1571L4.8059 38.1393C4.77625 37.7597 4.78814 37.6115 5.26253 37.57L7.89531 37.1489C8.34596 37.048 8.41717 37.1786 8.50018 37.5522L8.61268 37.5344L8.10879 34.3379H8.10861L7.06504 34.2253L7.06507 34.2254ZM57.314 37.6947L56.8396 39.2839L56.9463 39.3195C57.1064 38.8688 57.231 38.8391 57.6224 38.9577L58.7489 39.2958L58.6659 39.6219L56.4837 40.458L56.205 41.3831L56.3177 41.4187C56.4007 41.1874 56.5431 41.0806 56.7387 40.9976L58.5472 40.2506C58.5176 40.5589 58.4287 41.3475 59.1996 41.5847C60.0831 41.8457 60.4923 40.9323 60.6406 40.4223L61.1208 38.839L61.0142 38.8034C60.8482 39.1948 60.771 39.266 60.3441 39.1355L57.8596 38.3882C57.4267 38.2578 57.314 38.2045 57.4207 37.7301L57.314 37.6945L57.314 37.6947ZM8.5823 37.784L8.47576 37.8251C8.59439 38.2758 8.49945 38.3646 8.12588 38.4891L5.58794 39.3075C5.18471 39.4439 5.0898 39.3965 4.9119 38.9754L4.80516 39.011L5.32108 40.6004L5.42782 40.5589C5.32702 40.126 5.35668 40.0311 5.75991 39.8947L6.86279 39.5329L7.44394 41.2645L6.34089 41.6203C5.93174 41.7508 5.83699 41.7093 5.66502 41.2882L5.55235 41.3238L6.0681 42.9072L6.17484 42.8716C6.07403 42.4388 6.10371 42.3438 6.52473 42.2074L8.99739 41.4009L9.0389 41.389L9.07448 41.3771L9.11006 41.3712L9.14564 41.3594L9.18123 41.3475L9.21088 41.3416L9.24053 41.3356L9.27018 41.3297L9.29983 41.3238H9.32355L9.34727 41.3178H9.37099H9.39471L9.41843 41.3238L9.44215 41.3297L9.45994 41.3356L9.48366 41.3416L9.50145 41.3534L9.51924 41.3653L9.53703 41.3771L9.55482 41.3949L9.57261 41.4127L9.5904 41.4305L9.60819 41.4542L9.62598 41.478L9.63192 41.4898L9.64377 41.5017L9.64971 41.5195L9.65564 41.5313L9.6675 41.5491L9.67343 41.5669L9.67936 41.5847L9.69122 41.6025L9.69715 41.6203L9.70901 41.6381L9.71494 41.6559L9.72087 41.6796L9.73273 41.6974L9.73866 41.7211L9.8454 41.6855L9.33539 40.0963L9.22272 40.1319C9.34135 40.5885 9.2525 40.6834 8.90266 40.8317L7.72853 41.2113L7.13552 39.4558L8.25035 39.094C8.67729 38.9577 8.81354 38.934 8.99145 39.4084L9.09819 39.3728L8.58227 37.7835L8.5823 37.784ZM58.9616 39.3613L60.3787 39.7824C60.3787 39.7824 60.5686 39.9011 60.4797 40.2035C60.4086 40.4407 60.1654 41.1877 59.4004 40.9565L59.3589 40.9446L59.3233 40.9328L59.2878 40.9209L59.2581 40.9031L59.2225 40.8912L59.1929 40.8734L59.1632 40.8557L59.1395 40.8379L59.1099 40.8201L59.0861 40.8023L59.0624 40.7845L59.0387 40.7608L59.0209 40.743L59.0031 40.7192L58.9794 40.6955L58.9616 40.6718L58.9497 40.6481L58.9319 40.6244L58.9023 40.5769L58.8845 40.5235L58.8608 40.4702L58.8489 40.4168L58.8371 40.3634L58.8252 40.3041L58.8193 40.2509V40.1916V40.1323V40.073L58.8252 40.0137L58.8311 39.9544L58.8371 39.8951L58.8489 39.8358L58.8549 39.7824L58.8667 39.7231L58.8786 39.6697L58.8964 39.6104L58.9082 39.557L58.9201 39.5037L58.9379 39.4562L58.9497 39.4088L58.9616 39.3613L58.9616 39.3613ZM56.0026 42.1011L55.1961 43.7496L55.3029 43.7971C55.54 43.3168 55.6705 43.293 56.056 43.4828L57.1056 43.9928L57.9298 45.3865L57.9475 45.4161L57.9653 45.4458L57.9831 45.4754L58.0009 45.5051L58.0128 45.5288L58.0306 45.5584L58.0424 45.5822L58.0602 45.6118L58.0721 45.6355L58.0839 45.6593L58.1077 45.7067L58.1255 45.7541L58.1432 45.7957L58.161 45.8372L58.1788 45.8728L58.1907 45.9143L58.2025 45.9499L58.2144 45.9795L58.2203 46.0151L58.2263 46.0446L58.2322 46.0742V46.1039L58.2381 46.1276V46.1573V46.181V46.2047V46.2284L58.2322 46.2521V46.2699L58.2263 46.2937L58.2203 46.3115L58.2085 46.353L58.1966 46.3885L58.1847 46.4301L58.2856 46.4775L58.8608 45.2975L58.76 45.25C58.677 45.4161 58.5643 45.6177 58.3982 45.5347C58.3211 45.4991 58.2796 45.4277 58.2381 45.3625L57.396 43.9927L58.9793 43.7792C59.0742 43.7674 59.1988 43.7733 59.2581 43.803C59.4123 43.8741 59.3529 44.0165 59.2403 44.2656L59.3411 44.313L60.0824 42.8068L59.9756 42.7594C59.8392 42.9906 59.7799 43.0617 58.7066 43.2159L57.325 43.4175L56.388 42.961C55.9729 42.7594 55.8603 42.6822 56.1093 42.1485L56.0026 42.1011L56.0026 42.1011ZM10.1116 42.4985L10.0108 42.5518C10.2242 43.0085 10.1531 43.1269 9.76763 43.3108L7.03403 44.6985L6.9095 44.4079C6.61301 43.8208 6.63082 43.6191 7.1645 43.2041L7.09927 43.0795L6.20384 43.5718L7.73366 46.5903L8.65874 46.1634L8.5935 46.033C7.95308 46.2109 7.77528 46.1159 7.47884 45.5289L7.36024 45.2679L10.0345 43.9157C10.4022 43.6845 10.5327 43.637 10.8055 44.1174L10.9063 44.064L10.1116 42.4985L10.1116 42.4985ZM39.0443 57.2084C38.9557 57.2083 38.8663 57.2188 38.7766 57.2403C38.0116 57.4123 37.6914 58.1536 37.8752 58.9305C37.9819 59.4109 38.4149 60.0275 39.1976 59.8437C39.4882 59.7784 39.7727 59.6005 39.9802 59.3218L39.9921 59.3337V59.3514V59.3752V59.4048V59.4463L39.9862 59.4879L39.9802 59.5353V59.5887L39.9684 59.648L39.9624 59.7132L39.9506 59.7785L39.9328 59.8496L39.915 59.9208L39.8972 59.9979L39.8735 60.075L39.8438 60.158L39.8142 60.2351L39.7786 60.3181L39.743 60.4071L39.7015 60.4901L39.6482 60.5732L39.6007 60.656L39.5414 60.739L39.4763 60.8221L39.4052 60.9051L39.3339 60.9822L39.251 61.0593L39.1621 61.1305L39.1146 61.166L39.0672 61.2016L39.0197 61.2372L38.9664 61.2728L38.913 61.3024L38.8596 61.338L38.8003 61.3677L38.741 61.3973L38.6817 61.4211L38.6165 61.4507L38.6639 61.5636C40.1285 61.1247 40.7215 59.8201 40.4369 58.5807C40.2346 57.7245 39.6644 57.2087 39.0443 57.2085L39.0443 57.2084ZM28.0084 57.3292L26.8345 57.6258L26.8108 57.7088C27.1724 57.6495 27.1723 57.6495 27.2435 57.6673C27.4392 57.7088 27.4036 57.8628 27.3799 57.9874L26.7869 60.6382L26.7809 60.6619L26.775 60.6797L26.7691 60.6975L26.7632 60.7153V60.7331L26.7572 60.7509L26.7513 60.7627L26.7454 60.7805L26.7394 60.7983L26.7335 60.8102L26.7276 60.822L26.7157 60.8339L26.7098 60.8517L26.7039 60.8636L26.6979 60.8695L26.692 60.8813L26.6801 60.8932L26.6742 60.9051L26.6624 60.9229L26.6446 60.9347L26.6268 60.9525L26.609 60.9644L26.5912 60.9762L26.5675 60.9822L26.5497 60.994L26.526 61L26.5082 61.0059H26.4844H26.4607L26.437 61.0118H26.4133H26.3896L26.3599 61.0059H26.3362L26.3065 61H26.2769L26.2532 60.994L26.2235 60.9881L26.1879 60.9822L26.1583 60.9762L26.1286 60.9703L26.1288 60.9705L26.111 61.0593L27.7239 61.421L27.7417 61.3323C27.3029 61.2373 27.2021 61.1425 27.2673 60.8637L28.0501 57.353L28.0085 57.3292L28.0084 57.3292ZM38.8541 57.4004H38.8897H38.9193H38.9549H38.9846L39.0142 57.4063L39.0498 57.4123L39.0794 57.4241L39.1032 57.4301L39.1328 57.4419L39.1625 57.4538L39.1862 57.4656L39.2158 57.4834L39.2395 57.4953L39.2633 57.5131L39.2929 57.5309L39.3344 57.5724L39.3819 57.6139L39.4234 57.6614L39.4649 57.7088L39.5005 57.7622L39.5361 57.8155L39.5716 57.8749L39.6013 57.9282L39.6309 57.9875L39.6606 58.0468L39.6843 58.1119L39.708 58.1712L39.7318 58.2305L39.7495 58.2898L39.7733 58.3491L39.7911 58.4025L39.8029 58.4559L39.8207 58.5093L39.8326 58.5567L39.8444 58.6041L39.8504 58.6457L39.8622 58.6872L39.8681 58.7228L39.9215 58.9481C39.9511 59.0549 39.9452 59.126 39.8859 59.2031C39.7851 59.3336 39.5657 59.4937 39.37 59.5412C38.7533 59.6835 38.4627 59.0311 38.3619 58.5864C38.2492 58.106 38.2552 57.5309 38.7474 57.4182L38.7829 57.4123L38.8185 57.4064L38.8541 57.4005L38.8541 57.4004ZM30.4217 57.8213L30.3033 58.0763L30.0068 58.6753L30.1017 58.7287C30.3211 58.4322 30.4397 58.2661 30.8311 58.2957L32.1296 58.3847L30.6947 61.8717L31.0861 61.8955L32.6278 58.0704L32.6337 57.9755L30.4217 57.8213L30.4217 57.8213ZM35.2002 57.84C35.1601 57.8401 35.119 57.8417 35.0768 57.845C34.5609 57.8865 33.9858 58.2543 34.0332 58.8591V58.9066L34.0391 58.9481L34.045 58.9896L34.0569 59.0311L34.0628 59.0667L34.0747 59.1023L34.0865 59.1379L34.1043 59.1734L34.1162 59.209L34.134 59.2446L34.1518 59.2743L34.1696 59.3039L34.1874 59.3395L34.2111 59.3691L34.2348 59.3988L34.2585 59.4285L34.2882 59.4581L34.3119 59.4878L34.3415 59.5174L34.371 59.5471L34.4066 59.5708L34.4363 59.6004L34.4718 59.636L34.5133 59.6657L34.5489 59.6953L34.5904 59.725L34.6319 59.7606L34.6735 59.7902L34.7209 59.8258L34.7624 59.8614L34.8099 59.897L34.8632 59.9326C34.3592 60.3773 34.1281 60.5848 34.1696 61.1066C34.2051 61.5751 34.6379 62.0317 35.385 61.9725C36.3753 61.8954 36.5236 61.2133 36.4999 60.899C36.4643 60.4957 36.3101 60.1637 35.4621 59.6478C35.7764 59.4521 36.233 59.1614 36.1915 58.6099C36.1582 58.1874 35.8016 57.8379 35.2001 57.8398L35.2002 57.84ZM35.2083 57.9608C35.6155 57.966 35.8254 58.2513 35.8477 58.5626V58.6101V58.6575V58.705V58.7465L35.8417 58.788L35.8358 58.8295L35.8299 58.871L35.818 58.9066L35.8062 58.9422L35.7943 58.9778L35.7824 59.0134L35.7647 59.0489L35.7528 59.0786L35.735 59.1082L35.7172 59.1379L35.6994 59.1675L35.6757 59.1913L35.6579 59.2209L35.6401 59.2446L35.6164 59.2684L35.5927 59.2921L35.5749 59.3158L35.5512 59.3395L35.5274 59.3573L35.4859 59.3988L35.4385 59.4344L35.397 59.47L35.3555 59.4997C35.1302 59.3811 34.5727 59.0845 34.5312 58.616C34.5075 58.3314 34.6795 57.9992 35.1242 57.9636C35.1531 57.9614 35.1811 57.9605 35.2083 57.9608V57.9608ZM35.1005 59.986C35.8239 60.4248 36.0908 60.5848 36.1264 61.0237C36.156 61.4447 35.895 61.7175 35.5156 61.7472H35.474H35.4266H35.3851L35.3436 61.7413L35.3021 61.7353L35.2665 61.7294L35.225 61.7175L35.1894 61.7057L35.1538 61.6879L35.1182 61.676L35.0827 61.6582L35.053 61.6345L35.0234 61.6167L34.9937 61.593L34.9641 61.5633L34.9344 61.5396L34.9107 61.51L34.887 61.4803L34.8632 61.4507L34.8395 61.421L34.8217 61.3854L34.8039 61.3498L34.7862 61.3143L34.7684 61.2787L34.7565 61.2431L34.7387 61.2016L34.7268 61.166L34.7209 61.1245L34.7091 61.083L34.7031 61.0415L34.6972 60.9999L34.6913 60.9584C34.6498 60.4128 34.9166 60.158 35.1005 59.986L35.1005 59.986Z" fill="black"/>
<path d="M44.9269 20.948V20.9539H44.921V20.9599L44.9151 20.9717L44.9092 20.9776L44.9032 20.9895L44.8973 21.0014L44.8914 21.0132L44.8854 21.0251L44.8617 21.0547L44.838 21.0903L44.8143 21.1259L44.7846 21.1674L44.749 21.2149L44.7135 21.2564L44.6779 21.3038L44.6304 21.3513L44.5889 21.4047L44.5356 21.4521L44.4881 21.4995L44.4288 21.5529L44.3695 21.6004L44.3102 21.6419L44.245 21.6834L44.1797 21.7249L44.1086 21.7664L44.0374 21.7961L43.9603 21.8317L43.8832 21.8554L43.8417 21.8672L43.8002 21.8732L43.7587 21.885L43.7172 21.891L43.6757 21.8969H43.6342L43.5867 21.9028H43.5452H43.4978L43.4503 21.8969L43.4029 21.891L43.3555 21.885L43.308 21.8791L43.2606 21.8672C43.2606 21.8672 44.678 22.4899 45.4251 21.0607L44.9269 20.948L44.9269 20.948ZM32.9427 29.618L32.7292 30.4481L31.8753 30.5015L32.5988 30.9641L32.3853 31.7884L33.0434 31.2428L33.7668 31.6995L33.4525 30.9048L34.1108 30.3592L33.2568 30.4125L32.9427 29.618H32.9427ZM20.4539 29.9442V29.9501V29.956L20.4599 29.962V29.9738V29.9916L20.4658 30.0035V30.0213L20.4717 30.045L20.4776 30.0628L20.4836 30.0865L20.4954 30.1102L20.5014 30.1399L20.5132 30.1636L20.5251 30.1933L20.5369 30.2229L20.5488 30.2526L20.5666 30.2822L20.5844 30.3119L20.6022 30.3475L20.62 30.3771L20.6437 30.4068L20.6674 30.4424L20.6971 30.472L20.7267 30.5017L20.7564 30.5372L20.786 30.5669L20.8216 30.5965L20.8631 30.6262L20.9046 30.6559L20.9224 30.6677L20.9461 30.6796L20.9698 30.6914L20.9876 30.7092C20.9876 30.7092 20.7623 30.3297 20.9105 30.1458H24.4032C24.4032 30.1458 24.4862 30.6203 23.9229 31.2133C23.9229 31.2133 24.759 30.6855 24.9191 29.956L20.4532 29.9453L20.4539 29.9442ZM40.6333 30.1043V30.1102H40.6393V30.1221L40.6452 30.128L40.6511 30.1458L40.6571 30.1577L40.663 30.1755L40.6689 30.1992L40.6808 30.217L40.6926 30.2466L40.7045 30.2704L40.7223 30.3L40.7341 30.3297L40.7519 30.3593L40.7697 30.389L40.7934 30.4246L40.8112 30.4601L40.835 30.4957L40.8587 30.5313L40.8883 30.5669L40.9121 30.6025L40.9417 30.6381L40.9773 30.6796L41.0069 30.7152L41.0425 30.7507L41.0781 30.7923L41.1196 30.8278L41.1552 30.8634L41.1967 30.899L41.2441 30.9346L41.2916 30.9702L41.339 31.0058C41.339 31.0058 41.2441 30.5847 41.3924 30.3534H44.8792C44.8792 30.3534 44.8257 30.7091 44.2387 31.4622C44.2387 31.4622 45.1105 31.0591 45.2765 30.1281L40.6333 30.1043L40.6333 30.1043ZM30.6771 31.2606L30.4696 32.0909L29.6158 32.1502L30.3391 32.6009L30.1256 33.431L30.7839 32.8856L31.5074 33.342L31.1931 32.5475L31.8513 32.0019L30.9974 32.0553L30.6771 31.2606H30.6771ZM35.2966 31.3317L35.0831 32.162L34.2292 32.2213L34.9527 32.678L34.7451 33.5081L35.3974 32.9567L36.1267 33.4132L35.8066 32.6246L36.4647 32.0731L35.6109 32.1264L35.2966 31.3318V31.3317ZM28.3053 33.0398L28.0918 33.8639L27.2379 33.9232L27.9614 34.3799L27.7479 35.2102L28.4061 34.6586L29.1296 35.1153L28.8153 34.3206L29.4736 33.775L28.6196 33.8343L28.3053 33.0398L28.3053 33.0398ZM37.7748 33.0457L37.5613 33.8758L36.7133 33.9292L37.4309 34.3858L37.2174 35.2161L37.8816 34.6705L38.605 35.1212L38.2848 34.3325L38.9429 33.7809L38.0891 33.8402L37.7748 33.0457H37.7748ZM25.921 34.8128L25.7134 35.6431L24.8595 35.6965L25.5829 36.1531L25.3695 36.9833L26.0277 36.4376L26.7512 36.8943L26.4369 36.0998L27.0951 35.5541L26.2412 35.6075L25.921 34.8128H25.921ZM40.1529 35.1331L39.9453 35.9634L39.0914 36.0167L39.8149 36.4732L39.6014 37.3035L40.2596 36.752L40.9831 37.2145L40.6629 36.4139L41.3271 35.8744L40.4731 35.9278L40.1529 35.1331L40.1529 35.1331ZM23.425 36.5977L23.2115 37.4221L22.3576 37.4814L23.081 37.938L22.8735 38.7683L23.5258 38.2168L24.2491 38.6734L23.935 37.8787L24.5931 37.3331L23.7393 37.3924L23.425 36.5977V36.5977ZM42.6319 36.8409L42.4243 37.6712L41.5706 37.7245L42.2939 38.1812L42.0804 39.0115L42.7386 38.4659L43.4621 38.9225L43.1478 38.1278L43.8061 37.5822L42.9462 37.6356L42.6319 36.8409L42.6319 36.8409ZM20.7986 38.3888L20.5851 39.2189L19.7312 39.2722L20.4606 39.7289L20.2471 40.5592L20.9054 40.0136L21.6287 40.4702L21.3085 39.6755L21.9667 39.1242L21.1129 39.1833L20.7986 38.3888L20.7986 38.3888ZM45.1109 38.5489L44.9033 39.379L44.0496 39.4324L44.7729 39.889L44.5596 40.7193L45.2176 40.1737L45.9411 40.6304L45.6268 39.8357L46.2851 39.2841L45.4311 39.3434L45.1109 38.5489L45.1109 38.5489ZM18.1955 40.488L17.982 41.3183L17.134 41.3717L17.8516 41.8284L17.644 42.6585L18.3023 42.1128L19.0256 42.5695L18.7113 41.775L19.3695 41.2294L18.5096 41.2827L18.1955 40.488H18.1955ZM47.7498 40.7431L47.5364 41.5733L46.6825 41.6326L47.406 42.0891L47.1984 42.9194L47.8565 42.3679L48.58 42.8245L48.2598 42.03L48.918 41.4844L48.0641 41.5437L47.7498 40.7431L47.7498 40.7431Z" fill="black"/>
</g>
</svg>
